<svg width="339" height="282" viewBox="0 0 339 282" fill="none" xmlns="http://www.w3.org/2000/svg">
<path d="M49.5991 255.141C115.751 289.695 222.955 289.695 289.091 255.141C355.228 220.586 355.243 164.583 289.091 130.028C222.94 95.4738 115.735 95.4816 49.5991 130.028C-16.5369 164.575 -16.5292 220.594 49.5991 255.141Z" fill="#F5F5F5"/>
<path d="M29.9794 200.056H32.7655C34.0425 195.792 34.8796 191.408 35.2637 186.973C35.8708 178.763 31.8939 166.194 24.6094 161.983C17.3249 157.773 13.3792 162.98 15.8229 167.431C18.2666 171.883 26.5084 184.545 26.6173 195.441L29.9794 200.056Z" fill="#BA68C8"/>
<path d="M29.31 200.056H30.0883C30.8487 194.679 30.8487 189.222 30.0883 183.845C28.8275 173.19 25.3254 168.241 22.0723 164.801C22.0011 164.725 21.9028 164.681 21.7992 164.678C21.6956 164.676 21.5951 164.714 21.5197 164.785C21.4444 164.856 21.4004 164.955 21.3975 165.058C21.3946 165.162 21.4329 165.262 21.5042 165.338C24.6716 168.676 28.0804 173.502 29.2867 183.93C30.0577 189.277 30.0655 194.706 29.31 200.056Z" fill="white"/>
<path d="M30.205 200.056C28.7731 193.3 22.2668 185.269 16.1264 183.884C9.00539 182.327 5.54216 186.086 6.56167 189.331C7.58118 192.577 13.208 194.086 18.6713 196.631C20.5109 197.483 22.1925 198.641 23.6444 200.056H30.205Z" fill="#BA68C8"/>
<path d="M27.6135 200.056H28.4462C25.4344 192.483 18.5857 187.082 12.9823 186.584C12.9316 186.579 12.8803 186.584 12.8315 186.598C12.7827 186.613 12.7373 186.638 12.6981 186.67C12.6589 186.703 12.6267 186.743 12.6033 186.788C12.5799 186.834 12.5659 186.883 12.562 186.934C12.5555 186.985 12.5596 187.037 12.574 187.086C12.5884 187.135 12.6127 187.181 12.6456 187.221C12.6785 187.26 12.7191 187.292 12.765 187.315C12.8109 187.338 12.861 187.352 12.9122 187.354C18.2044 187.829 24.6717 192.903 27.6135 200.056Z" fill="white"/>
<path d="M281.433 128.853L287.263 131.912L287.753 128.262C284.866 120.121 287.239 110.891 290.36 107.046C293.481 103.202 292.882 100.377 291.753 99.116C290.625 97.8553 286.344 96.898 282.111 101.848C277.877 106.797 276.904 112.806 277.612 118.868C278.064 122.658 280.056 126.55 281.433 128.853Z" fill="#BA68C8"/>
<path opacity="0.2" d="M281.433 128.853L287.263 131.912L287.753 128.262C284.866 120.121 287.239 110.891 290.36 107.046C293.481 103.202 292.882 100.377 291.753 99.116C290.625 97.8553 286.344 96.898 282.111 101.848C277.877 106.797 276.904 112.806 277.612 118.868C278.064 122.658 280.056 126.55 281.433 128.853Z" fill="black"/>
<path d="M283.838 130.114L284.99 130.721C284.979 130.699 284.966 130.678 284.951 130.659C283.301 128.698 281.169 119.094 282.064 113.467C283.169 106.517 286.733 101.98 289.784 100.058C289.822 100.035 289.854 100.004 289.879 99.9687C289.905 99.933 289.923 99.8925 289.932 99.8496C289.942 99.8068 289.942 99.7625 289.934 99.7193C289.926 99.6762 289.91 99.6351 289.885 99.5986C289.836 99.5242 289.76 99.472 289.672 99.4531C289.585 99.4342 289.494 99.4501 289.418 99.4974C286.305 101.497 282.539 106.19 281.395 113.366C280.57 118.604 282.22 126.9 283.838 130.114Z" fill="white"/>
<path d="M287.379 114.961C289.084 119.141 289.076 121.187 286.298 121.615C283.792 121.989 280.749 125.032 283.574 129.974L300.104 138.644C300.145 137.72 300.374 136.814 300.775 135.98C301.176 135.147 301.742 134.404 302.439 133.795C305.155 131.079 307.661 129.032 307.271 126.013C306.882 122.993 304.26 120.082 303.824 117.452C303.388 114.821 304.727 113.319 307.583 110.37C310.439 107.42 313.031 102.844 309.217 100.758C305.404 98.6725 301.038 102.245 299.217 104.649C297.395 107.054 295.73 108.113 292.142 107.91C288.554 107.708 285.675 110.782 287.379 114.961Z" fill="#BA68C8"/>
<path d="M292.057 134.426C291.979 121.6 301.17 106.58 306.283 103.544C306.359 103.496 306.413 103.421 306.434 103.334C306.456 103.247 306.444 103.155 306.4 103.077C306.353 103.003 306.279 102.949 306.194 102.927C306.108 102.905 306.018 102.917 305.941 102.961C300.758 106.074 291.489 121.102 291.387 134.091L292.057 134.426Z" fill="white"/>
<path d="M294.516 121.094C294.446 121.11 294.372 121.102 294.307 121.071C294.242 121.04 294.189 120.987 294.158 120.923C292.673 118.153 291.424 115.263 290.422 112.284C290.409 112.242 290.404 112.198 290.408 112.154C290.412 112.11 290.424 112.068 290.444 112.029C290.464 111.99 290.492 111.955 290.526 111.927C290.559 111.898 290.598 111.877 290.64 111.864C290.682 111.851 290.726 111.846 290.77 111.849C290.814 111.853 290.856 111.865 290.895 111.886C290.934 111.906 290.969 111.934 290.997 111.967C291.026 112.001 291.047 112.04 291.06 112.082C292.052 115.019 293.286 117.87 294.749 120.604C294.791 120.683 294.799 120.776 294.773 120.862C294.747 120.948 294.688 121.02 294.609 121.063L294.516 121.094Z" fill="white"/>
<path d="M292.306 128.954C292.242 128.966 292.176 128.96 292.116 128.937C292.055 128.913 292.002 128.874 291.963 128.822C291.912 128.748 291.892 128.656 291.908 128.567C291.924 128.478 291.975 128.399 292.049 128.347C295.4 126.001 299.466 124.9 303.544 125.234C303.632 125.246 303.713 125.292 303.768 125.363C303.823 125.433 303.847 125.523 303.836 125.612C303.824 125.7 303.778 125.781 303.707 125.836C303.636 125.891 303.547 125.915 303.458 125.904C299.554 125.606 295.666 126.653 292.438 128.869C292.4 128.906 292.355 128.935 292.306 128.954Z" fill="white"/>
<path d="M194.635 50.6074L175.669 39.6573L156.71 50.6074L175.669 61.5574L194.635 50.6074Z" fill="#F5F5F5"/>
<path d="M175.669 83.4652L194.635 72.5152V50.6073L175.669 61.5573V83.4652Z" fill="#EBEBEB"/>
<path d="M179.326 76.1964C179.226 76.1982 179.127 76.1741 179.038 76.1263C178.917 76.0379 178.821 75.9199 178.758 75.7837C178.696 75.6475 178.669 75.4975 178.681 75.3481V73.0133V72.8421H178.797L180.618 71.7759V74.3675C180.616 74.7012 180.533 75.0295 180.377 75.3248C180.222 75.62 179.997 75.8735 179.723 76.0641C179.606 76.1436 179.468 76.1893 179.326 76.1964ZM178.976 73.1845V75.3325C178.963 75.4325 178.976 75.5341 179.012 75.6279C179.049 75.7218 179.109 75.8049 179.186 75.8695C179.249 75.8977 179.319 75.9082 179.387 75.9C179.456 75.8917 179.521 75.8651 179.575 75.8228C179.809 75.6602 180 75.4453 180.135 75.1953C180.271 74.9453 180.345 74.6671 180.354 74.383V74.1963H179.677L179.544 73.2857L178.976 73.1845ZM179.91 73.9005H180.33V72.3051L179.241 72.9355L179.778 73.0366L179.91 73.9005Z" fill="white"/>
<path d="M179.653 78.0486C179.614 78.0486 179.576 78.033 179.549 78.0053C179.521 77.9776 179.505 77.9399 179.505 77.9007V75.9551C179.504 75.9354 179.507 75.9157 179.514 75.8972C179.521 75.8788 179.532 75.862 179.546 75.848C179.56 75.8341 179.577 75.8232 179.595 75.8162C179.614 75.8092 179.634 75.8061 179.653 75.8072C179.693 75.8072 179.73 75.8228 179.758 75.8505C179.786 75.8783 179.801 75.9159 179.801 75.9551V77.8696C179.804 77.8913 179.803 77.9134 179.797 77.9345C179.791 77.9556 179.781 77.9753 179.767 77.9922C179.753 78.0091 179.736 78.0229 179.716 78.0326C179.697 78.0423 179.675 78.0478 179.653 78.0486Z" fill="white"/>
<path d="M178.805 78.5389C178.779 78.5387 178.754 78.5313 178.732 78.5176C178.71 78.5038 178.692 78.4842 178.681 78.461C178.67 78.4451 178.663 78.427 178.659 78.408C178.656 78.3891 178.657 78.3696 178.663 78.3511C178.668 78.3326 178.677 78.3154 178.689 78.3008C178.702 78.2862 178.717 78.2745 178.735 78.2665L180.424 77.2859C180.441 77.2761 180.459 77.2698 180.479 77.2673C180.498 77.2647 180.517 77.266 180.536 77.2711C180.555 77.2761 180.573 77.2849 180.588 77.2967C180.604 77.3086 180.616 77.3235 180.626 77.3403C180.644 77.3748 180.648 77.4146 180.638 77.4521C180.628 77.4895 180.604 77.5218 180.572 77.5427L178.875 78.5155L178.805 78.5389Z" fill="white"/>
<path d="M184.844 75.1769C184.791 75.1931 184.734 75.1931 184.681 75.1769C184.624 75.1387 184.578 75.0862 184.548 75.0247C184.518 74.9633 184.505 74.8949 184.51 74.8267V74.4297C184.509 74.4107 184.511 74.3916 184.518 74.3737C184.525 74.3558 184.535 74.3395 184.548 74.3256C184.561 74.3118 184.577 74.3007 184.594 74.2932C184.612 74.2857 184.631 74.2818 184.65 74.2819C184.669 74.2807 184.689 74.2838 184.708 74.2908C184.726 74.2979 184.743 74.3087 184.757 74.3227C184.771 74.3366 184.782 74.3534 184.789 74.3719C184.796 74.3903 184.799 74.41 184.798 74.4297V74.7566C184.798 74.8189 184.798 74.85 184.798 74.85C184.798 74.85 184.844 74.85 184.891 74.85C184.982 74.7677 185.053 74.6665 185.1 74.5535C185.147 74.4405 185.169 74.3186 185.163 74.1963V71.6436C185.163 71.6245 185.167 71.6056 185.175 71.5881C185.182 71.5706 185.193 71.5548 185.207 71.5417C185.221 71.5286 185.237 71.5184 185.255 71.5118C185.273 71.5053 185.292 71.5025 185.311 71.5035C185.348 71.5035 185.384 71.5183 185.41 71.5445C185.437 71.5708 185.451 71.6064 185.451 71.6436V74.243C185.457 74.4162 185.423 74.5885 185.351 74.7464C185.28 74.9043 185.173 75.0436 185.039 75.1535C184.976 75.1735 184.91 75.1814 184.844 75.1769Z" fill="white"/>
<path d="M183.303 72.9122V72.6631C183.34 72.015 183.527 71.3844 183.852 70.8221C184.176 70.2598 184.628 69.7814 185.171 69.4256C185.365 69.2621 185.605 69.1624 185.858 69.1399C186.111 69.1174 186.365 69.1732 186.585 69.2998C186.805 69.4264 186.981 69.6177 187.088 69.8476C187.196 70.0776 187.23 70.3351 187.187 70.5852V70.6708L183.303 72.9122ZM186.043 69.4567C185.785 69.4648 185.535 69.5428 185.319 69.6824C184.857 69.9873 184.465 70.3873 184.17 70.8556C183.874 71.324 183.683 71.85 183.607 72.3985L186.891 70.5074C186.903 70.3237 186.869 70.1399 186.789 69.9736C186.71 69.8074 186.59 69.6642 186.44 69.5579C186.319 69.4893 186.182 69.4544 186.043 69.4567Z" fill="white"/>
<path d="M190.051 72.1883C190.013 72.1883 189.976 72.1738 189.949 72.1478C189.921 72.1217 189.905 72.0861 189.903 72.0482V67.0829C189.903 67.0437 189.918 67.0061 189.946 66.9784C189.974 66.9506 190.012 66.9351 190.051 66.9351C190.09 66.9351 190.128 66.9506 190.155 66.9784C190.183 67.0061 190.199 67.0437 190.199 67.0829V72.0482C190.197 72.0861 190.18 72.1217 190.153 72.1478C190.125 72.1738 190.089 72.1883 190.051 72.1883Z" fill="white"/>
<path d="M189.654 68.2114H189.599C189.581 68.2038 189.565 68.1927 189.552 68.1788C189.538 68.1649 189.527 68.1484 189.52 68.1303C189.513 68.1122 189.509 68.0929 189.509 68.0734C189.51 68.054 189.514 68.0347 189.522 68.0169L190.043 66.8184L190.619 67.4877C190.631 67.502 190.64 67.5186 190.646 67.5365C190.652 67.5544 190.654 67.5733 190.653 67.5921C190.652 67.6108 190.646 67.6292 190.638 67.646C190.629 67.6628 190.618 67.6777 190.603 67.69C190.589 67.7023 190.572 67.7116 190.554 67.7174C190.537 67.7233 190.518 67.7256 190.499 67.7241C190.48 67.7227 190.462 67.7176 190.445 67.709C190.428 67.7005 190.413 67.6887 190.401 67.6744L190.121 67.3631L189.786 68.1414C189.773 68.1644 189.754 68.1832 189.73 68.1956C189.707 68.208 189.68 68.2135 189.654 68.2114Z" fill="white"/>
<path d="M191.428 71.4257C191.39 71.4237 191.355 71.4072 191.329 71.3797C191.303 71.3522 191.288 71.3157 191.288 71.2778V66.3125C191.283 66.2908 191.283 66.2683 191.288 66.2465C191.293 66.2248 191.302 66.2044 191.316 66.187C191.33 66.1695 191.348 66.1554 191.368 66.1457C191.388 66.136 191.41 66.131 191.432 66.131C191.454 66.131 191.476 66.136 191.497 66.1457C191.517 66.1554 191.534 66.1695 191.548 66.187C191.562 66.2044 191.572 66.2248 191.576 66.2465C191.581 66.2683 191.581 66.2908 191.576 66.3125V71.2778C191.576 71.317 191.561 71.3546 191.533 71.3824C191.505 71.4101 191.467 71.4257 191.428 71.4257Z" fill="white"/>
<path d="M191 67.4409H190.946C190.928 67.4333 190.912 67.4222 190.898 67.4083C190.884 67.3944 190.874 67.3779 190.866 67.3598C190.859 67.3417 190.856 67.3224 190.856 67.3029C190.856 67.2835 190.86 67.2643 190.868 67.2464L191.389 66.0479L191.965 66.7172C191.991 66.7446 192.005 66.7807 192.005 66.8183C192.005 66.8559 191.991 66.8921 191.965 66.9195C191.937 66.9457 191.899 66.9603 191.86 66.9603C191.821 66.9603 191.784 66.9457 191.755 66.9195L191.483 66.6004L191.148 67.3787C191.132 67.4022 191.11 67.4206 191.083 67.4316C191.057 67.4426 191.028 67.4459 191 67.4409Z" fill="white"/>
<path d="M175.669 83.4652L156.703 72.5152L156.71 50.6073L175.669 61.5573V83.4652Z" fill="#E0E0E0"/>
<path d="M167.217 56.6777L186.167 45.7198L184.027 44.4824L165.069 55.4402L167.217 56.6777Z" fill="white"/>
<path d="M159.582 63.1683L166.376 67.0596C166.767 67.317 167.092 67.6622 167.326 68.0675C167.56 68.4729 167.696 68.9272 167.723 69.3944V73.5814C167.723 74.4452 167.116 74.7955 166.376 74.3596L159.582 70.4684C159.191 70.2114 158.865 69.8664 158.632 69.4609C158.398 69.0555 158.262 68.6009 158.236 68.1336V63.9466C158.236 63.0827 158.843 62.7403 159.582 63.1683Z" fill="#BA68C8"/>
<path d="M159.061 64.2112L159.317 64.3668V69.013L159.061 68.8651V64.2112Z" fill="#BA68C8"/>
<path d="M160.111 64.8182L160.555 65.0829V69.729L160.111 69.4722V64.8182Z" fill="#BA68C8"/>
<path d="M161.162 65.4253L161.419 65.5732V70.2271L161.162 70.0793V65.4253Z" fill="#BA68C8"/>
<path d="M161.948 65.8767L162.469 66.1802V70.8342L161.948 70.5229V65.8767Z" fill="#BA68C8"/>
<path d="M163.255 66.6394L163.52 66.7873V71.4412L163.255 71.2856V66.6394Z" fill="#BA68C8"/>
<path d="M164.018 67.0674L164.563 67.3942V72.0404L164.01 71.7136L164.018 67.0674Z" fill="#BA68C8"/>
<path d="M165.357 67.8535L165.614 68.0014V72.6476L165.357 72.4997V67.8535Z" fill="#BA68C8"/>
<path d="M165.956 68.1881L166.088 68.2659V72.9121L165.956 72.8421V68.1881Z" fill="#BA68C8"/>
<path d="M164.882 67.5967L165.007 67.6745V72.3207L164.882 72.2506V67.5967Z" fill="#BA68C8"/>
<path d="M162.765 66.3593L162.89 66.4293V71.0833L162.765 71.0054V66.3593Z" fill="#BA68C8"/>
<path d="M161.606 65.6899L161.738 65.7678V70.4217L161.606 70.3439V65.6899Z" fill="#BA68C8"/>
<path d="M160.773 65.2307L160.905 65.3085V69.9625L160.773 69.8847V65.2307Z" fill="#BA68C8"/>
<path d="M159.644 64.5459L159.777 64.6237V69.2777L159.644 69.1999V64.5459Z" fill="#BA68C8"/>
<path d="M166.407 68.4528L166.664 68.6006V73.2546L166.407 73.1067V68.4528Z" fill="#BA68C8"/>
<path d="M169.349 46.9573L147.216 34.1862L125.09 46.9573L147.216 59.7363L169.349 46.9573Z" fill="#F5F5F5"/>
<path d="M137.729 54.2574L159.862 41.4862L157.714 40.2488L135.589 53.0199L137.729 54.2574Z" fill="white"/>
<path d="M147.216 99.8864L169.349 87.1152V46.9573L147.216 59.7362V99.8864Z" fill="#EBEBEB"/>
<path d="M150.873 92.6564C150.772 92.6582 150.672 92.6312 150.585 92.5786C150.463 92.4917 150.365 92.3741 150.302 92.2375C150.239 92.1008 150.214 91.9501 150.227 91.8003V89.4656V89.2944H150.352L152.165 88.2281V90.8197C152.161 91.1533 152.078 91.4811 151.923 91.7761C151.767 92.0711 151.543 92.3249 151.27 92.5163C151.153 92.5986 151.016 92.6471 150.873 92.6564ZM150.523 89.6446V91.7926C150.51 91.8925 150.523 91.9941 150.559 92.088C150.596 92.1819 150.656 92.2649 150.733 92.3296C150.796 92.3577 150.866 92.3682 150.934 92.36C151.003 92.3518 151.068 92.3251 151.122 92.2829C151.355 92.1202 151.547 91.9053 151.682 91.6553C151.818 91.4053 151.892 91.1272 151.901 90.8431V90.6563H151.224L151.091 89.7457L150.523 89.6446ZM151.457 90.3606H151.916V88.7651L150.827 89.4033L151.364 89.4967L151.457 90.3606Z" fill="white"/>
<path d="M151.2 94.4775C151.161 94.4775 151.123 94.462 151.096 94.4342C151.068 94.4065 151.052 94.3689 151.052 94.3297V92.3763C151.052 92.3572 151.056 92.3383 151.064 92.3208C151.071 92.3033 151.082 92.2875 151.096 92.2743C151.11 92.2612 151.126 92.2511 151.144 92.2445C151.162 92.238 151.181 92.2351 151.2 92.2362C151.238 92.2361 151.275 92.2506 151.302 92.2767C151.33 92.3028 151.346 92.3384 151.348 92.3763V94.3297C151.346 94.3683 151.33 94.4048 151.303 94.4321C151.275 94.4595 151.239 94.4757 151.2 94.4775Z" fill="white"/>
<path d="M150.36 94.9912C150.335 94.9917 150.31 94.9855 150.288 94.9732C150.266 94.9609 150.248 94.9429 150.235 94.9211C150.218 94.8867 150.213 94.8468 150.223 94.8094C150.233 94.772 150.257 94.7397 150.29 94.7188L151.979 93.7459C151.995 93.7362 152.014 93.7299 152.033 93.7273C152.053 93.7248 152.072 93.7261 152.091 93.7312C152.11 93.7362 152.127 93.7449 152.143 93.7568C152.158 93.7687 152.171 93.7835 152.181 93.8004C152.19 93.8167 152.197 93.8347 152.199 93.8534C152.202 93.8721 152.2 93.8911 152.195 93.9093C152.19 93.9275 152.181 93.9444 152.17 93.9592C152.158 93.9739 152.143 93.9861 152.126 93.995L150.43 94.9756C150.409 94.988 150.384 94.9934 150.36 94.9912Z" fill="white"/>
<path d="M156.391 91.6058C156.334 91.6059 156.278 91.5926 156.228 91.5669C156.171 91.5287 156.125 91.4762 156.095 91.4147C156.065 91.3533 156.052 91.2849 156.057 91.2166V90.812C156.057 90.7929 156.06 90.774 156.068 90.7565C156.075 90.739 156.087 90.7232 156.1 90.71C156.114 90.6969 156.131 90.6868 156.148 90.6802C156.166 90.6736 156.185 90.6708 156.204 90.6719C156.223 90.6719 156.241 90.6755 156.258 90.6825C156.275 90.6896 156.291 90.6999 156.304 90.7129C156.317 90.7259 156.327 90.7413 156.334 90.7583C156.341 90.7753 156.345 90.7936 156.345 90.812V91.2166C156.345 91.2711 156.345 91.3023 156.345 91.31C156.345 91.3178 156.391 91.31 156.438 91.31C156.529 91.2263 156.6 91.1237 156.647 91.0094C156.694 90.8951 156.716 90.772 156.71 90.6485V88.0569C156.71 88.0177 156.726 87.9801 156.754 87.9524C156.781 87.9246 156.819 87.9091 156.858 87.9091C156.897 87.9109 156.933 87.9271 156.961 87.9545C156.988 87.9818 157.004 88.0183 157.006 88.0569V90.6485C157.013 90.8228 156.979 90.9963 156.906 91.1546C156.833 91.313 156.723 91.4516 156.586 91.5591C156.525 91.5893 156.459 91.6052 156.391 91.6058Z" fill="white"/>
<path d="M154.85 89.3411V89.0843C154.887 88.4373 155.075 87.8081 155.4 87.2471C155.724 86.6862 156.176 86.2092 156.718 85.8545C156.912 85.6911 157.152 85.5913 157.405 85.5688C157.658 85.5463 157.912 85.6022 158.132 85.7288C158.352 85.8554 158.528 86.0466 158.635 86.2766C158.743 86.5065 158.777 86.764 158.734 87.0141V87.0998L154.85 89.3411ZM157.59 85.8779C157.333 85.8896 157.084 85.9674 156.866 86.1036C156.403 86.4093 156.011 86.8105 155.715 87.2803C155.42 87.7501 155.229 88.2776 155.154 88.8275L158.438 86.9363C158.45 86.7516 158.414 86.567 158.335 86.3997C158.257 86.2323 158.137 86.0876 157.987 85.9791C157.865 85.9128 157.728 85.878 157.59 85.8779Z" fill="white"/>
<path d="M161.629 88.6173C161.59 88.6173 161.552 88.6017 161.524 88.574C161.497 88.5463 161.481 88.5087 161.481 88.4694V83.5042C161.481 83.465 161.497 83.4274 161.524 83.3996C161.552 83.3719 161.59 83.3563 161.629 83.3563C161.668 83.3563 161.706 83.3719 161.734 83.3996C161.761 83.4274 161.777 83.465 161.777 83.5042V88.4694C161.777 88.5087 161.761 88.5463 161.734 88.574C161.706 88.6017 161.668 88.6173 161.629 88.6173Z" fill="white"/>
<path d="M161.201 84.6404H161.146C161.129 84.6336 161.113 84.6233 161.099 84.6101C161.086 84.5969 161.075 84.5811 161.068 84.5636C161.06 84.5462 161.057 84.5275 161.057 84.5085C161.057 84.4896 161.061 84.471 161.069 84.4536L161.59 83.2551L162.166 83.9244C162.191 83.9533 162.203 83.9909 162.2 84.0288C162.197 84.0668 162.179 84.102 162.15 84.1268C162.121 84.1515 162.084 84.1638 162.046 84.1609C162.008 84.158 161.973 84.1401 161.948 84.1112L161.668 83.7921L161.333 84.5704C161.32 84.5934 161.301 84.6122 161.277 84.6246C161.254 84.637 161.227 84.6425 161.201 84.6404Z" fill="white"/>
<path d="M162.975 87.8468C162.938 87.8468 162.902 87.8321 162.876 87.8058C162.85 87.7795 162.835 87.7439 162.835 87.7067V82.7415C162.834 82.7224 162.837 82.7034 162.844 82.6855C162.85 82.6676 162.86 82.6512 162.873 82.6374C162.886 82.6235 162.902 82.6125 162.92 82.605C162.937 82.5974 162.956 82.5936 162.975 82.5936C162.995 82.5925 163.015 82.5955 163.033 82.6026C163.052 82.6096 163.068 82.6204 163.082 82.6344C163.096 82.6484 163.107 82.6651 163.114 82.6836C163.121 82.702 163.124 82.7218 163.123 82.7415V87.7067C163.123 87.7258 163.119 87.7447 163.112 87.7622C163.104 87.7797 163.093 87.7955 163.079 87.8087C163.066 87.8218 163.049 87.8319 163.031 87.8385C163.013 87.845 162.994 87.8479 162.975 87.8468Z" fill="white"/>
<path d="M162.555 83.8699H162.493C162.458 83.853 162.431 83.8236 162.416 83.7877C162.402 83.7517 162.401 83.7116 162.415 83.6753L162.936 82.4768L163.52 83.1461C163.544 83.1743 163.557 83.2102 163.557 83.2473C163.557 83.2844 163.544 83.3203 163.52 83.3484C163.506 83.3623 163.49 83.3734 163.472 83.3809C163.454 83.3884 163.435 83.3923 163.415 83.3923C163.395 83.3923 163.376 83.3884 163.358 83.3809C163.34 83.3734 163.324 83.3623 163.31 83.3484L163.038 83.0294L162.703 83.8076C162.688 83.8319 162.665 83.8509 162.639 83.862C162.612 83.8732 162.583 83.8759 162.555 83.8699Z" fill="white"/>
<path d="M147.216 99.8864L125.09 87.1152V46.9573L147.216 59.7362V99.8864Z" fill="#E0E0E0"/>
<path d="M129.588 78.7646L136.375 82.6558C136.767 82.9119 137.094 83.2566 137.329 83.6621C137.565 84.0676 137.701 84.5226 137.729 84.9906V89.1854C137.729 90.0415 137.122 90.3917 136.375 89.9636L129.588 86.0724C129.196 85.8168 128.869 85.4721 128.635 85.0663C128.401 84.6606 128.266 84.2053 128.242 83.7376V79.5506C128.242 78.6478 128.849 78.3365 129.588 78.7646Z" fill="#F5F5F5"/>
<path d="M129.067 79.8075L129.324 79.9631V84.6093L129.067 84.4615V79.8075Z" fill="#E0E0E0"/>
<path d="M130.117 80.4144L130.561 80.679V85.333L130.117 85.0684V80.4144Z" fill="#E0E0E0"/>
<path d="M131.16 81.0215L131.425 81.1694L131.417 85.8233L131.16 85.6754V81.0215Z" fill="#E0E0E0"/>
<path d="M131.954 81.4729L132.468 81.7764V86.4304L131.954 86.1191V81.4729Z" fill="#E0E0E0"/>
<path d="M133.262 82.2356L133.518 82.3835V87.0374L133.262 86.8818V82.2356Z" fill="#E0E0E0"/>
<path d="M134.016 82.6637L134.569 82.9906V87.6367L134.016 87.3099V82.6637Z" fill="#E0E0E0"/>
<path d="M135.363 83.4419L135.62 83.5975V88.2437L135.363 88.0959V83.4419Z" fill="#E0E0E0"/>
<path d="M135.962 83.7843L136.094 83.8621V88.5161L135.962 88.4383V83.7843Z" fill="#E0E0E0"/>
<path d="M134.888 83.1929L135.013 83.2707V87.9169L134.888 87.8468V83.1929Z" fill="#E0E0E0"/>
<path d="M132.771 81.9554L132.896 82.0255V86.6795L132.771 86.6016V81.9554Z" fill="#E0E0E0"/>
<path d="M131.612 81.2861L131.736 81.364V86.0179L131.612 85.9401V81.2861Z" fill="#E0E0E0"/>
<path d="M130.779 80.8269L130.911 80.9047V85.5587L130.779 85.4809V80.8269Z" fill="#E0E0E0"/>
<path d="M129.65 80.1421L129.783 80.2199V84.8739L129.65 84.796V80.1421Z" fill="#E0E0E0"/>
<path d="M136.413 84.049L136.67 84.1968V88.8508L136.413 88.7029V84.049Z" fill="#E0E0E0"/>
<path d="M135.589 58.2031L137.729 59.4405V54.2573L135.589 53.0199V58.2031Z" fill="#F0F0F0"/>
<path d="M102.956 88.9363L87.15 79.8152L65.0242 92.5863L80.8305 101.715L102.956 88.9363Z" fill="#F5F5F5"/>
<path d="M80.8305 138.215L102.956 125.444V88.9364L80.8305 101.715V138.215Z" fill="#EBEBEB"/>
<path d="M84.4805 130.954C84.3815 130.956 84.2841 130.929 84.2004 130.877C84.0782 130.789 83.9809 130.671 83.9181 130.535C83.8553 130.398 83.8292 130.248 83.8424 130.098V127.764V127.592H83.9591L85.7802 126.526V129.118C85.7764 129.451 85.6932 129.779 85.5376 130.074C85.382 130.369 85.1584 130.623 84.8852 130.814C84.765 130.896 84.6254 130.944 84.4805 130.954ZM84.1381 127.943V130.091C84.1236 130.191 84.1354 130.293 84.1722 130.387C84.2091 130.481 84.2697 130.564 84.3482 130.628C84.4119 130.653 84.4808 130.661 84.5487 130.653C84.6166 130.645 84.6815 130.62 84.7374 130.581C84.9704 130.418 85.1622 130.203 85.2973 129.953C85.4325 129.703 85.5072 129.425 85.5156 129.141V128.954H84.8385L84.7062 128.044L84.1381 127.943ZM85.072 128.659H85.4923V127.055L84.4027 127.694L84.9397 127.787L85.072 128.659Z" fill="white"/>
<path d="M84.8152 132.807C84.776 132.807 84.7383 132.791 84.7106 132.763C84.6829 132.735 84.6673 132.698 84.6673 132.659V130.705C84.6673 130.686 84.6711 130.667 84.6787 130.65C84.6862 130.632 84.6972 130.616 84.711 130.603C84.7249 130.59 84.7413 130.58 84.7592 130.573C84.7771 130.567 84.7961 130.564 84.8152 130.565C84.8523 130.565 84.8879 130.58 84.9142 130.606C84.9405 130.632 84.9553 130.668 84.9553 130.705V132.659C84.9553 132.697 84.9408 132.733 84.9147 132.761C84.8887 132.788 84.853 132.805 84.8152 132.807Z" fill="white"/>
<path d="M83.9669 133.289C83.9416 133.291 83.9164 133.285 83.8944 133.272C83.8723 133.26 83.8542 133.241 83.8424 133.219C83.8312 133.203 83.8235 133.185 83.8198 133.166C83.8161 133.146 83.8165 133.127 83.8209 133.108C83.8253 133.088 83.8336 133.071 83.8453 133.055C83.8571 133.039 83.872 133.026 83.8891 133.017L85.5857 132.044C85.6025 132.034 85.6211 132.028 85.6404 132.025C85.6597 132.023 85.6793 132.024 85.6981 132.029C85.7169 132.034 85.7346 132.043 85.75 132.055C85.7654 132.067 85.7783 132.081 85.788 132.098C85.7976 132.115 85.8038 132.133 85.8062 132.151C85.8087 132.17 85.8073 132.189 85.8022 132.207C85.7971 132.225 85.7884 132.242 85.7766 132.257C85.7648 132.272 85.7502 132.284 85.7335 132.293L84.0369 133.274C84.0158 133.286 83.9913 133.291 83.9669 133.289Z" fill="white"/>
<path d="M90.0061 129.935C89.9493 129.935 89.8933 129.922 89.8427 129.896C89.7859 129.858 89.7401 129.805 89.7101 129.744C89.68 129.682 89.6667 129.614 89.6715 129.546V129.141C89.6715 129.104 89.6862 129.068 89.7125 129.042C89.7388 129.016 89.7744 129.001 89.8116 129.001C89.8306 129 89.8497 129.003 89.8676 129.009C89.8855 129.016 89.9019 129.026 89.9157 129.039C89.9295 129.052 89.9406 129.068 89.9481 129.086C89.9556 129.103 89.9595 129.122 89.9594 129.141V129.546C89.9594 129.6 89.9594 129.631 89.9594 129.639C89.9594 129.647 90.0061 129.639 90.0528 129.639C90.142 129.554 90.2124 129.451 90.2593 129.337C90.3063 129.223 90.3287 129.101 90.3252 128.978V126.386C90.3201 126.364 90.32 126.342 90.3249 126.32C90.3298 126.298 90.3395 126.278 90.3533 126.26C90.3672 126.243 90.3848 126.229 90.4048 126.219C90.4249 126.209 90.4469 126.204 90.4692 126.204C90.4915 126.204 90.5135 126.209 90.5335 126.219C90.5536 126.229 90.5712 126.243 90.5851 126.26C90.5989 126.278 90.6086 126.298 90.6135 126.32C90.6184 126.342 90.6182 126.364 90.6132 126.386V128.978C90.6196 129.151 90.5857 129.323 90.5141 129.481C90.4425 129.639 90.3352 129.779 90.2007 129.888C90.1402 129.918 90.0737 129.934 90.0061 129.935Z" fill="white"/>
<path d="M88.4652 127.678V127.421C88.5021 126.774 88.6903 126.145 89.0147 125.584C89.3391 125.023 89.7907 124.546 90.333 124.191C90.5263 124.026 90.7661 123.925 91.0193 123.902C91.2725 123.878 91.5268 123.934 91.747 124.061C91.9672 124.188 92.1426 124.381 92.2489 124.612C92.3553 124.843 92.3874 125.101 92.3409 125.351V125.437L88.4652 127.678ZM91.2047 124.215C90.948 124.226 90.6987 124.304 90.4809 124.44C90.0178 124.746 89.6254 125.147 89.3301 125.617C89.0348 126.087 88.8434 126.614 88.7687 127.164L92.053 125.265C92.0639 125.082 92.0283 124.899 91.9494 124.733C91.8704 124.567 91.7508 124.423 91.6016 124.316C91.4828 124.248 91.3491 124.211 91.2124 124.207L91.2047 124.215Z" fill="white"/>
<path d="M95.2438 126.946C95.2046 126.946 95.167 126.931 95.1393 126.903C95.1115 126.875 95.0959 126.838 95.0959 126.798V121.833C95.0959 121.794 95.1115 121.756 95.1393 121.729C95.167 121.701 95.2046 121.685 95.2438 121.685C95.283 121.685 95.3206 121.701 95.3484 121.729C95.3761 121.756 95.3917 121.794 95.3917 121.833V126.798C95.3917 126.838 95.3761 126.875 95.3484 126.903C95.3206 126.931 95.283 126.946 95.2438 126.946Z" fill="white"/>
<path d="M94.8158 123.008H94.7613C94.7437 123.002 94.7276 122.991 94.7141 122.978C94.7005 122.965 94.6898 122.949 94.6825 122.932C94.6753 122.914 94.6716 122.895 94.6718 122.876C94.6719 122.858 94.6759 122.839 94.6835 122.822L95.2049 121.623L95.7808 122.292C95.8056 122.321 95.8179 122.359 95.815 122.397C95.812 122.435 95.7942 122.47 95.7653 122.495C95.751 122.507 95.7344 122.516 95.7165 122.522C95.6985 122.528 95.6796 122.53 95.6609 122.529C95.6229 122.526 95.5877 122.508 95.5629 122.479L95.2827 122.16L94.9481 122.938C94.9349 122.961 94.9155 122.98 94.8921 122.992C94.8687 123.005 94.8422 123.01 94.8158 123.008Z" fill="white"/>
<path d="M96.5902 126.176C96.5523 126.176 96.5158 126.161 96.4883 126.135C96.4608 126.109 96.4443 126.074 96.4423 126.036V121.07C96.4423 121.031 96.4579 120.994 96.4856 120.966C96.5134 120.938 96.551 120.923 96.5902 120.923C96.6099 120.921 96.6296 120.925 96.6481 120.932C96.6665 120.939 96.6833 120.949 96.6973 120.963C96.7112 120.977 96.7221 120.994 96.7291 121.013C96.7361 121.031 96.7392 121.051 96.7381 121.07V126.036C96.7381 126.055 96.7342 126.074 96.7267 126.091C96.7192 126.109 96.7082 126.125 96.6943 126.138C96.6805 126.151 96.6641 126.161 96.6462 126.167C96.6283 126.174 96.6092 126.177 96.5902 126.176Z" fill="white"/>
<path d="M96.1621 122.23C96.1445 122.237 96.1252 122.237 96.1076 122.23C96.09 122.223 96.0739 122.213 96.0604 122.2C96.0468 122.187 96.0361 122.171 96.0288 122.153C96.0216 122.136 96.0179 122.117 96.0181 122.098C96.0182 122.079 96.0222 122.061 96.0298 122.043L96.5512 120.845L97.1271 121.514C97.1529 121.542 97.1672 121.578 97.1672 121.615C97.1672 121.653 97.1529 121.689 97.1271 121.716C97.1134 121.73 97.097 121.741 97.079 121.749C97.061 121.756 97.0416 121.76 97.0221 121.76C97.0025 121.76 96.9832 121.756 96.9652 121.749C96.9471 121.741 96.9308 121.73 96.917 121.716L96.6446 121.397L96.31 122.176C96.293 122.198 96.2701 122.215 96.2439 122.224C96.2177 122.234 96.1894 122.236 96.1621 122.23Z" fill="white"/>
<path d="M80.8305 138.215L65.0242 129.094V92.5864L80.8305 101.715V138.215Z" fill="#E0E0E0"/>
<path d="M72.3631 102.011L74.5033 103.248V98.0653L72.3631 96.8279V102.011Z" fill="#F5F5F5"/>
<path d="M74.5033 98.0653L96.6369 85.2864L94.4889 84.049L72.3631 96.8279L74.5033 98.0653Z" fill="white"/>
<path d="M74.5033 119.965L46.0581 103.544L17.6051 119.965L46.0581 136.394L74.5033 119.965Z" fill="#F5F5F5"/>
<path d="M46.0581 158.294L74.5033 141.873V119.965L46.0581 136.394V158.294Z" fill="#EBEBEB"/>
<path d="M49.7081 151.026C49.6096 151.024 49.5133 150.997 49.4279 150.948C49.3063 150.86 49.2094 150.742 49.1467 150.606C49.084 150.469 49.0575 150.319 49.0699 150.169V147.835V147.663H49.1867L51.0078 146.589V149.189C51.0027 149.521 50.919 149.847 50.7634 150.141C50.6078 150.434 50.3849 150.687 50.1128 150.878C49.993 150.961 49.8535 151.012 49.7081 151.026ZM49.3579 148.014V150.162C49.344 150.261 49.3561 150.361 49.393 150.454C49.4298 150.547 49.4901 150.628 49.568 150.691C49.6317 150.72 49.702 150.732 49.7717 150.725C49.8414 150.718 49.9081 150.693 49.9649 150.652C50.1971 150.488 50.3882 150.273 50.5233 150.024C50.6583 149.774 50.7336 149.496 50.7432 149.212V149.018H50.0427L49.9104 148.107L49.3579 148.014ZM50.2918 148.73H50.7432V147.134L49.6614 147.772L50.1984 147.866L50.2918 148.73Z" fill="white"/>
<path d="M50.035 152.878C50.0166 152.878 49.9984 152.874 49.9814 152.867C49.9644 152.86 49.9489 152.85 49.9359 152.837C49.9229 152.824 49.9126 152.808 49.9055 152.791C49.8985 152.774 49.8949 152.756 49.8949 152.738V150.784C49.8898 150.763 49.8897 150.74 49.8946 150.718C49.8994 150.696 49.9092 150.676 49.923 150.659C49.9368 150.641 49.9545 150.627 49.9745 150.617C49.9946 150.608 50.0166 150.603 50.0389 150.603C50.0611 150.603 50.0831 150.608 50.1032 150.617C50.1233 150.627 50.1409 150.641 50.1547 150.659C50.1686 150.676 50.1783 150.696 50.1832 150.718C50.188 150.74 50.1879 150.763 50.1828 150.784V152.738C50.1829 152.757 50.179 152.776 50.1715 152.793C50.164 152.811 50.1529 152.826 50.1391 152.84C50.1252 152.853 50.1089 152.863 50.091 152.869C50.0731 152.876 50.054 152.879 50.035 152.878Z" fill="white"/>
<path d="M49.1867 153.36C49.1555 153.358 49.1257 153.347 49.1017 153.327C49.0776 153.307 49.0605 153.28 49.0527 153.25C49.0449 153.219 49.0469 153.187 49.0584 153.158C49.0699 153.129 49.0903 153.105 49.1166 153.088L50.8132 152.115C50.8286 152.104 50.8463 152.096 50.8649 152.093C50.8835 152.089 50.9027 152.09 50.9212 152.094C50.9396 152.098 50.9569 152.107 50.9718 152.118C50.9868 152.13 50.999 152.145 51.0078 152.162C51.0189 152.178 51.0266 152.196 51.0303 152.215C51.034 152.234 51.0337 152.254 51.0293 152.273C51.0249 152.292 51.0165 152.31 51.0048 152.326C50.993 152.342 50.9782 152.355 50.9611 152.364L49.2645 153.36H49.1867Z" fill="white"/>
<path d="M55.2259 150.014C55.1747 150.025 55.1215 150.025 55.0703 150.014C55.0108 149.976 54.9627 149.923 54.9312 149.86C54.8997 149.796 54.8859 149.726 54.8913 149.656V149.259C54.8913 149.22 54.9069 149.182 54.9346 149.154C54.9623 149.127 54.9999 149.111 55.0391 149.111C55.0784 149.111 55.116 149.127 55.1437 149.154C55.1714 149.182 55.187 149.22 55.187 149.259V149.656C55.1763 149.689 55.1763 149.724 55.187 149.757C55.187 149.757 55.2337 149.757 55.2882 149.757C55.376 149.671 55.4449 149.568 55.4905 149.454C55.5361 149.34 55.5573 149.218 55.5528 149.095V146.504C55.5547 146.465 55.5709 146.429 55.5982 146.401C55.6255 146.374 55.6621 146.358 55.7007 146.356C55.7399 146.356 55.7775 146.372 55.8052 146.399C55.8329 146.427 55.8485 146.465 55.8485 146.504V149.095C55.8549 149.269 55.821 149.441 55.7494 149.599C55.6779 149.757 55.5706 149.896 55.4361 150.006C55.3676 150.025 55.2956 150.028 55.2259 150.014Z" fill="white"/>
<path d="M53.6927 147.749V147.492C53.7265 146.845 53.9135 146.214 54.2381 145.653C54.5628 145.091 55.016 144.615 55.5606 144.262C55.7539 144.097 55.9936 143.996 56.2469 143.973C56.5001 143.949 56.7543 144.005 56.9745 144.132C57.1947 144.26 57.3701 144.452 57.4765 144.683C57.5828 144.914 57.615 145.172 57.5685 145.422V145.508L53.6927 147.749ZM56.4322 144.286C56.1734 144.299 55.9219 144.377 55.7006 144.512C55.239 144.818 54.8481 145.22 54.5542 145.689C54.2602 146.159 54.07 146.686 53.9963 147.235L57.2727 145.336C57.2853 145.154 57.2512 144.971 57.1736 144.804C57.096 144.638 56.9774 144.495 56.8291 144.387C56.7082 144.318 56.5712 144.284 56.4322 144.286Z" fill="white"/>
<path d="M60.4713 147.025C60.4516 147.026 60.4319 147.023 60.4134 147.016C60.395 147.009 60.3782 146.998 60.3643 146.984C60.3503 146.971 60.3395 146.954 60.3324 146.935C60.3254 146.917 60.3223 146.897 60.3235 146.877V141.912C60.3184 141.89 60.3183 141.868 60.3232 141.846C60.328 141.824 60.3377 141.804 60.3516 141.787C60.3654 141.769 60.383 141.755 60.4031 141.745C60.4232 141.736 60.4452 141.731 60.4675 141.731C60.4897 141.731 60.5117 141.736 60.5318 141.745C60.5519 141.755 60.5695 141.769 60.5833 141.787C60.5972 141.804 60.6069 141.824 60.6117 141.846C60.6166 141.868 60.6165 141.89 60.6114 141.912V146.877C60.6125 146.896 60.6096 146.916 60.6031 146.933C60.5965 146.951 60.5864 146.968 60.5733 146.982C60.5601 146.995 60.5443 147.006 60.5268 147.014C60.5093 147.021 60.4904 147.025 60.4713 147.025Z" fill="white"/>
<path d="M60.0823 143.048H60.02C60.0021 143.041 59.9859 143.03 59.9724 143.016C59.959 143.002 59.9487 142.985 59.9421 142.966C59.9355 142.948 59.9328 142.929 59.9342 142.909C59.9355 142.89 59.9409 142.871 59.95 142.854L60.4636 141.655L61.0473 142.325C61.0731 142.355 61.086 142.393 61.083 142.433C61.0801 142.472 61.0617 142.509 61.0317 142.535C61.0018 142.56 60.9629 142.573 60.9235 142.57C60.884 142.568 60.8474 142.549 60.8216 142.519L60.5492 142.2L60.2146 142.978C60.2007 143.001 60.1812 143.019 60.1579 143.031C60.1347 143.044 60.1086 143.049 60.0823 143.048Z" fill="white"/>
<path d="M61.8177 146.255C61.7785 146.255 61.7409 146.239 61.7132 146.211C61.6854 146.184 61.6699 146.146 61.6699 146.107V141.142C61.6699 141.102 61.6854 141.065 61.7132 141.037C61.7409 141.009 61.7785 140.994 61.8177 140.994C61.8569 140.994 61.8946 141.009 61.9223 141.037C61.95 141.065 61.9656 141.102 61.9656 141.142V146.107C61.9656 146.146 61.95 146.184 61.9223 146.211C61.8946 146.239 61.8569 146.255 61.8177 146.255Z" fill="white"/>
<path d="M61.3897 142.278H61.3352C61.3176 142.271 61.3015 142.261 61.288 142.248C61.2744 142.234 61.2637 142.219 61.2564 142.201C61.2492 142.184 61.2455 142.165 61.2457 142.146C61.2458 142.127 61.2498 142.109 61.2574 142.091L61.7788 140.885L62.3547 141.554C62.3686 141.568 62.3796 141.584 62.3872 141.602C62.3947 141.62 62.3986 141.64 62.3986 141.659C62.3986 141.679 62.3947 141.698 62.3872 141.716C62.3796 141.734 62.3686 141.751 62.3547 141.764C62.3417 141.778 62.326 141.789 62.3086 141.796C62.2912 141.804 62.2725 141.808 62.2536 141.808C62.2347 141.808 62.216 141.804 62.1986 141.796C62.1812 141.789 62.1655 141.778 62.1524 141.764L61.8722 141.445L61.5376 142.223C61.5212 142.246 61.4984 142.264 61.472 142.273C61.4457 142.283 61.417 142.285 61.3897 142.278Z" fill="white"/>
<path d="M46.0581 158.294L17.6051 141.873V119.965L46.0581 136.394V158.294Z" fill="#E0E0E0"/>
<path d="M30.7576 132.744L32.8978 133.982V128.799L30.7576 127.561V132.744Z" fill="#F5F5F5"/>
<path d="M32.8978 128.799L61.3508 112.377L59.2106 111.132L30.7576 127.561L32.8978 128.799Z" fill="white"/>
<path d="M22.1112 133.523L28.8976 137.414C29.2902 137.67 29.6173 138.015 29.8525 138.42C30.0876 138.826 30.2244 139.281 30.2518 139.749V143.943C30.2518 144.799 29.6447 145.15 28.8976 144.722L22.1112 140.83C21.7187 140.575 21.3922 140.23 21.1582 139.824C20.9243 139.419 20.7895 138.963 20.7648 138.496V134.309C20.7648 133.437 21.3719 133.126 22.1112 133.523Z" fill="#F5F5F5"/>
<path d="M21.5898 134.565L21.8466 134.713V139.367L21.5898 139.219V134.565Z" fill="#E0E0E0"/>
<path d="M22.6326 135.172L23.084 135.437V140.083L22.6326 139.826V135.172Z" fill="#E0E0E0"/>
<path d="M23.6833 135.78L23.9479 135.927L23.9401 140.581L23.6833 140.433V135.78Z" fill="#E0E0E0"/>
<path d="M24.4771 136.231L24.9985 136.534L24.9908 141.188L24.4771 140.877V136.231Z" fill="#E0E0E0"/>
<path d="M25.7845 136.994L26.0414 137.142V141.795L25.7845 141.64V136.994Z" fill="#E0E0E0"/>
<path d="M26.5395 137.422L27.092 137.748V142.395L26.5395 142.068V137.422Z" fill="#E0E0E0"/>
<path d="M27.8859 138.208L28.1427 138.356V143.002L27.8859 142.854V138.208Z" fill="#E0E0E0"/>
<path d="M28.4851 138.542L28.6174 138.62V143.266L28.4851 143.196V138.542Z" fill="#E0E0E0"/>
<path d="M27.4111 137.951L27.5357 138.021V142.675L27.4111 142.605V137.951Z" fill="#E0E0E0"/>
<path d="M25.2943 136.713L25.4188 136.783V141.437L25.2943 141.36V136.713Z" fill="#E0E0E0"/>
<path d="M24.1346 136.044L24.2669 136.122V140.768L24.1346 140.698V136.044Z" fill="#E0E0E0"/>
<path d="M23.3019 135.585L23.4342 135.663V140.317L23.3019 140.239V135.585Z" fill="#E0E0E0"/>
<path d="M22.1735 134.9L22.3058 134.978V139.624L22.1735 139.554V134.9Z" fill="#E0E0E0"/>
<path d="M28.9365 138.807L29.1933 138.963V143.609L28.9365 143.461V138.807Z" fill="#E0E0E0"/>
<path d="M68.1839 76.1652L46.0581 63.3862L23.9246 76.1652L46.0581 88.9363L68.1839 76.1652Z" fill="#F5F5F5"/>
<path d="M46.0581 132.744L68.1839 119.965V76.1652L46.0581 88.9363V132.744Z" fill="#EBEBEB"/>
<path d="M49.7081 125.475C49.6103 125.476 49.5138 125.452 49.4279 125.405C49.3063 125.317 49.2094 125.2 49.1467 125.063C49.084 124.927 49.0575 124.777 49.0699 124.627V122.292V122.121H49.1867L51.0078 121.055V123.647C51.0033 123.98 50.9199 124.308 50.7643 124.602C50.6087 124.897 50.3855 125.151 50.1128 125.343C49.9918 125.422 49.8522 125.467 49.7081 125.475ZM49.3579 122.464V124.619C49.3455 124.718 49.3583 124.818 49.3951 124.911C49.4318 125.003 49.4913 125.085 49.568 125.149C49.6317 125.178 49.702 125.189 49.7717 125.183C49.8414 125.176 49.9081 125.151 49.9649 125.11C50.1973 124.945 50.3884 124.728 50.5234 124.477C50.6584 124.226 50.7336 123.947 50.7432 123.662V123.475H50.0427L49.9104 122.565L49.3579 122.464ZM50.2918 123.18H50.7432V121.584L49.6614 122.222L50.1984 122.316L50.2918 123.18Z" fill="white"/>
<path d="M50.0349 127.328C50.0159 127.328 49.997 127.324 49.9795 127.316C49.962 127.309 49.9462 127.298 49.933 127.284C49.9199 127.27 49.9098 127.254 49.9032 127.236C49.8966 127.218 49.8938 127.199 49.8949 127.18V125.234C49.8938 125.215 49.8966 125.196 49.9032 125.178C49.9098 125.16 49.9199 125.144 49.933 125.13C49.9462 125.116 49.962 125.105 49.9795 125.098C49.997 125.09 50.0159 125.086 50.0349 125.086C50.0547 125.085 50.0744 125.088 50.0928 125.095C50.1113 125.102 50.1281 125.113 50.142 125.127C50.156 125.141 50.1668 125.158 50.1739 125.176C50.1809 125.195 50.1839 125.214 50.1828 125.234V127.18C50.1839 127.2 50.1809 127.219 50.1739 127.238C50.1668 127.256 50.156 127.273 50.142 127.287C50.1281 127.301 50.1113 127.312 50.0928 127.319C50.0744 127.326 50.0547 127.329 50.0349 127.328Z" fill="white"/>
<path d="M49.1867 127.818C49.1555 127.816 49.1257 127.804 49.1017 127.784C49.0776 127.764 49.0605 127.737 49.0527 127.707C49.0449 127.677 49.0469 127.645 49.0584 127.616C49.0699 127.587 49.0903 127.562 49.1166 127.546L50.8132 126.565C50.8473 126.545 50.8877 126.54 50.9257 126.55C50.9636 126.56 50.9959 126.585 51.0156 126.619C51.0352 126.653 51.0404 126.694 51.0302 126.732C51.02 126.77 50.9951 126.802 50.9611 126.822L49.2645 127.795C49.2416 127.81 49.2144 127.818 49.1867 127.818Z" fill="white"/>
<path d="M55.2259 124.464C55.1706 124.464 55.1164 124.448 55.0703 124.417C55.0108 124.381 54.9626 124.329 54.9309 124.267C54.8993 124.205 54.8856 124.136 54.8913 124.067V123.67C54.8913 123.631 54.9068 123.593 54.9346 123.565C54.9623 123.538 54.9999 123.522 55.0391 123.522C55.0783 123.522 55.116 123.538 55.1437 123.565C55.1714 123.593 55.187 123.631 55.187 123.67V124.067C55.1763 124.1 55.1763 124.135 55.187 124.168C55.2201 124.177 55.2551 124.177 55.2882 124.168C55.377 124.085 55.4467 123.983 55.4924 123.87C55.538 123.757 55.5587 123.636 55.5528 123.514V120.923C55.5528 120.883 55.5684 120.846 55.5961 120.818C55.6238 120.79 55.6614 120.775 55.7007 120.775C55.7204 120.774 55.7401 120.777 55.7585 120.784C55.777 120.791 55.7938 120.802 55.8077 120.816C55.8217 120.83 55.8325 120.846 55.8396 120.865C55.8466 120.883 55.8496 120.903 55.8485 120.923V123.514C55.8549 123.688 55.821 123.86 55.7494 124.018C55.6779 124.176 55.5706 124.315 55.436 124.425C55.3701 124.454 55.2981 124.468 55.2259 124.464Z" fill="white"/>
<path d="M53.6927 122.23V121.981C53.7278 121.333 53.9152 120.702 54.2397 120.139C54.5642 119.577 55.0167 119.098 55.5606 118.744C55.7556 118.582 55.9954 118.484 56.2478 118.463C56.5001 118.443 56.7528 118.5 56.9717 118.627C57.1906 118.754 57.3652 118.946 57.4719 119.175C57.5786 119.405 57.6123 119.662 57.5685 119.911V119.989L53.6927 122.23ZM56.4322 118.775C56.1734 118.788 55.9219 118.865 55.7006 119C55.2399 119.306 54.8496 119.706 54.5557 120.175C54.2618 120.643 54.0711 121.169 53.9963 121.716L57.2727 119.825C57.2868 119.642 57.2533 119.459 57.1756 119.292C57.0979 119.126 56.9785 118.983 56.8291 118.876C56.7122 118.794 56.5749 118.745 56.4322 118.736V118.775Z" fill="white"/>
<path d="M60.4713 121.452C60.4321 121.452 60.3945 121.436 60.3668 121.408C60.339 121.381 60.3235 121.343 60.3235 121.304V116.339C60.3184 116.317 60.3183 116.294 60.3232 116.273C60.328 116.251 60.3377 116.231 60.3516 116.213C60.3654 116.196 60.383 116.182 60.4031 116.172C60.4232 116.162 60.4452 116.157 60.4675 116.157C60.4897 116.157 60.5117 116.162 60.5318 116.172C60.5519 116.182 60.5695 116.196 60.5833 116.213C60.5972 116.231 60.6069 116.251 60.6117 116.273C60.6166 116.294 60.6165 116.317 60.6114 116.339V121.304C60.6115 121.342 60.597 121.378 60.5709 121.406C60.5448 121.433 60.5092 121.45 60.4713 121.452Z" fill="white"/>
<path d="M60.0823 117.49H60.02C60.0021 117.483 59.9859 117.472 59.9724 117.458C59.959 117.444 59.9487 117.427 59.9421 117.409C59.9355 117.39 59.9328 117.371 59.9342 117.351C59.9355 117.332 59.9409 117.313 59.95 117.296L60.4636 116.097L61.0473 116.767C61.073 116.794 61.0873 116.83 61.0873 116.868C61.0873 116.905 61.073 116.942 61.0473 116.969C61.0186 116.995 60.9811 117.01 60.9422 117.01C60.9034 117.01 60.8659 116.995 60.8372 116.969L60.5648 116.65L60.2301 117.428C60.2148 117.453 60.1925 117.471 60.166 117.483C60.1396 117.494 60.1103 117.497 60.0823 117.49Z" fill="white"/>
<path d="M61.8177 120.674C61.7791 120.672 61.7426 120.656 61.7153 120.628C61.6879 120.601 61.6717 120.564 61.6699 120.526V115.56C61.6699 115.521 61.6854 115.484 61.7132 115.456C61.7409 115.428 61.7785 115.413 61.8177 115.413C61.8569 115.413 61.8946 115.428 61.9223 115.456C61.95 115.484 61.9656 115.521 61.9656 115.56V120.526C61.9637 120.564 61.9475 120.601 61.9202 120.628C61.8929 120.656 61.8563 120.672 61.8177 120.674Z" fill="white"/>
<path d="M61.3897 116.728H61.3353C61.3174 116.72 61.3011 116.709 61.2875 116.695C61.2739 116.681 61.2632 116.665 61.2559 116.647C61.2487 116.629 61.2451 116.609 61.2454 116.59C61.2456 116.57 61.2497 116.551 61.2574 116.533L61.7789 115.335L62.3548 116.004C62.3687 116.018 62.3797 116.034 62.3872 116.052C62.3947 116.07 62.3986 116.09 62.3986 116.109C62.3986 116.129 62.3947 116.148 62.3872 116.166C62.3797 116.184 62.3687 116.2 62.3548 116.214C62.3266 116.238 62.2907 116.252 62.2536 116.252C62.2165 116.252 62.1806 116.238 62.1524 116.214L61.8723 115.895L61.5376 116.673C61.5206 116.695 61.4977 116.712 61.4715 116.722C61.4454 116.732 61.417 116.734 61.3897 116.728Z" fill="white"/>
<path d="M46.0581 132.744L23.9246 119.965V76.1652L46.0581 88.9363V132.744Z" fill="#E0E0E0"/>
<path d="M34.4232 87.4031L36.5711 88.6406V83.4652L34.4232 82.22V87.4031Z" fill="#F5F5F5"/>
<path d="M36.5711 83.4652L58.6969 70.6863L56.5567 69.4489L34.4232 82.22L36.5711 83.4652Z" fill="white"/>
<path d="M28.4306 111.615L35.217 115.506C35.6099 115.761 35.9368 116.106 36.1708 116.512C36.4048 116.917 36.5394 117.373 36.5634 117.841V122.028C36.5634 122.884 35.9642 123.234 35.217 122.806L28.4306 118.915C28.0367 118.66 27.7087 118.316 27.4733 117.91C27.238 117.504 27.102 117.048 27.0765 116.58V112.393C27.0843 111.537 27.6835 111.187 28.4306 111.615Z" fill="#F5F5F5"/>
<path d="M27.9014 112.665L28.1583 112.813V117.467L27.9014 117.312V112.665Z" fill="#E0E0E0"/>
<path d="M28.952 113.272L29.3956 113.529V118.183L28.952 117.919V113.272Z" fill="#E0E0E0"/>
<path d="M30.0027 113.872L30.2595 114.027V118.673L30.0027 118.526V113.872Z" fill="#E0E0E0"/>
<path d="M30.7965 114.323L31.3102 114.634V119.28L30.7965 118.977V114.323Z" fill="#E0E0E0"/>
<path d="M32.104 115.086L32.3608 115.234V119.888L32.104 119.74V115.086Z" fill="#E0E0E0"/>
<path d="M32.8589 115.514L33.4115 115.841V120.495L32.8589 120.168V115.514Z" fill="#E0E0E0"/>
<path d="M34.2053 116.3L34.4621 116.448V121.102L34.2053 120.946V116.3Z" fill="#E0E0E0"/>
<path d="M34.8045 116.642L34.929 116.712V121.366L34.8045 121.288V116.642Z" fill="#E0E0E0"/>
<path d="M33.7228 116.043L33.8551 116.121V120.775L33.7228 120.697V116.043Z" fill="#E0E0E0"/>
<path d="M31.6059 114.806L31.7382 114.883V119.53L31.6059 119.46V114.806Z" fill="#E0E0E0"/>
<path d="M30.4463 114.144L30.5786 114.214V118.868L30.4463 118.79V114.144Z" fill="#E0E0E0"/>
<path d="M29.6213 113.685L29.7459 113.755V118.409L29.6213 118.331V113.685Z" fill="#E0E0E0"/>
<path d="M28.4929 113L28.6174 113.07V117.724L28.4929 117.646V113Z" fill="#E0E0E0"/>
<path d="M35.2481 116.907L35.5127 117.055V121.701L35.2481 121.553V116.907Z" fill="#E0E0E0"/>
<path d="M24.1346 196.748L109.073 245.778C110.118 246.308 111.272 246.584 112.443 246.584C113.614 246.584 114.769 246.308 115.813 245.778L301.917 138.379C303.777 137.305 303.777 135.562 301.917 134.488L216.978 85.4577C215.935 84.9242 214.78 84.646 213.609 84.646C212.437 84.646 211.282 84.9242 210.239 85.4577L24.1346 192.857C22.2746 193.931 22.2746 195.674 24.1346 196.748Z" fill="#455A64"/>
<path d="M70.0439 219.512C71.492 220.243 73.0914 220.623 74.7134 220.623C76.3355 220.623 77.9348 220.243 79.383 219.512C81.9746 218.018 81.9746 215.621 79.383 214.103C77.9359 213.369 76.3361 212.986 74.7134 212.986C73.0908 212.986 71.491 213.369 70.0439 214.103C67.4523 215.621 67.4523 218.033 70.0439 219.512Z" fill="#263238"/>
<path d="M110.669 245.778L25.7301 196.748C24.0646 195.783 23.8934 194.289 25.2086 193.215C24.3779 193.872 23.6949 194.697 23.2041 195.635C22.7133 196.574 22.4258 197.605 22.3602 198.663V201.83C22.4241 202.999 22.7625 204.137 23.3479 205.151C23.9334 206.165 24.7495 207.027 25.7301 207.667L110.669 256.697C111.707 257.24 112.867 257.507 114.039 257.475V246.588C112.865 246.61 111.704 246.331 110.669 245.778Z" fill="#37474F"/>
<path d="M301.909 149.29C302.892 148.652 303.71 147.791 304.297 146.776C304.884 145.762 305.223 144.623 305.287 143.453V140.286C305.224 139.227 304.937 138.194 304.444 137.255C303.952 136.316 303.266 135.492 302.431 134.838C303.754 135.912 303.583 137.406 301.917 138.363L115.813 245.778C114.774 246.319 113.614 246.586 112.443 246.556V257.506C113.614 257.536 114.774 257.269 115.813 256.728L301.909 149.29Z" fill="#263238"/>
<path d="M123.066 235.622L41.7699 188.662C40.6492 188.016 40.6492 186.965 41.7699 186.327L198.915 95.575C199.542 95.2565 200.235 95.0905 200.939 95.0905C201.642 95.0905 202.335 95.2565 202.962 95.575L284.29 142.527C285.403 143.173 285.403 144.216 284.29 144.862L127.082 235.622C126.459 235.935 125.772 236.099 125.074 236.099C124.377 236.099 123.689 235.935 123.066 235.622Z" fill="white"/>
<path d="M90.3096 209.402L99.7965 203.924L96.6368 202.102L87.1499 207.574L90.3096 209.402Z" fill="#BA68C8"/>
<path d="M204.122 143.694L213.609 138.216L210.441 136.394L200.962 141.873L204.122 143.694Z" fill="#BA68C8"/>
<path d="M223.088 132.744L232.575 127.265L229.415 125.444L219.928 130.915L223.088 132.744Z" fill="#BA68C8"/>
<path d="M253.533 113.56C253.901 113.745 254.308 113.841 254.72 113.841C255.132 113.841 255.538 113.745 255.907 113.56C256.05 113.512 256.174 113.419 256.261 113.297C256.349 113.174 256.396 113.027 256.396 112.876C256.396 112.725 256.349 112.577 256.261 112.455C256.174 112.332 256.05 112.24 255.907 112.191C255.539 112.003 255.132 111.905 254.72 111.905C254.307 111.905 253.9 112.003 253.533 112.191C253.39 112.24 253.266 112.332 253.178 112.455C253.091 112.577 253.043 112.725 253.043 112.876C253.043 113.027 253.091 113.174 253.178 113.297C253.266 113.419 253.39 113.512 253.533 113.56Z" fill="#263238"/>
<path d="M257.323 124.308C258.058 124.68 258.87 124.874 259.693 124.874C260.516 124.874 261.328 124.68 262.063 124.308C263.37 123.53 263.37 122.324 262.063 121.569C261.328 121.197 260.516 121.003 259.693 121.003C258.87 121.003 258.058 121.197 257.323 121.569C256.016 122.324 256.016 123.553 257.323 124.308Z" fill="#263238"/>
<path d="M253.977 119.545C254.848 119.039 254.802 118.199 253.875 117.662L238.31 108.657C237.809 108.389 237.252 108.243 236.684 108.232C236.115 108.222 235.553 108.346 235.042 108.595C234.17 109.101 234.217 109.942 235.143 110.479L250.755 119.483C251.25 119.743 251.799 119.884 252.358 119.895C252.918 119.906 253.472 119.786 253.977 119.545Z" fill="#263238"/>
<path d="M227.407 83.0295L227.936 82.7181C227.571 84.0462 227.393 85.4188 227.407 86.7962V88.6951C227.407 95.5127 235.587 112.93 238.598 119.094C238.91 119.74 234.777 124.137 234.777 124.137L239.688 121.304C239.688 121.304 251.961 111.187 251.961 102.875V100.976C251.961 92.6253 246.466 82.687 239.688 78.7724C236.264 76.8034 233.174 76.7334 230.948 78.2276L226.279 80.9048L227.407 83.0295ZM233.547 89.4034C233.547 85.5121 236.295 83.9011 239.688 85.8623C239.408 88.3761 243.999 96.2053 245.821 96.4932C245.821 100.385 243.073 101.996 239.688 100.034C237.906 98.8669 236.424 97.296 235.363 95.449C234.301 93.6019 233.69 91.5308 233.579 89.4034H233.547Z" fill="#BA68C8"/>
<path d="M222.356 91.7381C222.496 100.081 235.166 124.137 235.166 124.137C235.166 124.137 247.276 113.848 247.144 105.505V103.607C247.003 95.2636 241.346 85.4109 234.497 81.613C227.648 77.8152 222.216 81.4885 222.356 89.8392V91.7381ZM228.504 92.3452C228.442 88.4539 231.166 86.7962 234.583 88.6952C236.388 89.8304 237.901 91.3756 238.998 93.2052C240.094 95.0347 240.744 97.0972 240.894 99.2249C240.964 103.116 238.24 104.774 234.816 102.875C233.012 101.737 231.501 100.192 230.405 98.3625C229.308 96.5334 228.657 94.4722 228.504 92.3452Z" fill="#BA68C8"/>
<path opacity="0.1" d="M222.356 91.7381C222.496 100.081 235.166 124.137 235.166 124.137C235.166 124.137 247.276 113.848 247.144 105.505V103.607C247.003 95.2636 241.346 85.4109 234.497 81.613C227.648 77.8152 222.216 81.4885 222.356 89.8392V91.7381ZM228.504 92.3452C228.442 88.4539 231.166 86.7962 234.583 88.6952C236.388 89.8304 237.901 91.3756 238.998 93.2052C240.094 95.0347 240.744 97.0972 240.894 99.2249C240.964 103.116 238.24 104.774 234.816 102.875C233.012 101.737 231.501 100.192 230.405 98.3625C229.308 96.5334 228.657 94.4722 228.504 92.3452Z" fill="black"/>
<path d="M103.665 203.005C111.533 207.535 129.977 204.243 144.865 195.643L185.763 172.038C200.651 163.439 206.332 152.808 198.448 148.286C190.564 143.764 172.104 147.072 157.201 155.664L116.381 179.237C101.501 187.829 95.8041 198.499 103.665 203.005Z" fill="#F0F0F0"/>
<path d="M222.737 5.11839H222.776L229.508 1.22712H229.563C233.804 -0.920862 239.47 -0.329383 245.571 3.63972C257.837 11.5312 267.199 29.7424 266.491 44.3035C266.133 51.5646 263.378 56.5455 259.121 58.7401H259.082L252.342 62.6314H252.296C248.054 64.7872 242.381 64.1879 236.271 60.2266C224.014 52.3273 214.651 34.1239 215.36 19.5628C215.733 12.2939 218.527 7.31307 222.737 5.11839Z" fill="#37474F"/>
<path d="M252.685 62.429L259.105 58.6934H259.152C263.37 56.491 266.156 51.5101 266.514 44.2568C266.826 37.7661 265.137 30.5517 262.086 23.851L255.346 27.7422C258.405 34.443 260.094 41.6574 259.775 48.1558C259.44 55.238 256.763 60.1643 252.685 62.429Z" fill="#263238"/>
<path d="M236.302 60.2189C224.045 52.3196 214.682 34.1162 215.391 19.5551C216.099 4.99393 226.629 -0.414939 238.863 7.47656C251.097 15.3681 260.491 33.5792 259.782 48.1404C259.074 62.7015 248.56 68.1104 236.302 60.2189Z" fill="#455A64"/>
<path d="M246.575 59.1915C253.805 59.5418 254.981 51.409 255.136 47.9069C255.759 35.0657 247.151 18.3332 236.341 11.3678C234.038 9.75439 231.358 8.76257 228.559 8.48826C221.337 8.13804 220.161 16.2708 219.998 19.7729C219.375 32.6142 227.975 49.3466 238.793 56.3509C241.096 57.9643 243.777 58.9562 246.575 59.2305V59.1915Z" fill="#FAFAFA"/>
<path d="M236.17 36.2563C236.255 36.2566 236.34 36.2407 236.419 36.2096C236.582 36.1568 236.722 36.052 236.819 35.9114C236.916 35.7707 236.965 35.602 236.956 35.4314V16.8856C236.956 16.6791 236.874 16.4812 236.728 16.3352C236.582 16.1893 236.384 16.1073 236.178 16.1073C235.972 16.1073 235.774 16.1893 235.628 16.3352C235.482 16.4812 235.4 16.6791 235.4 16.8856V33.1744L226.738 22.0454C226.61 21.8803 226.421 21.7727 226.214 21.7465C226.007 21.7202 225.798 21.7773 225.633 21.9053C225.467 22.0333 225.36 22.2216 225.334 22.4288C225.307 22.6361 225.365 22.8453 225.492 23.0104L235.571 35.9528C235.642 36.0449 235.732 36.12 235.836 36.1725C235.94 36.2251 236.054 36.2537 236.17 36.2563Z" fill="#37474F"/>
<path d="M240.637 49.977C240.673 49.9841 240.71 49.9841 240.746 49.977C240.829 49.9517 240.898 49.8955 240.94 49.8201C240.983 49.7446 240.994 49.6559 240.972 49.5723L236.606 34.8711C236.581 34.7875 236.524 34.7172 236.448 34.6756C236.371 34.634 236.281 34.6245 236.197 34.6493C236.114 34.6741 236.043 34.731 236.002 34.8076C235.96 34.8843 235.951 34.9743 235.976 35.0579L240.334 49.7591C240.356 49.8221 240.397 49.8767 240.451 49.9157C240.506 49.9547 240.571 49.9761 240.637 49.977Z" fill="#BA68C8"/>
<path d="M236.419 31.7502C234.972 30.8241 233.734 31.4623 233.656 33.1744C233.661 34.1083 233.886 35.0279 234.314 35.8583C234.741 36.6886 235.358 37.4063 236.116 37.9529C237.555 38.8868 238.793 38.2487 238.878 36.5365C238.872 35.6019 238.646 34.6819 238.219 33.8505C237.792 33.0192 237.175 32.2998 236.419 31.7502Z" fill="#BA68C8"/>
<path d="M109.283 198.452L118.763 192.973L115.603 191.152L106.124 196.623L109.283 198.452Z" fill="#BA68C8"/>
<path d="M128.25 187.502L137.736 182.024L134.569 180.202L125.09 185.674L128.25 187.502Z" fill="#BA68C8"/>
<path d="M124.35 185.269C124.35 189.845 121.144 195.386 117.183 197.721C115.074 198.943 113.175 198.982 111.867 198.063C111.34 197.649 110.907 197.128 110.597 196.533C110.287 195.939 110.107 195.285 110.07 194.616C110.336 194.491 110.595 194.354 110.848 194.203C114.809 191.923 118.016 186.358 118.016 181.751C118.019 181.41 117.998 181.07 117.953 180.732C118.547 180.418 119.199 180.23 119.869 180.182C120.539 180.134 121.212 180.226 121.845 180.451C123.401 181.105 124.35 182.794 124.35 185.269Z" fill="#263238"/>
<path d="M124.996 175.868L124.864 175.79C122.872 174.731 120.195 174.926 117.183 176.654C111.074 180.179 106.116 188.755 106.116 195.814C106.116 199.363 107.369 201.846 109.392 202.998C111.416 204.149 114.148 203.955 117.175 202.219C123.284 198.694 128.234 190.11 128.234 183.051C128.242 179.502 127.012 177.019 124.996 175.868ZM117.214 197.705C115.097 198.927 113.198 198.966 111.891 198.04C110.739 197.262 110.038 195.705 110.038 193.565C110.038 188.997 113.253 183.448 117.214 181.113C119.019 180.07 120.662 179.891 121.883 180.428C123.393 181.074 124.343 182.763 124.343 185.253C124.351 189.861 121.144 195.425 117.183 197.721L117.214 197.705Z" fill="#37474F"/>
<path d="M122.249 180.638L122.164 180.592C120.872 179.899 119.121 180.031 117.183 181.144C113.221 183.432 110.007 188.997 110.007 193.596C110.007 195.931 110.786 197.487 112.132 198.266C113.478 199.044 115.245 198.888 117.183 197.752C121.144 195.464 124.351 189.899 124.351 185.3C124.351 182.996 123.549 181.378 122.249 180.638ZM117.183 196.087C115.486 197.067 113.961 197.098 112.902 196.351C111.984 195.705 111.416 194.468 111.416 192.756C111.525 190.755 112.104 188.809 113.106 187.074C114.108 185.339 115.505 183.865 117.183 182.771C117.728 182.39 118.354 182.142 119.012 182.046C119.67 181.95 120.342 182.009 120.973 182.218C122.187 182.74 122.95 184.094 122.95 186.109C122.841 188.109 122.262 190.055 121.26 191.788C120.258 193.522 118.861 194.995 117.183 196.087Z" fill="#BA68C8"/>
<path d="M147.216 176.545L156.703 171.073L153.543 169.245L144.056 174.723L147.216 176.545Z" fill="#BA68C8"/>
<path d="M166.189 165.594L175.669 160.123L172.509 158.294L163.022 163.773L166.189 165.594Z" fill="#BA68C8"/>
<path d="M185.156 154.645L194.635 149.173L191.475 147.344L181.988 152.823L185.156 154.645Z" fill="#BA68C8"/>
<path d="M137.954 103.723C138.054 103.591 138.192 103.493 138.351 103.445C138.509 103.397 138.678 103.401 138.835 103.455C138.991 103.51 139.125 103.613 139.219 103.749C139.313 103.886 139.36 104.048 139.355 104.214C139.416 104.657 139.371 105.108 139.224 105.53C139.076 105.952 138.83 106.333 138.507 106.642C137.884 107.179 137.254 106.961 137.106 106.151C137.046 105.708 137.091 105.258 137.239 104.836C137.386 104.414 137.631 104.032 137.954 103.723Z" fill="#BA68C8"/>
<path d="M145.254 107.163L138.912 103.498L137.519 106.852L143.885 110.525L145.254 107.163Z" fill="#BA68C8"/>
<path d="M144.282 107.373C144.904 106.844 145.527 107.062 145.683 107.871C145.74 108.314 145.692 108.763 145.543 109.184C145.395 109.604 145.149 109.984 144.826 110.292C144.204 110.829 143.573 110.611 143.426 109.801C143.369 109.358 143.417 108.907 143.565 108.486C143.714 108.064 143.959 107.683 144.282 107.373Z" fill="#BA68C8"/>
<path d="M193.031 138.068C193.031 138.223 193.031 138.363 193.031 138.519C193.031 138.83 193.031 139.149 193.031 139.469C191.771 138.932 190.129 139.111 188.323 140.153C184.362 142.441 181.148 148.006 181.148 152.605C181.148 154.738 181.848 156.279 183 157.08C182.676 157.31 182.341 157.523 181.996 157.719L181.63 157.905L180.533 162.038L174.182 158.497C172.174 157.337 170.937 154.862 170.937 151.329C170.937 144.27 175.887 135.694 181.996 132.161C185.015 130.417 187.747 130.238 189.778 131.382L196.004 134.869L196.137 134.947L193.031 138.068Z" fill="#455A64"/>
<path d="M196.129 134.877L195.997 134.799C194.004 133.741 191.327 133.935 188.315 135.663C182.206 139.188 177.248 147.765 177.248 154.824C177.248 158.372 178.501 160.855 180.525 162.007C182.548 163.159 185.28 162.964 188.307 161.229C194.417 157.703 199.366 149.119 199.366 142.06C199.39 138.511 198.137 136.029 196.129 134.877ZM188.346 156.715C186.23 157.937 184.331 157.975 183.023 157.049C181.871 156.271 181.171 154.715 181.171 152.574C181.171 148.006 184.385 142.457 188.346 140.122C190.152 139.079 191.794 138.9 193.055 139.437C194.565 140.083 195.514 141.772 195.514 144.263C195.499 148.87 192.277 154.434 188.315 156.715H188.346Z" fill="#37474F"/>
<path d="M195.499 144.294C195.499 148.87 192.292 154.411 188.331 156.746C186.222 157.968 184.323 158.007 183.015 157.088C182.488 156.674 182.055 156.152 181.745 155.558C181.435 154.964 181.255 154.31 181.218 153.641C181.484 153.516 181.744 153.379 181.996 153.228C185.957 150.948 189.164 145.383 189.164 140.776C189.167 140.435 189.146 140.094 189.101 139.757C189.695 139.442 190.348 139.255 191.017 139.207C191.687 139.159 192.36 139.251 192.993 139.476C194.534 140.13 195.499 141.803 195.499 144.294Z" fill="#263238"/>
<path d="M193.382 139.648L193.296 139.593C192.004 138.908 190.245 139.033 188.315 140.153C184.354 142.441 181.14 147.998 181.14 152.605C181.14 154.94 181.918 156.497 183.264 157.275C184.611 158.053 186.377 157.89 188.315 156.754C192.277 154.473 195.483 148.909 195.483 144.301C195.499 142.006 194.72 140.395 193.382 139.648ZM188.315 155.088C186.611 156.076 185.086 156.108 184.035 155.361C183.109 154.715 182.548 153.477 182.548 151.765C182.657 149.765 183.236 147.818 184.238 146.083C185.24 144.348 186.637 142.874 188.315 141.78C189.763 140.939 191.086 140.792 192.098 141.227C193.312 141.749 194.074 143.103 194.074 145.119C193.966 147.116 193.388 149.06 192.388 150.792C191.387 152.525 189.992 153.996 188.315 155.088Z" fill="#BA68C8"/>
<path d="M181.988 146.621L199.888 136.285C201.966 135.079 195.218 128.036 190.199 127.561C187.435 127.227 184.632 127.493 181.98 128.34C181.98 128.34 185.802 133.235 185.148 136.013C184.494 138.791 181.988 146.621 181.988 146.621Z" fill="#BA68C8"/>
<path d="M156.703 117.413C156.703 117.413 182.65 130.503 183.77 131.289C184.891 132.075 183.77 141.204 181.988 146.621C180.206 152.037 177.466 160.365 176.369 162.699C175.272 165.034 173.84 165.906 171.209 167.423L152.531 178.218L127.246 181.3L117.206 175.852L119.821 159.423C119.821 159.423 146.694 145.126 150.375 143.002C154.056 140.877 164.944 130.908 156.703 117.413Z" fill="#BA68C8"/>
<path opacity="0.2" d="M156.703 117.413C156.703 117.413 182.65 130.503 183.77 131.289C184.891 132.075 183.77 141.204 181.988 146.621C180.206 152.037 177.466 160.365 176.369 162.699C175.272 165.034 173.84 165.906 171.209 167.423L152.531 178.218L127.246 181.3L117.206 175.852L119.821 159.423C119.821 159.423 146.694 145.126 150.375 143.002C154.056 140.877 164.944 130.908 156.703 117.413Z" fill="black"/>
<path d="M184.268 143.5C186.603 137.227 188.346 132.028 188.051 128.519C187.693 124.355 186.136 120.954 179.272 119.242C172.408 117.53 162.812 117.561 162.812 117.561L159.893 119.25C159.893 119.25 179.63 130.69 181.871 131.935C183.241 132.713 184.704 136.145 182.019 146.629L182.478 146.893C182.704 147.033 183.521 145.516 184.268 143.5Z" fill="#BA68C8"/>
<path opacity="0.3" d="M184.268 143.5C186.603 137.227 188.346 132.028 188.051 128.519C187.693 124.355 186.136 120.954 179.272 119.242C172.408 117.53 162.812 117.561 162.812 117.561L159.893 119.25C159.893 119.25 179.63 130.69 181.871 131.935C183.241 132.713 184.704 136.145 182.019 146.629L182.478 146.893C182.704 147.033 183.521 145.516 184.268 143.5Z" fill="white"/>
<path d="M169.318 124.713L172.509 122.892C172.509 122.892 172.322 111.833 167.668 109.148C163.014 106.463 147.216 108.292 147.216 108.292L144.056 110.113L169.318 124.713Z" fill="#BA68C8"/>
<path d="M158.967 111.677C157.45 112.556 157.45 113.973 158.967 114.845C159.818 115.278 160.76 115.504 161.715 115.504C162.669 115.504 163.611 115.278 164.462 114.845C165.972 113.973 165.972 112.549 164.462 111.677C163.61 111.247 162.669 111.024 161.715 111.024C160.76 111.024 159.819 111.247 158.967 111.677Z" fill="#F0F0F0"/>
<path d="M163.824 116.961C162.757 117.584 162.757 118.588 163.824 119.203C164.426 119.511 165.093 119.672 165.769 119.672C166.446 119.672 167.113 119.511 167.715 119.203C168.789 118.588 168.789 117.584 167.715 116.961C167.111 116.657 166.445 116.498 165.769 116.498C165.093 116.498 164.427 116.657 163.824 116.961Z" fill="#F0F0F0"/>
<path d="M151.597 110.268C150.523 110.883 150.523 111.887 151.597 112.51C152.201 112.814 152.867 112.973 153.543 112.973C154.219 112.973 154.885 112.814 155.489 112.51C156.563 111.887 156.563 110.883 155.489 110.268C154.886 109.96 154.219 109.8 153.543 109.8C152.866 109.8 152.2 109.96 151.597 110.268Z" fill="#F0F0F0"/>
<path d="M169.816 121.506C170.439 120.969 171.061 121.187 171.217 121.997C171.274 122.44 171.227 122.891 171.078 123.313C170.929 123.735 170.684 124.115 170.361 124.425C170.262 124.557 170.123 124.655 169.965 124.703C169.807 124.751 169.637 124.748 169.481 124.693C169.325 124.638 169.19 124.535 169.096 124.399C169.003 124.263 168.955 124.1 168.96 123.935C168.9 123.491 168.947 123.04 169.095 122.617C169.244 122.195 169.491 121.814 169.816 121.506Z" fill="#BA68C8"/>
<path d="M177.077 124.946L170.727 121.281L169.341 124.635L175.7 128.301L177.077 124.946Z" fill="#BA68C8"/>
<path d="M176.097 125.156C176.196 125.024 176.335 124.927 176.493 124.878C176.651 124.83 176.821 124.834 176.977 124.888C177.133 124.943 177.268 125.046 177.361 125.182C177.455 125.319 177.503 125.481 177.498 125.647C177.557 126.09 177.51 126.542 177.361 126.964C177.212 127.386 176.966 127.767 176.641 128.075C176.019 128.612 175.396 128.386 175.241 127.585C175.183 127.141 175.23 126.69 175.379 126.268C175.527 125.846 175.773 125.465 176.097 125.156Z" fill="#BA68C8"/>
<path d="M176.097 125.156C176.196 125.024 176.335 124.927 176.493 124.878C176.651 124.83 176.821 124.834 176.977 124.888C177.133 124.943 177.268 125.046 177.361 125.182C177.455 125.319 177.503 125.481 177.498 125.647C177.557 126.09 177.51 126.542 177.361 126.964C177.212 127.386 176.966 127.767 176.641 128.075C176.019 128.612 175.396 128.386 175.241 127.585C175.183 127.141 175.23 126.69 175.379 126.268C175.527 125.846 175.773 125.465 176.097 125.156Z" fill="black"/>
<path d="M121.899 179.043C121.899 179.198 121.899 179.338 121.899 179.494C121.899 179.805 121.899 180.125 121.899 180.444C120.638 179.907 118.996 180.086 117.229 181.128C113.268 183.417 110.054 188.981 110.054 193.581C110.054 195.713 110.754 197.254 111.906 198.056C111.583 198.285 111.248 198.498 110.902 198.694L110.536 198.88L109.439 203.013L103.089 199.472C101.081 198.312 99.8433 195.837 99.8433 192.304C99.8433 185.245 104.793 176.669 110.902 173.136C113.922 171.393 116.654 171.214 118.685 172.358L124.911 175.844L125.043 175.922L121.899 179.043Z" fill="#455A64"/>
<path d="M102.956 166.692L98.2167 183.121L107.704 188.6L112.614 172.272L102.956 166.692Z" fill="#BA68C8"/>
<path opacity="0.2" d="M102.956 166.692L98.2167 183.121L107.704 188.6L112.614 172.272L102.956 166.692Z" fill="black"/>
<path d="M102.956 166.692C102.956 166.692 108.334 171.26 112.614 172.272C118.233 173.634 127.168 173.782 130.335 174C135.176 174.334 138.834 174.327 140.546 173.712C142.764 172.933 148.725 169.47 150.375 168.521C153.535 166.7 154.881 159.532 146.173 157.571C140.284 156.351 134.286 155.738 128.273 155.742L102.956 166.692Z" fill="#BA68C8"/>
<path d="M156.586 164.591C156.315 165.268 156.132 165.976 156.041 166.7C155.79 167.451 155.731 168.254 155.87 169.034C156.463 170.016 157.397 170.744 158.493 171.081C159.282 171.257 160.099 171.268 160.893 171.114C161.687 170.96 162.441 170.644 163.108 170.186C164.719 169.221 165.933 168.054 168.221 167.4C169.856 167.054 171.397 166.355 172.735 165.353C174.003 164.334 175.7 161.516 173.272 160.863C170.843 160.209 165.567 162.513 160.757 162.723L156.586 164.591Z" fill="#37474F"/>
<path d="M156.586 161.587V165.182C156.733 165.586 156.989 165.942 157.325 166.209C157.662 166.477 158.066 166.647 158.493 166.7C158.883 166.757 159.282 166.714 159.652 166.575C160.235 166.353 160.74 165.964 161.105 165.458C161.47 164.952 161.679 164.35 161.707 163.727L161.847 161.587H156.586Z" fill="#FFA8A7"/>
<path d="M163.434 139.352C163.434 143.827 162.174 163.174 162.174 163.174C162.174 163.174 160.345 165.509 156.368 163.174L155.029 141.554L163.434 139.352Z" fill="#37474F"/>
<path d="M142.577 158.419L155.029 151.244C155.54 150.976 155.967 150.574 156.265 150.08C156.563 149.587 156.721 149.022 156.721 148.446C156.721 147.869 156.563 147.304 156.265 146.811C155.967 146.318 155.54 145.916 155.029 145.648L145.753 140.294C145.23 140.029 144.653 139.891 144.068 139.891C143.482 139.891 142.905 140.029 142.383 140.294L129.931 147.469C129.423 147.739 128.998 148.142 128.701 148.634C128.405 149.127 128.248 149.692 128.248 150.267C128.248 150.842 128.405 151.406 128.701 151.899C128.998 152.392 129.423 152.795 129.931 153.065L139.207 158.419C139.73 158.684 140.307 158.822 140.892 158.822C141.478 158.822 142.055 158.684 142.577 158.419Z" fill="#BA68C8"/>
<path d="M142.577 158.419L155.029 151.244C155.54 150.976 155.967 150.574 156.265 150.08C156.563 149.587 156.721 149.022 156.721 148.446C156.721 147.869 156.563 147.304 156.265 146.811C155.967 146.318 155.54 145.916 155.029 145.648L145.753 140.294C145.23 140.029 144.653 139.891 144.068 139.891C143.482 139.891 142.905 140.029 142.383 140.294L129.931 147.469C129.423 147.739 128.998 148.142 128.701 148.634C128.405 149.127 128.248 149.692 128.248 150.267C128.248 150.842 128.405 151.406 128.701 151.899C128.998 152.392 129.423 152.795 129.931 153.065L139.207 158.419C139.73 158.684 140.307 158.822 140.892 158.822C141.478 158.822 142.055 158.684 142.577 158.419Z" fill="white"/>
<path d="M129.931 149.415L139.207 154.769C139.73 155.034 140.307 155.172 140.892 155.172C141.478 155.172 142.055 155.034 142.577 154.769L155.029 147.594C155.233 147.525 155.409 147.394 155.534 147.219C155.659 147.045 155.727 146.835 155.727 146.621C155.727 146.406 155.659 146.197 155.534 146.022C155.409 145.848 155.233 145.717 155.029 145.648L145.753 140.294C145.23 140.029 144.653 139.891 144.068 139.891C143.482 139.891 142.905 140.029 142.383 140.294L129.931 147.469C129.727 147.538 129.551 147.669 129.426 147.843C129.301 148.018 129.233 148.227 129.233 148.442C129.233 148.656 129.301 148.866 129.426 149.04C129.551 149.215 129.727 149.346 129.931 149.415Z" fill="#BA68C8"/>
<path d="M137.519 101.785L135.939 108.299L129.152 108.712L130.615 99.6841L137.519 101.785Z" fill="#FFA8A7"/>
<path d="M144.134 96.8824C144.134 96.8824 144.912 99.6375 144.593 99.7931C144.103 99.8679 143.604 99.8679 143.114 99.7931L144.134 96.8824Z" fill="#F28F8F"/>
<path d="M142.834 88.0881C143.924 89.3722 144.92 91.4813 144.149 96.6489C143.309 102.299 142.266 102.953 141.425 103.498C140.328 104.214 135.939 103.832 134.701 102.929C133.215 101.848 130.919 98.4155 130.374 95.0301C129.736 91.0533 131.067 86.6406 133.993 85.8856C138.11 84.8194 141.908 86.9986 142.834 88.0881Z" fill="#FFA8A7"/>
<path d="M129.931 101.513C130.981 102.603 133.137 102.898 134.491 103.147C135.845 103.396 140.009 103.669 141.239 100.704C142.468 97.7385 141.628 95.6061 143.138 94.8901C144.647 94.1741 146.157 93.7071 146.554 93.3336C146.951 92.96 146.959 88.0804 142.904 85.551C138.849 83.0217 132.639 82.438 128.553 87.5667C125.456 91.528 126.724 98.1666 129.931 101.513Z" fill="#455A64"/>
<path d="M134.016 103.186C135.067 103.28 138.39 102.758 139.394 101.389C140.398 100.019 140.803 97.5673 140.951 96.2832C140.964 95.7774 141.15 95.2914 141.477 94.9052C141.803 94.519 142.252 94.2556 142.748 94.1585C143.752 93.8394 145.97 92.7499 145.97 92.7499V92.1428C146.686 92.0979 147.403 92.0979 148.118 92.1428C148.585 92.2285 148.329 92.9211 147.146 93.5204C145.963 94.1196 142.717 95.2792 142.219 95.6761C141.721 96.073 141.488 97.7463 141.091 99.5285C140.694 101.311 139.464 103.972 134.016 103.186Z" fill="#37474F"/>
<path d="M143.356 110.556L147.247 108.323C147.62 107.194 147.021 106.626 145.963 106.696C144.904 106.766 145.231 105.739 144.585 105.451C143.737 105.062 143.254 105.28 142.873 105.101C142.492 104.922 142.328 104.47 141.83 104.416C139.604 104.206 138.087 107.381 138.087 107.381L143.356 110.556Z" fill="#F28F8F"/>
<path d="M116.942 139.134C116.942 139.134 134.133 130.612 137.129 129.234C140.126 127.857 144.826 125.857 147.325 125.857C148.301 125.937 149.215 126.368 149.9 127.068C150.585 127.768 150.994 128.692 151.052 129.67C151.085 131.172 150.999 132.673 150.796 134.161C146.072 135.71 141.245 136.925 136.351 137.795C129.199 139.04 116.942 139.134 116.942 139.134Z" fill="#37474F"/>
<path d="M118.809 134.208C118.809 137.741 118.475 141.414 119.946 143.998C121.416 146.582 129.386 152.559 136.888 151.306C141.791 150.481 156.345 143.78 156.345 143.78C156.345 143.78 163.403 141.188 163.434 139.344C163.481 136.628 163.294 132.799 157.138 132.962C151.527 133.11 134.974 136.566 134.974 136.566L118.809 134.208Z" fill="#455A64"/>
<path d="M123.611 106.214C126.273 103.435 128.071 103.202 129.347 103.544C132.28 104.384 135.12 105.521 137.822 106.937C137.822 106.937 136.795 116.884 141.659 119.748V135.25C141.659 135.25 141.511 136.931 139.394 138.605C137.526 140.076 133.3 141.562 128.257 141.142C122.265 140.644 118.809 134.208 118.809 134.208C118.809 134.208 118.654 121.53 119.502 116.494C120.498 110.619 122.693 107.179 123.611 106.214Z" fill="#455A64"/>
<path d="M141.659 120.502C141.659 120.502 138.717 118.168 137.822 115.132C137.822 115.132 138.172 119.895 141.659 122.308V120.502Z" fill="#37474F"/>
<path d="M168.89 127.818C170.287 127.876 171.662 127.45 172.781 126.612C172.781 126.612 174.135 123.981 175.801 124.207C175.801 124.207 176.097 123.086 175.412 122.721C174.727 122.355 174.431 122.456 174.151 122.067C173.871 121.678 173.84 120.954 172.595 120.954C172.081 120.954 172.151 120.588 170.906 120.44C169.661 120.292 168.431 123.164 167.52 123.164L168.89 127.818Z" fill="#FFA8A7"/>
<path d="M137.822 106.938C142.095 107.599 143.643 108.868 145.2 110.307C146.756 111.747 156.282 121.304 156.282 121.304L167.816 122.962C168.422 123.453 168.867 124.114 169.092 124.861C169.559 126.215 169.139 127.694 168.695 128.044C168.695 128.044 157.255 128.729 155.006 128.301C152.757 127.873 141.62 120.479 141.62 120.479C140.556 119.676 139.663 118.668 138.994 117.515C138.326 116.361 137.896 115.085 137.729 113.763C137.005 109.07 137.822 106.938 137.822 106.938Z" fill="#455A64"/>
<path d="M127.565 148.045L109.891 169.618C109.694 169.643 109.497 169.656 109.299 169.657C108.598 169.668 107.906 169.505 107.283 169.182L92.3565 160.559L91.3447 159.975C90.7922 159.656 90.333 158.349 90.333 157.057V153.423C90.3324 149.689 91.3145 146.021 93.1806 142.788C95.0467 139.554 97.7311 136.869 100.964 135.001L118.786 124.713L137.752 135.663L127.565 148.045Z" fill="#BA68C8"/>
<g opacity="0.1">
<path d="M127.565 148.045L109.891 169.618C109.694 169.643 109.497 169.656 109.299 169.657C108.598 169.668 107.906 169.505 107.283 169.182L92.3565 160.559L91.3447 159.975C90.7922 159.656 90.333 158.349 90.333 157.057V153.423C90.3324 149.689 91.3145 146.021 93.1806 142.788C95.0467 139.554 97.7311 136.869 100.964 135.001L118.786 124.713L137.752 135.663L127.565 148.045Z" fill="black"/>
</g>
<path d="M121.471 155.485L137.729 135.671L118.763 124.721L100.948 135.001C98.644 136.335 96.6111 138.091 94.9558 140.177L121.471 155.485Z" fill="#BA68C8"/>
<path d="M137.729 151.578C137.729 152.87 137.277 154.178 136.717 154.497L135.705 155.08L111.299 169.174C110.855 169.414 110.369 169.564 109.867 169.618C109.671 169.643 109.474 169.656 109.276 169.657V164.373C109.275 160.638 110.258 156.97 112.126 153.736C113.993 150.502 116.68 147.817 119.914 145.951L121.93 144.792L137.729 135.663V151.578Z" fill="#BA68C8"/>
<g opacity="0.2">
<path d="M137.729 151.578C137.729 152.87 137.277 154.178 136.717 154.497L135.705 155.08L111.299 169.174C110.855 169.414 110.369 169.564 109.867 169.618C109.671 169.643 109.474 169.656 109.276 169.657V164.373C109.275 160.638 110.258 156.97 112.126 153.736C113.993 150.502 116.68 147.817 119.914 145.951L121.93 144.792L137.729 135.663V151.578Z" fill="black"/>
</g>
<path d="M142.966 178.272L152.516 178.241L166.182 170.35L152.796 180.023L142.717 180.163L142.966 178.272Z" fill="#E0E0E0"/>
<path d="M119.782 191.861C119.782 191.861 136.997 185.37 138.46 184.607C140.177 183.555 141.807 182.366 143.332 181.051C143.643 180.639 143.79 180.126 143.742 179.612C143.695 179.098 143.457 178.62 143.075 178.272C143.075 178.272 136.071 177.953 134.273 178.506C133.269 178.809 117.066 184.008 117.066 184.008L119.782 191.861Z" fill="#E0E0E0"/>
<path d="M119.012 184.607C117.587 183.385 116.155 183.891 115.805 185.728C115.672 186.741 115.779 187.772 116.118 188.736C116.458 189.7 117.02 190.571 117.759 191.277C119.183 192.499 120.615 192.001 120.965 190.156C121.098 189.143 120.991 188.112 120.651 187.148C120.312 186.184 119.75 185.314 119.012 184.607Z" fill="#455A64"/>
</svg>
