<svg width="327" height="288" viewBox="0 0 327 288" fill="none" xmlns="http://www.w3.org/2000/svg">
<g clip-path="url(#clip0_282_5200)">
<path d="M256.467 68.3754C254.27 64.0201 251.849 59.7822 249.212 55.6789C218.415 8.63965 135.906 -16.9624 95.0181 31.6549C85.2802 43.2417 81.8831 57.2425 75.3193 70.53C60.4065 100.794 32.5316 118.809 15.0567 146.817C1.51142 168.514 3.31793 196.321 10.875 219.769C19.0871 245.255 33.5392 263.054 56.6568 276.586C82.5669 291.718 110.284 287.546 138.295 282.264C150.898 279.893 163.881 277.472 176.765 278.373C192.894 279.512 208.814 284.08 224.813 286.299C241.453 288.612 258.72 289.182 274.748 284.138C326.079 268.018 338.242 192.473 317.133 149.195C309.655 133.876 296.98 122.058 285.234 110.068C272.538 97.112 264.758 84.4443 256.467 68.3754Z" fill="#ED7B84"/>
<path opacity="0.8" d="M256.467 68.3754C254.27 64.0201 251.849 59.7822 249.212 55.6789C218.415 8.63965 135.906 -16.9624 95.0181 31.6549C85.2802 43.2417 81.8831 57.2425 75.3193 70.53C60.4065 100.794 32.5316 118.809 15.0567 146.817C1.51142 168.514 3.31793 196.321 10.875 219.769C19.0871 245.255 33.5392 263.054 56.6568 276.586C82.5669 291.718 110.284 287.546 138.295 282.264C150.898 279.893 163.881 277.472 176.765 278.373C192.894 279.512 208.814 284.08 224.813 286.299C241.453 288.612 258.72 289.182 274.748 284.138C326.079 268.018 338.242 192.473 317.133 149.195C309.655 133.876 296.98 122.058 285.234 110.068C272.538 97.112 264.758 84.4443 256.467 68.3754Z" fill="white"/>
<path d="M159.664 287.236C216.704 287.236 262.944 279.493 262.944 269.942C262.944 260.391 216.704 252.648 159.664 252.648C102.624 252.648 56.3833 260.391 56.3833 269.942C56.3833 279.493 102.624 287.236 159.664 287.236Z" fill="#263238"/>
<path d="M311.886 156.473C311.887 155.131 311.383 153.837 310.475 152.849C309.567 151.861 308.321 151.251 306.984 151.141V151.141C306.984 149.721 306.421 148.359 305.418 147.355C304.415 146.351 303.055 145.787 301.637 145.787C300.219 145.787 298.858 146.351 297.856 147.355C296.853 148.359 296.289 149.721 296.289 151.141C296.289 151.292 296.289 151.444 296.289 151.595H296.052C295.334 151.569 294.617 151.687 293.946 151.944C293.275 152.201 292.662 152.591 292.144 153.091C291.627 153.59 291.215 154.189 290.934 154.851C290.653 155.513 290.508 156.226 290.508 156.945C290.508 157.665 290.653 158.377 290.934 159.039C291.215 159.702 291.627 160.3 292.144 160.8C292.662 161.299 293.275 161.689 293.946 161.946C294.617 162.203 295.334 162.322 296.052 162.295C296.225 162.295 296.39 162.295 296.556 162.295C296.933 163.381 297.649 164.317 298.599 164.963C299.549 165.608 300.682 165.931 301.829 165.881C302.976 165.832 304.077 165.414 304.968 164.689C305.859 163.964 306.493 162.97 306.776 161.856C308.158 161.796 309.463 161.202 310.416 160.198C311.37 159.194 311.896 157.858 311.886 156.473Z" fill="#ED7B84"/>
<path d="M303.688 156.437C303.69 155.925 303.539 155.424 303.256 154.998C302.973 154.572 302.57 154.239 302.098 154.042C301.626 153.845 301.106 153.793 300.605 153.892C300.103 153.991 299.642 154.237 299.28 154.598C298.918 154.96 298.671 155.421 298.571 155.923C298.47 156.425 298.521 156.945 298.717 157.418C298.912 157.891 299.243 158.296 299.668 158.58C300.093 158.865 300.593 159.017 301.104 159.017C301.788 159.017 302.444 158.745 302.929 158.262C303.413 157.778 303.686 157.122 303.688 156.437V156.437Z" fill="#263238"/>
<path d="M55.0518 244.002C56.1379 243.214 56.8887 242.046 57.1554 240.73C57.422 239.414 57.1849 238.046 56.4912 236.897V236.897C57.5349 236.028 58.2095 234.794 58.3782 233.446C58.547 232.097 58.1972 230.735 57.3999 229.635C56.6026 228.535 55.4173 227.78 54.0845 227.523C52.7517 227.266 51.371 227.526 50.2224 228.25L49.8626 228.538C49.826 228.473 49.7851 228.41 49.7402 228.351C49.3502 227.731 48.8372 227.197 48.233 226.784C47.6288 226.37 46.9462 226.085 46.2276 225.947C45.5089 225.808 44.7695 225.818 44.055 225.977C43.3406 226.136 42.6663 226.44 42.074 226.871C41.4817 227.301 40.984 227.849 40.6116 228.48C40.2392 229.111 40.0001 229.811 39.9092 230.538C39.8182 231.265 39.8772 232.003 40.0827 232.707C40.2881 233.41 40.6356 234.063 41.1035 234.627C41.2043 234.764 41.3122 234.901 41.4202 235.023C40.7722 235.964 40.4425 237.089 40.4796 238.231C40.5166 239.374 40.9185 240.474 41.6261 241.371C42.3338 242.269 43.31 242.915 44.4115 243.216C45.5131 243.517 46.6819 243.456 47.7466 243.043C48.6073 244.113 49.8468 244.81 51.2073 244.988C52.5679 245.167 53.9448 244.813 55.0518 244.002V244.002Z" fill="#ED7B84"/>
<path d="M50.28 237.372C50.6927 237.073 51.0075 236.658 51.1846 236.179C51.3616 235.701 51.3931 235.181 51.2748 234.685C51.1566 234.188 50.8941 233.738 50.5204 233.391C50.1468 233.045 49.6788 232.816 49.1756 232.736C48.6724 232.655 48.1567 232.726 47.6936 232.939C47.2304 233.151 46.8408 233.497 46.5738 233.932C46.3068 234.366 46.1746 234.87 46.1937 235.38C46.2129 235.89 46.3826 236.382 46.6814 236.796C46.8786 237.072 47.1286 237.306 47.4168 237.484C47.705 237.663 48.0258 237.783 48.3605 237.836C48.6952 237.89 49.0372 237.876 49.3667 237.797C49.6962 237.717 50.0066 237.573 50.28 237.372V237.372Z" fill="#263238"/>
<path d="M136.33 90.67C136.328 89.3284 135.823 88.0365 134.916 87.0493C134.008 86.0621 132.764 85.4514 131.429 85.3378C131.429 83.9178 130.866 82.556 129.863 81.552C128.86 80.548 127.5 79.9839 126.081 79.9839C124.663 79.9839 123.303 80.548 122.3 81.552C121.297 82.556 120.734 83.9178 120.734 85.3378C120.734 85.4963 120.734 85.6476 120.734 85.7989H120.504C119.085 85.7989 117.725 86.363 116.722 87.3671C115.719 88.3711 115.156 89.7329 115.156 91.1528C115.156 92.5728 115.719 93.9345 116.722 94.9386C117.725 95.9426 119.085 96.5067 120.504 96.5067C120.676 96.5067 120.842 96.5067 121.007 96.5067C121.384 97.5927 122.1 98.5283 123.049 99.1748C123.999 99.8213 125.131 100.144 126.278 100.096C127.425 100.047 128.526 99.6298 129.418 98.9054C130.309 98.181 130.944 97.1883 131.228 96.0744C132.612 96.011 133.917 95.4121 134.869 94.404C135.821 93.3959 136.345 92.0572 136.33 90.67Z" fill="#ED7B84"/>
<path d="M217.357 36.9283C217.353 35.0061 216.633 33.1549 215.337 31.7405C214.042 30.326 212.266 29.451 210.36 29.2882C210.36 27.2537 209.555 25.3026 208.124 23.864C206.692 22.4254 204.75 21.6172 202.725 21.6172C200.701 21.6172 198.759 22.4254 197.327 23.864C195.896 25.3026 195.091 27.2537 195.091 29.2882C195.091 29.5154 195.091 29.7322 195.091 29.949H194.763C192.738 29.949 190.796 30.7572 189.365 32.1958C187.933 33.6344 187.129 35.5856 187.129 37.6201C187.129 39.6545 187.933 41.6057 189.365 43.0443C190.796 44.4829 192.738 45.2911 194.763 45.2911C195.009 45.2911 195.246 45.2911 195.482 45.2911C196.019 46.8471 197.041 48.1877 198.397 49.114C199.752 50.0403 201.368 50.5029 203.006 50.4334C204.644 50.3639 206.216 49.7658 207.488 48.728C208.761 47.6901 209.667 46.2677 210.072 44.6716C212.048 44.5808 213.912 43.7228 215.271 42.2783C216.629 40.8339 217.377 38.9159 217.357 36.9283Z" fill="#ED7B84"/>
<path d="M128.147 90.6341C128.149 90.1219 127.998 89.6207 127.715 89.1942C127.431 88.7677 127.028 88.435 126.555 88.2383C126.083 88.0416 125.563 87.9898 125.061 88.0894C124.559 88.189 124.098 88.4355 123.736 88.7977C123.375 89.1599 123.128 89.6215 123.029 90.124C122.929 90.6265 122.981 91.1472 123.178 91.6202C123.374 92.0932 123.706 92.4971 124.132 92.7808C124.558 93.0645 125.059 93.2152 125.571 93.2138C125.909 93.2138 126.244 93.1471 126.557 93.0174C126.869 92.8878 127.153 92.6978 127.393 92.4582C127.632 92.2187 127.822 91.9343 127.951 91.6213C128.081 91.3083 128.147 90.9729 128.147 90.6341V90.6341Z" fill="#263238"/>
<path d="M205.841 36.7594C205.843 36.046 205.634 35.348 205.239 34.754C204.844 34.1599 204.283 33.6966 203.625 33.4227C202.967 33.1487 202.242 33.0765 201.543 33.2152C200.844 33.3539 200.202 33.6973 199.698 34.2018C199.194 34.7062 198.851 35.3491 198.713 36.0489C198.574 36.7488 198.646 37.474 198.92 38.1328C199.194 38.7915 199.656 39.3541 200.25 39.7492C200.843 40.1443 201.54 40.3542 202.253 40.3522C202.724 40.3522 203.191 40.2593 203.626 40.0788C204.061 39.8982 204.457 39.6335 204.79 39.2999C205.124 38.9663 205.388 38.5702 205.568 38.1343C205.749 37.6984 205.841 37.2312 205.841 36.7594V36.7594Z" fill="#263238"/>
<path d="M294.001 213.24C293.437 212.579 292.645 212.154 291.783 212.048C290.921 211.943 290.05 212.165 289.344 212.671C289.049 212.324 288.689 212.039 288.284 211.831C287.879 211.624 287.437 211.499 286.984 211.462C286.53 211.426 286.074 211.479 285.641 211.619C285.208 211.759 284.807 211.983 284.461 212.278C284.114 212.574 283.829 212.934 283.622 213.34C283.415 213.745 283.29 214.188 283.253 214.642C283.217 215.095 283.27 215.552 283.41 215.986C283.55 216.419 283.773 216.821 284.068 217.167L284.27 217.384L284.155 217.47C283.455 218.066 283.021 218.916 282.947 219.833C282.874 220.75 283.167 221.659 283.762 222.359C284.358 223.06 285.207 223.494 286.123 223.568C287.039 223.642 287.946 223.348 288.646 222.752L288.883 222.528C289.524 222.909 290.271 223.072 291.012 222.993C291.753 222.914 292.449 222.597 292.995 222.09C293.542 221.583 293.91 220.912 294.044 220.178C294.179 219.444 294.073 218.686 293.741 218.018C294.388 217.406 294.775 216.57 294.824 215.681C294.872 214.792 294.577 213.918 294.001 213.24V213.24Z" fill="#ED7B84"/>
<path d="M289.949 216.663C289.734 216.412 289.451 216.23 289.134 216.14C288.816 216.049 288.479 216.056 288.166 216.157C287.852 216.258 287.575 216.451 287.37 216.709C287.165 216.968 287.041 217.282 287.014 217.611C286.987 217.94 287.058 218.27 287.218 218.558C287.378 218.847 287.62 219.082 287.913 219.234C288.206 219.385 288.537 219.446 288.865 219.409C289.192 219.372 289.502 219.239 289.754 219.026C290.091 218.737 290.3 218.327 290.337 217.885C290.373 217.442 290.233 217.003 289.949 216.663V216.663Z" fill="#263238"/>
<path d="M254.574 187.797C254.573 186.927 254.246 186.089 253.656 185.449C253.067 184.81 252.259 184.416 251.393 184.345C251.393 183.426 251.028 182.544 250.379 181.894C249.73 181.244 248.849 180.879 247.931 180.879C247.013 180.879 246.132 181.244 245.483 181.894C244.834 182.544 244.469 183.426 244.469 184.345C244.469 184.446 244.469 184.547 244.469 184.641H244.325C243.857 184.619 243.389 184.693 242.95 184.858C242.511 185.023 242.11 185.275 241.771 185.599C241.432 185.923 241.162 186.313 240.978 186.745C240.793 187.176 240.698 187.641 240.698 188.11C240.698 188.58 240.793 189.044 240.978 189.476C241.162 189.907 241.432 190.297 241.771 190.621C242.11 190.946 242.511 191.198 242.95 191.362C243.389 191.527 243.857 191.601 244.325 191.58H244.649C244.894 192.282 245.358 192.887 245.973 193.305C246.588 193.723 247.321 193.931 248.064 193.9C248.807 193.868 249.519 193.598 250.097 193.13C250.674 192.662 251.086 192.019 251.271 191.299C252.167 191.258 253.013 190.869 253.629 190.216C254.246 189.563 254.584 188.695 254.574 187.797V187.797Z" fill="#ED7B84"/>
<path d="M249.27 187.797C249.27 187.466 249.172 187.143 248.988 186.868C248.805 186.593 248.544 186.379 248.239 186.252C247.934 186.126 247.598 186.093 247.274 186.157C246.95 186.222 246.653 186.381 246.419 186.615C246.186 186.848 246.027 187.146 245.962 187.471C245.898 187.795 245.931 188.131 246.057 188.436C246.184 188.742 246.398 189.003 246.672 189.187C246.947 189.37 247.27 189.468 247.6 189.468C248.043 189.468 248.467 189.292 248.781 188.979C249.094 188.665 249.27 188.24 249.27 187.797Z" fill="#263238"/>
<path d="M61.0618 124.22C61.0612 123.352 60.7346 122.515 60.1468 121.875C59.559 121.236 58.7527 120.841 57.8878 120.769V120.769C57.8472 119.876 57.4643 119.033 56.8189 118.416C56.1734 117.798 55.3151 117.454 54.4224 117.454C53.5297 117.454 52.6713 117.798 52.0259 118.416C51.3804 119.033 50.9975 119.876 50.9569 120.769C50.9569 120.87 50.9569 120.971 50.9569 121.064H50.8129C49.9212 121.105 49.0794 121.488 48.4627 122.135C47.846 122.781 47.5018 123.64 47.5018 124.534C47.5018 125.428 47.846 126.287 48.4627 126.933C49.0794 127.579 49.9212 127.963 50.8129 128.003H51.1368C51.3819 128.706 51.8462 129.311 52.4612 129.729C53.0762 130.146 53.8092 130.355 54.5517 130.324C55.2943 130.292 56.007 130.022 56.5845 129.554C57.1619 129.085 57.5735 128.443 57.7583 127.722C58.655 127.681 59.5007 127.293 60.117 126.64C60.7333 125.987 61.0721 125.119 61.0618 124.22Z" fill="#ED7B84"/>
<path d="M54.0877 125.892C55.0099 125.892 55.7575 125.144 55.7575 124.221C55.7575 123.297 55.0099 122.549 54.0877 122.549C53.1655 122.549 52.418 123.297 52.418 124.221C52.418 125.144 53.1655 125.892 54.0877 125.892Z" fill="#263238"/>
<path d="M141.506 32.6842C142.213 32.178 142.703 31.4237 142.879 30.5716C143.055 29.7196 142.904 28.8323 142.456 28.0869V28.0869C143.156 27.5328 143.617 26.7297 143.741 25.8446C143.865 24.9595 143.643 24.0606 143.122 23.3348C142.601 22.6091 141.821 22.1123 140.944 21.9479C140.066 21.7834 139.159 21.964 138.411 22.452L138.181 22.6393C138.181 22.5961 138.13 22.5529 138.102 22.5168C137.85 22.1165 137.519 21.772 137.13 21.5045C136.74 21.2369 136.3 21.0521 135.836 20.9612C135.373 20.8704 134.896 20.8755 134.434 20.9763C133.972 21.0771 133.536 21.2714 133.153 21.5472C132.769 21.823 132.446 22.1746 132.203 22.5802C131.96 22.9859 131.802 23.437 131.74 23.9058C131.678 24.3747 131.712 24.8513 131.841 25.3064C131.969 25.7615 132.189 26.1854 132.488 26.5521C132.553 26.6457 132.625 26.725 132.697 26.8115C132.266 27.4196 132.043 28.1506 132.061 28.8957C132.079 29.6409 132.337 30.3602 132.797 30.9467C133.256 31.5331 133.893 31.9552 134.611 32.1501C135.33 32.3451 136.092 32.3024 136.785 32.0285C137.338 32.7225 138.136 33.1774 139.015 33.2994C139.893 33.4214 140.785 33.2012 141.506 32.6842V32.6842Z" fill="#ED7B84"/>
<path d="M138.433 28.3608C138.7 28.1662 138.903 27.8967 139.017 27.5864C139.131 27.2761 139.151 26.9388 139.074 26.6174C138.996 26.2959 138.826 26.0046 138.583 25.7803C138.34 25.5561 138.036 25.4089 137.71 25.3575C137.384 25.3061 137.05 25.3527 136.75 25.4914C136.45 25.6302 136.198 25.8549 136.026 26.137C135.853 26.4192 135.769 26.7461 135.782 27.0765C135.795 27.407 135.906 27.726 136.101 27.9933C136.361 28.3515 136.754 28.5914 137.191 28.6603C137.628 28.7292 138.075 28.6215 138.433 28.3608V28.3608Z" fill="#263238"/>
<path d="M58.089 182.752C58.0883 181.882 57.7607 181.044 57.1714 180.405C56.582 179.766 55.774 179.371 54.9078 179.301V179.301C54.9078 178.382 54.5431 177.5 53.8939 176.85C53.2447 176.2 52.3641 175.835 51.446 175.835C50.5278 175.835 49.6473 176.2 48.9981 176.85C48.3488 177.5 47.9841 178.382 47.9841 179.301C47.9841 179.402 47.9841 179.503 47.9841 179.596H47.8401C47.3718 179.575 46.9039 179.649 46.4649 179.814C46.0258 179.978 45.6247 180.23 45.2857 180.555C44.9467 180.879 44.6768 181.269 44.4925 181.7C44.3081 182.132 44.2131 182.597 44.2131 183.066C44.2131 183.535 44.3081 184 44.4925 184.432C44.6768 184.863 44.9467 185.253 45.2857 185.577C45.6247 185.901 46.0258 186.154 46.4649 186.318C46.9039 186.483 47.3718 186.557 47.8401 186.536H48.164C48.4091 187.238 48.8734 187.843 49.4884 188.261C50.1034 188.679 50.8364 188.887 51.5789 188.856C52.3215 188.824 53.0342 188.554 53.6117 188.086C54.1892 187.617 54.6007 186.975 54.7855 186.254C55.6822 186.213 56.5279 185.825 57.1442 185.172C57.7605 184.519 58.0993 183.651 58.089 182.752V182.752Z" fill="#ED7B84"/>
<path d="M52.7847 182.753C52.7847 182.422 52.6867 182.099 52.5032 181.824C52.3198 181.549 52.059 181.335 51.7539 181.208C51.4488 181.082 51.113 181.048 50.7891 181.113C50.4652 181.177 50.1677 181.337 49.9342 181.57C49.7007 181.804 49.5416 182.102 49.4772 182.426C49.4128 182.751 49.4459 183.087 49.5722 183.392C49.6986 183.698 49.9126 183.959 50.1872 184.143C50.4618 184.326 50.7846 184.424 51.1149 184.424C51.5577 184.424 51.9825 184.248 52.2956 183.935C52.6087 183.621 52.7847 183.196 52.7847 182.753Z" fill="#263238"/>
<path d="M148.422 101.572C143.223 105.888 141.851 103.296 136.186 106.977C127.55 112.504 128.953 133.905 138.547 135.108C148.141 136.311 150.307 131.505 152.467 122.62C154.626 113.736 155.108 103.403 152.467 103.885C150.697 104.259 149.99 100.671 148.422 101.572Z" fill="#263238" stroke="#263238" stroke-linecap="round" stroke-linejoin="round"/>
<path d="M150.869 118.564C150.869 118.564 149.07 126.49 145.831 131.534C142.592 136.578 138.993 139.1 125.678 142.343C112.364 145.585 110.564 146.306 109.485 154.592C108.405 162.879 115.962 203.231 115.962 203.231L119.201 231.694C130.223 234.731 141.596 236.305 153.028 236.378C171.381 236.378 185.056 233.135 186.135 232.775C187.215 232.415 212.765 224.128 214.924 222.327C217.084 220.525 221.402 216.562 221.402 216.562C221.402 216.562 205.568 193.143 202.329 183.415C199.09 173.688 192.973 155.313 187.215 147.026C181.457 138.74 170.661 135.137 168.502 133.335C166.343 131.534 158.066 123.247 156.627 120.365C155.187 117.483 150.869 118.564 150.869 118.564Z" fill="#F8D7C1" stroke="#263238" stroke-linecap="round" stroke-linejoin="round"/>
<path d="M149.026 128.068C149.026 128.068 150.034 137.356 152.539 144.641C155.043 151.926 159.808 154.65 159.808 154.65L165.566 150.132C163.288 145.51 160.78 141.006 158.052 136.636C153.791 129.862 151.574 125.568 151.574 125.568C151.574 125.568 148.782 125.308 149.026 128.068Z" fill="#263238" stroke="#263238" stroke-linecap="round" stroke-linejoin="round"/>
<path d="M187.927 176.469C187.927 176.469 192.742 183.156 193.038 188.82C193.333 194.484 183.249 212.498 175.692 214.3C168.135 216.101 160.578 201.689 163.817 190.52C167.055 179.352 181.486 168.795 187.927 176.469Z" fill="#263238" stroke="#263238" stroke-linecap="round" stroke-linejoin="round"/>
<path d="M188.654 173.327C188.654 173.327 193.462 180.021 193.757 185.678C194.052 191.335 183.976 209.356 176.419 211.158C168.862 212.959 161.305 198.548 164.544 187.379C167.782 176.21 182.213 165.66 188.654 173.327Z" fill="#F8D7C1" stroke="#263238" stroke-linecap="round" stroke-linejoin="round"/>
<path d="M171.093 189.31C171.093 189.31 177.355 182.781 181.889 180.022C184.608 178.366 187.732 177.498 190.914 177.514L192.541 180.497L199.688 180.022C199.688 180.022 192.67 173.248 186.402 172.239C180.133 171.23 175.375 179.272 174.368 181.023C173.36 182.774 171.093 189.31 171.093 189.31Z" fill="#263238" stroke="#263238" stroke-linecap="round" stroke-linejoin="round"/>
<path d="M144.737 222.593C156.612 210.344 172.029 219.135 172.029 219.135C140.51 198.383 122.229 187.141 129.119 141.586C138.698 138.502 131.379 141.673 122.706 142.638C110.672 143.978 101.539 154.239 102.208 155.796C106.109 166.807 121.806 220.348 121.641 219.927C124.412 216.836 138.741 228.783 144.737 222.593Z" fill="#ED7B84" stroke="#263238" stroke-linecap="round" stroke-linejoin="round"/>
<path d="M112.364 204.312C112.364 204.312 128.557 175.129 143.312 162.879C158.066 150.629 177.499 138.379 177.499 138.379L188.654 143.423C188.654 143.423 196.931 166.482 198.011 168.644C199.09 170.805 201.329 182.335 201.329 182.335C201.329 182.335 193.03 173.781 187.654 174.502C182.278 175.222 181.119 175.489 177.16 180.893C173.202 186.298 161.326 206.834 153.769 213.319C146.212 219.805 130.378 224.488 130.378 224.488C130.378 224.488 114.904 214.761 112.385 212.238L108.067 207.915L112.364 204.312Z" fill="#ED7B84" stroke="#263238" stroke-linecap="round" stroke-linejoin="round"/>
<path d="M114.307 213.824C117.049 209.025 127.982 190.369 140.476 176.073C154.928 159.5 169.38 151.616 174.548 147.134C178.557 143.654 184.624 144.346 189.734 146.414C189.072 144.576 188.654 143.402 188.654 143.402L178.578 138.841L176.657 138.905C172.734 141.42 156.245 152.142 143.333 162.857C128.579 175.107 112.385 204.291 112.385 204.291L108.067 207.893L112.385 212.217C112.992 212.792 113.633 213.329 114.307 213.824V213.824Z" fill="#4E1A3D" stroke="#263238" stroke-linecap="round" stroke-linejoin="round"/>
<path d="M185.02 158.397C187.071 162.965 189.007 167.44 189.302 168.73" stroke="#263238" stroke-linecap="round" stroke-linejoin="round"/>
<path d="M179.723 146.875C179.723 146.875 181.831 151.357 184.041 156.3" stroke="#263238" stroke-linecap="round" stroke-linejoin="round"/>
<path d="M180.896 166.446C181.004 167.887 181.068 169.076 181.068 169.847" stroke="#263238" stroke-linecap="round" stroke-linejoin="round"/>
<path d="M179.053 148.662C179.053 148.662 180.097 157.482 180.68 163.989" stroke="#263238" stroke-linecap="round" stroke-linejoin="round"/>
<path d="M206.007 218.241C206.007 218.241 233.853 211.547 239.834 209.544C245.815 207.54 256.985 209.32 259.886 212.217C262.786 215.114 265.226 226.492 260.771 232.516C256.316 238.54 243.404 251.69 236.3 258.6C229.197 265.511 216.702 269.755 210.016 271.982C203.33 274.208 187.301 269.978 176.829 267.968C166.357 265.958 138.295 249.233 132.501 241.652C126.708 234.072 125.822 235.636 142.304 230.729C158.786 225.821 198.443 219.581 198.443 219.581L206.007 218.241Z" fill="#ED7B84" stroke="#263238" stroke-linecap="round" stroke-linejoin="round"/>
<path d="M164.803 253.477C164.803 253.477 202.667 240.99 231.176 224.481" stroke="#263238" stroke-linecap="round" stroke-linejoin="round"/>
<path d="M225.116 236.745C226.555 236.169 227.983 235.576 229.398 234.966" stroke="#263238" stroke-linecap="round" stroke-linejoin="round"/>
<path d="M184.365 248.491C193.988 246.451 209.339 242.726 223.064 237.545" stroke="#263238" stroke-linecap="round" stroke-linejoin="round"/>
<path d="M174.821 250.35C174.821 250.35 177.312 249.932 181.392 249.103" stroke="#263238" stroke-linecap="round" stroke-linejoin="round"/>
<path d="M192.318 123.29C192.318 123.29 187.769 130.496 186.445 134.661C185.121 138.826 181.903 143.193 177.542 146.421C173.18 149.649 168.077 152.106 162.428 150.968C156.778 149.829 152.351 137.695 151.063 134.661C149.312 130.451 148.348 125.954 148.22 121.395C148.22 116.654 149.357 110.017 152.006 107.553C154.655 105.089 171.518 102.812 181.364 102.624C191.209 102.437 192.721 106.227 193.102 108.879C193.484 111.531 193.074 121.013 192.318 123.29Z" fill="#F8D7C1" stroke="#263238" stroke-linecap="round" stroke-linejoin="round"/>
<path d="M177.355 135.043C177.355 135.043 175.649 140.923 174.325 142.249C173 143.575 169.215 142.624 168.077 140.729" stroke="#263238" stroke-linecap="round" stroke-linejoin="round"/>
<path d="M171.489 145.47C171.489 145.47 164.666 146.983 163.529 139.972" stroke="#263238" stroke-linecap="round" stroke-linejoin="round"/>
<path d="M170.352 129.163C170.352 129.163 165.782 130.15 162.967 126.324" stroke="#263238" stroke-linecap="round" stroke-linejoin="round"/>
<path d="M172.259 126.548C172.259 126.548 169.603 123.514 163.925 122.757" stroke="#263238" stroke-width="2" stroke-linecap="round" stroke-linejoin="round"/>
<path d="M180.572 132.197C180.572 132.197 182.472 134.474 186.063 133.148" stroke="#263238" stroke-linecap="round" stroke-linejoin="round"/>
<path d="M181.14 129.163C181.14 129.163 184.933 128.443 187.013 129.927" stroke="#263238" stroke-width="2" stroke-linecap="round" stroke-linejoin="round"/>
<path d="M179.067 127.811C178.933 128.459 178.405 129.028 177.896 129.085C177.387 129.142 177.064 128.647 177.197 127.994C177.33 127.341 177.859 126.776 178.368 126.719C178.877 126.662 179.195 127.141 179.067 127.811Z" fill="#ED7B84"/>
<path d="M190.252 93.5236C190.252 93.5236 190.065 107.553 187.604 111.538C185.142 115.523 178.701 117.418 171.885 117.605C165.069 117.793 152.38 113.815 152.38 113.815C152.38 113.815 151.056 114.954 149.732 114.197C148.407 113.44 146.507 112.107 146.507 112.107C146.507 112.107 144.996 108.699 144.614 108.13C144.233 107.56 142.398 95.8006 155.461 89.3514C168.524 82.9023 182.494 87.0816 185.142 87.8382C187.791 88.5948 190.252 93.5236 190.252 93.5236Z" fill="#263238" stroke="#263238" stroke-linecap="round" stroke-linejoin="round"/>
<path d="M189.093 93.8983C189.093 93.8983 190.043 107.741 188.338 114.377C186.632 121.014 189.475 124.804 190.799 125.906C192.123 127.009 196.859 126.094 197.996 121.165C199.134 116.236 199.134 104.671 196.672 99.5477C194.211 94.4244 190.972 91.2394 190.043 91.434C189.115 91.6285 189.093 93.8983 189.093 93.8983Z" fill="#263238" stroke="#263238" stroke-linecap="round" stroke-linejoin="round"/>
<path d="M151.387 117.223C151.387 117.223 150.624 110.205 147.788 110.018C144.953 109.83 144.19 116.272 144.945 119.875C145.701 123.478 149.868 123.665 149.868 123.665" fill="#F8D7C1"/>
<path d="M151.387 117.223C151.387 117.223 150.624 110.205 147.788 110.018C144.953 109.83 144.19 116.272 144.945 119.875C145.701 123.478 149.868 123.665 149.868 123.665" stroke="#263238" stroke-linecap="round" stroke-linejoin="round"/>
<path d="M147.652 210.66C147.652 210.66 139.857 204.413 135.848 205.53C131.839 206.647 126.269 214.897 126.269 216.007C126.269 217.117 130.054 217.794 137.18 217.794C144.305 217.794 153.661 215.56 154.331 214.227C155 212.894 147.652 210.66 147.652 210.66Z" fill="#F4C3A3" stroke="#263238" stroke-linecap="round" stroke-linejoin="round"/>
<path d="M196.874 186.355C196.874 186.355 194.204 183.682 188.41 186.132C182.616 188.582 181.061 192.379 180.615 193.05C180.169 193.72 175.268 193.496 172.82 196.652C170.373 199.809 170.812 204.233 172.597 206.243C173.559 207.299 174.451 208.415 175.268 209.587C175.268 209.587 173.713 211.143 176.383 213.824C179.053 216.504 198.889 217.124 204.647 210.66C210.405 204.197 209.541 198.836 205.978 193.266C203.861 189.951 200.633 187.501 196.874 186.355V186.355Z" fill="#F4C3A3" stroke="#263238" stroke-linecap="round" stroke-linejoin="round"/>
<path d="M195.096 180.994C195.096 180.994 193.534 182.558 193.757 185.678C193.916 187.588 194.701 189.391 195.988 190.809C195.988 190.809 191.31 188.805 191.31 190.585C191.331 191.787 191.481 192.983 191.756 194.152C191.756 194.152 187.74 190.809 188.158 192.819L188.604 194.822C188.604 194.822 185.488 194.599 185.265 196.163C185.101 197.006 185.261 197.881 185.711 198.613C186.185 199.067 186.521 199.646 186.679 200.284C186.837 200.922 186.811 201.592 186.603 202.215C186.375 203.01 185.949 203.734 185.365 204.319C184.781 204.904 184.058 205.331 183.264 205.559C182.371 205.782 181.033 209.126 181.256 210.243C181.479 211.36 189.05 216.728 191.944 216.728C194.837 216.728 197.96 217.398 203.085 215.611C208.209 213.824 212.218 204.91 212.218 199.556C212.218 194.203 208.656 190.189 205.741 188.186C202.826 186.183 201.286 184.172 201.286 182.385C201.286 180.598 198.839 179.712 198.839 181.715V184.597C198.839 184.597 196.204 180.331 195.096 180.994Z" fill="#263238" stroke="#263238" stroke-linecap="round" stroke-linejoin="round"/>
<path d="M186.409 200.846C186.409 200.846 185.963 196.833 184.401 198.166C182.839 199.499 184.178 201.293 182.4 202.626C180.622 203.959 177.722 205.083 179.521 206.424C181.32 207.764 186.409 204.86 186.409 200.846Z" fill="#F4C3A3" stroke="#263238" stroke-linecap="round" stroke-linejoin="round"/>
<path d="M206.007 212.44C206.007 212.44 212.693 212.217 212.247 218.018C211.801 223.818 209.131 223.818 200.443 225.598C191.756 227.378 186.186 227.385 178.132 228.942C170.078 230.498 160.312 231.824 152.517 231.824C144.722 231.824 131.796 224.906 131.134 222.233C130.472 219.56 131.58 216.432 136.474 214.429C141.368 212.426 149.84 214.206 159.196 216.209C168.552 218.212 174.569 219.091 180.788 217.549C187.006 216.007 201.552 212.44 206.007 212.44Z" fill="#DA8CF5" stroke="#263238" stroke-linecap="round" stroke-linejoin="round"/>
<path d="M179.946 224.704C179.946 224.704 188.41 221.102 190.195 215.56C191.98 210.019 185.963 205.53 182.177 206.423C179.156 207.196 176.289 208.478 173.699 210.214C172.473 210.907 171.097 211.288 169.69 211.323C169.69 211.323 160.556 209.097 157.879 209.097C155.808 209.044 153.767 208.589 151.869 207.756C150.754 207.31 148.307 206.647 146.522 207.98C144.737 209.313 143.852 210.66 144.521 211.77C145.19 212.88 145.852 211.993 145.852 211.993C146.311 212.712 146.92 213.322 147.637 213.781C148.753 214.451 150.977 214.227 150.977 214.227C153.846 216.939 157.163 219.133 160.779 220.712C166.537 223.17 172.806 225.173 174.368 225.173C175.93 225.173 179.946 224.704 179.946 224.704Z" fill="#F4C3A3" stroke="#263238" stroke-linecap="round" stroke-linejoin="round"/>
<path d="M183.955 260.834C184.624 260.834 203.114 260.834 211.131 258.384C219.149 255.934 225.612 251.243 226.965 251.02C228.318 250.797 232.313 253.03 231.197 256.597C230.924 257.598 230.446 258.53 229.795 259.336C229.143 260.143 228.332 260.805 227.412 261.281C227.94 262.241 228.245 263.307 228.304 264.401C228.297 264.859 228.17 265.306 227.935 265.698C227.7 266.091 227.365 266.414 226.965 266.635C226.785 267.363 226.71 268.112 226.742 268.861C226.742 270.425 224.741 271.319 224.741 271.319C224.673 272.064 224.411 272.779 223.98 273.391C223.549 274.003 222.966 274.491 222.287 274.806L221.179 275.332C220.036 275.949 218.845 276.469 217.616 276.889C215.162 277.782 206.698 275.995 197.565 275.109C192.082 274.549 186.647 273.586 181.306 272.227C179.946 271.982 183.955 260.834 183.955 260.834Z" fill="#F8D7C1" stroke="#263238" stroke-linecap="round" stroke-linejoin="round"/>
<path d="M226.994 253.239V257.39C226.994 257.39 226.807 258.521 225.116 258.146C223.424 257.772 222.1 256.071 224.173 254.543" fill="#F8D7C1"/>
<path d="M226.994 253.239V257.39C226.994 257.39 226.807 258.521 225.116 258.146C223.424 257.772 222.1 256.071 224.173 254.543" stroke="#263238" stroke-linecap="round" stroke-linejoin="round"/>
<path d="M227.39 261.295C226.839 261.109 226.248 261.069 225.677 261.18C225.12 261.292 224.554 261.355 223.986 261.368" fill="#F8D7C1"/>
<path d="M227.39 261.295C226.839 261.109 226.248 261.069 225.677 261.18C225.12 261.292 224.554 261.355 223.986 261.368" stroke="#263238" stroke-linecap="round" stroke-linejoin="round"/>
<path d="M226.951 266.628L223.417 266.635" stroke="#263238" stroke-linecap="round" stroke-linejoin="round"/>
<path d="M224.72 271.311L220.596 270.785" stroke="#263238" stroke-linecap="round" stroke-linejoin="round"/>
<path d="M221.157 275.332C220.206 274.706 219.093 274.371 217.954 274.367H214.723" fill="#F8D7C1"/>
<path d="M221.157 275.332C220.206 274.706 219.093 274.371 217.954 274.367H214.723" stroke="#263238" stroke-linecap="round" stroke-linejoin="round"/>
<path d="M185.934 259.717C185.934 259.717 168.783 255.034 155.864 245.889C142.945 236.745 112.68 223.595 101.294 218.911C89.9081 214.227 80.7964 210.437 76.1038 214.674C71.4111 218.911 70.0941 236.291 70.0941 241.429C70.0941 246.567 78.7811 255.48 91.0309 262.174C103.281 268.869 127.334 275.109 142.93 276.665C158.527 278.222 170.107 274.662 175.671 274.662C181.234 274.662 183.465 274.662 185.027 271.981C186.589 269.301 189.748 264.178 185.934 259.717Z" fill="#ED7B84" stroke="#263238" stroke-linecap="round" stroke-linejoin="round"/>
<path d="M95.9178 260.575C94.2736 260.159 92.656 259.644 91.074 259.033" stroke="#263238" stroke-linecap="round" stroke-linejoin="round"/>
<path d="M171.705 255.704C171.705 255.704 149.876 263.061 126.916 263.731C117.345 264.103 107.766 263.256 98.4081 261.209" stroke="#263238" stroke-linecap="round" stroke-linejoin="round"/>
<path d="M160.499 269.467C158.859 270.186 157.176 270.805 155.461 271.319C144.766 274.439 130.738 274.662 130.738 274.662" stroke="#263238" stroke-linecap="round" stroke-linejoin="round"/>
<path d="M177.052 259.494C172.901 262.693 168.468 265.51 163.809 267.91" stroke="#263238" stroke-linecap="round" stroke-linejoin="round"/>
<path d="M163.723 231.521C163.723 230.08 161.233 230.08 158.563 228.639C156.907 227.76 152.164 225.843 148.81 224.517C149.556 224.81 150.321 225.05 151.099 225.238C152.577 225.341 154.054 225.032 155.367 224.344C156.807 223.624 155.72 223.098 154.827 222.903C153.935 222.709 145.586 217.203 144.514 216.67C143.441 216.137 130.645 216.137 130.645 216.137C130.645 216.137 128.485 216.31 127.442 214.89C126.398 213.471 104.857 195.125 104.857 195.125L111.457 185.642L102.95 157.813C96.7383 169.588 84.431 196.292 84.5821 199.47C84.7621 203.21 93.4779 209.263 98.9766 213.002C104.475 216.742 126.01 229.028 126.01 229.028C126.01 229.028 128.888 231.694 129.385 232.235C129.882 232.775 135.431 237.754 138.634 239.174C141.836 240.593 144.859 242.38 146.104 242.56C147.767 242.613 149.431 242.553 151.085 242.38C151.957 242.629 152.847 242.807 153.748 242.914C154.467 242.914 155.353 242.193 155.705 240.954C156.058 239.714 145.212 234.014 145.212 234.014C146.983 234.8 148.706 235.691 150.372 236.681C152.323 237.927 157.836 240.42 158.728 240.42C159.621 240.42 161.398 239.354 160.686 238.259C159.973 237.163 149.3 231.492 148.235 229.713C148.235 229.713 159.081 233.452 159.973 233.452C160.866 233.452 163.723 232.941 163.723 231.521Z" fill="#F8D7C1" stroke="#263238" stroke-linecap="round" stroke-linejoin="round"/>
<path d="M103.417 159.464L108.283 189.649L111.457 185.714C111.457 185.714 103.165 160.199 103.417 159.464Z" fill="#263238" stroke="#263238" stroke-linecap="round" stroke-linejoin="round"/>
<path d="M151.099 242.38C151.099 242.38 143.269 239.174 141.138 237.754" stroke="#263238" stroke-linecap="round" stroke-linejoin="round"/>
<path d="M105.382 216.987C103.857 217.05 102.364 216.535 101.201 215.546C98.0266 212.815 97.7963 207.245 100.682 203.102C103.568 198.958 108.484 197.813 111.658 200.544C112.306 201.111 112.841 201.795 113.234 202.561L116.502 205.443C116.459 204.097 116.147 202.772 115.585 201.548C115.022 200.324 114.221 199.226 113.227 198.317C109.103 194.765 102.712 196.256 98.955 201.646C95.1981 207.036 95.5004 214.278 99.6244 217.83C102.165 219.992 105.555 220.28 108.664 218.925L105.382 216.987Z" fill="#DA8CF5" stroke="#263238" stroke-linecap="round" stroke-linejoin="round"/>
<path d="M113.508 221.822C112.477 222.18 111.37 222.262 110.297 222.061C109.225 221.86 108.223 221.383 107.39 220.677C104.223 217.953 103.993 212.383 106.879 208.239C109.765 204.096 114.681 202.929 117.848 205.681C118.592 206.331 119.187 207.135 119.59 208.038L122.692 210.538C122.649 209.193 122.337 207.87 121.776 206.648C121.215 205.425 120.415 204.327 119.424 203.419C115.293 199.874 108.902 201.365 105.145 206.755C101.388 212.145 101.69 219.387 105.821 222.939C108.7 225.411 112.651 225.432 116.063 223.408L113.508 221.822Z" fill="#DA8CF5" stroke="#263238" stroke-linecap="round" stroke-linejoin="round"/>
</g>
<defs>
<clipPath id="clip0_282_5200">
<rect width="327" height="288" fill="white"/>
</clipPath>
</defs>
</svg>
