<svg width="339" height="339" viewBox="0 0 339 339" fill="none" xmlns="http://www.w3.org/2000/svg">
<path d="M169.5 324.037C257.716 324.037 329.23 282.748 329.23 231.815C329.23 180.883 257.716 139.594 169.5 139.594C81.2835 139.594 9.76996 180.883 9.76996 231.815C9.76996 282.748 81.2835 324.037 169.5 324.037Z" fill="#F0F0F0"/>
<path d="M136.447 301.697C166.868 301.697 191.528 287.46 191.528 269.898C191.528 252.337 166.868 238.1 136.447 238.1C106.027 238.1 81.3668 252.337 81.3668 269.898C81.3668 287.46 106.027 301.697 136.447 301.697Z" fill="#E0E0E0"/>
<path d="M293.086 230.113L286.624 226.384C286.624 226.384 285.045 212.553 286.096 201.841C287.574 186.789 297.296 168.673 308.89 172.931C320.484 177.189 303.574 192.511 299.812 205.278C296.049 218.045 293.086 230.113 293.086 230.113Z" fill="#ED7B84"/>
<path opacity="0.15" d="M293.086 230.113L286.624 226.384C286.624 226.384 285.045 212.553 286.096 201.841C287.574 186.789 297.296 168.673 308.89 172.931C320.484 177.189 303.574 192.511 299.812 205.278C296.049 218.045 293.086 230.113 293.086 230.113Z" fill="black"/>
<path d="M289.689 228.547C289.792 228.542 289.889 228.496 289.959 228.42C290.029 228.344 290.066 228.244 290.062 228.14C288.93 194.695 305.581 177.867 305.744 177.704C305.818 177.63 305.859 177.53 305.859 177.426C305.859 177.322 305.818 177.222 305.744 177.148C305.708 177.112 305.665 177.083 305.618 177.063C305.571 177.044 305.521 177.033 305.47 177.033C305.418 177.033 305.368 177.044 305.321 177.063C305.274 177.083 305.231 177.112 305.195 177.148C305.019 177.311 288.13 194.383 289.275 228.167C289.277 228.22 289.289 228.271 289.311 228.319C289.333 228.366 289.364 228.409 289.403 228.444C289.441 228.479 289.486 228.507 289.535 228.524C289.585 228.542 289.637 228.55 289.689 228.547Z" fill="white"/>
<path d="M297.147 232.439L292.55 229.788C292.55 229.788 291.764 220.296 296.422 208.77C300.49 198.736 310.524 190.403 315.582 192.152C320.64 193.901 320.511 197.488 318.043 201.251C315.575 205.014 300.585 213.97 297.147 232.439Z" fill="#ED7B84"/>
<path d="M294.72 231.435C294.824 231.434 294.923 231.392 294.996 231.318C295.069 231.245 295.111 231.146 295.113 231.042C295.018 209.888 314.877 195.596 315.08 195.454C315.123 195.425 315.159 195.387 315.186 195.344C315.214 195.301 315.232 195.252 315.24 195.202C315.249 195.151 315.246 195.099 315.234 195.049C315.222 194.999 315.199 194.952 315.168 194.911C315.108 194.828 315.018 194.771 314.916 194.753C314.815 194.735 314.711 194.758 314.626 194.817C314.422 194.959 294.238 209.495 294.327 231.042C294.327 231.146 294.368 231.246 294.442 231.32C294.515 231.394 294.616 231.435 294.72 231.435Z" fill="white"/>
<path d="M54.0094 221.808L59.9758 217.78C59.9758 217.78 62.5997 202.186 60.1589 188.43C56.7282 169.134 43.392 162.72 38.646 164.754C33.9 166.788 32.883 172.531 41.7444 183.541C46.9989 190.016 53.8264 203.841 54.0094 221.808Z" fill="#ED7B84"/>
<g opacity="0.15">
<path d="M54.0094 221.808L59.9758 217.78C59.9758 217.78 62.5997 202.186 60.1589 188.43C56.7282 169.134 43.392 162.72 38.646 164.754C33.9 166.788 32.883 172.531 41.7444 183.541C46.9989 190.016 53.8264 203.841 54.0094 221.808Z" fill="black"/>
</g>
<path d="M56.057 214.078H55.996C55.9351 214.075 55.8756 214.058 55.8216 214.03C55.7675 214.001 55.72 213.962 55.6823 213.914C55.6445 213.866 55.6173 213.81 55.6024 213.751C55.5876 213.692 55.5854 213.63 55.596 213.57C57.752 195.406 50.0839 175.69 41.7377 167.846C41.6574 167.764 41.6123 167.655 41.6123 167.54C41.6123 167.426 41.6574 167.317 41.7377 167.235C41.7774 167.195 41.8249 167.163 41.8773 167.141C41.9297 167.119 41.986 167.107 42.0428 167.107C42.0996 167.107 42.1559 167.119 42.2082 167.141C42.2606 167.163 42.3081 167.195 42.3479 167.235C50.85 175.222 58.6606 195.264 56.4774 213.692C56.4646 213.796 56.4153 213.892 56.3383 213.962C56.2613 214.033 56.1616 214.074 56.057 214.078Z" fill="white"/>
<path d="M38.3883 232.344C37.4391 232.913 34.6729 230.859 33.9068 230.364C32.5937 229.507 31.5242 228.325 30.8015 226.933C29.9908 225.355 29.69 223.564 29.9405 221.808C30.0793 220.891 30.2809 219.985 30.5439 219.096C30.7812 218.207 31.0185 217.319 31.2219 216.424C31.5226 215.554 31.638 214.63 31.5609 213.712C31.2965 211.902 29.6625 210.661 28.1709 209.597C26.5301 208.41 24.7809 206.844 24.7809 204.661C24.8645 202.946 25.521 201.308 26.6454 200.01C27.6624 198.654 28.8828 197.474 29.7981 196.057C30.5138 195.075 30.8791 193.882 30.8354 192.667C30.7176 191.919 30.4501 191.202 30.0489 190.559C29.2489 189.148 28.2116 187.847 27.6488 186.348C27.0861 184.85 27.1268 182.924 28.3268 181.806C29.2828 180.89 30.7405 180.741 32.0626 180.802C33.3084 180.926 34.5119 181.322 35.5882 181.962C39.0935 183.826 41.1546 187.894 44.8632 189.311C46.2938 189.854 47.8532 189.948 49.338 190.315C50.8229 190.681 52.3551 191.406 53.067 192.755C54.4705 195.433 52.0229 198.81 53.0264 201.651C53.9213 204.173 56.4164 205.095 57.8266 207.353C58.399 208.355 58.6365 209.514 58.5046 210.661C58.4251 212.598 57.9907 214.503 57.2232 216.282C56.3404 218.127 55.3441 219.916 54.24 221.638C54.24 221.638 38.5307 232.256 38.3883 232.344Z" fill="#ED7B84"/>
<path d="M47.5549 226.723C47.4979 226.722 47.4417 226.71 47.3894 226.688C47.337 226.665 47.2897 226.632 47.25 226.591C47.2104 226.55 47.1792 226.502 47.1582 226.449C47.1372 226.396 47.1269 226.339 47.1278 226.282C47.5074 209.115 39.0596 190.348 33.0796 184.924C32.9946 184.848 32.9434 184.741 32.937 184.626C32.9307 184.512 32.9697 184.4 33.0457 184.314C33.0855 184.274 33.1329 184.241 33.1853 184.219C33.2377 184.197 33.294 184.186 33.3508 184.186C33.4076 184.186 33.4639 184.197 33.5163 184.219C33.5687 184.241 33.6161 184.274 33.6559 184.314C39.7579 189.806 48.3753 208.899 47.9888 226.303C47.9879 226.359 47.976 226.414 47.9537 226.466C47.9314 226.517 47.8992 226.564 47.8589 226.603C47.8186 226.642 47.7711 226.673 47.7189 226.693C47.6667 226.714 47.611 226.724 47.5549 226.723Z" fill="white"/>
<path d="M44.3886 205.807C44.3486 205.817 44.3066 205.817 44.2666 205.807C38.7205 204.207 31.8456 204.044 31.7778 204.037C31.7211 204.036 31.6652 204.024 31.6133 204.002C31.5613 203.979 31.5144 203.946 31.4753 203.905C31.4362 203.864 31.4056 203.816 31.3854 203.763C31.3651 203.71 31.3556 203.653 31.3575 203.597C31.3564 203.539 31.3672 203.482 31.3893 203.43C31.4113 203.377 31.4441 203.329 31.4855 203.29C31.5269 203.25 31.5761 203.22 31.6299 203.2C31.6837 203.181 31.741 203.172 31.7982 203.176C31.866 203.176 38.8494 203.346 44.5039 204.973C44.6132 205.006 44.705 205.081 44.7596 205.181C44.8142 205.281 44.827 205.399 44.7954 205.508C44.769 205.596 44.7151 205.672 44.6417 205.725C44.5684 205.779 44.4796 205.808 44.3886 205.807Z" fill="white"/>
<path d="M204.187 210.004L201.617 208.519C201.189 208.241 200.832 207.866 200.577 207.424C200.321 206.982 200.173 206.486 200.146 205.976V99.1779C200.174 98.6691 200.321 98.1739 200.575 97.7323C200.829 97.2907 201.184 96.915 201.61 96.6354L273.037 55.3995C273.492 55.169 273.995 55.0488 274.505 55.0488C275.015 55.0488 275.518 55.169 275.973 55.3995L278.543 56.8843C278.971 57.1623 279.327 57.5375 279.583 57.9793C279.839 58.4211 279.986 58.9171 280.014 59.4268V166.225C279.986 166.734 279.839 167.229 279.585 167.671C279.33 168.113 278.976 168.488 278.55 168.768L207.122 210.011C206.667 210.242 206.164 210.362 205.654 210.36C205.143 210.359 204.64 210.237 204.187 210.004Z" fill="#9F8396"/>
<path d="M280.014 59.1895C279.912 58.4301 279.295 58.1522 278.556 58.5793L207.122 99.822C206.69 100.093 206.334 100.468 206.085 100.914L200.573 97.7338C200.819 97.2853 201.176 96.9072 201.61 96.6354L273.037 55.3995C273.492 55.169 273.995 55.0488 274.505 55.0488C275.015 55.0488 275.518 55.169 275.973 55.3995L278.543 56.8843C278.94 57.1398 279.277 57.4781 279.531 57.876C279.784 58.2739 279.949 58.7219 280.014 59.1895Z" fill="#9F8396"/>
<path d="M206.871 210.126C206.437 210.302 205.971 210.382 205.503 210.363C205.035 210.343 204.577 210.223 204.159 210.011L201.583 208.519C201.157 208.24 200.802 207.864 200.548 207.422C200.294 206.981 200.146 206.485 200.118 205.977V99.178C200.136 98.6682 200.283 98.1712 200.546 97.7339L206.058 100.914C205.79 101.352 205.64 101.852 205.624 102.365V209.163C205.651 210.004 206.18 210.39 206.871 210.126Z" fill="#090307"/>
<path d="M205.651 102.378V209.163C205.651 210.099 206.329 210.478 207.122 210.01L278.55 168.768C278.976 168.488 279.33 168.113 279.585 167.671C279.839 167.229 279.986 166.734 280.014 166.225V59.4267C280.014 58.4911 279.336 58.1114 278.55 58.5792L207.122 99.8219C206.692 100.101 206.335 100.479 206.079 100.923C205.823 101.367 205.677 101.866 205.651 102.378Z" fill="#37474F"/>
<path d="M188.972 143.058C188.05 142.509 183.772 140.075 183.548 139.946C183.374 139.842 183.225 139.7 183.113 139.531C183.001 139.362 182.928 139.17 182.9 138.968C182.872 138.767 182.889 138.563 182.951 138.369C183.013 138.176 183.117 137.999 183.257 137.851L200.146 119.735L205.651 122.894L188.769 141.024C188.636 141.165 188.535 141.333 188.473 141.517C188.411 141.7 188.389 141.895 188.408 142.087C188.427 142.28 188.488 142.466 188.585 142.634C188.682 142.801 188.814 142.946 188.972 143.058Z" fill="#9F8396"/>
<path d="M205.651 122.915L188.769 141.024C188.581 141.224 188.459 141.477 188.418 141.748C188.377 142.019 188.419 142.296 188.538 142.543C188.658 142.79 188.85 142.994 189.088 143.13C189.327 143.266 189.601 143.326 189.874 143.302L205.651 142V122.915Z" fill="#37474F"/>
<path d="M242.833 90.3096C251.158 85.5026 257.904 89.4011 257.904 99.0151C257.904 108.629 251.158 120.311 242.833 125.118C234.507 129.925 227.761 126.027 227.761 116.419C227.761 106.812 234.507 95.1166 242.833 90.3096Z" fill="#ED7B84"/>
<path d="M242.724 97.8761C245.436 96.3167 247.612 97.5778 247.612 100.697C247.52 102.392 247.029 104.042 246.18 105.512C245.331 106.982 244.147 108.231 242.724 109.158C240.012 110.717 237.829 109.456 237.829 106.338C237.922 104.642 238.414 102.991 239.264 101.521C240.115 100.051 241.3 98.8022 242.724 97.8761Z" fill="white"/>
<path d="M252.365 114.501C252.365 109.382 248.765 107.3 244.331 109.863L241.558 111.463C237.124 114.026 233.524 120.277 233.524 125.383V126.786C234.361 127.054 235.235 127.189 236.114 127.186C238.492 127.105 240.808 126.404 242.833 125.152C246.687 122.778 249.947 119.555 252.365 115.728V114.501Z" fill="white"/>
<path d="M233.286 172.707L252.379 161.683C253.192 161.215 253.85 161.595 253.85 162.53V168.68C253.822 169.189 253.675 169.685 253.419 170.127C253.163 170.569 252.807 170.944 252.379 171.222L233.286 182.246C232.473 182.714 231.815 182.335 231.815 181.399V175.25C231.843 174.74 231.99 174.244 232.246 173.802C232.502 173.36 232.858 172.985 233.286 172.707Z" fill="#ED7B84"/>
<path d="M223.937 158.971L261.708 137.153C262.678 136.59 263.471 137.044 263.471 138.17V140.455C263.438 141.066 263.261 141.661 262.954 142.191C262.648 142.721 262.221 143.172 261.708 143.506L223.916 165.324C222.947 165.886 222.16 165.432 222.16 164.307V162.042C222.191 161.426 222.368 160.826 222.677 160.292C222.986 159.758 223.418 159.305 223.937 158.971Z" fill="#FAFAFA"/>
<path d="M228.357 143.18C228.872 142.882 229.272 142.834 229.557 143.045C229.842 143.255 229.984 143.723 229.984 144.441C229.999 145.097 229.852 145.747 229.557 146.333C229.291 146.863 228.873 147.302 228.357 147.594L227.34 148.184V150.374C227.338 150.449 227.32 150.523 227.286 150.591C227.262 150.652 227.219 150.704 227.164 150.74L226.649 151.038C226.631 151.051 226.61 151.059 226.588 151.059C226.566 151.059 226.544 151.051 226.527 151.038C226.49 150.992 226.473 150.934 226.479 150.875V144.536C226.479 144.461 226.495 144.387 226.527 144.319C226.552 144.259 226.595 144.207 226.649 144.17L228.357 143.18ZM227.34 146.957L228.323 146.387C228.561 146.253 228.761 146.062 228.906 145.831C229.061 145.559 229.136 145.249 229.123 144.936C229.123 144.57 229.049 144.36 228.906 144.299C228.806 144.274 228.701 144.273 228.6 144.296C228.499 144.318 228.404 144.363 228.323 144.428L227.34 144.997V146.957Z" fill="#FAFAFA"/>
<path d="M232.825 140.597C232.893 140.556 232.947 140.556 232.981 140.597C233.025 140.658 233.055 140.727 233.069 140.8L234.635 146.102C234.635 146.102 234.635 146.143 234.635 146.163C234.634 146.239 234.616 146.313 234.581 146.38C234.557 146.442 234.515 146.494 234.459 146.529L233.998 146.794C233.917 146.841 233.856 146.848 233.822 146.794C233.789 146.76 233.766 146.718 233.754 146.672L233.476 145.743L231.442 146.909L231.171 148.157C231.152 148.224 231.127 148.29 231.096 148.353C231.063 148.436 231 148.503 230.92 148.543L230.459 148.807C230.442 148.822 230.42 148.83 230.398 148.83C230.376 148.83 230.354 148.822 230.337 148.807C230.301 148.764 230.284 148.708 230.289 148.652C230.286 148.627 230.286 148.602 230.289 148.577L231.849 141.472C231.868 141.367 231.897 141.265 231.937 141.166C231.97 141.095 232.025 141.036 232.093 140.997L232.825 140.597ZM233.178 144.706L232.5 142.312L231.822 145.512L233.178 144.706Z" fill="#FAFAFA"/>
<path d="M237.008 138.082C237.235 137.938 237.494 137.852 237.761 137.831C237.95 137.814 238.14 137.856 238.303 137.953C238.452 138.049 238.568 138.189 238.636 138.353C238.71 138.52 238.751 138.699 238.758 138.882C238.762 138.957 238.746 139.032 238.71 139.099C238.686 139.16 238.644 139.212 238.588 139.248L238.141 139.505C238.066 139.546 238.012 139.553 237.978 139.505C237.936 139.478 237.901 139.441 237.876 139.397C237.849 139.336 237.81 139.281 237.761 139.236C237.712 139.19 237.654 139.155 237.592 139.133C237.385 139.103 237.175 139.157 237.008 139.282C236.899 139.353 236.794 139.432 236.697 139.519C236.596 139.612 236.507 139.716 236.432 139.831C236.36 139.941 236.301 140.06 236.256 140.183C236.216 140.301 236.195 140.425 236.195 140.55C236.187 140.664 236.208 140.778 236.256 140.882C236.277 140.918 236.306 140.949 236.342 140.971C236.377 140.994 236.417 141.007 236.459 141.011C236.585 141.032 236.713 141.032 236.839 141.011L237.429 140.882C237.649 140.817 237.878 140.789 238.107 140.8C238.27 140.8 238.43 140.852 238.561 140.95C238.685 141.054 238.775 141.193 238.819 141.35C238.885 141.569 238.915 141.798 238.907 142.028C238.906 142.331 238.863 142.632 238.778 142.923C238.695 143.222 238.575 143.509 238.419 143.777C238.254 144.052 238.059 144.307 237.836 144.536C237.608 144.773 237.347 144.976 237.063 145.14C236.854 145.267 236.624 145.356 236.385 145.404C236.19 145.442 235.988 145.425 235.802 145.357C235.632 145.278 235.492 145.147 235.402 144.984C235.291 144.775 235.23 144.542 235.225 144.306C235.225 144.229 235.241 144.152 235.273 144.082C235.303 144.024 235.347 143.975 235.402 143.94L235.849 143.682C235.917 143.641 235.971 143.628 236.012 143.648C236.052 143.668 236.08 143.702 236.107 143.763C236.135 143.833 236.171 143.899 236.215 143.96C236.257 144.019 236.316 144.064 236.385 144.089C236.474 144.109 236.567 144.109 236.656 144.089C236.8 144.055 236.937 143.998 237.063 143.919C237.194 143.844 237.319 143.758 237.436 143.662C237.664 143.481 237.845 143.249 237.964 142.984C238.019 142.848 238.046 142.703 238.046 142.556C238.052 142.503 238.048 142.45 238.032 142.398C238.017 142.347 237.992 142.299 237.958 142.258C237.921 142.226 237.878 142.202 237.831 142.188C237.784 142.174 237.735 142.17 237.686 142.177C237.533 142.183 237.38 142.208 237.232 142.251C237.056 142.292 236.853 142.34 236.615 142.38C236.434 142.426 236.246 142.439 236.059 142.421C235.913 142.411 235.774 142.352 235.666 142.251C235.549 142.137 235.466 141.991 235.429 141.831C235.374 141.595 235.349 141.354 235.354 141.112C235.354 140.814 235.397 140.517 235.483 140.231C235.564 139.937 235.682 139.654 235.836 139.39C235.982 139.128 236.16 138.885 236.364 138.665C236.55 138.441 236.767 138.245 237.008 138.082Z" fill="#FAFAFA"/>
<path d="M241.463 135.519C241.688 135.371 241.947 135.283 242.216 135.261C242.405 135.245 242.594 135.288 242.758 135.383C242.903 135.482 243.016 135.621 243.083 135.783C243.157 135.95 243.199 136.13 243.205 136.312C243.213 136.388 243.197 136.464 243.158 136.529C243.134 136.59 243.091 136.643 243.036 136.678L242.588 136.936C242.521 136.976 242.466 136.99 242.426 136.936C242.382 136.909 242.349 136.868 242.331 136.821C242.269 136.702 242.165 136.61 242.039 136.563C241.938 136.548 241.835 136.554 241.736 136.579C241.637 136.605 241.544 136.65 241.463 136.712C241.35 136.781 241.243 136.861 241.144 136.949C241.046 137.042 240.959 137.147 240.887 137.261C240.812 137.37 240.753 137.489 240.71 137.614C240.668 137.731 240.645 137.855 240.643 137.98C240.635 138.094 240.656 138.208 240.704 138.312C240.724 138.349 240.754 138.379 240.789 138.402C240.825 138.424 240.865 138.438 240.907 138.441C241.033 138.463 241.161 138.463 241.287 138.441L241.877 138.312C242.097 138.251 242.326 138.223 242.555 138.231C242.718 138.229 242.878 138.282 243.009 138.38C243.133 138.486 243.224 138.624 243.273 138.78C243.333 139.001 243.36 139.229 243.355 139.458C243.354 139.761 243.311 140.062 243.226 140.353C243.143 140.652 243.022 140.939 242.866 141.207C242.703 141.485 242.507 141.742 242.283 141.973C242.054 142.204 241.797 142.405 241.517 142.57C241.308 142.697 241.079 142.786 240.839 142.834C240.646 142.871 240.447 142.855 240.263 142.787C240.09 142.711 239.947 142.58 239.856 142.414C239.745 142.205 239.686 141.973 239.687 141.736C239.679 141.66 239.695 141.584 239.734 141.519C239.758 141.458 239.801 141.406 239.856 141.37L240.304 141.112C240.371 141.072 240.432 141.058 240.466 141.078C240.49 141.089 240.511 141.105 240.527 141.125C240.544 141.145 240.555 141.168 240.561 141.194C240.592 141.262 240.628 141.328 240.67 141.39C240.714 141.45 240.776 141.495 240.846 141.519C240.935 141.54 241.028 141.54 241.117 141.519C241.261 141.485 241.399 141.428 241.524 141.35C241.652 141.273 241.775 141.187 241.89 141.092C242.009 140.999 242.114 140.889 242.202 140.766C242.29 140.649 242.363 140.522 242.419 140.387C242.473 140.251 242.501 140.106 242.5 139.96C242.507 139.907 242.502 139.853 242.487 139.801C242.472 139.75 242.446 139.702 242.412 139.661C242.375 139.629 242.332 139.605 242.285 139.591C242.239 139.577 242.189 139.573 242.141 139.58C241.99 139.589 241.84 139.614 241.693 139.655C241.517 139.695 241.307 139.743 241.076 139.783C240.893 139.829 240.702 139.843 240.514 139.824C240.367 139.816 240.227 139.756 240.121 139.655C240.005 139.539 239.925 139.393 239.89 139.234C239.83 139.002 239.802 138.762 239.809 138.522C239.811 138.222 239.854 137.923 239.937 137.634C240.021 137.341 240.14 137.059 240.29 136.793C240.437 136.53 240.617 136.286 240.826 136.068C241.008 135.853 241.223 135.668 241.463 135.519Z" fill="#FAFAFA"/>
<path d="M246.406 136.366L245.856 139.614C245.84 139.712 245.813 139.807 245.775 139.899C245.749 139.972 245.699 140.034 245.633 140.075L245.117 140.373C245.05 140.414 245.002 140.414 244.968 140.373C244.923 140.318 244.897 140.249 244.894 140.177L244.08 134.448C244.08 134.448 244.08 134.393 244.08 134.373C244.082 134.298 244.101 134.223 244.134 134.156C244.16 134.096 244.202 134.044 244.256 134.007L244.724 133.736C244.763 133.72 244.807 133.72 244.846 133.736C244.887 133.736 244.914 133.79 244.928 133.898L245.463 137.756L245.931 134.861C245.943 134.789 245.964 134.718 245.992 134.651C246.019 134.565 246.077 134.493 246.155 134.448L246.677 134.142C246.751 134.102 246.806 134.109 246.839 134.142C246.869 134.186 246.889 134.234 246.9 134.285L247.375 136.637L247.911 132.163C247.917 132.075 247.943 131.989 247.985 131.912C248.017 131.861 248.058 131.817 248.107 131.783L248.575 131.512C248.593 131.499 248.614 131.491 248.636 131.491C248.658 131.491 248.68 131.499 248.697 131.512C248.716 131.534 248.731 131.56 248.741 131.588C248.75 131.616 248.754 131.645 248.751 131.675C248.754 131.702 248.754 131.729 248.751 131.756L247.938 138.421C247.924 138.518 247.899 138.614 247.863 138.705C247.832 138.778 247.78 138.839 247.714 138.882L247.192 139.18C247.131 139.214 247.084 139.214 247.05 139.18C247.015 139.118 246.988 139.052 246.968 138.983L246.406 136.366Z" fill="#FAFAFA"/>
<path d="M249.579 133.492C249.594 133.116 249.639 132.742 249.714 132.373C249.792 132.013 249.91 131.662 250.067 131.329C250.216 131.005 250.408 130.701 250.636 130.427C250.868 130.155 251.146 129.925 251.457 129.749C251.695 129.587 251.975 129.495 252.263 129.485C252.479 129.487 252.685 129.572 252.84 129.722C253.004 129.906 253.122 130.127 253.186 130.366C253.273 130.677 253.321 130.999 253.328 131.322C253.328 131.444 253.328 131.58 253.328 131.729C253.328 131.878 253.328 132.034 253.328 132.197C253.328 132.359 253.328 132.515 253.328 132.664C253.328 132.814 253.328 132.956 253.328 133.085C253.313 133.459 253.268 133.83 253.192 134.197C253.114 134.556 252.998 134.906 252.847 135.241C252.692 135.564 252.499 135.867 252.27 136.143C252.038 136.412 251.764 136.641 251.457 136.821C251.212 136.981 250.929 137.073 250.636 137.085C250.531 137.087 250.426 137.068 250.328 137.028C250.23 136.989 250.141 136.929 250.067 136.854C249.89 136.665 249.768 136.43 249.714 136.176C249.633 135.864 249.588 135.543 249.579 135.221C249.579 135.098 249.579 134.963 249.579 134.814C249.579 134.665 249.579 134.509 249.579 134.346C249.579 134.183 249.579 134.034 249.579 133.878C249.579 133.722 249.572 133.614 249.579 133.492ZM252.467 131.871C252.482 131.705 252.463 131.538 252.412 131.38C252.361 131.221 252.278 131.075 252.169 130.949C251.992 130.793 251.748 130.8 251.457 130.949C251.14 131.135 250.889 131.415 250.738 131.749C250.546 132.144 250.444 132.577 250.44 133.017C250.44 133.268 250.44 133.546 250.44 133.851C250.44 134.156 250.44 134.427 250.44 134.671C250.425 134.837 250.443 135.004 250.494 135.163C250.546 135.321 250.629 135.468 250.738 135.593C250.914 135.743 251.158 135.729 251.457 135.56C251.768 135.372 252.016 135.096 252.169 134.766C252.361 134.373 252.463 133.943 252.467 133.505C252.467 133.248 252.467 132.97 252.467 132.664C252.467 132.359 252.474 132.115 252.467 131.871Z" fill="#FAFAFA"/>
<path d="M256.284 127.044C256.82 126.739 257.22 126.691 257.498 126.915C257.662 127.097 257.785 127.312 257.856 127.547C257.928 127.781 257.947 128.029 257.911 128.271C257.917 128.732 257.846 129.19 257.701 129.627C257.563 130.034 257.349 130.412 257.07 130.739L257.952 132.658C257.955 132.689 257.955 132.721 257.952 132.753C257.952 132.814 257.938 132.874 257.911 132.929C257.892 132.978 257.859 133.021 257.816 133.051L257.274 133.363C257.186 133.41 257.125 133.417 257.084 133.363C257.048 133.327 257.018 133.286 256.996 133.241L256.162 131.431L255.314 131.919V134.21C255.315 134.285 255.299 134.359 255.267 134.427C255.239 134.486 255.197 134.537 255.145 134.576L254.63 134.875C254.613 134.889 254.591 134.897 254.569 134.897C254.546 134.897 254.525 134.889 254.508 134.875C254.488 134.854 254.473 134.829 254.464 134.803C254.455 134.776 254.451 134.747 254.453 134.719V128.38C254.455 128.304 254.474 128.23 254.508 128.163C254.532 128.101 254.574 128.049 254.63 128.013L256.284 127.044ZM255.328 130.691L256.284 130.176C256.518 130.046 256.717 129.862 256.867 129.641C257.024 129.379 257.1 129.077 257.084 128.773C257.084 128.407 257.009 128.203 256.867 128.163C256.661 128.134 256.452 128.188 256.284 128.312L255.362 128.841L255.328 130.691Z" fill="#FAFAFA"/>
<path d="M260.827 124.434C261.073 124.273 261.354 124.175 261.647 124.149C261.859 124.141 262.066 124.216 262.223 124.359C262.403 124.548 262.527 124.782 262.583 125.037C262.674 125.373 262.724 125.719 262.732 126.067C262.732 126.542 262.732 127.03 262.732 127.525C262.718 127.929 262.668 128.33 262.583 128.725C262.505 129.092 262.387 129.449 262.23 129.79C262.079 130.102 261.887 130.394 261.661 130.658C261.434 130.927 261.164 131.156 260.861 131.336L259.254 132.21C259.237 132.225 259.215 132.232 259.193 132.232C259.17 132.232 259.149 132.225 259.132 132.21C259.112 132.19 259.097 132.165 259.087 132.138C259.078 132.111 259.075 132.083 259.077 132.054V125.715C259.079 125.64 259.098 125.565 259.132 125.498C259.156 125.437 259.198 125.384 259.254 125.349L260.827 124.434ZM261.871 126.542C261.868 126.358 261.84 126.176 261.789 126C261.758 125.866 261.69 125.744 261.593 125.647C261.55 125.605 261.499 125.571 261.443 125.549C261.387 125.527 261.327 125.516 261.267 125.518C261.098 125.53 260.934 125.586 260.793 125.681L259.938 126.169V130.59L260.827 130.081C260.998 129.981 261.152 129.853 261.281 129.702C261.407 129.553 261.514 129.389 261.6 129.213C261.684 129.027 261.748 128.831 261.789 128.63C261.837 128.421 261.864 128.208 261.871 127.993C261.891 127.498 261.891 127.017 261.871 126.542Z" fill="#FAFAFA"/>
<path d="M167.724 26.0284C168.894 26.2888 170.022 26.7134 171.073 27.2895C172.08 27.8307 172.982 28.5471 173.738 29.4049C174.46 30.23 174.997 31.2013 175.31 32.2525C175.63 33.3777 175.654 34.5666 175.378 35.7035C175.196 36.6049 174.839 37.4618 174.327 38.2256C173.86 38.8788 173.303 39.4631 172.673 39.9613C172.054 40.4417 171.394 40.866 170.7 41.2292L168.747 42.2665C168.159 42.5733 167.601 42.9342 167.08 43.3445C166.608 43.7063 166.246 44.1923 166.035 44.748C165.932 45.0019 165.761 45.2224 165.54 45.3853C165.436 45.4663 165.315 45.5225 165.186 45.5495C165.056 45.5765 164.923 45.5737 164.795 45.5413L161.92 44.9039C161.782 44.8749 161.65 44.8186 161.534 44.7383C161.417 44.6579 161.318 44.5552 161.242 44.4361C161.161 44.3254 161.107 44.1971 161.084 44.0617C161.062 43.9262 161.072 43.7874 161.113 43.6564C161.345 42.7661 161.753 41.9315 162.313 41.2021C162.825 40.5569 163.417 39.9803 164.076 39.4867C164.718 39.0168 165.398 38.6018 166.11 38.246C166.788 37.9002 167.466 37.568 168.056 37.2358C168.605 36.9408 169.12 36.5886 169.595 36.1849C170.011 35.8364 170.3 35.3593 170.415 34.8289C170.523 34.3682 170.518 33.8883 170.4 33.4302C170.282 32.9721 170.054 32.5494 169.737 32.1982C168.945 31.3326 167.885 30.7574 166.727 30.5642C164.585 30.0896 162.777 30.8106 161.303 32.7271C161.161 32.9363 160.982 33.1178 160.774 33.2627C160.54 33.3787 160.27 33.3982 160.022 33.3169L156.964 32.6389C156.746 32.5968 156.553 32.47 156.428 32.2864C156.361 32.1882 156.317 32.0769 156.297 31.9599C156.277 31.8429 156.282 31.723 156.313 31.6084C156.573 30.6662 157.057 29.8009 157.723 29.0862C158.475 28.2573 159.368 27.5686 160.361 27.0522C161.446 26.4843 162.616 26.0951 163.825 25.8996C165.121 25.6889 166.445 25.7326 167.724 26.0284ZM164.476 47.8465C164.745 47.9096 164.979 48.0755 165.127 48.3086C165.275 48.5417 165.326 48.8236 165.269 49.094L164.537 52.4162C164.512 52.5553 164.458 52.6876 164.379 52.8044C164.299 52.9213 164.196 53.02 164.076 53.0942C163.963 53.1724 163.834 53.2261 163.699 53.2518C163.563 53.2775 163.424 53.2746 163.29 53.2433L160.008 52.4908C159.868 52.4672 159.736 52.4139 159.619 52.3343C159.502 52.2547 159.403 52.1508 159.33 52.0297C159.254 51.9152 159.202 51.7864 159.178 51.6512C159.153 51.5159 159.157 51.3771 159.188 51.2432L159.927 47.921C159.99 47.6517 160.155 47.4176 160.388 47.2683C160.621 47.1189 160.903 47.0661 161.174 47.121L164.476 47.8465Z" fill="#ED7B84"/>
<path d="M171.344 57.8335C172.161 57.7025 172.991 57.6865 173.812 57.786C174.596 57.8792 175.358 58.1087 176.063 58.464C176.735 58.8124 177.326 59.2974 177.799 59.8878C178.224 60.4657 178.523 61.1262 178.677 61.8269C178.832 62.5276 178.837 63.2528 178.694 63.9558C178.565 64.4963 178.357 65.0148 178.077 65.4949C177.807 65.9618 177.494 66.4022 177.141 66.8102C176.795 67.217 176.463 67.6034 176.158 67.9763C175.859 68.3238 175.594 68.6983 175.365 69.095C175.15 69.4428 175.041 69.8458 175.053 70.2544C175.047 70.4454 174.993 70.6319 174.897 70.7968C174.848 70.8728 174.783 70.9376 174.707 70.9867C174.631 71.0358 174.546 71.0681 174.456 71.0816L172.422 71.407C172.327 71.4243 172.23 71.4224 172.135 71.4014C172.041 71.3804 171.952 71.3409 171.873 71.285C171.793 71.2346 171.726 71.166 171.678 71.0846C171.629 71.0033 171.601 70.9116 171.595 70.8172C171.51 70.1863 171.556 69.5445 171.731 68.9323C171.89 68.3903 172.118 67.8709 172.409 67.3865C172.694 66.9216 173.021 66.4836 173.385 66.0779C173.744 65.6711 174.063 65.2915 174.375 64.9253C174.653 64.5984 174.894 64.2413 175.094 63.8609C175.27 63.5334 175.334 63.1571 175.277 62.7896C175.226 62.4662 175.097 62.1598 174.902 61.8966C174.708 61.6334 174.452 61.4211 174.158 61.2777C173.429 60.9256 172.604 60.8254 171.812 60.9929C171.095 61.0978 170.428 61.4219 169.902 61.9208C169.377 62.4197 169.018 63.0689 168.876 63.7795C168.837 63.9504 168.768 64.1133 168.673 64.2609C168.552 64.3896 168.388 64.4692 168.212 64.4846L166.069 64.8304C165.919 64.8592 165.763 64.8276 165.635 64.7423C165.57 64.6974 165.515 64.6391 165.474 64.5713C165.433 64.5035 165.407 64.4277 165.398 64.349C165.334 63.6763 165.439 62.9982 165.703 62.3761C165.971 61.6521 166.366 60.9818 166.869 60.3963C167.421 59.7552 168.071 59.206 168.795 58.7691C169.576 58.2953 170.442 57.9776 171.344 57.8335ZM174.843 72.6478C174.936 72.633 175.031 72.6367 175.123 72.6588C175.215 72.6809 175.302 72.7209 175.378 72.7766C175.458 72.8291 175.526 72.898 175.577 72.9786C175.629 73.0592 175.663 73.1498 175.677 73.2444L176.056 75.5699C176.086 75.7586 176.04 75.9512 175.928 76.1061C175.816 76.2609 175.648 76.3655 175.46 76.3971L173.188 76.77C173 76.7992 172.807 76.7529 172.653 76.6412C172.574 76.588 172.507 76.5188 172.457 76.4382C172.407 76.3576 172.374 76.2674 172.361 76.1734L171.982 73.8478C171.964 73.7545 171.967 73.6586 171.989 73.5663C172.011 73.4741 172.053 73.3875 172.11 73.3122C172.164 73.2336 172.233 73.167 172.313 73.1167C172.394 73.0665 172.484 73.0338 172.578 73.0207L174.843 72.6478Z" fill="#ED7B84"/>
<g opacity="0.2">
<path d="M171.344 57.8335C172.161 57.7025 172.991 57.6865 173.812 57.786C174.596 57.8792 175.358 58.1087 176.063 58.464C176.735 58.8124 177.326 59.2974 177.799 59.8878C178.224 60.4657 178.523 61.1262 178.677 61.8269C178.832 62.5276 178.837 63.2528 178.694 63.9558C178.565 64.4963 178.357 65.0148 178.077 65.4949C177.807 65.9618 177.494 66.4022 177.141 66.8102C176.795 67.217 176.463 67.6034 176.158 67.9763C175.859 68.3238 175.594 68.6983 175.365 69.095C175.15 69.4428 175.041 69.8458 175.053 70.2544C175.047 70.4454 174.993 70.6319 174.897 70.7968C174.848 70.8728 174.783 70.9376 174.707 70.9867C174.631 71.0358 174.546 71.0681 174.456 71.0816L172.422 71.407C172.327 71.4243 172.23 71.4224 172.135 71.4014C172.041 71.3804 171.952 71.3409 171.873 71.285C171.793 71.2346 171.726 71.166 171.678 71.0846C171.629 71.0033 171.601 70.9116 171.595 70.8172C171.51 70.1863 171.556 69.5445 171.731 68.9323C171.89 68.3903 172.118 67.8709 172.409 67.3865C172.694 66.9216 173.021 66.4836 173.385 66.0779C173.744 65.6711 174.063 65.2915 174.375 64.9253C174.653 64.5984 174.894 64.2413 175.094 63.8609C175.27 63.5334 175.334 63.1571 175.277 62.7896C175.226 62.4662 175.097 62.1598 174.902 61.8966C174.708 61.6334 174.452 61.4211 174.158 61.2777C173.429 60.9256 172.604 60.8254 171.812 60.9929C171.095 61.0978 170.428 61.4219 169.902 61.9208C169.377 62.4197 169.018 63.0689 168.876 63.7795C168.837 63.9504 168.768 64.1133 168.673 64.2609C168.552 64.3896 168.388 64.4692 168.212 64.4846L166.069 64.8304C165.919 64.8592 165.763 64.8276 165.635 64.7423C165.57 64.6974 165.515 64.6391 165.474 64.5713C165.433 64.5035 165.407 64.4277 165.398 64.349C165.334 63.6763 165.439 62.9982 165.703 62.3761C165.971 61.6521 166.366 60.9818 166.869 60.3963C167.421 59.7552 168.071 59.206 168.795 58.7691C169.576 58.2953 170.442 57.9776 171.344 57.8335ZM174.843 72.6478C174.936 72.633 175.031 72.6367 175.123 72.6588C175.215 72.6809 175.302 72.7209 175.378 72.7766C175.458 72.8291 175.526 72.898 175.577 72.9786C175.629 73.0592 175.663 73.1498 175.677 73.2444L176.056 75.5699C176.086 75.7586 176.04 75.9512 175.928 76.1061C175.816 76.2609 175.648 76.3655 175.46 76.3971L173.188 76.77C173 76.7992 172.807 76.7529 172.653 76.6412C172.574 76.588 172.507 76.5188 172.457 76.4382C172.407 76.3576 172.374 76.2674 172.361 76.1734L171.982 73.8478C171.964 73.7545 171.967 73.6586 171.989 73.5663C172.011 73.4741 172.053 73.3875 172.11 73.3122C172.164 73.2336 172.233 73.167 172.313 73.1167C172.394 73.0665 172.484 73.0338 172.578 73.0207L174.843 72.6478Z" fill="black"/>
</g>
<path d="M190.518 61.4877C190.61 61.552 190.689 61.6344 190.748 61.73C190.808 61.8256 190.847 61.9324 190.864 62.0437C190.885 62.154 190.884 62.2676 190.859 62.3772C190.835 62.4869 190.788 62.5904 190.721 62.681L189.108 64.9523C189.044 65.0447 188.961 65.1231 188.865 65.1825C188.77 65.242 188.663 65.2813 188.552 65.2981C188.442 65.3196 188.328 65.3181 188.218 65.2936C188.109 65.2691 188.005 65.2222 187.915 65.1557L185.691 63.576C185.598 63.5125 185.52 63.4302 185.462 63.3344C185.403 63.2385 185.366 63.1314 185.352 63.02C185.33 62.9097 185.332 62.7961 185.356 62.6864C185.381 62.5767 185.428 62.4733 185.494 62.3827L187.128 60.1114C187.26 59.9273 187.46 59.8027 187.683 59.7646C187.906 59.7265 188.136 59.778 188.321 59.908L190.518 61.4877ZM199.902 46.1039C200.712 46.6722 201.434 47.3576 202.044 48.1379C202.639 48.8637 203.098 49.6904 203.4 50.5787C203.681 51.4299 203.776 52.3318 203.678 53.2229C203.563 54.1732 203.203 55.0773 202.634 55.8468C202.211 56.4689 201.667 56.9992 201.034 57.4062C200.477 57.7553 199.871 58.0203 199.237 58.1926C198.619 58.3541 197.989 58.463 197.352 58.5181L195.549 58.6808C195.008 58.724 194.472 58.8171 193.949 58.9588C193.466 59.0684 193.024 59.313 192.674 59.6639C192.516 59.8242 192.317 59.937 192.098 59.9893C191.994 60.0192 191.884 60.0237 191.778 60.0025C191.672 59.9812 191.572 59.9349 191.488 59.8673L189.521 58.4706C189.333 58.3364 189.205 58.1348 189.162 57.9079C189.137 57.7979 189.138 57.6835 189.165 57.574C189.192 57.4644 189.244 57.3628 189.318 57.2773C189.777 56.6813 190.351 56.1834 191.006 55.8129C191.596 55.4909 192.225 55.247 192.877 55.0874C193.507 54.9346 194.149 54.837 194.796 54.7959C195.434 54.7552 196.03 54.7077 196.586 54.6535C197.095 54.6085 197.597 54.5085 198.085 54.3552C198.511 54.2132 198.878 53.9343 199.129 53.5619C199.355 53.2474 199.503 52.8828 199.558 52.4992C199.614 52.1156 199.576 51.7242 199.447 51.3584C199.127 50.4547 198.513 49.684 197.705 49.1685C196.24 48.1243 194.643 48.0904 192.911 49.0668C192.737 49.1776 192.544 49.2558 192.342 49.2973C192.236 49.3046 192.131 49.291 192.031 49.2573C191.931 49.2235 191.838 49.1703 191.759 49.1007L189.671 47.6158C189.595 47.5656 189.53 47.5008 189.48 47.4251C189.43 47.3494 189.396 47.2644 189.379 47.1751C189.363 47.0829 189.366 46.9882 189.388 46.8972C189.41 46.8062 189.451 46.7208 189.508 46.6463C190.001 46.015 190.641 45.5144 191.372 45.1886C192.203 44.8121 193.093 44.5827 194.003 44.5106C195.004 44.427 196.011 44.5071 196.986 44.7479C198.038 45.0015 199.03 45.4625 199.902 46.1039Z" fill="#ED7B84"/>
<g opacity="0.6">
<path d="M190.518 61.4877C190.61 61.552 190.689 61.6344 190.748 61.73C190.808 61.8256 190.847 61.9324 190.864 62.0437C190.885 62.154 190.884 62.2676 190.859 62.3772C190.835 62.4869 190.788 62.5904 190.721 62.681L189.108 64.9523C189.044 65.0447 188.961 65.1231 188.865 65.1825C188.77 65.242 188.663 65.2813 188.552 65.2981C188.442 65.3196 188.328 65.3181 188.218 65.2936C188.109 65.2691 188.005 65.2222 187.915 65.1557L185.691 63.576C185.598 63.5125 185.52 63.4302 185.462 63.3344C185.403 63.2385 185.366 63.1314 185.352 63.02C185.33 62.9097 185.332 62.7961 185.356 62.6864C185.381 62.5767 185.428 62.4733 185.494 62.3827L187.128 60.1114C187.26 59.9273 187.46 59.8027 187.683 59.7646C187.906 59.7265 188.136 59.778 188.321 59.908L190.518 61.4877ZM199.902 46.1039C200.712 46.6722 201.434 47.3576 202.044 48.1379C202.639 48.8637 203.098 49.6904 203.4 50.5787C203.681 51.4299 203.776 52.3318 203.678 53.2229C203.563 54.1732 203.203 55.0773 202.634 55.8468C202.211 56.4689 201.667 56.9992 201.034 57.4062C200.477 57.7553 199.871 58.0203 199.237 58.1926C198.619 58.3541 197.989 58.463 197.352 58.5181L195.549 58.6808C195.008 58.724 194.472 58.8171 193.949 58.9588C193.466 59.0684 193.024 59.313 192.674 59.6639C192.516 59.8242 192.317 59.937 192.098 59.9893C191.994 60.0192 191.884 60.0237 191.778 60.0025C191.672 59.9812 191.572 59.9349 191.488 59.8673L189.521 58.4706C189.333 58.3364 189.205 58.1348 189.162 57.9079C189.137 57.7979 189.138 57.6835 189.165 57.574C189.192 57.4644 189.244 57.3628 189.318 57.2773C189.777 56.6813 190.351 56.1834 191.006 55.8129C191.596 55.4909 192.225 55.247 192.877 55.0874C193.507 54.9346 194.149 54.837 194.796 54.7959C195.434 54.7552 196.03 54.7077 196.586 54.6535C197.095 54.6085 197.597 54.5085 198.085 54.3552C198.511 54.2132 198.878 53.9343 199.129 53.5619C199.355 53.2474 199.503 52.8828 199.558 52.4992C199.614 52.1156 199.576 51.7242 199.447 51.3584C199.127 50.4547 198.513 49.684 197.705 49.1685C196.24 48.1243 194.643 48.0904 192.911 49.0668C192.737 49.1776 192.544 49.2558 192.342 49.2973C192.236 49.3046 192.131 49.291 192.031 49.2573C191.931 49.2235 191.838 49.1703 191.759 49.1007L189.671 47.6158C189.595 47.5656 189.53 47.5008 189.48 47.4251C189.43 47.3494 189.396 47.2644 189.379 47.1751C189.363 47.0829 189.366 46.9882 189.388 46.8972C189.41 46.8062 189.451 46.7208 189.508 46.6463C190.001 46.015 190.641 45.5144 191.372 45.1886C192.203 44.8121 193.093 44.5827 194.003 44.5106C195.004 44.427 196.011 44.5071 196.986 44.7479C198.038 45.0015 199.03 45.4625 199.902 46.1039Z" fill="white"/>
</g>
<path d="M140.027 121.504H115.938V63.1421C115.938 58.0731 117.952 53.2117 121.536 49.6273C125.12 46.043 129.982 44.0293 135.051 44.0293H137.275C142.344 44.0293 147.205 46.043 150.789 49.6273C154.374 53.2117 156.387 58.0731 156.387 63.1421V105.178C156.378 109.511 154.651 113.664 151.584 116.725C148.517 119.785 144.36 121.504 140.027 121.504Z" fill="#090307"/>
<path d="M113.592 262.006C113.166 264.424 112.939 266.873 112.914 269.329C112.826 273.776 112.012 275.356 111.904 279.004C111.775 283.174 112.501 284.733 114.189 287.079C115.877 289.425 120.291 291.547 122.203 287.587C124.115 283.628 123.837 281.031 123.233 276.943C122.616 272.712 122.555 270.373 122.176 267.152C121.864 264.312 121.498 262.149 121.498 262.149L113.592 262.006Z" fill="#090307"/>
<path d="M126.216 232.466L111.572 232.201C111.789 241.978 113.341 252.833 113.606 262.033C113.66 263.762 113.565 275.451 114.216 278.983C115.199 284.326 121.531 283.601 121.87 280.407C122.209 277.214 121.464 263.566 121.484 262.155C121.423 256.27 124.196 246.338 125.627 235.774C125.688 235.266 126.149 232.974 126.216 232.466Z" fill="#FFA8A7"/>
<path d="M97.632 161.025L117.972 96.2759L137.634 169.161L97.632 161.025Z" fill="#E3DFDF" fill-opacity="0.9"/>
<path d="M145.031 254.399C145.031 254.399 144.455 254.087 144.353 254.704C144.211 255.436 143.994 256.948 143.675 258.155C143.255 259.83 142.902 262.589 143.153 263.959C143.404 265.328 146.59 267.077 148.658 267.715C151.207 268.501 153.531 269.884 155.438 271.749C157.472 273.674 161.9 275.491 164.93 275.471C168.49 275.471 170.971 274.285 172.144 272.379C173.317 270.474 171.073 270.244 167.005 267.633L163.852 265.599C157.404 261.389 155.038 259.138 153.228 254.928L145.031 254.399Z" fill="#090307"/>
<path d="M153.282 251.789C153.174 248.765 155.262 223.062 155.262 223.062L141.356 229.401C144.333 247.178 144.97 251.375 145.017 254.284C144.956 254.528 144.931 254.779 144.943 255.03C144.943 258.481 148.855 260.345 151.892 262.65C154.474 264.673 157.226 266.47 160.116 268.02C162.327 269.125 166.815 269.227 167.371 267.81C163.669 264.983 158.286 260.752 155.343 257.525C153.906 256.006 153.391 254.82 153.282 251.789Z" fill="#FFA8A7"/>
<path d="M117.572 137.064C112.229 148.787 112.229 157.858 113.118 172.822C113.904 186.551 115.213 198.654 115.213 198.654C115.009 201.088 111.626 205.841 111.185 216.607C110.778 226.669 113.118 261.369 113.118 261.369C113.118 261.369 116.758 265.62 122.379 261.369C122.379 261.369 130.508 213.529 132.095 200.932C133.451 189.941 135.892 175.9 135.892 175.9L141.024 200.857C139.916 204.398 139.113 208.027 138.624 211.705C137.905 219.116 145.092 255.606 145.092 255.606C145.092 255.606 148.774 259.857 153.567 255.606C153.567 255.606 156.489 208.098 157.16 199.176C158.055 187.223 156.171 154.868 154.699 137.735L117.572 137.064Z" fill="#9F8396"/>
<path d="M135.905 175.88L138.014 157.072C138.014 157.072 147.465 155.811 151.75 151.783C150.524 153.702 148.89 155.327 146.965 156.544C145.039 157.76 142.87 158.538 140.61 158.821L137.559 176.32L141.024 200.857L135.905 175.88Z" fill="#090307"/>
<path d="M174.178 132.44C174.569 129.008 174.741 125.555 174.693 122.101C174.483 119.118 173.948 118.629 169.778 113.348C164.151 106.208 159.344 99.7878 154.259 93.4078C150.624 88.8517 146.801 88.1533 143.085 88.3567C140.482 88.4991 145.567 101.022 148.123 108.432L162.72 124.148C163.172 124.769 163.38 125.534 163.303 126.298L162.422 139.668L166.795 145.526C166.795 145.526 173.419 139.817 174.178 132.44Z" fill="#FFA8A7"/>
<path d="M129.01 88.7636C126.183 88.9602 121.043 89.4416 121.043 89.4416C118.08 91.0959 117.328 92.4587 116.779 96.3911C116.541 98.0725 117.911 102.541 119.084 108.893L121.308 120.67L121.064 126.515C119.911 130.081 99.5982 177.887 97.293 184.416C108.616 190.735 137.837 188.26 146.448 187.128C153.011 186.28 159.527 185.989 160.686 184.416C160.442 177.968 154.943 132.02 154.808 125.281C154.76 122.453 154.93 119.592 155.045 116.338C159.445 112.717 159.499 106.697 157.079 102.778C151.499 93.7401 146.068 88.0517 142.475 88.3432L129.01 88.7636Z" fill="#ED7B84"/>
<path opacity="0.1" d="M146.278 116.426C146.278 116.426 141.112 120.44 135.207 118.345C133.548 117.822 132.053 116.881 130.865 115.611C129.678 114.341 128.838 112.786 128.427 111.097C128.427 111.097 127.803 117.843 135.241 120.141C142.448 122.359 146.278 116.426 146.278 116.426Z" fill="black"/>
<path d="M153.289 70.2475C153.065 80.0379 149.899 82.4515 148.299 83.1295C146.699 83.8075 143.634 83.4007 140.651 82.9058V88.818C140.651 88.818 144.095 92.4249 143.838 95.1166C143.58 97.8082 138.414 98.1133 134.563 95.4759C132.438 94.0163 130.516 92.2813 128.847 90.3163C128.527 89.9373 128.351 89.4567 128.352 88.9604V75.1291C128.352 75.1291 126.718 76.858 123.83 74.8783C123.207 74.4806 122.673 73.9575 122.263 73.3424C121.853 72.7273 121.575 72.0336 121.448 71.3054C121.32 70.5772 121.345 69.8304 121.522 69.1125C121.699 68.3946 122.023 67.7214 122.474 67.1355C123.735 65.6507 126.935 65.549 128.467 67.8135C129.335 69.5017 129.451 71.2035 130.42 70.5255C132.996 68.6678 131.613 64.4235 134.725 62.3895C135.747 61.8565 136.807 61.4032 137.898 61.0335C143.451 59.1148 148.265 57.5011 149.424 53.7043C151.608 54.9519 153.56 58.7012 153.289 70.2475Z" fill="#FFA8A7"/>
<path d="M142.339 78.9936C143.051 78.9936 143.627 78.4169 143.627 77.7054C143.627 76.994 143.051 76.4172 142.339 76.4172C141.628 76.4172 141.051 76.994 141.051 77.7054C141.051 78.4169 141.628 78.9936 142.339 78.9936Z" fill="#B16668"/>
<path d="M141.485 68.7627C141.485 69.028 141.407 69.2873 141.26 69.5086C141.114 69.7298 140.906 69.9034 140.662 70.0077C140.419 70.1121 140.149 70.1426 139.888 70.0955C139.627 70.0485 139.386 69.9259 139.194 69.743C139.002 69.56 138.868 69.3248 138.808 69.0664C138.748 68.808 138.765 68.5377 138.858 68.2891C138.95 68.0404 139.113 67.8243 139.327 67.6675C139.541 67.5106 139.796 67.42 140.061 67.4067C140.245 67.3975 140.429 67.4258 140.601 67.4898C140.773 67.5538 140.931 67.6523 141.064 67.7791C141.197 67.9059 141.303 68.0586 141.376 68.2277C141.448 68.3968 141.485 68.5788 141.485 68.7627Z" fill="#090307"/>
<path d="M151.757 68.8983C151.771 69.0641 151.751 69.2311 151.7 69.3895C151.649 69.5478 151.566 69.6944 151.458 69.8206C151.349 69.9468 151.217 70.0502 151.068 70.1246C150.919 70.1991 150.757 70.2431 150.591 70.2543C150.423 70.2697 150.254 70.2494 150.095 70.1946C149.936 70.1397 149.79 70.0517 149.668 69.9363C149.545 69.8208 149.449 69.6807 149.385 69.5251C149.32 69.3695 149.29 69.2021 149.296 69.0338C149.278 68.8667 149.295 68.6978 149.345 68.5374C149.395 68.3771 149.477 68.2286 149.587 68.1012C149.696 67.9737 149.831 67.87 149.982 67.7963C150.133 67.7227 150.297 67.6806 150.465 67.6727C150.633 67.6649 150.801 67.6914 150.958 67.7506C151.115 67.8098 151.259 67.9006 151.38 68.0172C151.5 68.1339 151.596 68.274 151.661 68.429C151.726 68.584 151.759 68.7506 151.757 68.9186V68.8983Z" fill="#090307"/>
<path d="M144.834 66.4167L145.051 74.6544L149.384 73.312L144.834 66.4167Z" fill="#F28F8F"/>
<path d="M140.644 82.9259C137.498 82.5124 131.023 80.6546 130.013 78.0918C130.42 79.387 131.212 80.5272 132.285 81.3598C134.217 83.0209 140.644 84.8854 140.644 84.8854V82.9259Z" fill="#F28F8F"/>
<path d="M140.8 62.4166L137.926 64.1726C137.699 63.778 137.633 63.3112 137.742 62.8693C137.85 62.4274 138.125 62.0443 138.509 61.7996C138.698 61.6845 138.909 61.6091 139.129 61.5779C139.349 61.5466 139.572 61.5603 139.786 61.6179C140.001 61.6756 140.201 61.7761 140.375 61.9134C140.549 62.0507 140.694 62.2218 140.8 62.4166Z" fill="#090307"/>
<path d="M152.496 64.3691L149.296 63.2504C149.358 63.0383 149.462 62.8411 149.603 62.6709C149.744 62.5008 149.918 62.3613 150.115 62.2609C150.312 62.1606 150.527 62.1016 150.748 62.0875C150.968 62.0734 151.189 62.1046 151.397 62.1791C151.827 62.3334 152.18 62.6468 152.384 63.0544C152.589 63.4621 152.629 63.9328 152.496 64.3691Z" fill="#090307"/>
<path d="M103.87 75.9765C106.405 72.5865 108.134 70.0304 110.446 67.1625C111.761 65.515 112.602 64.3353 113.836 62.647C114.704 61.4809 115.192 60.4978 116.182 60.1384C117.252 59.7002 118.215 59.0392 119.009 58.1993C119.497 57.6594 119.95 57.0887 120.365 56.4908C121.819 54.5348 123.545 52.7973 125.491 51.3312C127.525 49.7989 129.796 48.6192 131.891 47.1615C133.139 46.2869 134.475 44.836 132.956 43.48C132.49 43.0877 131.933 42.8195 131.335 42.7003C127.64 41.9002 124.427 43.1681 120.813 44.0902C119.243 44.482 117.708 45.0012 116.223 45.6428C115.492 45.9317 114.807 46.3245 114.189 46.809C113.324 47.6807 112.616 48.6943 112.094 49.8057C110.514 52.6262 107.124 55.1483 104.751 57.379C101.978 59.9893 99.4965 62.3826 96.3302 65.2573C93.4826 67.8541 90.696 70.2406 88.0857 73.0747C85.9229 75.4138 86.7297 77.2444 87.0145 77.8817C88.7773 81.5022 90.7503 82.804 93.1165 85.0481C97.1845 88.9331 111.253 100.113 115.911 103.808C116.912 104.594 117.698 105.621 118.196 106.792L119.091 108.86C124.406 109.836 127.952 101.856 123.552 92.2485C122.823 90.695 121.71 89.3531 120.318 88.35C114.758 84.3023 103.87 75.9765 103.87 75.9765Z" fill="#FFA8A7"/>
<path d="M103.87 75.9766C102.178 78.0579 99.923 79.6088 97.3743 80.4446C97.3743 80.4446 100.764 81.3124 105.409 77.1427L103.87 75.9766Z" fill="#F28F8F"/>
<path d="M172.795 125.369L171.927 124.623C171.798 124.538 171.65 124.484 171.495 124.466C171.341 124.448 171.185 124.467 171.039 124.521L161.622 127.084C161.147 127.242 160.713 127.501 160.348 127.843C159.982 128.184 159.695 128.601 159.506 129.064L152.726 148.611C152.645 148.77 152.613 148.95 152.634 149.128C152.656 149.305 152.731 149.472 152.848 149.607L153.743 150.38C153.874 150.47 154.024 150.527 154.181 150.546C154.338 150.565 154.497 150.545 154.645 150.489L164.076 147.926C164.55 147.768 164.985 147.509 165.35 147.167C165.715 146.825 166.002 146.409 166.191 145.946C167.547 142.102 171.615 130.244 172.971 126.399C173.134 125.918 173.053 125.552 172.795 125.369Z" fill="#9F8396"/>
<path d="M153.614 149.363L160.394 129.816C160.583 129.354 160.87 128.938 161.235 128.597C161.6 128.256 162.035 127.999 162.51 127.843L171.92 125.281C172.795 125.043 173.276 125.545 172.965 126.399C171.609 130.243 167.541 142.102 166.185 145.946C165.995 146.409 165.708 146.825 165.343 147.167C164.978 147.509 164.544 147.768 164.069 147.926L154.659 150.516C153.791 150.719 153.323 150.217 153.614 149.363Z" fill="#ED7B84"/>
<path d="M161.486 128.386C160.996 128.757 160.617 129.253 160.388 129.823L153.608 149.363C153.53 149.518 153.498 149.692 153.515 149.865C153.531 150.038 153.596 150.202 153.703 150.34L152.862 149.621C152.741 149.488 152.665 149.321 152.641 149.143C152.618 148.965 152.65 148.784 152.733 148.624L159.513 129.077C159.727 128.546 160.075 128.079 160.523 127.721L161.486 128.386Z" fill="#37474F"/>
<path d="M170.212 134.278C169.534 136.264 167.181 137.593 163.289 138.515C159.398 139.437 157.248 143.566 157.865 144.821C158.482 146.075 164.774 147.248 167.29 146.888C169.805 146.529 172.327 142.895 173.093 141.77C173.86 140.644 174.741 132.793 173.934 131.715C173.127 130.637 171.425 130.806 171.425 130.806L170.212 134.278Z" fill="#F28F8F"/>
<path d="M143.397 110.175C131.193 110.175 129.159 98.31 128.142 88.818L121.701 89.157C120.345 102.83 118.989 131.735 143.397 125.769C173.907 118.311 146.109 89.496 144.075 88.479C142.448 87.6654 140.911 88.14 141.024 88.479C147.352 97.971 155.601 110.175 143.397 110.175Z" fill="white" fill-opacity="0.9"/>
</svg>
