<svg width="28" height="28" viewBox="0 0 28 28" fill="none" xmlns="http://www.w3.org/2000/svg">
<path d="M1.5 21.5H26.5" stroke="#FDFCFE" stroke-width="1.5"/>
<path d="M10.25 26.5H17.75C24 26.5 26.5 24 26.5 17.75V10.25C26.5 4 24 1.5 17.75 1.5H10.25C4 1.5 1.5 4 1.5 10.25V17.75C1.5 24 4 26.5 10.25 26.5Z" stroke="#FDFCFE" stroke-width="1.5" stroke-linecap="round" stroke-linejoin="round"/>
<path d="M14.3875 18.2562C14.175 18.3312 13.825 18.3312 13.6125 18.2562C11.8 17.6375 7.75 15.0562 7.75 10.6812C7.75 8.75 9.30625 7.1875 11.225 7.1875C12.3625 7.1875 13.3688 7.7375 14 8.5875C14.6312 7.7375 15.6438 7.1875 16.775 7.1875C18.6938 7.1875 20.25 8.75 20.25 10.6812C20.25 15.0562 16.2 17.6375 14.3875 18.2562Z" stroke="#FDFCFE" stroke-linecap="round" stroke-linejoin="round"/>
</svg>
