<svg width="389" height="346" viewBox="0 0 389 346" fill="none" xmlns="http://www.w3.org/2000/svg">
<path opacity="0.1" d="M381.401 301.127C378.747 307.52 375.265 313.647 370.391 318.347C364.454 324.074 357.08 327.197 349.184 328.691C346.856 329.125 344.506 329.428 342.145 329.601C335.905 330.081 329.516 329.763 323.388 329.096C308.379 327.459 293.576 324.294 279.209 319.651C276.849 318.889 274.503 318.088 272.171 317.247C268.648 315.992 265.161 314.637 261.707 313.184C247.63 307.305 233.076 299.807 218.1 302.133C210.842 303.262 204.022 306.684 196.747 307.702C191.642 308.372 186.453 308.003 181.494 306.618C179.093 305.976 176.741 305.164 174.455 304.189C169.303 301.951 164.402 299.177 159.831 295.914C148.858 288.252 139.012 278.752 127.46 272.115C114.724 264.796 100.626 261.317 86.2624 258.723C83.9244 258.301 81.5781 257.898 79.2236 257.514C72.5781 256.418 65.916 255.404 59.3492 254.204C53.0225 253.038 46.584 251.61 41.0772 248.102C37.1479 245.599 33.8438 242.131 30.8129 238.478C25.2204 231.715 20.422 224.334 16.5117 216.479C16.3046 216.065 16.1017 215.652 15.903 215.238C9.82061 202.768 5.7298 189.172 3.22066 175.105C3.14613 174.691 3.07575 174.277 3.00536 173.863C0.645278 160.073 -0.215946 145.816 0.0449054 131.661L0.0697474 130.42C0.231227 123.432 0.665978 116.473 1.3119 109.613C1.77563 104.789 2.39671 99.7822 4.89756 95.7275C7.39842 91.6728 11.4809 89.0455 15.5593 86.8858C33.4877 77.3407 50.6749 74.6844 69.9613 79.3101C73.0584 80.0507 76.143 80.8492 79.2277 81.6767C81.5754 82.3056 83.923 82.9552 86.2665 83.6089C102.468 88.1229 118.629 92.9265 135.377 94.3663C136.994 94.507 138.613 94.6145 140.234 94.689C143.438 94.838 146.643 94.8711 149.848 94.7883C158.103 94.5568 166.33 93.7104 174.459 92.2562C176.811 91.8507 179.157 91.4011 181.498 90.9074C191.601 88.8014 201.612 85.9921 211.463 82.8849C213.475 82.2505 215.484 81.605 217.491 80.9485C222.013 79.4715 226.534 77.9654 231.064 76.5008C244.582 72.1192 258.192 68.1183 272.171 66.5047C273.369 66.3668 274.566 66.2468 275.764 66.1447C276.911 66.0454 278.062 65.9668 279.209 65.9089C300.926 64.7504 322.892 69.9843 342.145 80.6961C344.533 82.0256 346.879 83.4379 349.184 84.9329C352.377 87.0099 355.473 89.2441 358.471 91.6356C364.615 96.5385 370.366 102.12 374.747 108.827C379.016 115.36 381.786 122.695 383.38 130.408C383.467 130.821 383.55 131.235 383.624 131.649C385.964 144.099 385.235 157.45 382.61 169.924C382.332 171.232 382.038 172.544 381.732 173.851C381.637 174.265 381.538 174.678 381.438 175.092C378.606 186.888 374.987 198.651 375.931 210.712C376.051 212.23 376.242 213.736 376.49 215.225C376.561 215.639 376.631 216.053 376.71 216.467C378.556 226.306 382.755 235.64 385.272 245.383C389.998 263.899 388.64 283.442 381.401 301.127Z" fill="#57BEE6"/>
<g clip-path="url(#clip0_274_6157)">
<path d="M257.786 0H149.075C132.167 0 118.461 13.6916 118.461 30.5811V278.727C118.461 295.616 132.167 309.308 149.075 309.308H257.786C274.693 309.308 288.4 295.616 288.4 278.727V30.5811C288.4 13.6916 274.693 0 257.786 0Z" fill="#3F3D56"/>
<path d="M285.272 30.5832V278.727C285.264 286.076 282.337 293.121 277.136 298.317C271.934 303.514 264.881 306.437 257.524 306.445H148.815C141.459 306.437 134.406 303.514 129.204 298.317C124.002 293.121 121.076 286.076 121.067 278.727V30.5832C121.076 23.2345 124.002 16.1893 129.204 10.993C134.406 5.79675 141.459 2.87374 148.815 2.86523H163.031V7.77042C163.031 9.99109 163.914 12.1208 165.486 13.691C167.058 15.2613 169.19 16.1435 171.413 16.1436C189.817 21.697 211.42 20.8302 234.926 16.1436C237.15 16.1435 239.281 15.2613 240.853 13.691C242.425 12.1208 243.309 9.99109 243.309 7.77042V2.86523H257.524C264.881 2.87374 271.934 5.79675 277.136 10.993C282.337 16.1893 285.264 23.2345 285.272 30.5832Z" fill="white"/>
<path d="M117.418 62.7468C116.866 62.7462 116.336 62.5265 115.945 62.1361C115.554 61.7456 115.334 61.2161 115.333 60.6639V56.4982C115.333 55.9458 115.553 55.416 115.944 55.0253C116.335 54.6347 116.865 54.4153 117.418 54.4153C117.971 54.4153 118.502 54.6347 118.893 55.0253C119.284 55.416 119.504 55.9458 119.504 56.4982V60.6639C119.503 61.2161 119.283 61.7456 118.892 62.1361C118.501 62.5265 117.971 62.7462 117.418 62.7468Z" fill="#3F3D56"/>
<path d="M117.418 84.1076C116.866 84.107 116.336 83.8874 115.945 83.4969C115.554 83.1064 115.334 82.577 115.333 82.0248V70.5577C115.333 70.0053 115.553 69.4755 115.944 69.0849C116.335 68.6943 116.865 68.4749 117.418 68.4749C117.971 68.4749 118.502 68.6943 118.893 69.0849C119.284 69.4755 119.504 70.0053 119.504 70.5577V82.0248C119.503 82.577 119.283 83.1064 118.892 83.4969C118.501 83.8874 117.971 84.107 117.418 84.1076Z" fill="#3F3D56"/>
<path d="M117.418 101.28C116.866 101.279 116.336 101.06 115.945 100.669C115.554 100.279 115.334 99.7494 115.333 99.1971V87.7301C115.333 87.1777 115.553 86.6479 115.944 86.2573C116.335 85.8667 116.865 85.6472 117.418 85.6472C117.971 85.6472 118.502 85.8667 118.893 86.2573C119.284 86.6479 119.504 87.1777 119.504 87.7301V99.1971C119.503 99.7494 119.283 100.279 118.892 100.669C118.501 101.06 117.971 101.279 117.418 101.28Z" fill="#3F3D56"/>
<path d="M288.401 59.7642C287.848 59.7637 287.319 59.9823 286.928 60.3719C286.537 60.7615 286.316 61.2902 286.315 61.8418V89.8254C286.315 90.3778 286.535 90.9076 286.926 91.2982C287.317 91.6888 287.848 91.9082 288.401 91.9082C288.954 91.9082 289.484 91.6888 289.875 91.2982C290.266 90.9076 290.486 90.3778 290.486 89.8254V61.8418C290.484 61.2905 290.263 60.7623 289.873 60.3729C289.482 59.9835 288.953 59.7646 288.401 59.7642Z" fill="#3F3D56"/>
<path d="M290.486 74.9951H286.727V76.0366H290.486V74.9951Z" fill="white"/>
<path d="M265.994 197.675C267.014 197.467 267.913 196.87 268.499 196.011C269.085 195.152 269.312 194.098 269.132 193.074C269.092 192.866 269.035 192.662 268.962 192.464L279.642 183.517L277.004 176.506L263.7 190.343C262.9 190.711 262.246 191.333 261.838 192.112C261.43 192.891 261.292 193.783 261.445 194.648C261.63 195.642 262.202 196.52 263.036 197.092C263.87 197.663 264.897 197.88 265.892 197.695C265.926 197.689 265.96 197.682 265.994 197.675Z" fill="#A0616A"/>
<path d="M271.023 144.879L266.788 148.253C266.788 148.253 261.726 157.445 265.355 159.352C268.983 161.258 280.262 167.599 280.262 167.599C280.262 167.599 275.6 172.235 275.051 174.486C274.501 176.738 275.718 178.738 273.786 178.267C271.854 177.796 271.799 179.329 271.328 181.259C270.857 183.189 267.715 184.966 267.715 184.966L273.72 189.392C273.72 189.392 276.5 190.373 276.727 188.043C276.955 185.713 276.322 186.042 278.254 186.512C280.186 186.983 281.814 183.963 282.843 181.147C283.872 178.331 294.37 165.222 294.37 165.222L283.386 153.012C280.033 149.285 275.776 146.484 271.023 144.879V144.879Z" fill="#DA8CF5"/>
<path d="M270.058 336.215L265.685 336.178L263.75 318.937L270.204 318.991L270.058 336.215Z" fill="#A0616A"/>
<path d="M256.052 343.161C256.048 343.679 256.25 344.177 256.613 344.547C256.976 344.916 257.471 345.126 257.99 345.131L266.684 345.204L268.206 342.122L268.765 345.219L272.046 345.249L271.217 334.201L270.076 334.125L265.421 333.805L263.919 333.704L263.892 336.83L256.908 341.562C256.647 341.74 256.432 341.978 256.283 342.256C256.134 342.535 256.054 342.845 256.052 343.161Z" fill="#2F2E41"/>
<path d="M229.911 336.215L225.539 336.178L223.603 318.937L230.057 318.991L229.911 336.215Z" fill="#A0616A"/>
<path d="M215.905 343.161C215.901 343.679 216.103 344.177 216.466 344.547C216.829 344.916 217.324 345.126 217.843 345.131L226.537 345.204L228.059 342.122L228.618 345.219L231.899 345.249L231.07 334.201L229.929 334.125L225.274 333.805L223.772 333.704L223.745 336.83L216.761 341.562C216.5 341.74 216.285 341.978 216.136 342.256C215.986 342.535 215.907 342.845 215.905 343.161Z" fill="#2F2E41"/>
<path d="M176.075 345.38C176.075 345.462 176.091 345.543 176.122 345.618C176.153 345.693 176.199 345.762 176.256 345.819C176.314 345.877 176.382 345.922 176.458 345.953C176.533 345.984 176.614 346 176.695 346H308.732C308.896 346 309.054 345.935 309.17 345.819C309.287 345.702 309.352 345.545 309.352 345.38C309.352 345.216 309.287 345.058 309.17 344.942C309.054 344.826 308.896 344.761 308.732 344.761H176.695C176.614 344.76 176.533 344.776 176.458 344.807C176.382 344.838 176.314 344.884 176.256 344.942C176.199 344.999 176.153 345.068 176.122 345.143C176.091 345.218 176.075 345.299 176.075 345.38Z" fill="#CCCCCC"/>
<path d="M257.146 134.682C264.16 134.682 269.846 129.003 269.846 121.996C269.846 114.989 264.16 109.31 257.146 109.31C250.132 109.31 244.446 114.989 244.446 121.996C244.446 129.003 250.132 134.682 257.146 134.682Z" fill="#A0616A"/>
<path d="M266.96 112.617C266.829 111.475 266.046 110.064 265.501 109.052C264.956 108.04 263.904 107.213 262.755 107.284C262.286 107.338 261.837 107.505 261.446 107.77C261.056 108.036 260.735 108.391 260.512 108.807C260.074 109.644 259.835 110.571 259.814 111.515C259.694 113.623 260.046 115.73 260.845 117.684C261.644 119.638 262.869 121.389 264.432 122.81C265.322 123.608 266.393 124.317 267.588 124.344C268.131 124.331 268.666 124.21 269.161 123.988C269.656 123.765 270.102 123.446 270.472 123.049C272.407 121.113 272.699 117.931 271.666 115.398C270.633 112.865 270.171 111.879 267.809 110.495" fill="#2F2E41"/>
<path d="M260.476 111.196C263.069 110.121 265.83 109.51 268.635 109.39C270.859 109.296 273.513 109.791 274.417 111.823C274.966 113.056 274.674 114.502 274.172 115.754C273.67 117.007 271.325 119.536 272.675 119.508C276.067 119.439 277.515 122.469 275.794 127.177C274.796 129.907 280.988 129.802 283.875 130.167C281.706 130.971 279.504 131.783 277.199 131.975C274.894 132.168 272.432 131.668 270.711 130.124C268.848 128.453 268.132 125.858 267.815 123.377C267.499 120.897 267.482 118.342 266.64 115.987C265.799 113.632 263.865 111.439 261.371 111.23" fill="#2F2E41"/>
<rect x="152.866" y="56.769" width="17.2024" height="17.1838" rx="4" fill="#CFF2FF"/>
<rect x="173.717" y="56.769" width="17.2024" height="17.1838" rx="4" fill="#CFF2FF"/>
<rect x="194.569" y="56.769" width="17.2024" height="17.1838" rx="4" fill="#CFF2FF"/>
<rect x="215.42" y="56.769" width="17.2024" height="17.1838" rx="4" fill="#CFF2FF"/>
<rect x="236.271" y="56.769" width="17.2024" height="17.1838" rx="4" fill="#CFF2FF"/>
<path d="M226.689 276.42C222.767 276.665 220.599 271.797 223.567 268.96C223.675 268.529 223.753 268.219 223.862 267.788C223.823 267.694 223.784 267.6 223.744 267.506C219.778 258.058 211.746 263.362 202.402 267.586C194.695 271.069 186.927 275.607 193.372 293.276C194.726 296.988 193.103 301.189 193.973 305.035C185.775 287.17 181.517 267.753 181.49 248.1C181.488 243.168 181.762 238.24 182.311 233.339C182.765 229.322 183.395 225.332 184.2 221.372C187.582 204.888 193.925 189.152 202.923 174.927C201.778 174.942 200.631 174.955 199.481 174.964C197.414 178.337 195.487 181.789 193.701 185.322C194.11 181.892 194.177 178.429 193.901 174.986C179.967 174.981 166.043 174.536 153.732 173.65C154.199 211.339 168.126 219.199 185.205 201.148C185.684 201.393 186.15 201.638 186.628 201.871C182.514 213.516 179.934 225.647 178.951 237.957C178.395 245.22 178.428 252.516 179.05 259.774C179.037 259.688 179.025 259.602 179.013 259.516C177.443 251.446 173.133 244.164 166.811 238.901C157.422 231.196 144.156 228.358 134.026 222.165C129.15 219.184 122.901 223.036 123.752 228.684C123.766 228.774 123.78 228.864 123.794 228.954C125.304 229.568 126.774 230.276 128.196 231.073C129.01 231.532 129.806 232.019 130.586 232.533C135.027 235.468 133.492 242.346 128.229 243.157L128.11 243.176C128.024 243.188 127.951 243.2 127.865 243.212C130.445 249.366 134.066 255.031 138.57 259.957C139.826 298.667 160.215 293.675 182.029 279.005H182.042C184.257 288.621 187.467 297.981 191.619 306.934H225.832C225.955 306.554 226.065 306.162 226.175 305.783C223.008 305.981 219.829 305.792 216.708 305.219C219.247 302.108 221.785 298.972 224.324 295.861C224.38 295.802 224.433 295.741 224.483 295.677C225.771 294.084 227.07 292.504 228.358 290.912L228.359 290.91C228.427 286.029 227.867 281.159 226.69 276.421L226.689 276.42Z" fill="#F7C2C6"/>
<path d="M190.233 158.373C186.914 150.374 180.693 143.638 175.214 136.724C168.634 128.418 155.14 132.043 153.981 142.571C153.969 142.673 153.958 142.775 153.948 142.877C154.761 143.336 155.558 143.822 156.337 144.337C160.779 147.272 159.244 154.15 153.981 154.961L153.862 154.979C154.152 157.909 154.664 160.812 155.395 163.664C154.521 166.932 153.964 170.276 153.732 173.65C166.043 174.536 179.967 174.981 193.901 174.986C193.45 168.864 192.087 162.836 190.233 158.373Z" fill="#EFDABF"/>
<path d="M226.052 148.236C227.274 145.809 228.137 143.218 228.615 140.544C227.867 140.642 225.795 129.262 226.359 128.564C225.316 126.984 223.451 126.198 222.312 124.656C216.65 116.988 208.849 118.327 204.776 128.748C196.077 133.134 195.992 140.408 201.331 147.404C204.727 151.854 205.193 157.877 208.173 162.642C207.867 163.034 207.548 163.414 207.241 163.806C204.07 167.877 201.131 172.124 198.439 176.526C199.588 176.517 200.735 176.504 201.88 176.489C204.583 172.218 207.523 168.102 210.687 164.161C217.318 160.547 222.681 154.989 226.052 148.236Z" fill="#EFDABF"/>
<path d="M200.706 177.101C201.547 177.714 202.593 177.976 203.624 177.83C204.654 177.683 205.587 177.141 206.224 176.319C206.35 176.15 206.463 175.97 206.56 175.782L220.374 177.641L223.785 170.971L204.585 170.468C203.775 170.126 202.873 170.062 202.022 170.286C201.171 170.509 200.418 171.008 199.881 171.704C199.579 172.103 199.358 172.557 199.232 173.041C199.106 173.525 199.076 174.029 199.145 174.525C199.214 175.02 199.38 175.497 199.633 175.929C199.886 176.36 200.222 176.737 200.622 177.039C200.649 177.06 200.678 177.081 200.706 177.101Z" fill="#A0616A"/>
<path d="M241.225 190.212C241.225 190.212 232.828 194.344 235.017 196.831C237.206 199.319 235.407 200.725 232.678 203.061C229.95 205.397 224.457 232.763 224.457 232.763L217.345 275.154C217.345 275.154 219.232 312.169 220.498 313.488C221.765 314.806 223.714 312.859 221.765 314.806C219.816 316.753 218.257 315.195 219.816 316.753C221.375 318.31 221.765 322.593 221.765 322.593L231.865 321.743C231.865 321.743 238.44 293.291 234 280.687L251.417 234.58L256.683 279.069C256.683 279.069 259.573 315.195 261.522 316.363C263.471 317.531 264.875 317.61 263.198 319.128C261.522 320.646 261.522 318.31 261.522 320.646V324.521L270.95 325.814C270.95 325.814 275.33 291.18 273.298 275.154L279.452 221.361L274.658 197.12L269.707 190.602L241.225 190.212Z" fill="#2F2E41"/>
<path d="M237.937 196.123C237.937 196.123 234.161 190.102 234.88 189.219C235.599 188.336 236.499 189.862 234.88 188.32C233.26 186.779 242.343 176.489 242.939 174.973C243.536 173.458 233.848 146.994 233.848 146.994L242.099 142.03L249.073 132.229L261.545 134.222L265.933 143.108L272.131 145.292L272.653 145.813V161.955C272.653 161.955 275.411 175.734 269.342 180.478C269.342 180.478 272.238 186.779 271.458 187.947C270.679 189.115 284.695 204.463 273.695 206.217C261.646 208.137 235.945 195.442 237.937 196.123Z" fill="#DA8CF5"/>
<path d="M249.119 130.863C249.331 131.992 247.377 137.36 248.001 138.327C248.001 138.327 254.467 140.571 256.94 140.732C259.96 140.927 262.389 139.689 265.214 137.827C265.265 136.816 265.558 135.832 266.068 134.958C266.025 135.635 266.163 136.312 266.467 136.918C277.047 134.293 274.457 124.809 268.067 120.366L263.819 110.606C265.093 111.031 261.246 104.474 257.19 109.223C252.113 104.058 242.28 111.493 241.048 118.133C242.233 116.635 242.851 116.811 243.155 117.845C243.504 116.975 244.058 116.203 244.769 115.592C244.415 116.29 244.234 117.063 244.242 117.845C252.249 118.341 250.759 123.737 244.196 131.821C246.623 130.312 244.985 136.815 246.281 138.37C246.345 137.283 248.889 131.92 249.119 130.863Z" fill="#2F2E41"/>
<path d="M260.624 120.754C260.726 120.754 260.825 120.717 260.902 120.65C260.98 120.583 261.03 120.49 261.044 120.389C261.058 120.287 261.035 120.184 260.979 120.098C260.923 120.013 260.838 119.95 260.74 119.922C260.649 119.4 260.639 118.867 260.711 118.342C260.849 115.998 261.08 112.075 257.267 109.426C257.175 109.363 257.061 109.338 256.95 109.358C256.84 109.378 256.742 109.441 256.677 109.533C256.613 109.626 256.588 109.739 256.608 109.85C256.628 109.96 256.69 110.059 256.783 110.123C260.204 112.5 259.999 115.985 259.863 118.292C259.785 119.61 259.729 120.563 260.529 120.744C260.56 120.751 260.592 120.755 260.624 120.754Z" fill="#F7C2C6"/>
<rect x="176.333" y="75" width="39" height="15" rx="3" fill="#FEAE49"/>
<path d="M187.914 84V79.065H191.148V79.646H188.621V81.2H190.987V81.788H188.621V83.412H191.148V84H187.914ZM191.987 84V81.319C191.987 81.1837 191.98 81.046 191.966 80.906C191.957 80.7613 191.945 80.6167 191.931 80.472H192.617L192.68 81.214H192.596C192.703 80.9527 192.869 80.7543 193.093 80.619C193.317 80.479 193.576 80.409 193.87 80.409C194.285 80.409 194.598 80.5233 194.808 80.752C195.023 80.9807 195.13 81.3353 195.13 81.816V84H194.423V81.858C194.423 81.5453 194.36 81.3213 194.234 81.186C194.113 81.046 193.926 80.976 193.674 80.976C193.375 80.976 193.137 81.0693 192.96 81.256C192.783 81.438 192.694 81.6853 192.694 81.998V84H191.987ZM197.508 84.063C197.126 84.063 196.836 83.9603 196.64 83.755C196.444 83.545 196.346 83.2323 196.346 82.817V81.018H195.66V80.472H196.346V79.541L197.053 79.352V80.472H198.033V81.018H197.053V82.754C197.053 83.0153 197.1 83.202 197.193 83.314C197.287 83.426 197.422 83.482 197.599 83.482C197.688 83.482 197.765 83.475 197.83 83.461C197.9 83.4423 197.963 83.4213 198.019 83.398V83.972C197.949 84 197.868 84.021 197.774 84.035C197.681 84.0537 197.592 84.063 197.508 84.063ZM200.276 84.063C199.707 84.063 199.259 83.902 198.932 83.58C198.606 83.258 198.442 82.8123 198.442 82.243C198.442 81.8743 198.512 81.5523 198.652 81.277C198.797 81.0017 198.995 80.7893 199.247 80.64C199.504 80.486 199.8 80.409 200.136 80.409C200.468 80.409 200.745 80.479 200.969 80.619C201.193 80.759 201.364 80.9573 201.48 81.214C201.597 81.466 201.655 81.7647 201.655 82.11V82.334H198.995V81.928H201.172L201.053 82.019C201.053 81.669 200.974 81.3983 200.815 81.207C200.661 81.011 200.437 80.913 200.143 80.913C199.817 80.913 199.565 81.0273 199.387 81.256C199.21 81.48 199.121 81.7903 199.121 82.187V82.257C199.121 82.6723 199.222 82.985 199.422 83.195C199.628 83.405 199.917 83.51 200.29 83.51C200.496 83.51 200.687 83.482 200.864 83.426C201.046 83.3653 201.219 83.2673 201.382 83.132L201.613 83.615C201.45 83.7597 201.252 83.8717 201.018 83.951C200.785 84.0257 200.538 84.063 200.276 84.063ZM202.453 84V81.347C202.453 81.2023 202.448 81.0577 202.439 80.913C202.434 80.7637 202.425 80.6167 202.411 80.472H203.097L203.174 81.382H203.062C203.108 81.1627 203.188 80.9807 203.3 80.836C203.412 80.6913 203.547 80.584 203.706 80.514C203.869 80.444 204.039 80.409 204.217 80.409C204.291 80.409 204.354 80.4137 204.406 80.423C204.457 80.4277 204.508 80.437 204.56 80.451L204.553 81.081C204.473 81.0483 204.403 81.0297 204.343 81.025C204.287 81.0157 204.217 81.011 204.133 81.011C203.927 81.011 203.752 81.0577 203.608 81.151C203.463 81.2397 203.353 81.361 203.279 81.515C203.204 81.669 203.167 81.8347 203.167 82.012V84H202.453Z" fill="white"/>
<path d="M243.158 145.253L237.809 144.398C237.809 144.398 231.388 147.899 232.422 151.862C233.455 155.825 232.57 167.377 232.57 167.377C232.57 167.377 226 167.058 223.964 168.168C221.928 169.279 221.267 171.525 220.314 169.782C219.361 168.038 220.366 167.113 218.621 168.065C216.875 169.017 211.268 169.812 211.268 169.812L209.014 177.479C209.014 177.479 212.146 181.78 214.023 180.379C215.901 178.978 216.27 176.891 217.223 178.634C218.176 180.378 218.442 183.628 221.219 182.49C223.996 181.353 243.832 176.193 243.832 176.193L246.229 152.253L243.158 145.253Z" fill="#DA8CF5"/>
</g>
<defs>
<clipPath id="clip0_274_6157">
<rect width="194.019" height="346" fill="white" transform="translate(115.333)"/>
</clipPath>
</defs>
</svg>
