<svg width="289" height="244" viewBox="0 0 289 244" fill="none" xmlns="http://www.w3.org/2000/svg">
<path d="M144.5 227.105C216.989 227.105 275.752 198.462 275.752 163.129C275.752 127.795 216.989 99.1519 144.5 99.1519C72.0114 99.1519 13.2478 127.795 13.2478 163.129C13.2478 198.462 72.0114 227.105 144.5 227.105Z" fill="#F5F5F5"/>
<path d="M120.507 207.463C143.96 207.463 162.973 198.195 162.973 186.762C162.973 175.33 143.96 166.062 120.507 166.062C97.054 166.062 78.0415 175.33 78.0415 186.762C78.0415 198.195 97.054 207.463 120.507 207.463Z" fill="#E0E0E0"/>
<path d="M182.995 202.52C200.849 202.52 215.322 195.465 215.322 186.762C215.322 178.06 200.849 171.005 182.995 171.005C165.141 171.005 150.667 178.06 150.667 186.762C150.667 195.465 165.141 202.52 182.995 202.52Z" fill="#E0E0E0"/>
<path d="M245.448 151.831L240.344 149.343C240.344 149.343 237.309 138.694 238.517 129.115C240.217 115.641 250.725 110.571 254.701 111.732C258.678 112.894 259.851 116.817 253.239 124.84C249.361 129.574 244.569 139.436 245.448 151.831Z" fill="#ED7B84"/>
<g opacity="0.15">
<path d="M245.448 151.831L240.344 149.343C240.344 149.343 237.309 138.694 238.517 129.115C240.217 115.641 250.725 110.571 254.701 111.732C258.678 112.894 259.851 116.817 253.239 124.84C249.361 129.574 244.569 139.436 245.448 151.831Z" fill="black"/>
</g>
<path d="M243.338 146.6H243.384C243.43 146.594 243.474 146.579 243.513 146.558C243.553 146.537 243.586 146.51 243.613 146.477C243.639 146.445 243.658 146.409 243.667 146.37C243.677 146.332 243.677 146.292 243.667 146.254C240.87 133.824 246.014 119.862 252.378 114.046C252.411 114.018 252.438 113.986 252.456 113.95C252.474 113.914 252.483 113.875 252.483 113.836C252.483 113.797 252.474 113.758 252.456 113.722C252.438 113.686 252.411 113.653 252.378 113.626C252.31 113.571 252.22 113.541 252.127 113.541C252.033 113.541 251.943 113.571 251.875 113.626C245.396 119.545 240.153 133.736 242.991 146.346C243.004 146.417 243.045 146.481 243.109 146.527C243.173 146.574 243.254 146.6 243.338 146.6Z" fill="white"/>
<path d="M258.805 158.346C259.609 158.693 261.753 157.146 262.354 156.77C263.385 156.116 264.201 155.251 264.724 154.257C265.294 153.127 265.438 151.876 265.134 150.675C264.967 150.042 264.751 149.42 264.487 148.811L263.753 147.005C263.464 146.424 263.318 145.8 263.325 145.17C263.441 143.906 264.707 142.974 265.857 142.164C267.134 141.271 268.446 140.105 268.348 138.597C268.181 137.431 267.561 136.345 266.585 135.508C265.678 134.629 264.614 133.863 263.782 132.931C263.135 132.286 262.768 131.473 262.742 130.628C262.796 130.106 262.972 129.598 263.262 129.135C263.84 128.124 264.614 127.183 264.996 126.114C265.377 125.045 265.227 123.732 264.21 123.02C263.372 122.429 262.175 122.395 261.094 122.503C260.085 122.651 259.126 122.984 258.285 123.479C255.528 124.943 254.077 127.837 251.124 128.993C249.968 129.437 248.719 129.579 247.529 129.901C246.338 130.223 245.13 130.794 244.639 131.765C243.65 133.678 245.835 135.889 245.176 137.899C244.598 139.68 242.621 140.432 241.581 142.062C241.162 142.778 241.025 143.588 241.188 144.375C241.369 145.71 241.835 147.006 242.564 148.201C243.388 149.424 244.299 150.603 245.292 151.734C245.292 151.734 258.684 158.293 258.805 158.346Z" fill="#ED7B84"/>
<path d="M250.996 154.911C251.043 154.908 251.088 154.897 251.129 154.879C251.171 154.861 251.208 154.836 251.238 154.807C251.268 154.777 251.291 154.742 251.305 154.705C251.319 154.667 251.324 154.628 251.32 154.589C250.031 142.769 255.857 129.413 260.441 125.406C260.507 125.35 260.544 125.275 260.544 125.196C260.544 125.118 260.507 125.042 260.441 124.987C260.409 124.959 260.37 124.936 260.327 124.921C260.285 124.906 260.239 124.898 260.192 124.898C260.146 124.898 260.1 124.906 260.058 124.921C260.015 124.936 259.976 124.959 259.944 124.987C255.268 129.071 249.32 142.652 250.627 154.637C250.634 154.715 250.677 154.786 250.746 154.837C250.815 154.888 250.905 154.915 250.996 154.911Z" fill="white"/>
<path d="M252.389 140.339C252.424 140.346 252.459 140.346 252.494 140.339C255.771 139.426 259.157 138.817 262.591 138.524C262.638 138.52 262.683 138.509 262.724 138.49C262.765 138.472 262.801 138.447 262.831 138.416C262.86 138.386 262.883 138.351 262.896 138.313C262.909 138.275 262.914 138.236 262.909 138.197C262.907 138.157 262.895 138.119 262.875 138.083C262.854 138.048 262.825 138.016 262.789 137.991C262.753 137.966 262.711 137.947 262.666 137.936C262.621 137.926 262.574 137.923 262.528 137.928C259.033 138.229 255.587 138.849 252.251 139.778C252.167 139.8 252.096 139.847 252.051 139.91C252.007 139.974 251.992 140.049 252.009 140.121C252.026 140.194 252.075 140.258 252.145 140.302C252.215 140.346 252.302 140.366 252.389 140.359V140.339Z" fill="white"/>
<path d="M56.2336 35.9462L51.5692 38.2154C51.594 38.0421 51.6075 37.8678 51.6096 37.6932V36.5562C51.6096 34.5261 49.9219 33.7014 47.8353 34.7164C46.9408 35.1814 46.1758 35.8039 45.5927 36.5415C45.2516 33.9893 42.8761 33.0377 39.9976 34.4431C36.8822 35.9608 34.3563 39.655 34.3563 42.6903V44.4081C34.3412 45.0809 34.5051 45.7479 34.8361 46.3601L30.9635 48.2438C30.3574 48.5831 29.8547 49.0384 29.4962 49.5726C29.1376 50.1068 28.9334 50.7048 28.9 51.3182C28.9 52.4454 29.8364 52.8993 30.9924 52.3381L56.2336 40.0161C56.8417 39.6803 57.3475 39.2283 57.71 38.6967C58.0725 38.1651 58.2816 37.5689 58.3202 36.9563C58.3202 35.8388 57.3839 35.3801 56.2336 35.9462Z" fill="#EBEBEB"/>
<path d="M87.7231 41.0554L85.151 41.8899V37.088C85.151 33.2962 81.5674 32.3885 77.6775 34.2869C73.7875 36.1803 70.6374 40.7919 70.6374 44.5837V45.2815C69.7531 44.9838 68.6144 45.0961 67.3659 45.7061C64.5684 47.0676 62.2969 50.386 62.2969 53.1188V53.4311L58.7133 55.183C57.7414 55.7176 56.9325 56.438 56.352 57.2859C55.7716 58.1337 55.436 59.0852 55.3724 60.063C55.3724 61.8589 56.8695 62.586 58.7133 61.6881L87.7231 47.5361C88.695 47.0015 89.5039 46.281 90.0843 45.4332C90.6648 44.5853 91.0004 43.6339 91.0639 42.6561C91.0639 40.8846 89.59 40.1575 87.7231 41.0554Z" fill="#EBEBEB"/>
<path d="M199.739 122.351C204.04 115.817 189.827 55.0074 189.827 55.0074L186.116 53.9387C186.116 53.9387 168.897 111.63 170.568 116.959C172.238 122.288 187.879 128.061 199.739 122.351Z" fill="#ED7B84"/>
<path opacity="0.1" d="M199.739 122.351C204.04 115.817 189.827 55.0074 189.827 55.0074L186.116 53.9387C186.116 53.9387 168.897 111.63 170.568 116.959C172.238 122.288 187.879 128.061 199.739 122.351Z" fill="black"/>
<path opacity="0.1" d="M180.769 108.39L199.52 105.125C198.901 100.479 198.052 95.3114 197.11 90.1093C195.017 89.8311 190.989 87.1813 189.913 85.7563C186.133 80.7543 186.237 70.6283 186.601 66.085C187.133 59.5702 187.833 56.2567 187.833 56.2567L190.22 56.7447C189.971 55.6565 189.827 55.0514 189.827 55.0514L186.116 53.9387C186.116 53.9387 178.255 80.2517 173.666 98.9811L180.769 108.39Z" fill="black"/>
<path opacity="0.1" d="M190.434 68.9398C190.434 68.9398 189.648 59.292 188.838 54.7341L187.104 54.2461C187.104 54.2461 184.417 62.8886 184.266 65.0211L187.804 55.2611C187.804 55.2611 190.006 66.3095 190.434 68.9398Z" fill="black"/>
<path d="M188.873 47.5994C190.029 48.3265 191.185 48.8243 192.572 48.5754C193.959 48.3265 196.653 45.3644 197.462 45.013C198.271 44.6617 197.312 43.9101 196.063 43.4856C194.815 43.061 189.85 42.656 188.451 46.3306C188.392 46.5551 188.4 46.7884 188.474 47.0097C188.547 47.2311 188.684 47.4336 188.873 47.5994Z" fill="#ED7B84"/>
<path opacity="0.15" d="M192.549 46.8481C192.636 46.8042 192.74 46.7358 192.711 46.648C192.682 46.5602 192.561 46.5504 192.457 46.5455L190.445 46.4626L192.89 44.779C192.994 44.7058 193.104 44.6179 193.092 44.5057C193.081 44.4583 193.051 44.4153 193.009 44.3829C192.966 44.3505 192.912 44.3303 192.855 44.3251C192.739 44.313 192.621 44.3281 192.514 44.369C191.428 44.7253 190.413 45.2189 189.503 45.833C189.202 46.0136 188.717 46.321 188.867 46.6919C189.018 47.0628 189.578 47.097 189.896 47.1555C190.795 47.3326 191.74 47.2231 192.549 46.8481Z" fill="black"/>
<path d="M184.682 45.9256C183.295 45.6035 182.105 45.1107 181.498 44.0517C180.891 42.9927 182.006 39.362 181.833 38.6056C181.66 37.8492 182.989 38.0298 184.145 38.6056C185.301 39.1815 188.728 42.2412 186.151 45.4376C185.972 45.6148 185.745 45.7521 185.489 45.8372C185.233 45.9223 184.956 45.9527 184.682 45.9256Z" fill="#ED7B84"/>
<path opacity="0.15" d="M183.122 43.0172C183.122 42.9293 183.122 42.8171 183.209 42.7878C183.295 42.7585 183.394 42.822 183.463 42.8903L184.775 44.1786L184.85 41.519C184.85 41.4068 184.85 41.2799 184.983 41.2213C185.034 41.1983 185.093 41.1901 185.151 41.198C185.208 41.2059 185.261 41.2296 185.301 41.2652C185.378 41.3387 185.435 41.4253 185.469 41.519C185.797 42.46 185.958 43.4368 185.948 44.4177C185.948 44.73 185.948 45.2424 185.532 45.3937C185.116 45.545 184.723 45.1644 184.469 44.9936C183.744 44.4994 183.264 43.7946 183.122 43.0172Z" fill="black"/>
<path d="M189.723 47.4238C189.723 47.945 189.54 48.4545 189.197 48.8878C188.854 49.3212 188.366 49.6589 187.796 49.8584C187.226 50.0578 186.598 50.11 185.993 50.0083C185.387 49.9067 184.831 49.6557 184.394 49.2871C183.958 48.9186 183.661 48.4491 183.54 47.9379C183.42 47.4267 183.482 46.8969 183.718 46.4153C183.954 45.9338 184.354 45.5222 184.867 45.2327C185.381 44.9431 185.984 44.7886 186.601 44.7886C187.012 44.7879 187.418 44.8557 187.797 44.9879C188.176 45.1201 188.52 45.3142 188.81 45.559C189.1 45.8038 189.33 46.0946 189.487 46.4146C189.643 46.7346 189.723 47.0775 189.723 47.4238Z" fill="#ED7B84"/>
<path opacity="0.1" d="M184.7 47.4238C184.122 46.1745 185.359 45.1253 186.752 44.7935H186.601C186.005 44.7926 185.422 44.9358 184.919 45.2062C184.416 45.4766 184.016 45.8629 183.765 46.3194C183.514 46.7759 183.423 47.2835 183.503 47.7822C183.583 48.2809 183.83 48.7498 184.216 49.1336C184.602 49.5173 185.109 49.7998 185.679 49.9476C186.249 50.0954 186.857 50.1024 187.431 49.9678C188.006 49.8331 188.522 49.5624 188.92 49.1877C189.318 48.813 189.58 48.3499 189.676 47.8532C188.653 49.1659 185.266 48.6535 184.7 47.4238Z" fill="black"/>
<path d="M137.974 103.846C137.223 105.096 136.431 106.335 135.593 107.545C132.189 112.45 127.802 116.373 122.998 120.297C118.374 124.059 113.236 127.617 107.022 129.257C105.41 129.686 103.45 129.915 102.202 128.959C100.953 128.002 101.046 126.309 101.242 124.874C99.9928 127.212 98.1475 129.288 95.8382 130.955C95.1916 131.466 94.4286 131.861 93.5955 132.116C93.1777 132.241 92.7309 132.282 92.2912 132.234C91.8515 132.187 91.4311 132.053 91.0639 131.843C89.9599 131.131 89.9079 129.764 90.0755 128.603C89.0698 129.735 88.4629 131.077 87.7288 132.351C86.9948 133.624 86.0758 134.883 84.6712 135.654C83.2667 136.425 81.261 136.567 79.9779 135.654C77.9202 134.19 79.1687 131.906 79.5212 130.076C79.9671 127.792 80.5966 125.535 81.4055 123.323C83.0243 118.947 85.2496 114.749 88.0352 110.815C91.0774 106.541 94.6398 102.547 98.6646 98.8981C100.63 97.1023 102.676 95.3406 104.838 93.7155C107.17 92.0084 109.649 90.449 112.253 89.0503C129.183 81.0227 136.24 81.6961 140.096 83.6042C142.5 84.7998 144.223 93.4764 137.974 103.846Z" fill="#ED7B84"/>
<path opacity="0.7" d="M137.974 103.846C137.223 105.096 136.431 106.335 135.593 107.545C132.189 112.45 127.802 116.373 122.998 120.297C118.374 124.059 113.236 127.617 107.022 129.257C105.41 129.686 103.45 129.915 102.202 128.959C100.953 128.002 101.046 126.309 101.242 124.874C99.9928 127.212 98.1475 129.288 95.8382 130.955C95.1916 131.466 94.4286 131.861 93.5955 132.116C93.1777 132.241 92.7309 132.282 92.2912 132.234C91.8515 132.187 91.4311 132.053 91.0639 131.843C89.9599 131.131 89.9079 129.764 90.0755 128.603C89.0698 129.735 88.4629 131.077 87.7288 132.351C86.9948 133.624 86.0758 134.883 84.6712 135.654C83.2667 136.425 81.261 136.567 79.9779 135.654C77.9202 134.19 79.1687 131.906 79.5212 130.076C79.9671 127.792 80.5966 125.535 81.4055 123.323C83.0243 118.947 85.2496 114.749 88.0352 110.815C91.0774 106.541 94.6398 102.547 98.6646 98.8981C100.63 97.1023 102.676 95.3406 104.838 93.7155C107.17 92.0084 109.649 90.449 112.253 89.0503C129.183 81.0227 136.24 81.6961 140.096 83.6042C142.5 84.7998 144.223 93.4764 137.974 103.846Z" fill="#FAFAFA"/>
<path d="M129.385 176.544C126.357 176.139 125.946 176.129 124.761 176.3C123.576 176.471 123.305 176.988 124.154 177.247C125.004 177.505 127.622 177.735 128.599 178.652C129.576 179.569 132.327 182.624 133.154 183.327C133.98 184.03 135.639 187.187 136.102 188.007C136.564 188.827 137.801 188.397 137.622 187.094C137.356 185.142 135.645 182.307 135.645 182.307C137.291 182.993 138.85 183.819 140.298 184.771C141.275 185.474 142.084 186.211 142.974 186.113C143.864 186.016 143.552 185.084 142.396 183.991C141.142 182.932 139.812 181.94 138.414 181.019C140.66 181.408 142.833 182.057 144.87 182.946C146.425 183.63 147.28 183.254 146.962 182.59C146.644 181.926 145.471 180.941 142.228 179.857C139.194 178.852 134.558 177.242 129.385 176.544Z" fill="#F0997A"/>
<path opacity="0.15" d="M143.263 186.006C142.685 186.055 142.298 185.923 141.228 184.889C140.075 183.687 138.628 182.71 136.986 182.024C135.05 181.214 134.94 181.536 135.622 182.322C137.258 183.009 138.807 183.835 140.246 184.786C141.223 185.489 142.032 186.226 142.922 186.128C143.048 186.118 143.167 186.075 143.263 186.006Z" fill="black"/>
<path opacity="0.15" d="M146.962 182.941C146.847 183.146 146.523 183.273 146.072 183.039C145.621 182.805 144.881 182.483 143.471 181.892C142.124 181.309 140.708 180.848 139.246 180.516C138.09 180.292 137.784 180.726 138.373 181.004C140.619 181.397 142.791 182.045 144.829 182.932C146.078 183.488 146.864 183.356 146.962 182.941Z" fill="black"/>
<path opacity="0.15" d="M136.067 188.012C136.109 188.12 136.187 188.217 136.292 188.288C136.397 188.36 136.525 188.405 136.66 188.417C136.794 188.429 136.93 188.407 137.05 188.355C137.171 188.303 137.271 188.223 137.339 188.124C136.859 188.427 136.657 188.124 136.448 187.636C136.129 186.766 135.743 185.915 135.292 185.089C134.714 183.993 133.974 182.963 133.09 182.024C132.321 181.302 130.397 179.218 129.374 178.296C128.351 177.373 127.096 177.227 125.559 177.12C124.021 177.012 123.704 176.685 123.825 176.558C123.467 176.783 123.542 177.046 124.102 177.237C124.952 177.495 127.57 177.725 128.547 178.637C129.524 179.55 132.275 182.614 133.102 183.317C133.928 184.02 135.605 187.192 136.067 188.012Z" fill="black"/>
<path d="M133.454 178.369L130.489 178.54L127.455 137.396L130.42 137.221L133.454 178.369Z" fill="#F0997A"/>
<path opacity="0.15" d="M130.42 137.221L127.455 137.396L127.669 140.295C128.129 140.516 128.657 140.616 129.186 140.582C129.714 140.548 130.218 140.382 130.634 140.105L130.42 137.221Z" fill="black"/>
<path d="M130.414 137.328L127.455 137.108L131.102 104.49L134.061 104.71L130.414 137.328Z" fill="#F0997A"/>
<path opacity="0.15" d="M131.356 128.925L134.061 104.71L131.749 104.539L131.09 104.49L128.2 130.642C129.294 130.126 130.348 129.552 131.356 128.925Z" fill="black"/>
<path d="M128.848 139.631C130.364 139.631 131.593 138.594 131.593 137.313C131.593 136.033 130.364 134.995 128.848 134.995C127.331 134.995 126.102 136.033 126.102 137.313C126.102 138.594 127.331 139.631 128.848 139.631Z" fill="#F0997A"/>
<path d="M166.007 36.6C166.005 33.9706 164.828 31.4387 162.712 29.5094C160.597 27.5801 157.697 26.3953 154.592 26.1914C151.487 25.9875 148.405 26.7795 145.961 28.4094C143.518 30.0393 141.892 32.3873 141.408 34.9847C139.864 38.7033 138.801 44.1152 139.911 51.6304C141.824 64.5526 150.153 76.8014 141.246 84.0385C139.292 85.6293 135.235 84.3117 132.969 84.18C129.362 83.9701 125.732 83.7359 122.102 83.9945C114.387 84.5879 106.927 86.634 100.271 89.9823C90.5783 94.8037 82.706 101.963 76.7295 109.99C73.0823 114.895 69.7935 120.726 63.0771 122.932C62.4066 123.152 61.5743 123.532 61.7072 124.128C61.7601 124.275 61.8478 124.411 61.9651 124.528C62.0823 124.646 62.2266 124.742 62.3893 124.811C63.4583 125.374 64.7196 125.62 65.9729 125.509C65.9291 125.764 65.8105 126.007 65.6278 126.214C65.4451 126.421 65.2042 126.586 64.9267 126.695C64.3722 126.91 63.8404 127.164 63.3372 127.456C63.0911 127.609 62.9118 127.826 62.8272 128.074C62.7425 128.322 62.7572 128.587 62.869 128.827C63.1074 129.11 63.4548 129.313 63.8516 129.403C67.9554 130.725 72.7759 130.491 76.9491 129.564C81.9604 128.456 86.7115 126.568 91.7921 125.709C97.7109 124.704 103.82 125.133 109.86 125.04C119.717 124.763 129.316 122.312 137.703 117.93C146.712 113.158 153.275 105.707 156.095 97.0485C160.95 82.0474 155.291 74.1125 150.153 59.414C148.026 53.3237 147.003 48.8634 146.714 45.262C148.576 46.3201 150.744 46.9309 152.985 47.0291C155.227 47.1273 157.458 46.7092 159.439 45.8194C161.421 44.9297 163.079 43.6018 164.236 41.9779C165.393 40.354 166.005 38.495 166.007 36.6Z" fill="#ED7B84"/>
<path opacity="0.9" d="M166.007 36.6C166.005 33.9706 164.828 31.4387 162.712 29.5094C160.597 27.5801 157.697 26.3953 154.592 26.1914C151.487 25.9875 148.405 26.7795 145.961 28.4094C143.518 30.0393 141.892 32.3873 141.408 34.9847C139.864 38.7033 138.801 44.1152 139.911 51.6304C141.824 64.5526 150.153 76.8014 141.246 84.0385C139.292 85.6293 135.235 84.3117 132.969 84.18C129.362 83.9701 125.732 83.7359 122.102 83.9945C114.387 84.5879 106.927 86.634 100.271 89.9823C90.5783 94.8037 82.706 101.963 76.7295 109.99C73.0823 114.895 69.7935 120.726 63.0771 122.932C62.4066 123.152 61.5743 123.532 61.7072 124.128C61.7601 124.275 61.8478 124.411 61.9651 124.528C62.0823 124.646 62.2266 124.742 62.3893 124.811C63.4583 125.374 64.7196 125.62 65.9729 125.509C65.9291 125.764 65.8105 126.007 65.6278 126.214C65.4451 126.421 65.2042 126.586 64.9267 126.695C64.3722 126.91 63.8404 127.164 63.3372 127.456C63.0911 127.609 62.9118 127.826 62.8272 128.074C62.7425 128.322 62.7572 128.587 62.869 128.827C63.1074 129.11 63.4548 129.313 63.8516 129.403C67.9554 130.725 72.7759 130.491 76.9491 129.564C81.9604 128.456 86.7115 126.568 91.7921 125.709C97.7109 124.704 103.82 125.133 109.86 125.04C119.717 124.763 129.316 122.312 137.703 117.93C146.712 113.158 153.275 105.707 156.095 97.0485C160.95 82.0474 155.291 74.1125 150.153 59.414C148.026 53.3237 147.003 48.8634 146.714 45.262C148.576 46.3201 150.744 46.9309 152.985 47.0291C155.227 47.1273 157.458 46.7092 159.439 45.8194C161.421 44.9297 163.079 43.6018 164.236 41.9779C165.393 40.354 166.005 38.495 166.007 36.6Z" fill="#FAFAFA"/>
<path opacity="0.03" d="M157.834 88.6746C157.025 95.9165 151.794 105.032 145.153 109.171C137.778 113.743 127.039 115.207 127.986 111.542C129.379 106.502 129.446 101.264 128.183 96.1995C128.183 96.1995 123.94 108.063 109.306 116.979C94.6706 125.894 67.5797 130.198 67.5797 130.198C70.7116 130.494 73.8814 130.283 76.9202 129.579C81.9315 128.471 86.6826 126.582 91.7632 125.724C97.6819 124.718 103.791 125.148 109.832 125.055C119.688 124.778 129.288 122.327 137.674 117.945C146.683 113.172 153.246 105.722 156.066 97.0633C156.985 94.3238 157.577 91.5136 157.834 88.6746Z" fill="#ED7B84"/>
<path opacity="0.03" d="M157.834 88.6746C157.025 95.9165 151.794 105.032 145.153 109.171C137.778 113.743 127.039 115.207 127.986 111.542C129.379 106.502 129.446 101.264 128.183 96.1995C128.183 96.1995 123.94 108.063 109.306 116.979C94.6706 125.894 67.5797 130.198 67.5797 130.198C70.7116 130.494 73.8814 130.283 76.9202 129.579C81.9315 128.471 86.6826 126.582 91.7632 125.724C97.6819 124.718 103.791 125.148 109.832 125.055C119.688 124.778 129.288 122.327 137.674 117.945C146.683 113.172 153.246 105.722 156.066 97.0633C156.985 94.3238 157.577 91.5136 157.834 88.6746Z" fill="black"/>
<path d="M69.9842 127.095C68.9496 125.631 75.4058 120.565 75.4058 120.565C75.4058 120.565 69.2097 123.391 68.2675 122.81C67.3254 122.229 68.782 120.414 70.2616 118.321C68.3746 120.352 65.9006 121.94 63.0771 122.932C62.4066 123.152 61.5743 123.532 61.7072 124.128C61.7601 124.275 61.8478 124.411 61.9651 124.529C62.0823 124.646 62.2266 124.742 62.3893 124.811C63.4583 125.374 64.7196 125.62 65.9729 125.509C65.9291 125.764 65.8105 126.007 65.6278 126.214C65.4451 126.421 65.2042 126.586 64.9267 126.695C64.3722 126.91 63.8404 127.164 63.3372 127.456C63.0911 127.609 62.9118 127.826 62.8272 128.074C62.7425 128.322 62.7572 128.587 62.869 128.827C63.1074 129.11 63.4548 129.313 63.8516 129.403C67.9554 130.726 72.7759 130.491 76.9491 129.564C78.8507 129.144 80.7119 128.612 82.573 128.066C77.8277 128.129 70.672 128.061 69.9842 127.095Z" fill="#37474F"/>
<path d="M106.93 188.007C103.895 187.597 103.462 187.587 102.306 187.758C101.15 187.929 100.844 188.446 101.693 188.705C102.543 188.963 105.161 189.193 106.138 190.11C107.115 191.028 109.866 194.087 110.693 194.785C111.519 195.483 113.178 198.645 113.641 199.465C114.103 200.285 115.375 199.856 115.166 198.553C114.895 196.601 113.184 193.765 113.184 193.765C114.83 194.451 116.389 195.277 117.837 196.23C118.814 196.937 119.629 197.694 120.513 197.577C121.397 197.459 121.091 196.542 119.935 195.449C118.681 194.39 117.351 193.398 115.953 192.477C118.198 192.869 120.37 193.518 122.409 194.405C123.964 195.088 124.819 194.712 124.501 194.048C124.183 193.385 123.01 192.399 119.767 191.316C116.756 190.32 112.132 188.7 106.93 188.007Z" fill="#F0997A"/>
<path opacity="0.15" d="M120.802 197.459C120.224 197.508 119.831 197.376 118.762 196.342C117.606 195.135 116.155 194.155 114.508 193.468C112.577 192.662 112.467 192.98 113.143 193.765C114.79 194.451 116.349 195.277 117.796 196.23C118.773 196.937 119.588 197.694 120.472 197.576C120.592 197.561 120.705 197.521 120.802 197.459Z" fill="black"/>
<path opacity="0.15" d="M124.513 194.395C124.403 194.6 124.073 194.727 123.623 194.497C123.172 194.268 122.432 193.941 121.027 193.346C119.679 192.762 118.261 192.303 116.796 191.974C115.64 191.75 115.334 192.179 115.924 192.462C118.169 192.855 120.341 193.503 122.38 194.39C123.628 194.956 124.414 194.814 124.513 194.395Z" fill="black"/>
<path opacity="0.15" d="M113.617 199.465C113.658 199.574 113.736 199.671 113.841 199.743C113.946 199.816 114.073 199.861 114.208 199.873C114.343 199.886 114.479 199.865 114.6 199.813C114.721 199.761 114.821 199.681 114.889 199.582C114.409 199.88 114.207 199.582 113.999 199.094C113.681 198.223 113.295 197.37 112.843 196.542C112.263 195.448 111.524 194.42 110.641 193.482C109.878 192.755 107.947 190.676 106.924 189.754C105.901 188.832 104.647 188.685 103.109 188.573C101.572 188.461 101.254 188.139 101.375 188.017C101.023 188.236 101.092 188.505 101.653 188.69C102.502 188.954 105.121 189.178 106.098 190.095C107.074 191.013 109.826 194.073 110.652 194.771C111.479 195.468 113.155 198.645 113.617 199.465Z" fill="black"/>
<path d="M110.999 189.827L108.04 190.003L105.005 148.855L107.965 148.679L110.999 189.827Z" fill="#F0997A"/>
<path opacity="0.15" d="M107.965 148.679L105.005 148.855L105.196 151.768C105.656 151.988 106.182 152.087 106.709 152.054C107.236 152.021 107.739 151.857 108.155 151.583L107.965 148.679Z" fill="black"/>
<path d="M107.768 149.445L104.867 148.903L113.467 116.959L116.369 117.501L107.768 149.445Z" fill="#F0997A"/>
<path opacity="0.15" d="M116.369 117.501L113.479 116.959L108.635 134.961C109.641 134.961 110.675 134.898 111.716 134.815L116.369 117.501Z" fill="black"/>
<path d="M106.392 151.09C107.909 151.09 109.138 150.052 109.138 148.772C109.138 147.491 107.909 146.454 106.392 146.454C104.876 146.454 103.647 147.491 103.647 148.772C103.647 150.052 104.876 151.09 106.392 151.09Z" fill="#F0997A"/>
<path d="M123.917 110.288C119.484 117.925 113.808 124.762 104.791 128.734C104.121 129.024 103.385 129.191 102.633 129.223C101.881 129.255 101.129 129.151 100.428 128.92C99.0519 128.432 99.3755 125.777 100.115 124.689C98.0635 127.617 94.4221 131.297 90.2547 133.092C89.2085 133.546 87.0873 133.678 86.3763 132.8C85.6654 131.921 85.9775 129.837 86.3243 128.896C85.5035 131.179 82.7407 135.391 80.6194 136.972C79.8391 137.548 78.8854 138.089 77.8682 138.05C75.5562 137.967 75.7758 135.093 76.1342 134.273C74.4002 136.674 71.9148 140.51 69.597 142.52C68.7878 143.218 67.6491 143.945 66.5856 143.555C65.5221 143.165 65.3776 141.915 65.4296 140.915C66.1001 132.809 69.2906 124.923 74.0996 117.881C77.0623 113.572 80.5491 109.536 84.5036 105.838C86.4341 104.017 88.4513 102.226 90.5899 100.577C92.1737 99.3569 97.7803 95.6969 99.653 94.7795C114.502 87.6498 121.779 88.1719 125.663 90.0312C128.114 91.2024 129.986 99.8547 123.917 110.288Z" fill="#ED7B84"/>
<path opacity="0.85" d="M123.917 110.288C119.484 117.925 113.808 124.762 104.791 128.734C104.121 129.024 103.385 129.191 102.633 129.223C101.881 129.255 101.129 129.151 100.428 128.92C99.0519 128.432 99.3755 125.777 100.115 124.689C98.0635 127.617 94.4221 131.297 90.2547 133.092C89.2085 133.546 87.0873 133.678 86.3763 132.8C85.6654 131.921 85.9775 129.837 86.3243 128.896C85.5035 131.179 82.7407 135.391 80.6194 136.972C79.8391 137.548 78.8854 138.089 77.8682 138.05C75.5562 137.967 75.7758 135.093 76.1342 134.273C74.4002 136.674 71.9148 140.51 69.597 142.52C68.7878 143.218 67.6491 143.945 66.5856 143.555C65.5221 143.165 65.3776 141.915 65.4296 140.915C66.1001 132.809 69.2906 124.923 74.0996 117.881C77.0623 113.572 80.5491 109.536 84.5036 105.838C86.4341 104.017 88.4513 102.226 90.5899 100.577C92.1737 99.3569 97.7803 95.6969 99.653 94.7795C114.502 87.6498 121.779 88.1719 125.663 90.0312C128.114 91.2024 129.986 99.8547 123.917 110.288Z" fill="#FAFAFA"/>
<path opacity="0.2" d="M123.917 110.288C124.293 109.644 124.64 109.005 124.952 108.375C121.406 112.544 116.881 116.05 111.658 118.677C110.086 119.457 108.063 120.141 106.525 119.326C106.066 119.039 105.695 118.665 105.443 118.232C105.191 117.8 105.064 117.323 105.075 116.842C105.099 115.688 105.462 114.558 106.132 113.553C103.82 115.993 101.063 119.516 98.3524 121.995C97.26 122.971 95.6185 123.854 94.0347 123.645C92.451 123.435 92.1562 122.317 92.1793 120.951C92.3311 119.409 92.869 117.912 93.7573 116.559C91.3528 118.721 88.9946 121.878 86.4398 124.05C85.5555 124.801 84.4804 125.577 83.2319 125.514C81.654 125.411 81.4979 124.118 81.6019 122.786C81.706 121.453 82.8215 119.736 83.4862 118.496C82.1679 119.695 80.9474 120.969 79.8333 122.307C78.8082 123.433 77.6649 124.478 76.4173 125.431C75.2208 126.372 73.851 127.056 72.2672 126.709C71.7441 126.585 71.2663 126.352 70.8776 126.031C70.4888 125.711 70.2015 125.313 70.042 124.874C67.5078 129.978 65.9621 135.392 65.4642 140.91C65.3833 141.91 65.5047 143.155 66.6202 143.55C67.7357 143.945 68.8224 143.213 69.6316 142.515C71.9436 140.505 74.4579 136.659 76.1687 134.268C75.8219 135.088 75.5907 137.962 77.9028 138.045C78.9374 138.084 79.8737 137.557 80.654 136.967C82.7753 135.386 85.5381 131.174 86.3589 128.891C86.0121 129.837 85.7462 131.98 86.4109 132.795C87.0756 133.609 89.2431 133.541 90.2893 133.087C94.4567 131.291 98.0981 127.617 100.15 124.684C99.4101 125.772 99.0864 128.446 100.462 128.915C101.164 129.146 101.915 129.25 102.668 129.218C103.42 129.186 104.156 129.019 104.826 128.729C113.808 124.777 119.484 117.94 123.917 110.288Z" fill="#ED7B84"/>
<path d="M119.964 116.329C117.132 119.038 114.057 121.478 110.074 122.883C108.843 123.322 106.757 123.991 104.872 123.63C104.111 123.462 103.441 123.081 102.97 122.549C102.5 122.017 102.257 121.365 102.283 120.702C100.549 123.235 97.6589 125.977 94.8093 126.816C93.6187 127.168 91.5957 127.422 90.4339 126.607C89.4628 125.923 89.4397 124.757 89.4917 123.41C88.3536 125.454 86.4477 127.123 84.0701 128.158C81.1223 129.403 78.7467 128.646 79.3478 126.348C78.3091 127.776 76.9315 129.007 75.3018 129.964C73.6199 130.882 70.9553 131.389 69.6143 130.13C68.7069 129.286 68.8282 127.944 69.2039 126.66C67.1489 131.232 65.8855 136.029 65.4527 140.905C65.3718 141.905 65.4932 143.15 66.6087 143.545C67.7243 143.94 68.8109 143.208 69.6201 142.511C71.9321 140.5 74.4464 136.655 76.1573 134.263C75.8105 135.083 75.5793 137.958 77.8913 138.04C78.9259 138.08 79.8623 137.552 80.6426 136.962C82.7638 135.381 85.5267 131.169 86.3474 128.886C86.0006 129.832 85.7347 131.975 86.3994 132.79C87.0641 133.605 89.2316 133.536 90.2778 133.082C94.4452 131.287 98.0866 127.612 100.139 124.679C99.3987 125.767 99.075 128.442 100.451 128.91C101.152 129.141 101.904 129.245 102.656 129.213C103.408 129.181 104.144 129.014 104.815 128.725C111.346 125.86 116.213 121.468 119.964 116.329Z" fill="#455A64"/>
<path opacity="0.2" d="M146.714 45.2572C145.242 44.4187 144 43.3238 143.072 42.0461C143.183 43.0331 143.58 43.9817 144.228 44.8082C144.937 45.648 145.847 46.3529 146.899 46.8773C146.812 46.3601 146.76 45.8135 146.714 45.2572Z" fill="#ED7B84"/>
<path d="M156.603 38.2689C156.603 38.5585 156.502 38.8415 156.311 39.0823C156.12 39.323 155.85 39.5107 155.533 39.6215C155.216 39.7323 154.867 39.7613 154.531 39.7048C154.195 39.6483 153.886 39.5089 153.643 39.3041C153.401 39.0994 153.235 38.8385 153.169 38.5545C153.102 38.2706 153.136 37.9762 153.267 37.7087C153.398 37.4412 153.621 37.2125 153.906 37.0517C154.191 36.8908 154.526 36.8049 154.869 36.8049C155.329 36.8049 155.77 36.9592 156.095 37.2337C156.421 37.5083 156.603 37.8807 156.603 38.2689Z" fill="#37474F"/>
<path d="M195.15 55.0756L200.93 57.6522C200.988 57.671 201.034 57.7082 201.059 57.7558C201.084 57.8034 201.085 57.8574 201.063 57.906C201.041 57.9545 200.997 57.9936 200.94 58.0146C200.884 58.0357 200.82 58.037 200.762 58.0182C192.029 55.993 160.019 45.9744 159.204 45.7743C157.728 45.2876 156.508 44.3698 155.765 43.1879C155.366 42.4071 155.765 42.3095 156.314 42.2948C158.449 42.2532 160.535 41.7491 162.372 40.8308C164.036 40.0208 165.325 39.2107 165.897 37.9028L203.115 56.4468C203.168 56.4683 203.209 56.506 203.231 56.5524C203.252 56.5987 203.251 56.6502 203.229 56.6962C203.207 56.7423 203.165 56.7795 203.112 56.8003C203.058 56.821 202.997 56.8238 202.941 56.808L195.15 55.0756Z" fill="#F0997A"/>
<path opacity="0.3" d="M195.15 55.0756L197.427 56.237C198.687 56.8763 197.318 56.6909 196.243 56.2761L160.574 44.3542L195.15 55.0756Z" fill="black"/>
<path opacity="0.3" d="M166.239 42.0753C166.175 42.2705 165.788 42.3437 165.372 42.2412C164.955 42.1387 164.678 41.9045 164.747 41.7142C164.817 41.5239 165.198 41.4458 165.609 41.5483C166.019 41.6507 166.302 41.885 166.239 42.0753Z" fill="black"/>
<path d="M213.068 101.421C214.45 103.207 215.681 109.751 207.999 116.383C200.317 123.015 190.451 128.505 175.995 129.1C161.539 129.696 147.176 124.381 148.656 116.163C150.135 107.946 162.817 105.979 168.522 104.139C174.227 102.299 182.486 93.125 193.306 93.4764C204.126 93.8277 213.068 101.421 213.068 101.421Z" fill="#ED7B84"/>
<path opacity="0.4" d="M213.068 101.421C214.45 103.207 215.681 109.751 207.999 116.383C200.317 123.015 190.451 128.505 175.995 129.1C161.539 129.696 147.176 124.381 148.656 116.163C150.135 107.946 162.817 105.979 168.522 104.139C174.227 102.299 182.486 93.125 193.306 93.4764C204.126 93.8277 213.068 101.421 213.068 101.421Z" fill="white"/>
<path opacity="0.1" d="M213.068 101.421C213.068 101.421 212.311 100.782 210.976 99.8593L205.964 102.612C205.964 102.612 210.872 103.456 209.288 107.614C207.704 111.771 199.121 115.68 194.26 112.699C187.792 108.746 185.769 94.7597 185.758 94.7109C185.694 94.8378 170.562 123.586 164.106 123.088C153.736 122.288 149.586 114.958 152.442 110.371C150.418 111.862 149.079 113.905 148.656 116.144C147.176 124.362 161.539 129.676 175.995 129.081C190.451 128.485 200.317 123 207.999 116.363C215.681 109.727 214.438 103.207 213.068 101.421Z" fill="black"/>
<path d="M219.062 92.032C219.062 95.4773 218.114 97.8294 215.016 99.6643C212.704 101.036 209.606 103.08 205.051 103.422C198.861 103.91 193.37 102.099 190.775 97.8734C189.901 96.4453 189.695 94.7926 190.197 93.2422C190.647 91.8856 191.728 90.773 192.572 89.5822C193.416 88.3915 193.78 87.0154 194.549 85.7758C195.272 84.6612 196.221 83.662 197.352 82.8234C198.402 81.9544 199.651 81.2752 201.023 80.8275C202.399 80.4455 203.84 80.2575 205.288 80.2712C213.155 80.2712 219.062 85.4001 219.062 92.032Z" fill="#FFA8A7"/>
<path d="M198.057 92.11C197.318 91.8904 196.225 92.437 196.901 92.8615C197.578 93.2861 199.41 94.1157 199.468 93.7253C199.401 93.3811 199.238 93.0552 198.993 92.7744C198.748 92.4936 198.427 92.2659 198.057 92.11Z" fill="#F28F8F"/>
<path d="M198.306 96.458L201.283 96.9997C201.176 97.3139 200.932 97.5821 200.6 97.7501C200.268 97.918 199.873 97.9732 199.494 97.9043C199.116 97.8355 198.783 97.6478 198.562 97.3792C198.341 97.1107 198.25 96.7814 198.306 96.458Z" fill="#B16668"/>
<path d="M221.172 93.208C220.973 94.0456 220.671 94.8634 220.27 95.648C219.37 97.3743 217.886 98.8377 216.004 99.8545C214.132 100.948 212.063 101.78 209.878 102.319C210.736 101.371 211.329 100.272 211.612 99.103C212.19 99.9278 214.132 99.4885 214.848 98.8249C215.733 98.0148 216.218 97.029 215.808 96.097C215.648 95.799 215.393 95.5446 215.072 95.3626C214.75 95.1807 214.374 95.0784 213.987 95.0673C213.595 95.0346 213.202 95.1154 212.872 95.2966C212.49 95.526 212.057 95.8725 211.531 95.6626C211.392 95.5949 211.275 95.4985 211.192 95.3825C211.109 95.2664 211.063 95.1344 211.057 94.999C211.048 94.7294 211.083 94.4602 211.161 94.1986C211.305 93.4476 211.259 92.6793 211.028 91.9441C210.759 91.2945 210.588 90.6191 210.519 89.9335C210.574 89.313 210.574 88.6899 210.519 88.0694C210.491 87.7591 210.381 87.4581 210.199 87.188C210.016 86.9179 209.764 86.6856 209.461 86.5078C208.78 86.2629 208.036 86.1704 207.3 86.2394C206.204 86.2268 205.12 86.05 204.098 85.7172C202.635 85.2835 201.307 84.5762 200.213 83.6481C199.981 83.4198 199.683 83.2466 199.347 83.1456C199.012 83.0446 198.651 83.0193 198.3 83.0722C197.638 83.1937 197.025 83.4576 196.52 83.8384C195.788 84.3539 195.149 84.9573 194.624 85.6294C195.075 83.6774 196.734 81.9157 198.601 80.7494C200.693 79.4415 204.063 78.9437 205.213 78.8852C208.376 78.7264 211.529 79.3163 214.317 80.5883C216.915 81.7898 218.985 83.6664 220.219 85.9397C221.454 88.213 221.788 90.7618 221.172 93.208Z" fill="#37474F"/>
<path opacity="0.7" d="M208.375 96.624C208.375 97.6 207.219 98.3857 205.808 98.3857C204.398 98.3857 203.242 97.5951 203.242 96.624C203.242 95.6529 204.398 94.8672 205.808 94.8672C207.219 94.8672 208.375 95.648 208.375 96.624Z" fill="#F28F8F"/>
<path opacity="0.7" d="M193.798 92.6857C193.144 93.4861 191.671 93.5837 190.503 92.9054C189.335 92.227 188.919 91.0266 189.572 90.2262C190.226 89.4259 191.705 89.3283 192.867 90.0115C194.029 90.6947 194.451 91.8903 193.798 92.6857Z" fill="#F28F8F"/>
<path d="M197.208 89.5579C197.209 89.8061 197.123 90.0491 196.96 90.256C196.798 90.4629 196.566 90.6244 196.295 90.72C196.023 90.8157 195.725 90.8413 195.436 90.7934C195.148 90.7456 194.882 90.6265 194.674 90.4513C194.466 90.2761 194.324 90.0526 194.266 89.8092C194.208 89.5658 194.237 89.3134 194.349 89.0839C194.462 88.8545 194.652 88.6583 194.896 88.5203C195.141 88.3823 195.428 88.3086 195.722 88.3086C195.917 88.308 196.11 88.3398 196.29 88.4023C196.471 88.4648 196.634 88.5567 196.772 88.6728C196.91 88.7888 197.02 88.9268 197.095 89.0787C197.169 89.2306 197.208 89.3934 197.208 89.5579Z" fill="#263238"/>
<path d="M196.676 89.3675C196.677 89.448 196.65 89.527 196.598 89.5943C196.545 89.6617 196.47 89.7143 196.383 89.7456C196.295 89.7769 196.198 89.7853 196.104 89.7698C196.011 89.7543 195.925 89.7157 195.857 89.6587C195.79 89.6018 195.744 89.5292 195.725 89.4502C195.707 89.3711 195.717 89.2893 195.754 89.2151C195.791 89.1409 195.854 89.0777 195.933 89.0335C196.013 88.9894 196.107 88.9663 196.202 88.9673C196.327 88.9686 196.447 89.0111 196.536 89.0859C196.624 89.1607 196.674 89.2617 196.676 89.3675Z" fill="#FAFAFA"/>
<path d="M206.346 92.5005C206.347 92.7488 206.261 92.9917 206.098 93.1986C205.936 93.4055 205.704 93.567 205.433 93.6627C205.162 93.7583 204.863 93.7839 204.574 93.736C204.286 93.6882 204.021 93.5691 203.812 93.3939C203.604 93.2187 203.462 92.9953 203.404 92.7519C203.346 92.5084 203.375 92.256 203.488 92.0266C203.6 91.7971 203.79 91.601 204.035 91.4629C204.279 91.3249 204.566 91.2512 204.861 91.2512C205.253 91.2512 205.63 91.3827 205.909 91.6168C206.187 91.851 206.344 92.1687 206.346 92.5005Z" fill="#263238"/>
<path d="M206.063 92.3101C206.064 92.3904 206.037 92.4692 205.985 92.5364C205.933 92.6037 205.858 92.6563 205.771 92.6877C205.683 92.7192 205.586 92.7279 205.493 92.7128C205.4 92.6977 205.314 92.6595 205.246 92.6031C205.178 92.5466 205.132 92.4745 205.113 92.3958C205.094 92.3171 205.103 92.2354 205.139 92.1611C205.175 92.0868 205.237 92.0233 205.316 91.9785C205.395 91.9338 205.488 91.9099 205.583 91.9099C205.709 91.9099 205.83 91.9519 205.92 92.0268C206.01 92.1017 206.061 92.2035 206.063 92.3101Z" fill="#FAFAFA"/>
<path d="M205.496 80.3395C205.393 80.2519 205.298 80.1573 205.213 80.0564C204.954 79.6555 204.843 79.1983 204.895 78.7437C204.923 77.6993 205.304 76.6834 205.993 75.8157C207.225 74.2053 209.508 73.4001 211.282 74.2053C211.732 74.4048 212.098 74.7155 212.333 75.0957C212.567 75.476 212.658 75.9077 212.594 76.333C212.539 76.5944 212.417 76.8425 212.237 77.0602C212.057 77.2779 211.823 77.4599 211.552 77.5936C211.28 77.7274 210.977 77.8096 210.664 77.8346C210.351 77.8596 210.035 77.8268 209.739 77.7384C209.586 77.7045 209.445 77.6397 209.328 77.5496C209.211 77.4595 209.122 77.3468 209.068 77.2211C208.987 76.9625 209.259 76.6404 209.565 76.7038C209.695 76.7494 209.818 76.8049 209.935 76.8698C210.014 76.8962 210.098 76.9077 210.183 76.9036C210.267 76.8994 210.35 76.8796 210.424 76.8457C210.499 76.8117 210.563 76.7643 210.614 76.7069C210.664 76.6496 210.699 76.5835 210.716 76.5135C210.747 76.374 210.723 76.2297 210.65 76.1022C210.576 75.9747 210.455 75.8708 210.305 75.8059C210.154 75.7434 209.988 75.7109 209.82 75.7109C209.651 75.7109 209.485 75.7434 209.334 75.8059C209.033 75.9362 208.778 76.1315 208.594 76.372C208.185 76.8806 207.991 77.4912 208.045 78.1044C208.086 78.4997 208.184 78.895 208.265 79.2854C208.357 79.5712 208.481 79.849 208.635 80.115C208.602 80.2438 208.521 80.3602 208.404 80.4468C207.995 80.7464 207.465 80.9022 206.925 80.8822C206.384 80.8623 205.873 80.668 205.496 80.3395Z" fill="#37474F"/>
<path d="M205.323 80.159C205.028 78.451 202.132 75.3863 200.78 75.9378C199.427 76.4892 200.26 77.6311 199.734 78.2509C199.289 78.7828 197.705 79.3977 198.248 80.3054C198.792 81.2131 203.612 81.5107 204.768 81.135L205.323 80.159Z" fill="#ED7B84"/>
<path opacity="0.15" d="M205.277 80.3443C204.832 79.666 203.543 78.2996 203.254 78.4655C202.965 78.6314 204.317 80.0564 204.317 80.0564C204.317 80.0564 202.364 79.8075 202.375 80.193C202.387 80.5786 205.057 80.6274 205.057 80.6274L205.277 80.3443Z" fill="black"/>
<path d="M207.005 80.6323C208.537 79.4855 213.085 78.7144 213.704 79.8661C214.322 81.0178 212.808 81.4472 212.739 82.2085C212.675 82.8576 213.444 84.2386 212.311 84.5851C211.178 84.9316 207.525 82.8185 206.687 81.6571L207.005 80.6323Z" fill="#ED7B84"/>
<path opacity="0.15" d="M207.115 80.7981C207.843 80.559 209.866 80.1734 209.878 80.4321C209.889 80.6907 207.485 81.0616 207.485 81.0616C207.485 81.0616 209.369 81.9644 209.132 82.2572C208.895 82.55 207.248 81.6277 206.872 81.0518L207.115 80.7981Z" fill="black"/>
<path d="M206.41 79.9198C205.537 79.7441 205.184 79.7929 204.814 80.4078C204.444 81.0227 204.387 81.4912 205.323 81.784C206.259 82.0768 206.693 82.0817 206.849 81.8913C206.868 81.3734 207.047 80.8687 207.369 80.4273C207.128 80.1696 206.789 79.9903 206.41 79.9198Z" fill="#ED7B84"/>
<path opacity="0.15" d="M206.924 81.33C206.843 81.6082 206.722 81.6911 206.525 81.7155C206.087 81.703 205.659 81.6027 205.277 81.4227C204.728 81.1982 204.635 80.9347 204.629 80.7542C204.467 81.1836 204.589 81.535 205.323 81.7643C206.259 82.0522 206.693 82.062 206.849 81.8717C206.854 81.6896 206.88 81.5083 206.924 81.33Z" fill="black"/>
<path d="M199.786 122.288L199.739 122.351C192.761 126.486 184.515 128.83 175.995 129.1C171.149 129.315 166.294 128.843 161.632 127.705C158.308 122.259 157.638 112.186 160.013 98.5857C163.568 78.2263 178.238 49.8345 178.238 49.8345L182.602 51.1862C182.602 51.1862 183.816 71.4968 184.758 85.5024C184.948 88.3279 185.266 91.4755 185.734 94.711C187.596 107.511 191.803 121.649 199.786 122.288Z" fill="#ED7B84"/>
<path d="M174.053 111.371L172.319 110.747C168.181 109.283 167.152 107.375 166.903 106.628C166.786 106.274 166.754 105.903 166.807 105.538C166.86 105.173 166.998 104.82 167.212 104.5C167.427 104.18 167.715 103.899 168.058 103.673C168.402 103.447 168.795 103.28 169.215 103.183C170.782 102.812 172.464 103.842 173.146 105.037C173.452 103.734 174.776 102.382 176.406 102.417C176.84 102.424 177.268 102.503 177.667 102.65C178.065 102.797 178.424 103.009 178.725 103.274C179.026 103.539 179.262 103.851 179.419 104.193C179.576 104.535 179.652 104.9 179.642 105.267C179.642 106.047 179.191 108.102 175.596 110.395L174.053 111.371Z" fill="#FAFAFA"/>
<path opacity="0.1" d="M175.995 129.1C184.515 128.83 192.761 126.486 199.739 122.351C199.739 122.351 185.226 127.231 173.614 122.288C162.002 117.344 159.557 101.387 160.568 95.7261C160.36 96.7021 160.168 97.6553 159.99 98.5858C157.615 112.186 158.285 122.259 161.609 127.705C166.278 128.845 171.141 129.317 175.995 129.1Z" fill="black"/>
<path opacity="0.1" d="M179.423 50.2004C177.244 55.0024 170.984 71.5016 170.452 74.8835C170.452 74.8835 178.544 53.7287 179.978 51.2838L181.018 80.271V50.6933L179.423 50.2004Z" fill="black"/>
<path d="M216.525 63.679L215.143 63.191C211.889 62.0393 211.097 60.5411 210.883 59.9555C210.79 59.6764 210.764 59.3846 210.805 59.0968C210.846 58.809 210.955 58.5309 211.124 58.2787C211.293 58.0264 211.52 57.805 211.791 57.6271C212.062 57.4492 212.373 57.3184 212.704 57.2423C213.941 56.9495 215.259 57.7303 215.796 58.7063C216.039 57.6815 217.079 56.6225 218.357 56.6469C218.698 56.6526 219.035 56.7151 219.348 56.8308C219.661 56.9464 219.944 57.113 220.181 57.321C220.418 57.529 220.603 57.7744 220.728 58.043C220.852 58.3117 220.913 58.5984 220.906 58.8868C220.906 59.5017 220.553 61.117 217.738 62.9226L216.525 63.679Z" fill="#ED7B84"/>
<path d="M226.83 56.9886L225.547 55.7735C222.536 52.9284 222.576 50.8251 222.732 50.0541C222.882 49.3194 223.371 48.6649 224.091 48.234C224.812 47.8032 225.705 47.6311 226.576 47.7556C228.194 47.9899 229.194 49.5417 229.206 50.8788C230.154 49.8052 232.05 49.0586 233.512 49.6832C233.904 49.8485 234.253 50.0775 234.54 50.3569C234.826 50.6363 235.045 50.9607 235.183 51.3116C235.321 51.6625 235.375 52.0328 235.344 52.4016C235.312 52.7703 235.194 53.1301 234.997 53.4603C234.581 54.1582 233.136 55.9003 228.709 56.6519L226.83 56.9886Z" fill="#ED7B84"/>
</svg>
