<svg width="32" height="32" viewBox="0 0 32 32" fill="none" xmlns="http://www.w3.org/2000/svg">
<path d="M11.3334 25.3334H10.6667C5.33335 25.3334 2.66669 24.0001 2.66669 17.3334V10.6667C2.66669 5.33341 5.33335 2.66675 10.6667 2.66675H21.3334C26.6667 2.66675 29.3334 5.33341 29.3334 10.6667V17.3334C29.3334 22.6667 26.6667 25.3334 21.3334 25.3334H20.6667C20.2534 25.3334 19.8534 25.5334 19.6 25.8667L17.6 28.5334C16.72 29.7067 15.28 29.7067 14.4 28.5334L12.4 25.8667C12.1867 25.5734 11.6934 25.3334 11.3334 25.3334Z" stroke="#4E1A3D" stroke-width="1.5" stroke-miterlimit="10" stroke-linecap="round" stroke-linejoin="round"/>
<path opacity="0.4" d="M21.3286 14.6667H21.3406" stroke="#4E1A3D" stroke-width="2" stroke-linecap="round" stroke-linejoin="round"/>
<path opacity="0.4" d="M15.994 14.6667H16.006" stroke="#4E1A3D" stroke-width="2" stroke-linecap="round" stroke-linejoin="round"/>
<path opacity="0.4" d="M10.6593 14.6667H10.6713" stroke="#4E1A3D" stroke-width="2" stroke-linecap="round" stroke-linejoin="round"/>
</svg>
