<svg width="342" height="312" viewBox="0 0 342 312" fill="none" xmlns="http://www.w3.org/2000/svg">
<g clip-path="url(#clip0_274_5941)">
<path d="M302.548 231.725C307.181 229.332 312.632 229.021 317.766 229.872C320.534 230.327 323.407 231.155 325.288 233.237C327.168 235.318 327.525 238.972 325.364 240.757C324.082 241.82 322.293 241.98 320.625 241.957C316.598 241.911 312.14 241.197 308.925 243.628C307.09 245.01 305.891 247.312 303.677 247.996C301.463 248.679 299.128 247.388 297.968 245.451C296.922 243.432 296.691 241.088 297.323 238.903C297.583 237.385 298.19 235.946 299.096 234.701C300.003 233.456 301.184 232.438 302.548 231.725Z" fill="#EBEBEB"/>
<path d="M291.939 211.216C294.775 215.264 300.28 213.92 302.828 211.451C305.376 208.982 306.453 205.374 307.438 201.979C309.713 194.17 311.942 185.982 310.274 178.029C309.878 175.621 308.829 173.369 307.241 171.519C305.573 169.756 303.01 168.708 300.667 169.323C297.892 170.083 296.171 172.78 294.919 175.4C291.252 183.039 289.328 191.399 289.286 199.875C289.286 203.817 289.733 207.957 291.955 211.216" fill="#EBEBEB"/>
<path d="M284.167 217.027C287.238 213.373 287.822 208.04 286.442 203.46C285.062 198.88 281.983 194.99 278.42 191.808C274.229 188.075 269.354 185.193 264.066 183.323C262.016 182.497 259.813 182.121 257.605 182.221C256.503 182.29 255.434 182.624 254.49 183.197C253.546 183.77 252.754 184.564 252.184 185.511C250.667 188.397 252.123 191.899 253.7 194.755C256.46 199.793 259.614 204.604 263.133 209.142C265.954 212.796 269.199 216.396 273.506 218.044C277.813 219.693 282.287 219.503 284.569 216.525" fill="#EBEBEB"/>
<path d="M291.75 272.318C291.898 271.713 291.984 271.095 292.008 270.472C292.137 269.136 292.296 267.434 292.493 265.451C292.746 262.978 293.123 260.519 293.623 258.083C294.279 255.117 295.171 252.209 296.292 249.386C297.393 246.567 298.887 243.917 300.728 241.516C302.23 239.567 304.143 237.974 306.331 236.852C307.816 236.115 309.408 235.618 311.048 235.379C311.667 235.355 312.282 235.266 312.883 235.113C312.263 235.044 311.637 235.044 311.017 235.113C309.314 235.24 307.647 235.672 306.096 236.389C303.791 237.482 301.769 239.093 300.189 241.099C298.269 243.532 296.721 246.238 295.594 249.128C294.452 251.988 293.564 254.945 292.94 257.962C292.462 260.428 292.135 262.922 291.962 265.429C291.803 267.556 291.742 269.288 291.712 270.48C291.657 271.092 291.67 271.709 291.75 272.318Z" fill="#E0E0E0"/>
<path d="M292.099 268.452C292.143 268.168 292.159 267.88 292.144 267.593C292.144 266.955 292.144 266.143 292.144 265.155C292.144 263.036 292.144 259.967 292.25 256.177C292.44 248.581 293.092 240.453 294.351 228.96C295.541 218.151 297.141 205.572 298.825 197.398C299.188 195.537 299.583 193.866 299.894 192.4C300.205 190.934 300.5 189.666 300.773 188.64C301.046 187.615 301.19 186.885 301.342 186.263C301.428 185.989 301.477 185.706 301.486 185.419C301.361 185.677 301.262 185.947 301.19 186.225C301.008 186.84 300.773 187.615 300.485 188.564C300.197 189.514 299.848 190.843 299.484 192.301C299.12 193.76 298.726 195.431 298.301 197.284C296.213 206.957 294.642 216.734 293.592 226.575C292.334 238.09 291.765 248.603 291.72 256.199C291.674 259.997 291.72 263.074 291.848 265.193C291.909 266.181 291.962 266.993 292 267.631C291.996 267.908 292.029 268.184 292.099 268.452Z" fill="#E0E0E0"/>
<path d="M292.144 248.224C292.212 247.374 292.212 246.521 292.144 245.671C292.046 244.031 291.826 241.661 291.386 238.759C290.822 235.363 290.063 232.002 289.111 228.694C288.015 224.627 286.609 220.65 284.903 216.799C281.415 208.511 276.676 201.736 272.558 197.543C271.648 196.581 270.678 195.678 269.654 194.839C269.207 194.459 268.812 194.079 268.41 193.783L267.281 193.023C266.604 192.51 265.889 192.051 265.142 191.648C265.021 191.815 268.175 193.676 272.171 197.93C277.244 203.593 281.314 210.082 284.205 217.118C285.875 220.953 287.287 224.897 288.429 228.922C289.385 232.182 290.177 235.488 290.802 238.827C291.333 241.706 291.636 244.046 291.818 245.664C291.86 246.524 291.969 247.38 292.144 248.224Z" fill="#E0E0E0"/>
<path d="M272.634 283.902L276.751 311.673H308.629L312.284 283.902H272.634Z" fill="#E0E0E0"/>
<path d="M316.53 272.964H269.191V283.91H316.53V272.964Z" fill="#E0E0E0"/>
<path d="M311.412 292.979C311.37 293.07 311.317 293.154 311.252 293.23L310.729 293.937L308.712 296.595L308.621 296.717L308.53 296.595L303.564 289.531H303.852L298.961 296.648L298.809 296.869L298.635 296.664L292.834 289.569H293.168L292.849 289.979L287.663 296.664L287.488 296.884L287.329 296.648L282.461 289.538H282.749L276.683 296.595L276.577 296.724L276.494 296.58L274.605 293.321L274.12 292.455C274.059 292.358 274.01 292.254 273.976 292.144C274.051 292.232 274.12 292.326 274.181 292.425L274.712 293.261C275.197 294.02 275.857 295.106 276.691 296.458H276.509C278.025 294.597 280.065 292.174 282.431 289.311L282.582 289.136L282.719 289.326L287.655 296.413H287.322L292.5 289.721L292.819 289.311L292.986 289.098L293.153 289.311L298.938 296.413H298.612C300.394 293.853 302.055 291.468 303.548 289.333L303.692 289.121L303.837 289.333L308.697 296.466H308.523C309.41 295.372 310.115 294.506 310.623 293.868C310.858 293.602 311.04 293.382 311.192 293.2C311.343 293.017 311.404 292.972 311.412 292.979Z" fill="white"/>
<path d="M312.792 283.72C312.792 283.841 303.874 283.94 292.872 283.94C281.87 283.94 272.945 283.841 272.945 283.72C272.945 283.598 281.862 283.5 292.872 283.5C303.882 283.5 312.792 283.598 312.792 283.72Z" fill="#FAFAFA"/>
<path d="M41.0904 224.106L36.0024 267.768L64.1492 284.875H73.7033L92.9254 267.768L91.9851 224.554L41.0904 224.106Z" fill="#EBEBEB"/>
<g opacity="0.6">
<path d="M80.4671 250.396C79.3145 248.072 76.2587 247.084 73.7792 247.844C72.5658 248.284 71.4657 248.989 70.5592 249.909C69.6527 250.829 68.9627 251.94 68.5396 253.161C68.1064 251.935 67.405 250.82 66.4866 249.9C65.5682 248.98 64.4561 248.278 63.2317 247.844C60.7522 247.084 57.6964 248.072 56.5438 250.396C55.9478 251.719 55.8482 253.214 56.2633 254.604C56.6835 255.969 57.3294 257.252 58.1741 258.402C60.8479 262.199 64.3888 265.301 68.5016 267.449C72.6101 265.301 76.146 262.199 78.814 258.402C79.6587 257.252 80.3046 255.969 80.7249 254.604C81.1471 253.216 81.0556 251.722 80.4671 250.396Z" fill="white"/>
</g>
<path d="M68.039 284.685C67.9784 284.685 68.1149 273.518 68.3499 259.739C68.585 245.96 68.8125 234.794 68.8655 234.794C68.9186 234.794 68.7897 245.967 68.5547 259.747C68.3196 273.526 68.0921 284.685 68.039 284.685Z" fill="#E0E0E0"/>
<path d="M68.6306 254.506C68.3168 254.655 67.9659 254.708 67.6221 254.658C67.2786 254.676 66.9368 254.597 66.6364 254.43C66.9659 254.385 67.3001 254.385 67.6297 254.43C67.9651 254.417 68.3008 254.443 68.6306 254.506Z" fill="#E0E0E0"/>
<path d="M71.6636 246.104C71.262 246.54 70.7703 246.882 70.2229 247.107C69.7032 247.393 69.1244 247.554 68.532 247.578C68.532 247.517 69.2902 247.327 70.1319 246.917C70.9736 246.507 71.5954 246.051 71.6636 246.104Z" fill="#E0E0E0"/>
<path d="M70.3745 248.702C70.114 248.781 69.8385 248.797 69.5708 248.748C69.1234 248.748 68.8125 248.641 68.8125 248.581C69.0755 248.501 69.3536 248.486 69.6238 248.535C70.0257 248.558 70.3745 248.634 70.3745 248.702Z" fill="#E0E0E0"/>
<path d="M27.1459 308.293C33.0371 311.273 39.6901 312.398 46.2314 311.521C52.8662 310.716 59.4404 307.192 62.6175 301.297C64.1947 298.373 64.8923 295.053 65.4307 291.779C65.8031 289.183 65.6717 286.539 65.0439 283.993C64.7035 282.471 64.0157 281.049 63.0345 279.838C59.2069 274.729 54.0643 270.759 48.1574 268.353C38.7579 265.258 28.5405 265.817 19.5329 269.918C15.0591 272.037 11.4422 275.235 9.57689 280.264C8.92384 282.2 8.72915 284.262 9.00819 286.287C9.35757 289.368 10.3942 292.33 12.0412 294.954C14.4904 298.889 17.9178 303.583 27.1459 308.293Z" fill="#EBEBEB"/>
<g opacity="0.6">
<path d="M55.1485 291.073C54.2993 285.361 50.1895 280.644 45.5868 277.172C40.8022 273.564 35.1228 270.867 29.1325 270.67C23.6426 270.488 17.9253 272.683 14.5662 276.967C13.3342 278.404 12.448 280.106 11.976 281.94C11.5041 283.775 11.4589 285.694 11.844 287.548C12.7312 291.149 14.8771 294.324 17.205 297.195C21.263 302.006 26.6333 305.528 32.6584 307.328C38.7245 309.265 45.8749 308.43 50.5383 304.123C52.2964 302.478 53.6333 300.434 54.4358 298.162C55.2383 295.891 55.4827 293.459 55.1485 291.073Z" fill="white"/>
</g>
<path d="M45.4353 290.951C44.7831 288.862 42.3112 286.591 40.1274 286.318C37.8749 286.029 35.5866 286.379 33.5229 287.328C32.4981 287.81 31.5986 288.523 30.8947 289.411C30.1909 290.299 29.702 291.339 29.4662 292.448C29.3049 293.626 29.4529 294.825 29.8957 295.928C30.3385 297.031 31.0608 297.999 31.9912 298.737C33.843 300.1 36.1474 300.696 38.4262 300.402C40.705 300.108 42.7832 298.946 44.2296 297.157C44.8996 296.289 45.3575 295.275 45.5668 294.198C45.7761 293.12 45.7311 292.008 45.4353 290.951Z" fill="#EBEBEB"/>
<path d="M25.7582 291.521C25.8314 291.922 25.8061 292.335 25.6845 292.724C25.563 293.113 25.3489 293.467 25.0606 293.754C24.4593 294.309 23.7254 294.698 22.9299 294.886C21.1555 295.387 19.1386 295.365 17.6675 294.126C17.0991 293.64 16.7094 292.977 16.5605 292.243C16.1131 289.964 18.2665 288.483 20.2684 288.445C21.4865 288.474 22.686 288.75 23.7943 289.257C24.2516 289.434 24.6623 289.714 24.9948 290.075C25.3274 290.436 25.573 290.868 25.7127 291.339L25.7582 291.521Z" fill="#EBEBEB"/>
<path d="M32.8556 282.269C32.5754 282.497 32.244 282.654 31.89 282.725C31.536 282.797 31.17 282.781 30.8235 282.679C30.1332 282.448 29.5141 282.043 29.0264 281.502C28.4061 280.959 27.9307 280.27 27.6434 279.496C27.3561 278.723 27.2659 277.89 27.3809 277.073C27.5124 276.419 27.8595 275.828 28.3667 275.395C29.9742 274.058 32.0215 275.113 32.9163 276.655C33.4205 277.614 33.7225 278.666 33.8034 279.747C33.8587 280.179 33.8143 280.618 33.6736 281.03C33.5329 281.442 33.2998 281.817 32.9921 282.125L32.8556 282.269Z" fill="#EBEBEB"/>
<path d="M26.1678 284.35C26.284 283.528 26.1553 282.689 25.7979 281.939C25.4405 281.189 24.8702 280.561 24.1584 280.135C23.0862 279.461 21.894 279.002 20.6476 278.782C20.2265 278.747 19.8033 278.819 19.4174 278.992C19.0316 279.164 18.6957 279.432 18.441 279.77C18.154 280.16 17.9642 280.613 17.8875 281.092C17.8193 281.631 17.8615 282.178 18.0114 282.701C18.1613 283.223 18.4159 283.709 18.7595 284.13C19.4608 284.981 20.3624 285.644 21.3831 286.059C22.7101 286.644 24.3479 286.918 25.4853 285.672C25.8291 285.302 26.0651 284.845 26.1678 284.35Z" fill="#EBEBEB"/>
<path d="M65.6429 289.911C65.627 289.767 65.627 289.622 65.6429 289.478C65.6662 289.075 65.6662 288.672 65.6429 288.27C65.5894 286.789 65.3343 285.322 64.8847 283.91C64.2411 281.81 63.3124 279.809 62.1246 277.962C60.7215 275.669 58.9951 273.592 56.9987 271.794C54.9698 270.037 52.6073 268.709 50.053 267.89C47.9621 267.211 45.7989 266.78 43.6078 266.606C41.7349 266.439 40.2107 266.408 39.1568 266.378H37.9511C37.8082 266.383 37.6653 266.367 37.5265 266.333C37.6653 266.298 37.8082 266.283 37.9511 266.287L39.1643 266.249C40.2107 266.249 41.7424 266.211 43.6305 266.348C45.8479 266.481 48.0406 266.886 50.1592 267.556C52.7739 268.371 55.1925 269.719 57.2641 271.513C59.2887 273.341 61.0337 275.458 62.4431 277.795C63.6342 279.68 64.5484 281.726 65.1576 283.872C65.5754 285.315 65.7798 286.813 65.7643 288.315C65.7688 288.722 65.7409 289.129 65.6808 289.531C65.6834 289.659 65.6706 289.786 65.6429 289.911Z" fill="#E0E0E0"/>
<path d="M40.3169 270.617H40.4458L40.8249 270.693C41.151 270.776 41.6514 270.852 42.2656 271.05C44.0191 271.558 45.7046 272.277 47.2853 273.192C47.7782 273.488 48.3014 273.799 48.8019 274.156C49.3023 274.513 49.8634 274.916 50.3791 275.334C54.1273 278.334 56.8795 282.402 58.2726 287.001C59.2504 290.182 59.6912 293.504 59.5768 296.831C59.5223 299.556 58.8672 302.235 57.6584 304.677C57.1775 305.605 56.5841 306.47 55.8916 307.252C55.3643 307.835 54.7857 308.369 54.1628 308.848C53.7643 309.146 53.3463 309.418 52.9117 309.66L52.578 309.843L52.4567 309.903C52.4887 309.874 52.5244 309.848 52.5629 309.827L52.8965 309.622C53.3167 309.365 53.7218 309.083 54.1097 308.779C54.7301 308.306 55.3039 307.774 55.8234 307.192C56.4996 306.408 57.08 305.546 57.5522 304.624C58.7284 302.195 59.3624 299.538 59.41 296.838C59.5102 293.535 59.067 290.237 58.0982 287.077C57.1508 283.91 55.5404 280.981 53.3742 278.486C52.4439 277.378 51.4106 276.36 50.2881 275.448C49.78 275 49.2341 274.643 48.7715 274.27C48.309 273.898 47.7403 273.602 47.255 273.298C45.6907 272.377 44.0237 271.642 42.2884 271.11C41.6818 270.898 41.1813 270.807 40.8628 270.715L40.4837 270.617H40.3169Z" fill="#E0E0E0"/>
<path d="M65.4307 286.318C65.2166 286.645 64.9618 286.944 64.6724 287.207C64.037 287.879 63.333 288.482 62.572 289.007C61.8059 289.531 60.9814 289.965 60.1152 290.298C59.764 290.453 59.3945 290.563 59.0157 290.625C59.3554 290.45 59.7048 290.296 60.0621 290.161C60.8976 289.793 61.6972 289.348 62.4507 288.832C63.4993 288.062 64.4949 287.222 65.4307 286.318Z" fill="#E0E0E0"/>
<path d="M108.303 307.784C102.409 310.756 95.7563 311.873 89.2174 310.99C82.575 310.177 76.0084 306.66 72.8313 300.765C71.2541 297.833 70.5565 294.521 70.0181 291.24C69.6429 288.647 69.7716 286.006 70.3973 283.462C70.7426 281.941 71.4298 280.52 72.4067 279.307C76.198 274.217 80.7476 269.363 86.662 266.986C96.3754 264.631 107.34 265.307 115.946 269.379C120.42 271.498 124.037 274.696 125.91 279.732C126.561 281.669 126.753 283.731 126.471 285.756C126.123 288.834 125.086 291.794 123.438 294.415C120.951 298.388 117.531 303.082 108.303 307.784Z" fill="#EBEBEB"/>
<g opacity="0.6">
<path d="M80.3002 290.564C81.1495 284.852 85.2517 280.142 89.8544 276.671C94.639 273.055 100.326 270.358 106.316 270.161C111.799 269.979 117.523 272.174 120.883 276.466C122.116 277.902 123.004 279.603 123.478 281.438C123.951 283.272 123.997 285.192 123.612 287.047C122.718 290.647 120.579 293.83 118.251 296.694C114.176 301.502 108.79 305.015 102.752 306.804C96.6863 308.734 89.5359 307.906 84.865 303.599C83.1198 301.949 81.7946 299.905 81.0004 297.637C80.2062 295.369 79.9661 292.944 80.3002 290.564Z" fill="white"/>
</g>
<path d="M90.0136 290.48C90.6657 288.399 93.1376 286.12 95.3214 285.854C97.5757 285.561 99.8668 285.909 101.933 286.857C102.957 287.341 103.855 288.055 104.558 288.943C105.262 289.831 105.752 290.869 105.99 291.977C106.152 293.156 106.004 294.358 105.559 295.463C105.115 296.567 104.391 297.536 103.458 298.274C102.513 298.993 101.429 299.508 100.275 299.787C99.1216 300.065 97.9228 300.101 96.7545 299.892C94.5731 299.564 92.5974 298.418 91.2268 296.686C90.5534 295.819 90.0928 294.806 89.8821 293.728C89.6713 292.65 89.7164 291.538 90.0136 290.48Z" fill="#EBEBEB"/>
<path d="M109.683 291.012C109.61 291.413 109.635 291.826 109.757 292.215C109.878 292.604 110.092 292.958 110.381 293.245C110.985 293.8 111.721 294.19 112.519 294.377C114.293 294.879 116.31 294.863 117.774 293.618C118.344 293.131 118.736 292.468 118.888 291.734C119.328 289.409 117.175 287.974 115.18 287.936C113.962 287.964 112.762 288.241 111.654 288.749C111.197 288.926 110.786 289.205 110.454 289.566C110.121 289.927 109.876 290.359 109.736 290.83C109.721 290.875 109.698 290.944 109.683 291.012Z" fill="#EBEBEB"/>
<path d="M102.593 281.76C102.873 281.99 103.204 282.147 103.558 282.22C103.912 282.293 104.278 282.278 104.625 282.178C105.314 281.943 105.932 281.538 106.422 281C107.042 280.455 107.516 279.764 107.803 278.99C108.091 278.216 108.181 277.382 108.068 276.564C107.935 275.911 107.584 275.322 107.075 274.893C105.467 273.549 103.427 274.612 102.525 276.147C102.021 277.108 101.719 278.163 101.638 279.246C101.575 279.675 101.61 280.113 101.741 280.526C101.873 280.94 102.097 281.317 102.396 281.631C102.457 281.681 102.523 281.724 102.593 281.76Z" fill="#EBEBEB"/>
<path d="M109.319 283.841C109.201 283.018 109.328 282.179 109.686 281.428C110.044 280.678 110.615 280.051 111.328 279.626C112.401 278.953 113.593 278.494 114.839 278.273C115.261 278.242 115.683 278.317 116.068 278.491C116.454 278.665 116.79 278.932 117.046 279.269C117.329 279.658 117.519 280.108 117.599 280.583C117.663 281.122 117.618 281.669 117.467 282.191C117.316 282.713 117.062 283.199 116.72 283.621C116.019 284.468 115.12 285.128 114.104 285.543C112.769 286.128 111.139 286.401 109.994 285.163C109.656 284.79 109.423 284.334 109.319 283.841Z" fill="#EBEBEB"/>
<path d="M69.7982 288.323C69.7767 288.197 69.7767 288.069 69.7982 287.943C69.7982 287.7 69.7982 287.336 69.8513 286.865C69.9616 285.543 70.19 284.234 70.5337 282.953C71.0428 281.047 71.792 279.215 72.763 277.499C73.9528 275.386 75.491 273.491 77.3126 271.893C78.261 271.076 79.2755 270.339 80.3457 269.69C81.343 269.092 82.3791 268.562 83.447 268.102C85.2551 267.33 87.138 266.747 89.0657 266.363C90.3615 266.097 91.6738 265.919 92.9935 265.831C93.4758 265.801 93.9595 265.801 94.4418 265.831C93.9701 265.934 93.4908 265.997 93.0087 266.021C91.7037 266.168 90.4077 266.386 89.1264 266.674C87.2303 267.098 85.3793 267.704 83.5986 268.482C82.5554 268.947 81.5423 269.477 80.5656 270.07C79.5214 270.711 78.53 271.435 77.6008 272.235C75.8182 273.805 74.3021 275.654 73.1118 277.711C72.1428 279.386 71.379 281.171 70.8371 283.029C70.4673 284.289 70.1986 285.577 70.0333 286.88C69.9807 287.365 69.9022 287.847 69.7982 288.323Z" fill="#E0E0E0"/>
<path d="M95.1698 270.115L95.0484 270.153L94.6921 270.245L94.1158 270.397C93.8595 270.457 93.6065 270.531 93.3575 270.617C91.7073 271.117 90.1178 271.8 88.6184 272.653C88.1331 272.903 87.663 273.237 87.1625 273.549C86.662 273.86 86.1692 274.248 85.646 274.628C85.1228 275.007 84.6147 275.433 84.1294 275.911C83.8868 276.147 83.6214 276.375 83.3712 276.625L82.6129 277.385C81.587 278.491 80.6703 279.695 79.8756 280.978C78.1486 283.729 77.0507 286.829 76.6605 290.055C76.4692 291.551 76.4235 293.062 76.5241 294.567C76.5241 294.924 76.5771 295.281 76.6075 295.631C76.6378 295.98 76.6985 296.322 76.7439 296.664C76.8198 297.34 76.9942 297.985 77.1079 298.616C77.2217 299.246 77.4188 299.839 77.6008 300.409C77.7828 300.978 77.9572 301.518 78.1771 302.019C78.805 303.622 79.6086 305.151 80.5732 306.577C80.7324 306.835 80.8917 307.055 81.0357 307.245L81.3921 307.724L81.6044 308.02L81.6727 308.126L81.5893 308.035L81.3542 307.746C81.2556 307.617 81.1343 307.458 80.9902 307.283C80.8172 307.071 80.6552 306.851 80.5049 306.622C79.5073 305.205 78.6801 303.676 78.0406 302.064C77.8131 301.571 77.6539 301.016 77.4491 300.446C77.2444 299.877 77.1079 299.277 76.9411 298.646C76.7743 298.016 76.6454 297.37 76.562 296.686C76.5165 296.345 76.4558 295.995 76.4179 295.646C76.38 295.296 76.3572 294.932 76.3269 294.575C75.9542 289.758 77.1372 284.948 79.7012 280.856C80.508 279.566 81.4347 278.356 82.4688 277.241L83.2271 276.481C83.4773 276.23 83.7427 276.002 83.9854 275.767C84.4782 275.288 85.0166 274.893 85.5019 274.476C85.9872 274.058 86.518 273.716 87.0184 273.405C87.5189 273.093 88.0042 272.767 88.497 272.516C90.0103 271.672 91.6158 271.007 93.2817 270.533C93.5297 270.448 93.783 270.38 94.04 270.328L94.6238 270.199L94.9802 270.123L95.1698 270.115Z" fill="#E0E0E0"/>
<path d="M70.0106 285.809C70.3065 286.047 70.5899 286.301 70.8599 286.568C71.5324 287.202 72.258 287.776 73.0285 288.285C73.8047 288.79 74.6213 289.23 75.4701 289.599C75.8323 289.734 76.1867 289.889 76.5317 290.063C76.1482 290 75.7739 289.89 75.417 289.736C74.5394 289.406 73.7003 288.98 72.9148 288.467C72.1337 287.95 71.4093 287.352 70.7537 286.682C70.473 286.421 70.2236 286.128 70.0106 285.809Z" fill="#E0E0E0"/>
<path d="M89.7482 248.072C91.3329 245.322 94.3584 242.929 94.0854 239.762C93.7973 236.404 89.0126 232.545 86.3208 230.525L90.1576 223.521C98.908 224.714 107.947 230.563 112.413 238.204C114.684 241.966 115.895 246.274 115.916 250.67C115.915 255.086 114.296 259.348 111.366 262.648C110.162 263.957 108.731 265.035 107.143 265.831C101.835 268.459 94.3963 267.426 90.4154 263.059C89.0175 261.54 88.0949 259.644 87.7615 257.605C87.4089 254.297 88.1039 250.962 89.7482 248.072Z" fill="#EBEBEB"/>
<path d="M106.544 266.067C106.544 266.067 106.544 266.105 106.43 266.15C106.316 266.196 106.225 266.257 106.066 266.325C105.575 266.533 105.068 266.701 104.55 266.826C103.748 267.036 102.936 267.198 102.116 267.313C101.017 267.426 99.9084 267.398 98.817 267.229C95.9648 266.788 93.2731 265.622 90.9993 263.841C90.3395 263.325 89.7347 262.742 89.1947 262.102C88.6394 261.422 88.1778 260.671 87.8222 259.868C87.4662 259.036 87.1993 258.167 87.026 257.278C86.8725 256.36 86.814 255.428 86.8516 254.498C86.9436 252.652 87.4545 250.852 88.3454 249.234C88.5502 248.842 88.7807 248.464 89.0354 248.102C89.2933 247.753 89.5511 247.403 89.8392 247.084C90.4003 246.446 90.9993 245.877 91.5529 245.307C92.1002 244.761 92.5929 244.163 93.0239 243.522C93.4186 242.926 93.6894 242.257 93.8201 241.554C94.0213 240.263 93.8339 238.941 93.2817 237.756C92.8321 236.772 92.2279 235.867 91.4922 235.075C90.9371 234.471 90.3444 233.903 89.7179 233.373L88.5274 232.363C88.3793 232.255 88.2421 232.133 88.1179 231.999C88.2824 232.083 88.4374 232.185 88.5805 232.302C88.8686 232.507 89.2932 232.819 89.824 233.244C90.475 233.759 91.0906 234.318 91.6666 234.915C92.4428 235.71 93.0809 236.629 93.5547 237.635C94.1507 238.865 94.3647 240.246 94.1689 241.6C94.0345 242.353 93.7509 243.071 93.3348 243.712C92.8903 244.375 92.3824 244.993 91.8183 245.557C91.2647 246.142 90.6733 246.712 90.1273 247.335C89.8468 247.646 89.6041 247.988 89.3691 248.322C89.1288 248.674 88.9085 249.039 88.7094 249.416C87.8718 250.985 87.3951 252.721 87.3142 254.498C87.2803 255.398 87.3388 256.299 87.4886 257.187C87.6527 258.045 87.9068 258.882 88.2468 259.686C88.584 260.455 89.0227 261.176 89.5511 261.828C90.0722 262.449 90.6539 263.017 91.2875 263.522C93.4954 265.278 96.1078 266.45 98.8853 266.933C99.9492 267.116 101.032 267.164 102.108 267.077C102.923 266.984 103.733 266.847 104.534 266.667C105.049 266.561 105.555 266.422 106.051 266.249C106.369 266.173 106.544 266.052 106.544 266.067Z" fill="#E0E0E0"/>
<g opacity="0.6">
<path d="M92.3111 252.576C94.1916 249.241 98.5364 248.778 99.7269 249.363C100.849 249.472 101.925 249.865 102.854 250.506C103.782 251.146 104.533 252.013 105.035 253.024C105.587 254.075 105.841 255.258 105.769 256.443C105.697 257.628 105.301 258.771 104.625 259.747C103.895 260.577 103.006 261.25 102.009 261.726C101.013 262.202 99.9304 262.472 98.8274 262.518C97.7243 262.564 96.6234 262.386 95.5908 261.995C94.5582 261.603 93.6154 261.007 92.8191 260.241C90.9689 258.205 90.9538 254.984 92.3111 252.576Z" fill="white"/>
</g>
<path d="M93.9565 245.451C94.0506 245.41 94.1468 245.375 94.2447 245.345C94.5233 245.247 94.8068 245.163 95.0939 245.094C96.1449 244.832 97.2265 244.715 98.309 244.745C99.0725 244.759 99.8335 244.837 100.584 244.98C101.43 245.152 102.258 245.407 103.056 245.74C104.907 246.455 106.558 247.609 107.868 249.102C109.178 250.596 110.108 252.384 110.578 254.316C110.992 255.877 111.111 257.503 110.927 259.109C110.816 260.191 110.561 261.254 110.168 262.269C110.065 262.544 109.946 262.812 109.812 263.074C109.77 263.168 109.722 263.26 109.668 263.347C109.693 263.245 109.728 263.146 109.774 263.051C109.842 262.861 109.979 262.603 110.092 262.238C110.452 261.223 110.684 260.166 110.782 259.093C110.836 258.355 110.836 257.614 110.782 256.875C110.717 256.026 110.575 255.185 110.358 254.361C109.882 252.465 108.961 250.71 107.673 249.241C106.385 247.772 104.765 246.631 102.95 245.914C102.163 245.588 101.348 245.333 100.516 245.155C99.791 245.007 99.0555 244.921 98.3166 244.896C97.2423 244.851 96.1667 244.945 95.1167 245.178C94.8301 245.234 94.5467 245.305 94.2674 245.39L93.9565 245.451Z" fill="#E0E0E0"/>
<path d="M109.85 253.26C109.85 253.199 110.274 253.024 110.676 252.622C111.078 252.219 111.268 251.771 111.328 251.794C111.317 251.982 111.266 252.165 111.18 252.333C111.094 252.5 110.974 252.648 110.828 252.766C110.707 252.911 110.558 253.029 110.39 253.114C110.221 253.199 110.038 253.248 109.85 253.26Z" fill="#E0E0E0"/>
<path d="M108.72 251.308C108.682 251.254 109.22 250.905 109.721 250.312C110.221 249.72 110.479 249.15 110.547 249.173C110.424 249.644 110.195 250.081 109.878 250.451C109.562 250.82 109.166 251.113 108.72 251.308Z" fill="#E0E0E0"/>
<path d="M97.0805 246.902C96.9815 246.483 97.0495 246.041 97.2701 245.671C97.4204 245.27 97.7153 244.939 98.0966 244.745C98.0966 244.798 97.7402 245.17 97.4597 245.762C97.1791 246.355 97.1412 246.902 97.0805 246.902Z" fill="#E0E0E0"/>
<path d="M95.1697 247.008C95.0815 246.856 95.03 246.686 95.0195 246.51C95.0089 246.335 95.0396 246.159 95.1091 245.998C95.2759 245.428 95.6929 245.147 95.7232 245.193C95.7536 245.238 95.4579 245.557 95.3062 246.059C95.2442 246.373 95.1987 246.69 95.1697 247.008Z" fill="#E0E0E0"/>
<path d="M99.7573 226.674C99.8458 226.699 99.932 226.732 100.015 226.772C100.174 226.841 100.432 226.932 100.773 227.091C101.648 227.518 102.481 228.027 103.261 228.611C104.427 229.48 105.473 230.502 106.369 231.649C108.623 234.434 109.882 237.894 109.948 241.478C110.017 243.909 109.554 246.326 108.591 248.558C108.455 248.877 108.318 249.105 108.242 249.272C108.204 249.357 108.158 249.438 108.106 249.515C108.129 249.425 108.162 249.339 108.204 249.257C108.273 249.082 108.394 248.846 108.515 248.497C108.873 247.598 109.158 246.67 109.365 245.724C109.678 244.322 109.81 242.884 109.759 241.448C109.671 238.97 109.035 236.543 107.895 234.343C106.755 232.142 105.141 230.223 103.17 228.725C102.404 228.133 101.589 227.607 100.735 227.152C100.44 226.985 100.19 226.879 100.03 226.795C99.9338 226.768 99.8418 226.727 99.7573 226.674Z" fill="#E0E0E0"/>
<path d="M31.1722 169.939C32.7817 168.642 34.7294 167.835 36.7834 167.614C39.1232 167.392 41.4754 167.885 43.5301 169.028C45.5848 170.171 47.2457 171.911 48.2938 174.018L34.5996 189.97C32.8225 189.04 31.269 187.733 30.0472 186.14C28.8254 184.548 27.9647 182.708 27.525 180.748C27.1308 178.784 27.2603 176.751 27.9007 174.853C28.541 172.955 29.6694 171.26 31.1722 169.939Z" fill="#EBEBEB"/>
<path d="M33.0831 175.978C33.2841 175.391 33.6343 174.868 34.0992 174.458C35.163 173.343 36.594 172.652 38.1275 172.512C39.661 172.372 41.193 172.794 42.4401 173.699C42.9756 174.025 43.4193 174.482 43.7292 175.028C43.6761 175.081 43.2211 174.527 42.2809 173.949C41.0606 173.177 39.6187 172.832 38.1817 172.97C36.7447 173.107 35.3941 173.719 34.3418 174.709C33.485 175.393 33.1438 176.016 33.0831 175.978Z" fill="#E0E0E0"/>
<path d="M109.084 174.633C107.573 173.235 105.694 172.3 103.67 171.936C101.351 171.556 98.9707 171.889 96.844 172.891C94.7174 173.893 92.9439 175.518 91.7576 177.55L104.352 194.406C106.192 193.597 107.832 192.395 109.158 190.883C110.484 189.371 111.463 187.587 112.026 185.655C112.551 183.721 112.555 181.683 112.038 179.747C111.521 177.811 110.502 176.046 109.084 174.633Z" fill="#EBEBEB"/>
<path d="M68.2135 167.273C68.2135 167.273 47.8237 165.586 37.3218 182.617C30.3761 193.897 30.2092 206.066 32.2414 211.899C32.2414 211.899 40.5823 234.505 66.4164 234.627C66.4164 234.627 100.326 234.627 105.126 205.823C109.425 180.102 83.8944 167.037 68.2135 167.273Z" fill="#EBEBEB"/>
<path d="M86.753 208.162L86.6923 208.094C83.6037 204.392 79.4779 201.704 74.8482 200.376L73.5592 200.004C71.0341 199.271 68.4055 198.96 65.7794 199.085C62.4325 199.199 59.1252 199.847 55.9826 201.007C51.433 202.761 47.346 206.028 45.3214 210.464C43.2969 214.9 43.6684 220.536 46.838 224.228C49.6768 227.312 53.3752 229.472 57.4537 230.426C61.8717 231.536 66.4409 231.915 70.9811 231.55C76.5544 231.106 81.7779 228.653 85.6838 224.645C87.7326 222.434 88.9936 219.606 89.2704 216.601C89.4548 215.097 89.3264 213.57 88.8931 212.118C88.4599 210.665 87.7312 209.319 86.753 208.162Z" fill="#F5F5F5"/>
<path d="M74.6209 196.616C74.6186 197.048 74.7843 197.464 75.083 197.776C75.3816 198.088 75.7897 198.271 76.2208 198.287C76.4333 198.304 76.6469 198.277 76.8488 198.209C77.0508 198.141 77.237 198.033 77.3963 197.891C77.5555 197.749 77.6846 197.577 77.7758 197.384C77.867 197.191 77.9184 196.981 77.9269 196.768C77.9292 196.336 77.7634 195.92 77.4648 195.608C77.1662 195.296 76.7581 195.113 76.327 195.097C76.1145 195.08 75.9009 195.107 75.6989 195.175C75.497 195.243 75.3108 195.351 75.1515 195.493C74.9922 195.635 74.8632 195.807 74.772 196C74.6808 196.193 74.6294 196.403 74.6209 196.616Z" fill="#E0E0E0"/>
<path d="M53.7685 197.269C53.7643 197.701 53.9283 198.117 54.2257 198.429C54.5231 198.741 54.9304 198.925 55.3609 198.94C55.5733 198.957 55.7869 198.93 55.9889 198.862C56.1909 198.794 56.3771 198.686 56.5363 198.544C56.6956 198.402 56.8247 198.23 56.9159 198.037C57.007 197.844 57.0584 197.634 57.067 197.421C57.0712 196.99 56.9072 196.574 56.6097 196.261C56.3123 195.949 55.9051 195.766 55.4746 195.75C55.2619 195.732 55.0479 195.758 54.8455 195.826C54.643 195.894 54.4564 196.002 54.2969 196.144C54.1374 196.286 54.0083 196.459 53.9175 196.652C53.8267 196.846 53.776 197.056 53.7685 197.269Z" fill="#E0E0E0"/>
<path d="M73.6426 205.488C73.6426 208.079 70.5186 210.175 66.6666 210.175C62.8146 210.175 59.683 208.079 59.683 205.488C59.683 202.898 62.807 200.802 66.6666 200.802C70.5262 200.802 73.6426 202.898 73.6426 205.488Z" fill="#E0E0E0"/>
<path d="M67.387 207.144C67.3931 207.399 67.3728 207.653 67.3264 207.904C67.2809 208.375 67.2429 209.051 67.2202 209.894C67.2234 210.897 67.1191 211.898 66.9093 212.879C66.765 213.466 66.5378 214.028 66.2345 214.55C65.9033 215.128 65.428 215.61 64.8551 215.948C64.2821 216.286 63.6313 216.47 62.9663 216.48C62.3605 216.499 61.7558 216.417 61.1768 216.237C60.2119 215.911 59.3222 215.395 58.5608 214.718C58.0544 214.279 57.5758 213.81 57.1277 213.312C56.9484 213.141 56.7928 212.947 56.6652 212.735C56.6652 212.735 56.8926 212.879 57.2414 213.198C57.5902 213.517 58.0907 213.958 58.758 214.49C59.5108 215.098 60.3694 215.562 61.2906 215.857C61.8411 216.036 62.4216 216.103 62.9983 216.055C63.5751 216.007 64.1364 215.844 64.6497 215.576C65.6185 214.923 66.2956 213.917 66.5378 212.773C66.7551 211.819 66.887 210.848 66.9321 209.871C66.9668 209.201 67.0479 208.533 67.1747 207.874C67.194 207.618 67.2663 207.37 67.387 207.144Z" fill="#E0E0E0"/>
<path d="M76.5392 213.046C76.4391 213.232 76.3112 213.401 76.16 213.548C75.7865 213.985 75.3863 214.398 74.962 214.786C74.3265 215.376 73.5924 215.849 72.7933 216.184C71.7844 216.61 70.6547 216.653 69.6162 216.305C69.0816 216.106 68.6029 215.78 68.221 215.356C67.8749 214.962 67.5933 214.516 67.3869 214.034C67.0562 213.23 66.8911 212.367 66.9016 211.497C66.8921 210.921 66.9225 210.344 66.9926 209.772C67.0457 209.37 67.0912 209.15 67.1215 209.157C67.1523 209.366 67.1523 209.579 67.1215 209.788C67.1215 210.19 67.1215 210.775 67.1215 211.482C67.1614 212.308 67.3462 213.12 67.6675 213.882C67.8534 214.337 68.1273 214.75 68.4735 215.098C68.8197 215.446 69.2313 215.722 69.6844 215.91C70.6283 216.22 71.651 216.188 72.5734 215.819C73.3416 215.515 74.0559 215.089 74.689 214.558C75.8643 213.646 76.4861 213.001 76.5392 213.046Z" fill="#E0E0E0"/>
<path d="M69.3888 218.508C69.4267 218.546 69.1992 218.812 68.7215 219.108C68.0941 219.486 67.3885 219.715 66.6591 219.776C65.9275 219.84 65.1912 219.736 64.5056 219.473C63.99 219.26 63.7473 219.032 63.7473 218.986C63.7473 218.941 64.0885 219.055 64.5966 219.184C65.2579 219.35 65.9417 219.406 66.6211 219.351C67.2996 219.293 67.9636 219.121 68.585 218.842C69.0552 218.629 69.3433 218.455 69.3888 218.508Z" fill="#E0E0E0"/>
<path d="M66.4468 202.237C66.4468 202.381 66.1056 202.541 65.5369 202.708C64.8291 202.89 64.1349 203.121 63.4592 203.399C62.8252 203.683 62.2512 204.085 61.7683 204.584C61.3891 204.972 61.192 205.291 61.01 205.253C60.828 205.215 60.8129 204.789 61.1086 204.174C61.5133 203.395 62.1752 202.78 62.9815 202.435C63.7432 202.101 64.5693 201.94 65.4004 201.964C66.0601 201.987 66.4392 202.093 66.4468 202.237Z" fill="white"/>
<path d="M56.2784 192.127C56.2784 192.423 55.8765 192.636 55.376 192.886C54.8756 193.137 54.2387 193.319 53.5486 193.6C52.8586 193.881 52.2444 194.163 51.7364 194.36C51.2283 194.558 50.8189 194.664 50.5914 194.474C50.3639 194.284 50.3867 193.821 50.7431 193.243C51.2309 192.513 51.933 191.953 52.7525 191.641C53.561 191.296 54.4556 191.209 55.3154 191.39C55.9675 191.519 56.3163 191.846 56.2784 192.127Z" fill="#E0E0E0"/>
<path d="M81.7637 192.491C81.5438 192.696 81.104 192.59 80.5353 192.385C79.9666 192.18 79.269 191.891 78.4728 191.625C77.6766 191.36 76.9563 191.162 76.3724 190.98C75.7886 190.797 75.3867 190.608 75.3336 190.319C75.2805 190.03 75.6521 189.688 76.3573 189.483C77.2846 189.272 78.2523 189.322 79.153 189.627C80.0538 189.933 80.8524 190.483 81.4604 191.215C81.9002 191.77 81.976 192.271 81.7637 192.491Z" fill="#E0E0E0"/>
<path d="M106.779 180.528C106.711 180.528 106.415 179.912 105.641 179.115C104.648 178.071 103.345 177.376 101.926 177.132C100.504 176.921 99.0509 177.168 97.7782 177.839C96.7925 178.355 96.3072 178.879 96.2617 178.819C96.6071 178.296 97.0794 177.87 97.6342 177.58C98.9398 176.776 100.49 176.469 102.003 176.714C103.516 176.96 104.891 177.742 105.877 178.917C106.31 179.368 106.621 179.922 106.779 180.528Z" fill="#E0E0E0"/>
<path d="M104.057 191.42C103.981 191.42 103.738 190.524 103.192 189.142C102.912 188.428 102.555 187.622 102.1 186.711C101.602 185.746 101.051 184.81 100.447 183.908C99.8333 183.011 99.1701 182.149 98.4606 181.325C97.801 180.566 97.1792 179.912 96.6332 179.388C96.0136 178.846 95.4214 178.273 94.8589 177.672C95.0668 177.755 95.2591 177.873 95.4276 178.021C95.7764 178.272 96.2617 178.659 96.838 179.168C97.5108 179.764 98.1488 180.398 98.7488 181.067C99.4851 181.889 100.169 182.757 100.796 183.665C101.411 184.583 101.964 185.543 102.449 186.536C102.841 187.347 103.183 188.182 103.473 189.035C103.666 189.611 103.828 190.197 103.958 190.79C104.021 190.994 104.054 191.207 104.057 191.42Z" fill="#E0E0E0"/>
<path d="M35.4413 187.425C35.4423 187.2 35.4808 186.976 35.555 186.764C35.6081 186.551 35.6763 186.293 35.7673 186.004C35.8583 185.716 35.9569 185.374 36.101 185.017C36.4181 184.165 36.7852 183.333 37.2005 182.525C38.2259 180.546 39.5337 178.726 41.0828 177.125C41.7152 176.474 42.3863 175.863 43.0922 175.294C43.3879 175.043 43.676 174.838 43.9187 174.656C44.1613 174.474 44.3888 174.329 44.5708 174.215C44.7499 174.078 44.9495 173.971 45.1622 173.896C45.1622 173.957 44.404 174.504 43.2817 175.522C42.7055 176.023 42.0533 176.661 41.3633 177.39C40.6256 178.201 39.932 179.05 39.2857 179.935C38.6504 180.824 38.068 181.75 37.5417 182.708C37.064 183.596 36.6697 184.417 36.3739 185.123C35.7825 186.536 35.5095 187.448 35.4413 187.425Z" fill="#E0E0E0"/>
<path d="M94.8438 224.592C94.708 224.74 94.5609 224.877 94.404 225.002C94.1007 225.261 93.6457 225.671 93.0694 226.119C91.3858 227.428 89.5892 228.585 87.7009 229.575C84.9038 231.056 81.9579 232.235 78.9126 233.092C77.1107 233.587 75.2831 233.983 73.438 234.277C71.4528 234.583 69.4485 234.748 67.4401 234.771C65.4317 234.783 63.4257 234.631 61.4422 234.315C59.5932 234.038 57.7644 233.64 55.9676 233.123C54.3448 232.66 52.7498 232.105 51.1905 231.459C50.4322 231.133 49.7649 230.836 49.1053 230.502C48.7716 230.335 48.4532 230.175 48.1423 230.008C47.8314 229.841 47.5205 229.689 47.2323 229.515C45.3597 228.484 43.6225 227.223 42.061 225.762L41.6667 225.405C41.5454 225.284 41.4468 225.162 41.3482 225.056L40.8553 224.516C40.7097 224.374 40.58 224.216 40.4686 224.045C40.6275 224.171 40.777 224.308 40.916 224.456L41.4392 224.972C41.5378 225.071 41.6439 225.185 41.7653 225.299L42.1747 225.641C43.7714 227.041 45.5245 228.252 47.3992 229.249C47.6873 229.423 47.9906 229.583 48.3091 229.735L49.2645 230.213C49.9242 230.532 50.6294 230.813 51.3497 231.14C52.895 231.76 54.4718 232.297 56.0737 232.75C57.8561 233.257 59.6697 233.645 61.5029 233.913C63.4665 234.223 65.4523 234.37 67.4401 234.353C69.428 234.335 71.4121 234.175 73.3773 233.875C75.2067 233.589 77.0191 233.204 78.8065 232.72C81.8416 231.885 84.7837 230.743 87.5872 229.309C89.4764 228.349 91.2845 227.236 92.9936 225.982C93.6154 225.557 94.0552 225.17 94.3736 224.942C94.5168 224.808 94.6745 224.691 94.8438 224.592Z" fill="#E0E0E0"/>
<path d="M66.5529 231.664C66.5297 231.601 66.5169 231.534 66.515 231.467C66.515 231.33 66.515 231.132 66.4543 230.882C66.4543 230.38 66.3785 229.644 66.3633 228.74C66.3254 226.924 66.3633 224.425 66.424 221.66C66.4846 218.895 66.6136 216.396 66.7121 214.588C66.7652 213.684 66.8107 212.955 66.8486 212.446C66.8486 212.218 66.8486 212.021 66.9017 211.869C66.8936 211.801 66.8936 211.732 66.9017 211.664C66.9133 211.732 66.9133 211.801 66.9017 211.869C66.9017 212.028 66.9017 212.218 66.9017 212.454C66.9017 212.993 66.8638 213.715 66.8334 214.596C66.7728 216.434 66.697 218.918 66.606 221.668C66.515 224.418 66.4846 226.924 66.4846 228.74C66.4846 229.644 66.4846 230.373 66.4846 230.882C66.5208 231.141 66.5436 231.402 66.5529 231.664Z" fill="#E0E0E0"/>
<path d="M34.7057 187.676C34.6324 187.654 34.5632 187.621 34.501 187.577C34.3645 187.493 34.1598 187.395 33.9247 187.227C33.2361 186.773 32.6047 186.238 32.0442 185.632C31.193 184.745 30.489 183.727 29.959 182.617C29.3237 181.25 28.9654 179.77 28.905 178.264C28.8556 176.757 29.1136 175.255 29.6633 173.851C30.1044 172.704 30.7293 171.636 31.5135 170.691C32.0494 170.036 32.6631 169.449 33.3409 168.944C33.5178 168.806 33.7026 168.68 33.8944 168.564L34.0915 168.442C34.0915 168.442 33.8413 168.64 33.3939 169.004C32.7617 169.523 32.1872 170.109 31.6803 170.752C30.9281 171.697 30.3246 172.753 29.8908 173.881C29.3604 175.264 29.1029 176.737 29.1325 178.218C29.1937 179.698 29.5441 181.151 30.1637 182.495C31.0007 184.348 32.308 185.948 33.9551 187.136C34.4403 187.493 34.7209 187.66 34.7057 187.676Z" fill="#E0E0E0"/>
<path d="M107.09 173.175C107.09 173.175 107.158 173.175 107.287 173.266C107.47 173.361 107.643 173.476 107.802 173.608C108.396 174.091 108.888 174.688 109.251 175.362C109.789 176.361 110.158 177.441 110.343 178.56C110.58 179.932 110.523 181.338 110.176 182.685C109.835 184.028 109.288 185.309 108.553 186.483C107.931 187.423 107.223 188.303 106.438 189.111C105.785 189.81 105.232 190.357 104.86 190.737L104.421 191.177C104.373 191.231 104.319 191.279 104.261 191.322C104.261 191.322 104.261 191.253 104.39 191.147C104.519 191.041 104.618 190.881 104.8 190.684L106.316 189.013C107.075 188.195 107.763 187.313 108.371 186.377C109.085 185.213 109.619 183.948 109.956 182.624C110.298 181.305 110.357 179.927 110.13 178.583C109.961 177.482 109.615 176.415 109.107 175.423C108.763 174.755 108.298 174.157 107.734 173.661C107.347 173.327 107.075 173.198 107.09 173.175Z" fill="#E0E0E0"/>
<path d="M67.023 169.703C67.0329 169.799 67.0329 169.896 67.023 169.992C67.023 170.212 67.023 170.486 66.9775 170.835C66.932 171.595 66.8713 172.643 66.7955 173.934C66.6514 176.555 66.4998 180.171 66.4391 184.166C66.3784 188.162 66.4391 191.762 66.5225 194.406C66.5225 195.697 66.5983 196.753 66.6211 197.505C66.6211 197.854 66.6211 198.135 66.6211 198.348C66.6295 198.447 66.6295 198.546 66.6211 198.644C66.5973 198.55 66.5846 198.453 66.5832 198.356C66.5832 198.143 66.5832 197.862 66.5225 197.512C66.4694 196.753 66.4163 195.72 66.3557 194.413C66.2419 191.793 66.1661 188.169 66.2192 184.166C66.2723 180.163 66.4543 176.57 66.6362 173.927C66.7272 172.62 66.8106 171.564 66.8789 170.835L66.9699 169.992C66.9752 169.894 66.9931 169.797 67.023 169.703Z" fill="#E0E0E0"/>
<path d="M42.1367 248.527C40.2865 245.945 37.1549 243.514 37.4279 240.347C37.716 236.989 42.5007 233.123 45.1925 231.11L41.333 224.106C32.5826 225.299 23.5441 231.148 19.0779 238.782C16.8076 242.546 15.5971 246.856 15.5747 251.254C15.5758 255.671 17.1947 259.933 20.1243 263.233C21.3282 264.542 22.7593 265.62 24.3478 266.416C29.6557 269.044 37.0943 268.011 41.0751 263.636C42.4021 262.185 43.9414 259.838 44.1992 257.901C44.6714 254.629 43.9382 251.297 42.1367 248.527Z" fill="#EBEBEB"/>
<path d="M43.4182 232.599C43.2958 232.727 43.164 232.847 43.0239 232.956L41.8714 233.92C41.2696 234.437 40.6951 234.985 40.1501 235.561C39.4329 236.316 38.8322 237.173 38.3682 238.106C37.8102 239.228 37.564 240.479 37.6554 241.729C37.7367 242.419 37.9559 243.086 38.2999 243.689C38.6623 244.331 39.103 244.926 39.6117 245.459C40.8017 246.575 41.8786 247.807 42.8268 249.135C43.7575 250.645 44.3513 252.338 44.5672 254.099C44.7832 255.86 44.6163 257.647 44.0779 259.337C43.8249 260.134 43.4787 260.899 43.0467 261.616C42.8495 261.98 42.5917 262.307 42.3718 262.641C42.1519 262.975 41.879 263.271 41.6136 263.56C39.7365 265.641 37.2489 267.072 34.5086 267.647L34.084 267.746L33.6594 267.799L32.848 267.913C32.3172 267.913 31.8168 267.973 31.3315 267.981L30.0273 267.928L28.943 267.799L28.4804 267.738L28.0861 267.654L27.4568 267.518C27.2842 267.485 27.1143 267.44 26.9487 267.381C27.1272 267.376 27.3055 267.394 27.4795 267.434L28.1013 267.525L28.5032 267.594L28.9657 267.632L30.0425 267.73H31.3315C31.794 267.73 32.2793 267.677 32.8025 267.639L33.5608 267.51L33.9778 267.449L34.3949 267.351C37.0532 266.756 39.4617 265.349 41.2875 263.325C41.5377 263.044 41.7728 262.732 42.0458 262.428C42.3188 262.124 42.5007 261.79 42.6903 261.433C43.105 260.734 43.4382 259.99 43.6836 259.215C44.1961 257.578 44.3488 255.85 44.131 254.149C43.9244 252.446 43.3472 250.81 42.4401 249.356C41.5093 248.045 40.4556 246.827 39.2933 245.717C38.7618 245.159 38.3055 244.533 37.936 243.856C37.5852 243.207 37.3686 242.494 37.299 241.759C37.202 240.448 37.4641 239.135 38.0573 237.961C38.5464 237.01 39.1809 236.141 39.9378 235.386C40.4989 234.819 41.094 234.286 41.7197 233.791C42.2353 233.381 42.6448 233.077 42.9254 232.88C43.0735 232.76 43.24 232.665 43.4182 232.599Z" fill="#E0E0E0"/>
<g opacity="0.6">
<path d="M39.2023 253.161C37.3218 249.826 32.977 249.401 31.7865 249.948C30.6641 250.056 29.5877 250.449 28.659 251.09C27.7303 251.73 26.9799 252.597 26.4786 253.609C25.9259 254.659 25.6717 255.84 25.744 257.024C25.8162 258.209 26.212 259.35 26.8881 260.324C27.6577 261.281 28.6475 262.037 29.7728 262.527C30.898 263.016 32.125 263.225 33.3485 263.135C35.346 263.094 37.2494 262.277 38.6564 260.856C40.5748 258.79 40.5748 255.539 39.2023 253.161Z" fill="white"/>
</g>
<path d="M37.5417 246.036C37.4384 246.024 37.3367 246.001 37.2384 245.968C37.0413 245.968 36.7607 245.823 36.3892 245.755C35.3382 245.53 34.2631 245.438 33.1893 245.481C32.4509 245.507 31.7156 245.591 30.9903 245.732C30.1586 245.915 29.3443 246.169 28.5563 246.492C26.7387 247.206 25.118 248.345 23.8293 249.815C22.5406 251.284 21.6213 253.041 21.148 254.938C20.9313 255.762 20.7891 256.604 20.7234 257.453C20.6695 258.191 20.6695 258.932 20.7234 259.671C20.8216 260.744 21.0534 261.8 21.4134 262.816C21.5272 263.18 21.6637 263.438 21.7319 263.628C21.7752 263.721 21.8108 263.818 21.8381 263.917C21.7786 263.835 21.7302 263.746 21.694 263.651C21.5587 263.388 21.4397 263.116 21.3376 262.838C20.9436 261.827 20.6885 260.766 20.5793 259.686C20.495 258.929 20.4747 258.167 20.5187 257.407C20.5789 256.548 20.7159 255.697 20.9281 254.862C21.418 252.936 22.3472 251.15 23.6427 249.644C24.9678 248.169 26.6123 247.018 28.4501 246.279C29.2487 245.949 30.0763 245.695 30.9221 245.519C31.6723 245.377 32.4333 245.298 33.1969 245.284C34.2794 245.254 35.361 245.371 36.4119 245.633C36.6991 245.702 36.9825 245.786 37.2612 245.884C37.3598 245.925 37.4538 245.975 37.5417 246.036Z" fill="#E0E0E0"/>
<path d="M21.6637 253.822C21.4757 253.81 21.2921 253.761 21.1239 253.676C20.9557 253.591 20.8066 253.473 20.6855 253.328C20.5394 253.21 20.4195 253.062 20.3334 252.895C20.2472 252.727 20.1967 252.544 20.1851 252.356C20.2457 252.356 20.4201 252.781 20.8296 253.176C21.239 253.571 21.6788 253.761 21.6637 253.822Z" fill="#E0E0E0"/>
<path d="M22.7934 251.893C22.3252 251.73 21.9161 251.431 21.6181 251.034C21.2759 250.682 21.0417 250.239 20.9432 249.758C21.0039 249.758 21.2693 250.313 21.7773 250.897C22.2854 251.482 22.8313 251.839 22.7934 251.893Z" fill="#E0E0E0"/>
<path d="M34.4328 247.479C34.3721 247.479 34.3342 246.94 34.0537 246.347C33.7731 245.755 33.3788 245.375 33.4167 245.33C33.7981 245.524 34.0929 245.855 34.2432 246.256C34.4596 246.625 34.5274 247.062 34.4328 247.479Z" fill="#E0E0E0"/>
<path d="M36.3513 247.593C36.3223 247.275 36.2768 246.958 36.2148 246.644C36.0919 246.347 35.9527 246.058 35.7977 245.778C35.7977 245.725 36.2451 246.013 36.4119 246.583C36.4802 246.745 36.5102 246.92 36.4997 247.095C36.4892 247.27 36.4384 247.441 36.3513 247.593Z" fill="#E0E0E0"/>
<path d="M33.0376 226.962L32.8101 227.13L32.1277 227.6C31.5287 228.003 30.6794 228.603 29.6861 229.408C28.5142 230.35 27.4188 231.384 26.4104 232.5C25.1818 233.865 24.132 235.381 23.2863 237.012C22.4523 238.647 21.8889 240.407 21.6182 242.223C21.3927 243.706 21.3927 245.214 21.6182 246.697C21.76 247.697 22.0144 248.678 22.3764 249.621C22.6494 250.282 22.839 250.632 22.8238 250.639C22.7613 250.566 22.7101 250.484 22.6721 250.396C22.5736 250.229 22.4522 249.978 22.3006 249.637C21.89 248.701 21.5947 247.719 21.421 246.712C21.1662 245.205 21.1483 243.667 21.3679 242.154C21.6659 240.325 22.2628 238.556 23.1347 236.921C23.9868 235.269 25.0525 233.736 26.3042 232.363C27.325 231.248 28.4358 230.219 29.6254 229.287C30.4261 228.657 31.2588 228.069 32.1201 227.525C32.4234 227.327 32.6585 227.183 32.8253 227.092C32.8914 227.041 32.9626 226.998 33.0376 226.962Z" fill="#E0E0E0"/>
<path d="M84.4176 7.61133H18.5017V76.4391H84.4176V7.61133Z" fill="#E0E0E0"/>
<path d="M79.9514 7.61133H14.0355V76.4391H79.9514V7.61133Z" fill="#EBEBEB"/>
<path d="M71.0873 16.8633H22.892V67.1871H71.0873V16.8633Z" fill="white"/>
<path d="M22.8921 67.5212C22.5339 68.0139 22.1302 68.4717 21.6864 68.8885C20.9282 69.6937 19.8287 70.7951 18.6154 71.9877C17.4022 73.1803 16.2952 74.2665 15.4762 75.0261C15.0585 75.4657 14.5959 75.8603 14.0962 76.2035C14.4491 75.7113 14.8505 75.2558 15.2942 74.8438C16.0525 74.0311 17.1596 72.9296 18.3728 71.7295C19.586 70.5293 20.7007 69.4506 21.5196 68.691C21.9365 68.2557 22.3963 67.8638 22.8921 67.5212Z" fill="#E0E0E0"/>
<path d="M71.0873 67.3921C71.579 67.7509 72.036 68.1553 72.4522 68.5999C73.2559 69.3595 74.3554 70.4609 75.5535 71.6383C76.7515 72.8157 77.8283 73.9703 78.5865 74.783C79.0253 75.2016 79.4192 75.6649 79.7618 76.1655C79.2681 75.8149 78.8131 75.4126 78.4045 74.9653C77.5932 74.2057 76.4937 73.1043 75.2957 71.8814C74.0976 70.6584 73.0209 69.5494 72.2626 68.729C71.8253 68.3257 71.4314 67.8776 71.0873 67.3921Z" fill="#E0E0E0"/>
<path d="M70.9508 17.0226C71.309 16.53 71.7126 16.0722 72.1564 15.6553C72.9147 14.8426 74.0142 13.7487 75.1895 12.5486C76.3648 11.3484 77.5174 10.2698 78.3363 9.51015C78.7506 9.06983 79.2107 8.67512 79.7088 8.33276C79.3564 8.82547 78.955 9.28104 78.5107 9.69245C77.7524 10.5052 76.653 11.6067 75.4322 12.7992C74.2113 13.9918 73.1043 15.0781 72.2854 15.8377C71.8841 16.2793 71.4366 16.6766 70.9508 17.0226Z" fill="#E0E0E0"/>
<path d="M22.7631 17.114C22.2671 16.7605 21.8096 16.3557 21.3982 15.9062C20.5868 15.1466 19.4949 14.0452 18.2969 12.8678C17.0988 11.6904 16.0221 10.5358 15.2638 9.71546C14.8279 9.29485 14.4319 8.83457 14.0809 8.34058C14.5763 8.692 15.0338 9.09423 15.4458 9.54075C16.2496 10.3004 17.3491 11.4018 18.5471 12.5792C19.7452 13.7566 20.8219 14.9188 21.5802 15.7315C22.0184 16.1527 22.4146 16.6157 22.7631 17.114Z" fill="#E0E0E0"/>
<path d="M70.9508 67.1565C70.9508 67.1565 70.9508 67.0654 70.9508 66.9135C70.9508 66.7615 70.9508 66.5109 70.9508 66.207C70.9508 65.5841 70.9508 64.6878 70.9508 63.4952C70.9508 61.1177 70.9508 57.6463 70.9053 53.2406C70.9053 44.4292 70.8598 31.8653 70.8295 16.8251L70.9811 16.9846L22.8996 17.0226L23.0816 16.8403C23.0816 35.3139 23.0816 52.5949 23.0816 67.1717L22.9223 67.0122L57.7343 67.0958L67.5007 67.1337H70.0864H70.7537H70.9811H70.1167H67.569L57.8328 67.1793L22.9527 67.2553H22.801V67.1565C22.801 52.5797 22.801 35.2987 22.801 16.8251V16.6428H22.9906H71.0418H71.201V16.7947C71.201 31.8805 71.1404 44.4747 71.1252 53.3089C71.1252 57.707 71.1252 61.1557 71.0797 63.5332C71.0797 64.6954 71.0797 65.5917 71.0797 66.2146C71.0797 66.5109 71.0797 66.7312 71.0797 66.8983C71.0797 67.0654 70.9508 67.1565 70.9508 67.1565Z" fill="#E0E0E0"/>
<path d="M49.0447 42.0489L48.4218 43.0811L57.1143 48.3463L57.7373 47.3142L49.0447 42.0489Z" fill="#E0E0E0"/>
<path d="M48.4607 40.8667C48.6334 40.9691 48.784 41.1049 48.9039 41.266C49.0239 41.4272 49.1107 41.6105 49.1593 41.8055C49.208 42.0005 49.2176 42.2033 49.1874 42.402C49.1573 42.6007 49.0881 42.7915 48.9839 42.9633C48.8817 43.1372 48.7459 43.2891 48.5844 43.4099C48.4229 43.5307 48.2391 43.618 48.0435 43.6668C47.8479 43.7156 47.6446 43.7249 47.4455 43.6941C47.2463 43.6633 47.0553 43.593 46.8835 43.4874L46.4286 43.2139C46.253 43.1134 46.0993 42.9788 45.9764 42.8179C45.8536 42.657 45.7641 42.4731 45.7132 42.2771C45.6623 42.081 45.6511 41.8768 45.6802 41.6763C45.7093 41.4758 45.7781 41.2832 45.8826 41.1098C45.9835 40.9315 46.1194 40.7754 46.2821 40.651C46.4448 40.5267 46.6309 40.4366 46.8293 40.3862C47.0276 40.3358 47.2341 40.3262 47.4363 40.3578C47.6385 40.3895 47.8322 40.4619 48.0057 40.5705L48.4607 40.8667Z" fill="#EBEBEB"/>
<path d="M44.2979 30.0575C45.7582 30.9408 46.9241 32.2381 47.6481 33.7853C48.3721 35.3326 48.6217 37.0602 48.3653 38.7496C48.1088 40.439 47.3579 42.0142 46.2075 43.2759C45.057 44.5376 43.5589 45.4291 41.9025 45.8376C40.2461 46.246 38.5061 46.153 36.9025 45.5704C35.2989 44.9878 33.9038 43.9418 32.8939 42.5647C31.8839 41.1876 31.3045 39.5413 31.2288 37.8341C31.1532 36.127 31.5848 34.4358 32.4689 32.9744C33.6528 31.0178 35.5633 29.6117 37.7811 29.0648C39.9989 28.5179 42.3426 28.875 44.2979 30.0575Z" fill="#EBEBEB"/>
<path d="M44.6011 30.255L44.2978 30.0575C43.2648 29.4404 42.1164 29.0422 40.9235 28.8877C39.7027 33.9619 36.374 38.7626 32.7798 42.4011C33.4735 43.3936 34.3673 44.2294 35.4034 44.8546C35.555 44.9457 35.7143 45.0369 35.8659 45.1129C40.1425 41.33 43.7974 36.0128 44.6011 30.255Z" fill="#FAFAFA"/>
<path d="M56.5742 47.5437C56.2316 48.1083 56.0641 48.7621 56.0931 49.4222C56.122 50.0823 56.346 50.7189 56.7368 51.2512C57.1275 51.7835 57.6672 52.1876 58.2875 52.4121C58.9079 52.6366 59.5808 52.6714 60.2209 52.5122C60.861 52.353 61.4395 52.0068 61.8829 51.5177C62.3263 51.0285 62.6147 50.4185 62.7114 49.7649C62.8081 49.1113 62.7089 48.4437 62.4262 47.8467C62.1435 47.2497 61.6902 46.7503 61.1237 46.4119C60.3697 45.9613 59.4685 45.8275 58.6163 46.0395C57.7642 46.2515 57.0302 46.7921 56.5742 47.5437ZM61.3967 50.453C61.1585 50.8329 60.8137 51.1339 60.4055 51.3183C59.9972 51.5027 59.5437 51.5623 59.1018 51.4896C58.6599 51.4169 58.2493 51.2152 57.9213 50.9097C57.5934 50.6042 57.3628 50.2085 57.2583 49.7723C57.1539 49.336 57.1803 48.8786 57.3343 48.4574C57.4883 48.0361 57.7629 47.6697 58.1239 47.4042C58.4848 47.1386 58.9159 46.9857 59.3633 46.9646C59.8106 46.9435 60.2542 47.0551 60.6385 47.2854C60.8973 47.4412 61.1226 47.6471 61.3012 47.891C61.4798 48.1349 61.6082 48.412 61.6787 48.7062C61.7493 49.0003 61.7607 49.3056 61.7123 49.6042C61.6639 49.9028 61.5566 50.1887 61.3967 50.4454V50.453Z" fill="#E0E0E0"/>
<path d="M38.0422 36.5067C38.1332 36.3624 39.3161 36.613 39.3161 36.613C39.3161 36.613 39.9833 35.6179 40.1274 35.6255C40.2715 35.6331 40.4155 36.8713 40.4155 36.8713C40.8299 36.9762 41.2297 37.1318 41.606 37.3346C41.606 37.4562 40.5141 37.9955 40.5141 37.9955C40.5141 37.9955 40.5748 39.2185 40.4383 39.2716C40.3018 39.3248 39.4753 38.4361 39.4753 38.4361C39.0774 38.5927 38.6626 38.7023 38.2393 38.7627C38.1104 38.6943 38.7322 37.5853 38.7322 37.5853C38.7322 37.5853 37.9588 36.6586 38.0422 36.5067Z" fill="#E0E0E0"/>
<path d="M40.2714 31.9187C40.3245 31.7516 41.5377 31.744 41.5377 31.744C41.5377 31.744 41.9699 30.6274 42.114 30.6046C42.2581 30.5818 42.6675 31.7592 42.6675 31.7592C43.093 31.7741 43.5153 31.8378 43.9263 31.9491C43.9793 32.063 43.0012 32.8378 43.0012 32.8378C43.0012 32.8378 43.3272 34.0152 43.2059 34.0988C43.0846 34.1823 42.0837 33.4911 42.0837 33.4911C41.7304 33.7328 41.3483 33.9293 40.9463 34.076C40.8098 34.0304 41.1738 32.815 41.1738 32.815C41.1738 32.815 40.2183 32.0782 40.2714 31.9187Z" fill="#E0E0E0"/>
<path d="M34.8954 40.6692C34.7741 40.7907 35.3352 41.8693 35.3352 41.8693C35.3352 41.8693 34.5769 42.7733 34.5769 42.91C34.5769 43.0467 35.8735 42.8492 35.8735 42.8492C35.8735 42.8492 36.5181 43.8747 36.6318 43.8671C36.7455 43.8595 36.9806 42.6365 36.9806 42.6365C36.9806 42.6365 38.1711 42.3707 38.1862 42.2263C38.2014 42.082 37.1247 41.5199 37.1247 41.5199C37.1773 41.0936 37.1773 40.6625 37.1247 40.2362C37.0261 40.1374 36.1238 40.9958 36.1238 40.9958C36.1238 40.9958 35.0167 40.5704 34.8954 40.6692Z" fill="#E0E0E0"/>
<path d="M327.676 0V96.1659H203.693L199.226 0.676048L327.676 0Z" fill="#E0E0E0"/>
<path d="M199.226 0.562164V96.166L323.21 96.166V0.562164L199.226 0.562164Z" fill="white"/>
<path d="M323.68 96.6368H198.749V0.0834961H323.68V96.6368ZM199.697 95.6873H322.733V1.07098H199.697V95.6873Z" fill="#E0E0E0"/>
<path d="M309.781 10.3838H212.655V83.5793H309.781V10.3838Z" fill="white"/>
<path d="M309.759 10.3838H309.289H307.924H302.616L282.696 10.437L212.617 10.5509L212.837 10.3306C212.837 32.2832 212.837 57.2058 212.837 83.5185L212.595 83.2678L309.721 83.3134L309.516 83.5185C309.561 61.3988 309.599 43.1227 309.622 30.3462C309.622 23.9655 309.66 18.9521 309.675 15.5415C309.675 13.8476 309.675 12.5411 309.675 11.6447C309.675 10.7484 309.675 10.3002 309.675 10.3002C309.675 10.3002 309.675 10.7332 309.675 11.6067C309.675 12.4803 309.675 13.7792 309.675 15.4655C309.675 18.8686 309.675 23.8212 309.728 30.2171C309.728 43.0012 309.789 61.3608 309.834 83.4957V83.6932H309.759L212.633 83.7388H212.382V83.4957C212.382 57.183 212.382 32.2604 212.382 10.3078V10.1863H212.61L282.833 10.3002L302.699 10.361H307.946H309.289C309.637 10.3686 309.759 10.3838 309.759 10.3838Z" fill="#E0E0E0"/>
<path d="M199.226 0.311523C199.965 0.671545 200.666 1.10411 201.319 1.60285C202.578 2.45361 204.299 3.65378 206.165 5.02867C208.03 6.40355 209.675 7.71767 210.835 8.68996C211.499 9.1808 212.11 9.741 212.655 10.3611C211.936 9.96028 211.255 9.49232 210.623 8.96342L205.876 5.45405L201.122 1.90669C200.436 1.44344 199.8 0.908743 199.226 0.311523Z" fill="#E0E0E0"/>
<path d="M323.21 0.554628C323.286 0.668569 320.352 2.95498 316.644 5.66677C312.936 8.37856 309.865 10.4903 309.781 10.3839C309.698 10.2776 312.64 7.98356 316.348 5.27177C320.056 2.55998 323.127 0.448283 323.21 0.554628Z" fill="#E0E0E0"/>
<path d="M309.289 83.5792C309.38 83.4728 312.572 86.2074 316.416 89.656C320.261 93.1046 323.301 96.0291 323.241 96.1278C323.18 96.2266 319.957 93.4996 316.113 90.051C312.269 86.6024 309.198 83.6779 309.289 83.5792Z" fill="#E0E0E0"/>
<path d="M199.226 96.1583C199.135 96.0596 202.032 93.287 205.702 89.9676C209.372 86.6481 212.42 84.0426 212.526 84.1414C212.633 84.2401 209.713 87.0127 206.043 90.3322C202.373 93.6516 199.317 96.2647 199.226 96.1583Z" fill="#E0E0E0"/>
<path d="M257.355 49.9365C257.253 48.927 257.228 47.9114 257.279 46.8981C257.347 45.6903 257.279 44.4597 257.279 43.252C257.234 38.9526 254.375 36.3092 250.159 36.3624C248.279 36.3624 246.216 37.4638 244.707 38.4968C237.223 43.6318 239.983 54.9119 244.707 60.7533C246.252 62.6122 248.11 64.1856 250.197 65.4021C252.798 66.8453 257.105 66.9213 258.902 64.4146C259.603 63.4345 260.035 62.2873 260.154 61.0876C260.274 59.888 260.078 58.6778 259.584 57.5781C258.454 55.1607 257.702 52.5833 257.355 49.9365Z" fill="#EBEBEB"/>
<path d="M258.902 32.9745C258.144 35.3065 256.073 36.7725 254.246 36.1496C252.419 35.5268 251.547 33.2024 252.29 30.8324C253.033 28.4624 255.118 27.0344 256.945 27.6573C258.773 28.2801 259.645 30.6349 258.902 32.9745Z" fill="#EBEBEB"/>
<path d="M250.349 32.5568C250.349 34.2735 249.219 35.6484 247.877 35.5952C246.535 35.542 245.465 34.1747 245.488 32.458C245.511 30.7413 246.618 29.3588 247.96 29.3816C249.302 29.4044 250.371 30.8401 250.349 32.5568Z" fill="#EBEBEB"/>
<path d="M244.381 33.8935C245.048 35.276 244.715 36.8256 243.623 37.3497C242.531 37.8738 241.121 37.175 240.453 35.7925C239.786 34.41 240.12 32.8604 241.212 32.3363C242.303 31.8122 243.706 32.511 244.381 33.8935Z" fill="#EBEBEB"/>
<path d="M240.036 37.4712C241.174 38.3295 241.553 39.75 240.886 40.6463C240.218 41.5427 238.747 41.5655 237.61 40.7071C236.472 39.8488 236.093 38.4283 236.761 37.5396C237.428 36.6508 238.891 36.6128 240.036 37.4712Z" fill="#EBEBEB"/>
<path d="M238.004 42.143C239.179 42.5 239.915 43.5406 239.634 44.4673C239.354 45.3941 238.178 45.8878 236.965 45.5004C235.752 45.113 235.047 44.1027 235.327 43.176C235.608 42.2493 236.821 41.7859 238.004 42.143Z" fill="#EBEBEB"/>
<path d="M269.571 49.9365C269.68 48.9275 269.705 47.9112 269.646 46.8981C269.586 45.6903 269.646 44.4597 269.646 43.252C269.692 38.9526 272.558 36.3092 276.767 36.3624C278.647 36.3624 280.717 37.4638 282.226 38.4968C289.71 43.6318 286.95 54.9119 282.226 60.7533C280.681 62.6122 278.823 64.1856 276.736 65.4021C274.128 66.8453 269.821 66.9213 268.024 64.4146C267.324 63.4338 266.893 62.2868 266.773 61.0874C266.654 59.888 266.85 58.6782 267.341 57.5781C268.472 55.1607 269.224 52.5833 269.571 49.9365Z" fill="#EBEBEB"/>
<path d="M268.001 32.9745C268.759 35.3065 270.822 36.7725 272.649 36.1496C274.477 35.5268 275.356 33.2024 274.613 30.8324C273.87 28.4624 271.785 27.0344 269.957 27.6573C268.13 28.2801 267.296 30.6349 268.001 32.9745Z" fill="#EBEBEB"/>
<path d="M276.554 32.5568C276.554 34.2735 277.684 35.6484 279.026 35.5952C280.368 35.542 281.437 34.1747 281.415 32.458C281.392 30.7413 280.285 29.3588 278.943 29.3816C277.601 29.4044 276.532 30.8401 276.554 32.5568Z" fill="#EBEBEB"/>
<path d="M282.522 33.8935C281.854 35.276 282.188 36.8256 283.28 37.3497C284.372 37.8738 285.782 37.175 286.45 35.7925C287.117 34.41 286.791 32.8604 285.691 32.3363C284.592 31.8122 283.219 32.511 282.522 33.8935Z" fill="#EBEBEB"/>
<path d="M286.867 37.4712C285.729 38.3295 285.35 39.75 286.017 40.6463C286.685 41.5427 288.156 41.5655 289.293 40.7071C290.43 39.8488 290.81 38.4283 290.142 37.5396C289.475 36.6508 288.004 36.6128 286.867 37.4712Z" fill="#EBEBEB"/>
<path d="M288.899 42.143C287.716 42.5 286.988 43.5406 287.261 44.4673C287.534 45.3941 288.724 45.8498 289.907 45.5004C291.09 45.151 291.818 44.1027 291.545 43.176C291.272 42.2493 290.082 41.7859 288.899 42.143Z" fill="#EBEBEB"/>
<path d="M341.992 311.802C341.992 311.909 265.408 312 171.004 312C76.5999 312 0 311.909 0 311.802C0 311.696 76.5847 311.605 171.004 311.605C265.423 311.605 341.992 311.689 341.992 311.802Z" fill="#263238"/>
<path d="M181.695 115.916C181.695 115.916 123.885 123.306 123.673 123.937C123.461 124.567 126.418 148.366 126.418 148.366C126.418 148.366 160.039 180.854 160.889 181.204C161.738 181.553 172.3 175.59 172.3 175.59L181.695 115.916Z" fill="#FFBE9D"/>
<path d="M197.626 98.7333C197.407 93.9706 199.181 89.3674 200.659 84.8401C202.138 80.3129 203.404 75.4211 202.131 70.8178C200.523 65.0373 195.306 61.0189 192.546 55.7093C189.786 50.3997 189.513 44.1101 189.05 38.1017C188.588 32.0932 187.534 25.7353 183.568 21.2081C178.541 15.4882 165.37 14.4552 159.167 18.8685C158.204 53.0507 151.873 83.602 159.167 116.979C175.902 117.661 199.967 147.189 214.589 139.008C209.941 138.05 197.854 103.504 197.626 98.7333Z" fill="#1B0915"/>
<path d="M124.947 123.565L120.261 37.4636C120.174 35.6354 120.775 33.8411 121.944 32.4349C123.113 31.0286 124.767 30.1126 126.577 29.8676L165.006 18.9596C177.366 17.2961 186.04 32.3515 187.178 44.7862C188.444 58.6034 189.452 75.5274 188.095 85.9036C185.396 106.77 169.578 109.869 169.578 109.869L169.806 121.765L162.185 148.115L124.947 123.565Z" fill="#FFBE9D"/>
<path d="M181.824 62.8419C181.859 63.5418 181.618 64.2275 181.153 64.7506C180.687 65.2737 180.035 65.5922 179.337 65.6373C179 65.6728 178.659 65.6406 178.334 65.5425C178.01 65.4443 177.708 65.2823 177.447 65.0658C177.185 64.8493 176.97 64.5828 176.813 64.2818C176.655 63.9808 176.56 63.6514 176.531 63.3129C176.504 62.6194 176.748 61.9425 177.211 61.4262C177.674 60.9099 178.32 60.5948 179.011 60.5479C179.347 60.5101 179.686 60.5397 180.011 60.6351C180.335 60.7304 180.636 60.8896 180.898 61.1032C181.16 61.3168 181.377 61.5806 181.536 61.8791C181.695 62.1777 181.793 62.505 181.824 62.8419Z" fill="#263238"/>
<path d="M183.765 53.7039C183.439 54.0609 181.384 52.6253 178.526 52.7164C175.667 52.8076 173.605 54.2964 173.286 53.9546C173.127 53.8027 173.445 53.195 174.34 52.4354C175.558 51.5446 177.018 51.0489 178.526 51.0149C180.012 50.97 181.475 51.3981 182.704 52.2379C183.606 52.9291 183.925 53.5444 183.765 53.7039Z" fill="#263238"/>
<path d="M155.376 62.8419C155.403 63.5367 155.158 64.2145 154.694 64.7311C154.229 65.2476 153.581 65.5618 152.889 65.6069C152.551 65.6425 152.21 65.6103 151.885 65.5122C151.56 65.4142 151.257 65.2523 150.995 65.0359C150.734 64.8195 150.517 64.553 150.359 64.2519C150.201 63.9509 150.105 63.6213 150.076 63.2825C150.048 62.5877 150.293 61.9098 150.758 61.3933C151.223 60.8768 151.87 60.5625 152.563 60.5175C152.901 60.4809 153.242 60.5123 153.568 60.6099C153.893 60.7076 154.196 60.8694 154.458 61.086C154.72 61.3026 154.937 61.5695 155.094 61.8711C155.252 62.1726 155.348 62.5027 155.376 62.8419Z" fill="#263238"/>
<path d="M155.649 55.041C155.33 55.398 153.268 53.9623 150.409 54.0535C147.551 54.1446 145.488 55.6335 145.17 55.2916C145.01 55.1397 145.329 54.532 146.224 53.8104C147.44 52.9174 148.902 52.4215 150.409 52.39C151.897 52.3413 153.36 52.7698 154.587 53.6129C155.49 54.2434 155.831 54.8815 155.649 55.041Z" fill="#263238"/>
<path d="M166.636 76.0059C166.636 75.8464 168.388 75.4894 171.262 75.0336C172.02 74.9424 172.68 74.7753 172.778 74.274C172.821 73.5158 172.631 72.7626 172.232 72.1167C171.474 70.362 170.716 68.5238 169.912 66.602C166.682 58.7477 164.323 52.2834 164.604 52.1695C164.885 52.0556 167.796 58.2995 171.019 66.1538C171.797 68.0933 172.541 69.9417 173.248 71.6989C173.552 72.5269 174.052 73.4536 173.711 74.5627C173.613 74.8245 173.456 75.0602 173.252 75.2512C173.048 75.4423 172.803 75.5836 172.535 75.6641C172.135 75.7894 171.719 75.8609 171.299 75.8768C168.448 76.1046 166.651 76.173 166.636 76.0059Z" fill="#263238"/>
<path d="M169.578 109.877C159.816 110.304 150.127 108.008 141.591 103.245C141.591 103.245 148.984 117.853 169.684 115.315L169.578 109.877Z" fill="#EB996E"/>
<path d="M166.447 82.8349C165.775 81.908 164.888 81.1584 163.863 80.6504C162.838 80.1423 161.706 79.891 160.562 79.918C159.815 79.9493 159.087 80.1629 158.441 80.5401C157.795 80.9174 157.25 81.447 156.855 82.0828C156.416 82.8171 156.211 83.6679 156.267 84.5218C156.323 85.3758 156.638 86.1923 157.169 86.8624C157.701 87.5325 158.423 88.0244 159.241 88.2725C160.058 88.5206 160.932 88.513 161.745 88.2508C163.325 87.69 164.745 86.7543 165.885 85.5239C166.251 85.2228 166.548 84.8473 166.757 84.4224C166.861 84.1884 166.901 83.9313 166.875 83.6768C166.848 83.4222 166.755 83.1791 166.606 82.9716" fill="#EB996E"/>
<path d="M158.272 78.2315C158.735 78.1936 158.826 81.27 161.548 83.4348C164.27 85.5997 167.569 85.1288 167.614 85.5693C167.66 85.7592 166.894 86.1922 165.499 86.2682C163.68 86.3461 161.891 85.7785 160.449 84.6654C159.064 83.5965 158.148 82.0305 157.893 80.2977C157.734 78.9988 158.06 78.2164 158.272 78.2315Z" fill="#263238"/>
<path d="M156.589 43.2062C156.331 43.9658 153.465 43.6999 150.121 44.2012C146.777 44.7026 144.055 45.7205 143.615 45.014C143.411 44.6874 143.858 43.9354 144.935 43.153C146.367 42.1922 147.998 41.5687 149.705 41.3292C151.412 41.0898 153.151 41.2407 154.792 41.7705C156.051 42.2339 156.688 42.8491 156.589 43.2062Z" fill="#E0E0E0"/>
<path d="M182.476 43.8671C181.991 44.5356 179.997 43.9127 177.631 43.9507C175.265 43.9887 173.263 44.5128 172.778 43.8443C172.566 43.5177 172.869 42.8568 173.726 42.2188C174.876 41.4276 176.244 41.0159 177.639 41.0414C179.031 41.0212 180.395 41.4411 181.536 42.2416C182.37 42.8493 182.689 43.5481 182.476 43.8671Z" fill="#1B0915"/>
<path d="M169.593 18.4279C166.037 9.35066 158.326 8.55308 150.068 7.61876C141.811 6.68445 129.557 10.3078 122.733 15.0629C117.425 18.7774 111.419 23.4641 107.567 28.7358C103.905 33.7644 102.26 39.5146 99.9847 45.3179C96.4512 54.3496 96.6711 64.3081 96.1934 74.0158C95.5619 86.1914 93.7306 98.2747 90.7263 110.089C89.968 113.128 77.7221 143.565 69.7603 159.517C65.0211 169.012 60.9266 217.627 77.7221 217.627C86.1202 218.842 129.584 213.738 138.004 212.689L133.295 124.826C142.774 118.582 131.946 64.855 130.641 56.6664C130.672 56.6436 127.517 12.5182 169.593 18.4279Z" fill="#1B0915"/>
<path d="M166.841 18.6255C164.149 20.5245 162.921 23.9427 162.473 27.2014C162.026 30.4601 162.223 33.8176 161.616 37.0763C160.978 40.3282 159.568 43.3785 157.505 45.9697C155.442 48.561 152.787 50.6171 149.765 51.9645C147.839 52.8001 145.215 53.1419 143.994 51.41C144.069 53.7099 143.447 55.9786 142.21 57.9175C140.973 59.8564 139.179 61.3746 137.064 62.2723C134.031 63.5105 130.543 63.3206 127.313 64.0346C124.082 64.7487 120.685 66.9895 120.488 70.3014L119.123 47.2398L125.599 26.8444L145.518 14.949L166.841 18.6255Z" fill="#1B0915"/>
<path d="M131.566 56.6437C132.85 55.8121 133.956 54.7343 134.822 53.4723C135.687 52.2102 136.294 50.7891 136.609 49.2907C137.411 46.074 137.876 42.7823 137.997 39.469C138.277 35.7318 138.436 31.5767 139.399 27.3154C140.362 23.054 142.182 19.1724 144.836 16.4226C146.063 15.1015 147.54 14.0378 149.181 13.2931C150.62 12.6555 152.16 12.2775 153.731 12.1764C156 11.9813 158.273 12.5133 160.221 13.6956C160.525 13.8806 160.811 14.0915 161.078 14.3261C161.288 14.4778 161.479 14.6537 161.647 14.8502C161.802 14.9966 161.946 15.154 162.079 15.3212C161.475 14.7655 160.828 14.2576 160.145 13.802C158.196 12.7029 155.955 12.2359 153.731 12.4651C150.421 12.7197 147.333 14.2271 145.094 16.6809C142.531 19.3851 140.749 23.2211 139.786 27.4141C138.823 31.6071 138.656 35.7698 138.361 39.4994C138.065 43.2291 137.731 46.6397 136.844 49.3743C136.244 51.5647 135.11 53.5717 133.546 55.2156C132.971 55.7997 132.302 56.2824 131.566 56.6437Z" fill="#4E1A3D"/>
<path d="M114.286 53.8634C115.325 53.7437 116.345 53.4883 117.319 53.1038C119.903 51.8516 122.1 49.9191 123.673 47.5131C124.809 45.8919 125.787 44.1646 126.592 42.3554C127.454 40.2575 128.001 38.0433 128.215 35.7848C128.503 33.3997 128.609 30.8702 128.882 28.2495C129.017 26.9144 129.227 25.588 129.512 24.2768C129.817 22.9266 130.251 21.609 130.808 20.3421C133.043 15.4929 137.012 11.6601 141.932 9.60125C145.944 7.96023 150.377 7.66182 154.572 8.75049C157.39 9.44206 160.03 10.7207 162.322 12.5029C163.151 13.1457 163.913 13.871 164.596 14.6678L164.437 14.5387L163.99 14.1209C163.8 13.9386 163.558 13.7107 163.232 13.4676C162.892 13.1688 162.538 12.8873 162.17 12.6245C159.867 10.9117 157.241 9.68433 154.451 9.01635C150.313 7.9905 145.956 8.31517 142.015 9.94307C137.194 11.9776 133.305 15.7433 131.112 20.5016C130.56 21.7463 130.128 23.041 129.822 24.368C129.536 25.6636 129.326 26.9749 129.193 28.2951C128.913 30.893 128.799 33.43 128.503 35.8304C128.27 38.1223 127.701 40.3672 126.812 42.4921C125.992 44.3151 124.992 46.0507 123.825 47.6726C122.211 50.1029 119.953 52.0339 117.304 53.2481C116.573 53.5366 115.808 53.7306 115.029 53.8254H114.415C114.373 53.8422 114.33 53.8549 114.286 53.8634Z" fill="#4E1A3D"/>
<path d="M143.979 51.3796C143.986 51.4427 143.986 51.5064 143.979 51.5695C143.979 51.7214 143.979 51.9113 143.926 52.1468C143.873 52.3823 143.873 52.7165 143.812 53.0811C143.752 53.4457 143.646 53.8407 143.555 54.3421C143.262 55.4956 142.815 56.6044 142.228 57.6388C141.436 59.0208 140.367 60.2234 139.088 61.1709C136.245 63.351 131.877 64.3613 127.146 64.1334C124.647 64.0163 122.168 63.6292 119.753 62.9788C117.097 62.323 114.545 61.3004 112.17 59.9403L111.7 59.6593L112.246 59.5833C115.271 59.1517 118.208 58.2442 120.951 56.8943L121.095 56.8184L121.216 57.1906C115.047 58.1868 108.723 57.051 103.283 53.9699L102.927 53.7648L103.313 53.6432C107.141 52.4801 110.734 50.652 113.929 48.2424C116.419 46.3322 118.337 43.7726 119.472 40.8439C120.126 38.9075 120.437 36.8714 120.39 34.8278C120.337 34.1366 120.291 33.5897 120.261 33.2023V32.7769V32.6326C120.261 32.6326 120.261 32.6781 120.261 32.7769C120.261 32.8756 120.261 33.02 120.314 33.1947C120.359 33.5897 120.42 34.129 120.496 34.8202C120.597 36.879 120.32 38.9389 119.677 40.8971C118.56 43.8969 116.633 46.5267 114.111 48.4931C110.892 50.9498 107.261 52.8121 103.389 53.9926V53.6584C108.762 56.6789 114.997 57.7899 121.08 56.8108L122.414 56.5905L121.201 57.183L121.049 57.2589C118.279 58.619 115.314 59.5366 112.261 59.9783L112.337 59.6137C114.665 60.9651 117.168 61.9876 119.775 62.6521C122.166 63.3033 124.619 63.6955 127.093 63.8219C131.771 64.0726 136.071 63.1003 138.868 61.0038C140.132 60.0841 141.195 58.9158 141.993 57.5704C142.58 56.5565 143.036 55.4717 143.35 54.3421C143.456 53.8711 143.555 53.4533 143.638 53.0887C143.721 52.7241 143.744 52.4203 143.79 52.1696L143.873 51.5999C143.894 51.5202 143.93 51.4454 143.979 51.3796Z" fill="#4E1A3D"/>
<path d="M101.41 114.45C101.304 114.45 102.563 102.645 104.223 88.0988C105.884 73.5524 107.317 61.7785 107.431 61.7937C107.545 61.8089 106.278 73.6056 104.618 88.1444C102.957 102.683 101.516 114.465 101.41 114.45Z" fill="#4E1A3D"/>
<path d="M79.2386 303.082L91.75 195.598L154.686 301.183L109.948 303.082H79.2386Z" fill="#F7E6FD"/>
<path d="M217.584 159.928L219.282 115.522C219.282 115.522 215.878 112.104 206.673 112.445C197.467 112.787 180.755 115.864 180.755 115.864L163.679 168.368L123.809 121.325L98.5743 133.95L111.533 229.265L116.651 270.603C116.651 270.603 100.622 296.9 100.963 311.621C120.632 311.219 186.306 311.667 192.03 311.53C192.03 311.53 240.559 311.933 243.145 311.75L217.584 159.928Z" fill="#FF725E"/>
<path d="M69.1764 192.773C69.1764 192.773 84.8573 138.081 99.507 134.017L107.006 148.708L112.466 211.899L69.1764 192.773Z" fill="#FF725E"/>
<path d="M144.391 232.69C124.096 228.157 104.127 164.202 97.816 133.69C106.903 126.716 127.58 116.397 128.489 123.72C129.397 131.043 153.1 168.906 164.838 186.923C172.032 183.436 173.547 120.233 179.605 114.566C184.451 110.033 202.466 110.41 210.039 111.282C210.418 129.589 208.608 173.149 204.973 199.999C200.43 233.562 169.76 238.357 144.391 232.69Z" fill="#F7E6FD" stroke="#F7E6FD"/>
<path d="M218.972 114.677L263.216 160.064L222.384 185.549L211.101 155.392L218.972 114.677Z" fill="#FF725E"/>
<path d="M218.964 148.563C219.012 148.683 219.046 148.808 219.063 148.936C219.116 149.232 219.184 149.589 219.267 150.022C219.442 150.964 219.662 152.301 219.912 154.017C220.405 157.405 220.966 162.092 221.428 167.288C221.891 172.483 222.3 177.163 222.581 180.588C222.71 182.244 222.824 183.627 222.899 184.622C222.899 185.062 222.952 185.427 222.975 185.723C222.995 185.849 222.995 185.977 222.975 186.103C222.932 185.983 222.906 185.858 222.899 185.731C222.854 185.435 222.808 185.078 222.748 184.637C222.626 183.688 222.475 182.313 222.3 180.611C221.974 177.155 221.542 172.483 221.042 167.326C220.541 162.168 220.033 157.451 219.608 154.055L219.093 150.045C219.04 149.604 218.994 149.247 218.964 148.951C218.944 148.823 218.944 148.692 218.964 148.563Z" fill="#263238"/>
<path d="M103.116 175.727C103.162 175.892 103.197 176.059 103.222 176.228C103.291 176.6 103.367 177.079 103.465 177.679C103.677 178.978 103.973 180.786 104.33 182.996C105.088 187.493 106.119 193.684 107.363 200.513C108.606 207.342 109.918 213.494 110.889 217.938C111.366 220.126 111.761 221.911 112.049 223.202C112.178 223.795 112.276 224.266 112.36 224.638C112.406 224.801 112.434 224.969 112.443 225.139C112.372 224.984 112.318 224.82 112.284 224.653L111.897 223.24C111.579 222.01 111.139 220.202 110.616 217.999C109.577 213.57 108.265 207.41 106.976 200.581C105.687 193.752 104.701 187.546 104.011 183.042C103.685 180.763 103.427 178.963 103.253 177.725C103.185 177.124 103.132 176.638 103.086 176.266C103.072 176.086 103.082 175.904 103.116 175.727Z" fill="#263238"/>
<g opacity="0.3">
<path d="M232.514 267.73C231.134 267.479 229.777 268.209 228.564 268.923L211.108 279.086C206.309 281.889 201.084 284.791 195.556 284.252C190.961 283.811 186.965 281.061 183.053 278.6C167.645 268.9 134.524 267.328 116.5 264.73C122.065 271.422 131.771 274.453 140.127 276.883C148.483 279.314 157.211 281.168 164.437 285.999C170.094 289.797 174.719 295.357 181.119 297.651C186.518 299.58 192.448 298.92 198.135 298.236C206.673 297.218 215.658 296.018 222.475 290.777C227.024 287.298 230.118 282.353 233.151 277.514C234.182 275.866 235.252 274.126 235.388 272.197C235.525 270.267 234.433 268.072 232.514 267.73Z" fill="black"/>
</g>
<path d="M168.039 261.152C165.666 254.316 168.039 246.674 171.663 240.407C175.288 234.14 180.186 228.656 183.523 222.23C187.678 214.216 189.248 205.07 193.304 197.011C199.545 184.599 211.04 175.833 222.156 167.523C227.601 163.444 233.356 159.236 240.089 158.294C247.08 157.306 254.019 160.003 260.487 162.852C266.954 165.7 273.498 168.928 277.927 174.375C285.638 183.893 284.796 198.264 278.927 209.028C273.059 219.791 263.11 227.638 253.101 234.695C243.092 241.752 232.582 248.451 224.765 257.886C220.268 263.309 216.636 269.66 210.866 273.693C206.18 276.967 200.44 278.433 194.753 278.896C188.413 279.413 181.763 278.676 176.304 275.395C170.844 272.113 166.864 265.93 167.485 259.587" fill="#E0E0E0"/>
<path d="M223.392 197.588L227.085 192.894C221.701 187.273 222.096 179.525 227.282 172.256C230.042 168.382 230.255 167.812 236.927 160.041C243.6 152.27 249.583 150.66 249.583 150.66C252.803 149.757 256.204 149.715 259.445 150.541C262.686 151.366 265.655 153.028 268.054 155.362C273.893 160.823 276.054 169.27 275.599 175.408C275.373 178.45 274.037 181.303 271.845 183.422C266.826 188.276 257.294 197.474 254.678 199.92C253.013 201.384 251.473 202.984 250.076 204.706L244.768 210.509C242.606 213.348 239.417 215.221 235.889 215.724C232.36 216.227 228.776 215.32 225.91 213.198C220.117 208.914 220.101 202.571 223.392 197.588Z" fill="#FFBE9D"/>
<path d="M263.504 189.248C263.724 189.309 271.542 192.491 266.204 198.811C260.866 205.131 255.626 198.462 255.763 198.272C255.899 198.082 263.504 189.248 263.504 189.248Z" fill="#FFBE9D"/>
<path d="M259.713 197.512C259.759 197.512 259.759 197.679 259.865 197.923C260.039 198.252 260.327 198.506 260.676 198.637C261.548 198.956 263.004 198.371 263.997 197.254C264.475 196.727 264.828 196.099 265.029 195.416C265.131 195.172 265.174 194.907 265.155 194.642C265.135 194.378 265.053 194.123 264.915 193.897C264.814 193.758 264.669 193.658 264.504 193.612C264.338 193.567 264.163 193.579 264.005 193.646C263.777 193.752 263.709 193.912 263.664 193.897C263.618 193.881 263.618 193.676 263.891 193.456C264.059 193.328 264.264 193.261 264.475 193.266C264.764 193.283 265.036 193.411 265.233 193.623C265.448 193.895 265.589 194.216 265.645 194.558C265.701 194.899 265.669 195.25 265.552 195.575C265.363 196.353 264.982 197.072 264.445 197.664C263.33 198.902 261.669 199.548 260.532 199.039C260.322 198.942 260.136 198.8 259.986 198.622C259.837 198.445 259.728 198.237 259.668 198.014C259.569 197.672 259.652 197.505 259.713 197.512Z" fill="#EB996E"/>
<path d="M237.329 168.518C237.035 168.885 236.896 169.351 236.939 169.819C236.983 170.287 237.207 170.72 237.564 171.025C237.733 171.182 237.931 171.304 238.147 171.383C238.363 171.462 238.592 171.497 238.822 171.485C239.052 171.474 239.277 171.417 239.484 171.317C239.691 171.217 239.876 171.076 240.029 170.903C240.322 170.537 240.462 170.07 240.418 169.602C240.374 169.134 240.15 168.702 239.794 168.397C239.625 168.241 239.427 168.12 239.211 168.041C238.995 167.963 238.765 167.928 238.536 167.94C238.306 167.951 238.082 168.008 237.874 168.107C237.667 168.207 237.482 168.346 237.329 168.518Z" fill="#263238"/>
<path d="M239.24 164.758C239.24 165.085 240.961 165.138 242.478 166.346C243.994 167.554 244.502 169.202 244.813 169.149C244.957 169.149 245.048 168.655 244.813 167.918C244.522 166.938 243.931 166.074 243.122 165.449C242.345 164.809 241.382 164.437 240.377 164.386C239.627 164.386 239.24 164.606 239.24 164.758Z" fill="#263238"/>
<path d="M250.03 178.689C249.734 179.054 249.591 179.521 249.634 179.989C249.676 180.458 249.9 180.891 250.258 181.196C250.426 181.352 250.625 181.473 250.84 181.551C251.056 181.63 251.286 181.665 251.515 181.653C251.745 181.642 251.97 181.585 252.177 181.486C252.384 181.386 252.569 181.246 252.722 181.074C253.016 180.708 253.155 180.241 253.112 179.773C253.068 179.305 252.844 178.873 252.487 178.568C252.32 178.41 252.122 178.288 251.907 178.208C251.691 178.128 251.462 178.093 251.233 178.105C251.003 178.116 250.778 178.174 250.572 178.274C250.365 178.375 250.181 178.516 250.03 178.689Z" fill="#263238"/>
<path d="M252.889 175.492C252.889 175.818 254.61 175.871 256.127 177.079C257.643 178.287 258.151 179.935 258.462 179.882C258.606 179.882 258.697 179.388 258.462 178.651C258.172 177.673 257.583 176.81 256.779 176.183C255.99 175.551 255.02 175.189 254.011 175.15C253.275 175.135 252.889 175.34 252.889 175.492Z" fill="#263238"/>
<path d="M257.635 171.845C257.56 172.377 258.894 173.007 260.183 174.124C261.472 175.241 262.359 176.403 262.867 176.236C263.103 176.145 263.194 175.666 262.981 174.967C262.68 174.072 262.13 173.282 261.396 172.688C260.678 172.072 259.8 171.672 258.864 171.534C258.144 171.427 257.689 171.595 257.635 171.845Z" fill="#263238"/>
<path d="M243.206 159.623C243.13 160.155 244.464 160.786 245.753 161.902C247.043 163.019 247.93 164.181 248.438 164.014C248.673 163.923 248.756 163.444 248.551 162.745C248.242 161.85 247.695 161.055 246.97 160.446C246.245 159.838 245.368 159.438 244.434 159.289C243.714 159.206 243.251 159.373 243.206 159.623Z" fill="#263238"/>
<path d="M240.468 184.364C240.37 184.432 240.468 184.759 240.802 185.123C241.293 185.606 241.948 185.885 242.635 185.904C243.323 185.924 243.992 185.683 244.51 185.23C244.889 184.873 244.988 184.554 244.897 184.47C244.806 184.386 243.858 185.047 242.66 185.002C241.462 184.956 240.658 184.212 240.468 184.364Z" fill="#263238"/>
<path d="M227.108 192.894C227.108 192.894 234.69 199.244 237.617 199.381C237.617 199.381 233.31 201.979 225.485 194.991L227.108 192.894Z" fill="#EB996E"/>
<path d="M243.79 175.658C243.714 175.56 243.266 175.75 242.607 176.129C242.281 176.327 241.894 176.57 241.477 176.889L240.825 177.33C240.546 177.497 240.291 177.701 240.066 177.937C239.93 178.084 239.825 178.258 239.758 178.448C239.692 178.637 239.665 178.838 239.68 179.039C239.717 179.394 239.869 179.727 240.112 179.988C240.322 180.213 240.582 180.384 240.87 180.49C241.097 180.57 241.335 180.613 241.575 180.619C242.417 180.619 242.849 180.406 242.849 180.3C242.849 180.193 242.334 180.14 241.659 179.988C241.303 179.922 240.983 179.731 240.756 179.449C240.651 179.313 240.585 179.149 240.567 178.978C240.572 178.808 240.639 178.645 240.756 178.522C240.932 178.345 241.125 178.188 241.333 178.051L241.955 177.557C242.349 177.238 242.713 176.942 242.978 176.684C243.517 176.129 243.835 175.78 243.79 175.658Z" fill="#263238"/>
<path d="M281.157 197.877C271.004 193.562 259.539 194.079 248.551 194.656C238.322 195.218 227.98 195.849 218.221 198.933C206.142 202.731 195.473 210.152 185.934 218.485L186.73 237.657L231.551 229.454L280.944 199.191" fill="#E0E0E0"/>
<path d="M241.181 155.764C249.704 147.546 257.446 145.935 266.136 151.275C272.05 154.906 276.357 158.438 278.662 165.814C279.319 168.613 279.6 171.487 279.496 174.36C278.503 184.234 273.968 188.792 267.296 192.074L265.241 190.175L262.617 192.894C261.571 192.134 259.956 191.428 259.137 190.448C258.318 189.468 259.296 186.726 260.1 185.738C261.435 184.138 262.92 182.67 264.536 181.356C267.03 179.289 268.448 178.15 269.525 175.522C269.525 175.522 272.641 170.964 270.352 166.277C267.864 161.15 264.119 161.97 259.137 158.089C254.837 154.739 254.86 151.913 250.402 151.458C245.943 151.002 241.181 155.764 241.181 155.764Z" fill="#263238"/>
<path d="M262.177 153.448C261.793 151.917 261.857 150.308 262.361 148.813C262.866 147.318 263.789 146 265.021 145.016C265.264 144.834 265.597 144.651 265.863 144.819C265.948 144.896 266.016 144.991 266.062 145.098C266.107 145.204 266.13 145.318 266.128 145.434C266.34 147.198 266.416 148.975 266.356 150.751C266.666 150.209 267.113 149.759 267.652 149.445C267.926 149.294 268.244 149.249 268.549 149.318C268.853 149.386 269.122 149.564 269.305 149.817C269.624 150.364 269.305 151.047 269.062 151.632C268.235 153.603 268.078 155.792 268.615 157.861" fill="#263238"/>
<path d="M236.396 172.878L236.549 173.092L236.396 172.878Z" fill="#EB996E"/>
<path d="M236.404 172.894C235.872 172.02 235.189 171.248 234.387 170.615C233.952 170.271 233.443 170.034 232.901 169.922C232.359 169.81 231.798 169.826 231.263 169.969C230.531 170.284 229.937 170.853 229.591 171.572C229.246 172.291 229.171 173.111 229.383 173.881C229.617 174.643 230.023 175.341 230.568 175.921C231.114 176.502 231.784 176.95 232.529 177.231C233.21 177.569 233.978 177.686 234.728 177.565C235.249 177.423 235.721 177.142 236.094 176.751C236.467 176.36 236.726 175.875 236.844 175.347C236.956 174.931 236.975 174.495 236.899 174.071C236.823 173.647 236.654 173.245 236.404 172.894Z" fill="#EFAC8E"/>
<path d="M253.874 184.25L254.11 184.364L253.874 184.25Z" fill="#EB996E"/>
<path d="M253.882 184.265C253.003 183.75 252.041 183.396 251.039 183.217C250.497 183.124 249.942 183.158 249.415 183.316C248.889 183.474 248.407 183.752 248.006 184.128C247.504 184.746 247.244 185.526 247.272 186.321C247.3 187.117 247.614 187.876 248.157 188.458C248.723 189.02 249.409 189.444 250.163 189.7C250.917 189.955 251.72 190.034 252.51 189.931C253.272 189.906 254.007 189.64 254.61 189.172C255.003 188.801 255.286 188.33 255.429 187.808C255.572 187.287 255.57 186.737 255.421 186.217C255.325 185.798 255.137 185.405 254.871 185.067C254.605 184.73 254.267 184.456 253.882 184.265Z" fill="#EFAC8E"/>
<path d="M282.893 197.915L282.628 197.854L281.87 197.634L280.649 197.262L278.958 196.821C275.353 195.932 271.685 195.325 267.986 195.006C262.501 194.541 256.992 194.435 251.493 194.687C248.385 194.816 245.124 194.99 241.757 195.294C240.074 195.446 238.353 195.553 236.624 195.78C234.895 196.008 233.128 196.16 231.362 196.464C224.679 197.357 218.127 199.046 211.844 201.493C206.751 203.587 201.907 206.242 197.399 209.408C193.539 212.089 190.575 214.467 188.467 216.069C187.443 216.829 186.639 217.49 186.078 217.938L185.449 218.417L185.229 218.569C185.229 218.569 185.289 218.5 185.426 218.379L186.025 217.87L188.368 215.948C190.43 214.307 193.388 211.899 197.24 209.172C201.747 205.966 206.6 203.278 211.707 201.158C218.009 198.677 224.589 196.97 231.301 196.077C233.075 195.773 234.842 195.606 236.609 195.393C238.376 195.18 240.066 195.059 241.757 194.907C245.132 194.611 248.4 194.444 251.509 194.322C257.024 194.083 262.549 194.217 268.046 194.725C271.753 195.07 275.426 195.721 279.026 196.669L280.709 197.148L281.93 197.558L282.688 197.816L282.893 197.915Z" fill="#263238"/>
<path d="M229.519 243.643C229.352 243.566 229.192 243.474 229.041 243.37L227.722 242.534C227.153 242.162 226.448 241.714 225.606 241.235C224.765 240.757 223.84 240.172 222.748 239.632L221.042 238.751C220.45 238.447 219.813 238.174 219.176 237.862C217.887 237.232 216.469 236.685 214.983 236.07C208.486 233.542 201.655 231.978 194.707 231.429C193.107 231.337 191.583 231.216 190.157 231.224C189.445 231.224 188.755 231.224 188.095 231.224L186.192 231.284C184.971 231.284 183.879 231.421 182.916 231.489C181.953 231.558 181.127 231.649 180.459 231.74L178.897 231.915C178.717 231.946 178.534 231.959 178.351 231.953C178.526 231.896 178.707 231.858 178.89 231.839L180.406 231.588C181.081 231.474 181.923 231.353 182.871 231.269C183.818 231.186 184.925 231.041 186.146 231.003L188.057 230.92C188.724 230.92 189.414 230.92 190.127 230.92C191.568 230.92 193.092 231.003 194.677 231.094C201.669 231.598 208.542 233.171 215.059 235.758C216.575 236.381 217.971 236.943 219.252 237.589C219.897 237.908 220.526 238.189 221.117 238.501L222.801 239.412C223.885 239.967 224.81 240.574 225.637 241.076C226.463 241.577 227.153 242.033 227.722 242.428L229.003 243.332C229.187 243.414 229.36 243.519 229.519 243.643Z" fill="#263238"/>
<path d="M232.112 161.872C232.112 161.872 232.021 162.016 231.809 162.251L230.899 163.284C230.49 163.725 229.982 164.272 229.42 164.925C228.859 165.578 228.184 166.292 227.502 167.128C226.084 168.769 224.469 170.789 222.77 173.083C221.072 175.377 219.305 177.998 217.569 180.809C215.832 183.619 214.346 186.407 213.057 188.959C211.768 191.511 210.722 193.881 209.903 195.887C209.471 196.882 209.144 197.801 208.811 198.606C208.477 199.411 208.235 200.125 208.053 200.672C207.871 201.219 207.689 201.637 207.567 201.979C207.511 202.132 207.445 202.282 207.37 202.427C207.387 202.265 207.428 202.106 207.491 201.956C207.598 201.606 207.734 201.196 207.908 200.619C208.083 200.042 208.326 199.335 208.629 198.523C208.932 197.71 209.251 196.783 209.668 195.78C210.426 193.76 211.503 191.39 212.754 188.8C214.005 186.209 215.529 183.437 217.258 180.603C218.987 177.77 220.791 175.18 222.505 172.871C224.219 170.561 225.872 168.571 227.312 166.946C228.01 166.118 228.692 165.427 229.276 164.773C229.86 164.12 230.383 163.603 230.793 163.178L231.786 162.198C231.887 162.082 231.996 161.973 232.112 161.872Z" fill="#263238"/>
<path d="M209.107 208.405L210.813 211.861L214.619 212.416L211.867 215.112L212.519 218.91L209.107 217.118L205.702 218.91L206.354 215.112L203.594 212.416L207.4 211.861L209.107 208.405Z" fill="white"/>
<path d="M200.735 236.981L202.441 240.445L206.248 241L203.488 243.689L204.14 247.494L200.735 245.694L197.323 247.494L197.975 243.689L195.223 241L199.029 240.445L200.735 236.981Z" fill="white"/>
<path d="M251.304 207.136L251.387 210.266L254.011 211.968L251.069 213.008L250.265 216.031L248.362 213.555L245.245 213.722L247.012 211.14L245.89 208.223L248.885 209.111L251.304 207.136Z" fill="white"/>
<path d="M225.44 222.8L226.228 224.683L228.222 225.109L226.676 226.438L226.888 228.474L225.144 227.41L223.278 228.246L223.756 226.256L222.384 224.737L224.423 224.569L225.44 222.8Z" fill="white"/>
<path d="M187.064 255.645L187.852 257.536L189.847 257.954L188.3 259.291L188.512 261.319L186.768 260.256L184.903 261.091L185.38 259.101L184.008 257.582L186.048 257.415L187.064 255.645Z" fill="white"/>
<path d="M180.065 241.82L180.846 243.704L182.848 244.129L181.293 245.459L181.513 247.494L179.769 246.431L177.904 247.266L178.382 245.276L177.009 243.757L179.049 243.59L180.065 241.82Z" fill="white"/>
<path d="M201.645 193.783L202.434 195.674L204.436 196.092L202.881 197.421L203.101 199.457L201.357 198.394L199.492 199.229L199.962 197.239L198.597 195.72L200.629 195.553L201.645 193.783Z" fill="white"/>
<path d="M232.317 202.822L233.098 204.706L235.1 205.131L233.545 206.461L233.765 208.496L232.021 207.433L230.156 208.268L230.626 206.278L229.261 204.759L231.293 204.592L232.317 202.822Z" fill="white"/>
<path d="M242.227 225.633L243.016 227.524L245.01 227.942L243.463 229.279L243.676 231.315L241.932 230.251L240.074 231.079L240.544 229.089L239.172 227.577L241.211 227.41L242.227 225.633Z" fill="white"/>
<path d="M218.479 189.255L219.267 191.139L221.261 191.565L219.715 192.894L219.927 194.93L218.191 193.866L216.325 194.702L216.795 192.712L215.423 191.192L217.463 191.025L218.479 189.255Z" fill="white"/>
<path d="M268.706 201.462L269.487 203.354L271.489 203.771L269.942 205.101L270.154 207.136L268.41 206.073L266.545 206.909L267.015 204.918L265.65 203.399L267.682 203.24L268.706 201.462Z" fill="white"/>
<path d="M277.745 188.374L278.533 190.258L280.527 190.683L278.981 192.013L279.193 194.049L277.449 192.985L275.591 193.821L276.061 191.823L274.689 190.311L276.729 190.144L277.745 188.374Z" fill="white"/>
<path d="M191.803 222.177L192.592 224.068L194.593 224.494L193.039 225.823L193.259 227.859L191.515 226.788L189.649 227.623L190.12 225.633L188.755 224.121L190.787 223.954L191.803 222.177Z" fill="white"/>
<path d="M81.0129 197.999C81.0129 197.999 82.4385 248.034 85.9492 253.51C87.7918 256.389 167.334 280.856 167.334 280.856L173.574 262.284L112.481 225.154L109.963 210.805L81.0129 197.999Z" fill="#FFBE9D"/>
<path d="M169.411 259.777C169.411 259.777 178.078 259.511 179.61 258.812C181.142 258.114 192.857 251.133 192.857 251.133L205.057 248.383C205.057 248.383 205.816 250.434 204.019 253.093C202.221 255.751 194.252 259.777 194.252 259.777C194.252 259.777 186.237 267.062 187.314 269.576C188.391 272.09 197.043 277.119 197.043 277.119L223.119 280.879C222.382 283.608 220.636 285.955 218.236 287.442L215.203 288.961C215.203 288.961 214.088 292.592 210.32 293.01C206.551 293.428 189.543 293.01 189.543 293.01L167.364 280.856L162.215 267.312L169.411 259.777Z" fill="#FFBE9D"/>
<path d="M191.075 287.852C191.385 287.814 191.698 287.814 192.008 287.852L194.548 288.095C196.686 288.293 199.651 288.543 202.927 288.71C206.202 288.878 209.175 288.931 211.328 288.946H213.876C214.188 288.927 214.501 288.945 214.809 288.999C214.502 289.064 214.189 289.097 213.876 289.098C213.277 289.143 212.405 289.181 211.328 289.204C209.175 289.265 206.195 289.257 202.904 289.09C199.613 288.923 196.656 288.634 194.518 288.331C193.448 288.202 192.584 288.072 191.993 287.974C191.684 287.962 191.376 287.922 191.075 287.852Z" fill="#EB996E"/>
<path d="M222.604 281.228C222.254 281.175 221.909 281.093 221.572 280.985C220.913 280.818 219.95 280.606 218.744 280.408L209.304 278.942C205.626 278.357 202.29 277.803 199.886 277.377L197.035 276.861C196.683 276.807 196.336 276.726 195.996 276.618C196.352 276.612 196.708 276.642 197.058 276.709L199.924 277.104C202.343 277.453 205.687 277.962 209.372 278.555C213.057 279.147 216.386 279.686 218.79 280.135C219.743 280.309 220.685 280.542 221.61 280.833C221.956 280.924 222.29 281.057 222.604 281.228Z" fill="#EB996E"/>
<path d="M277.426 211.58C277.426 211.58 277.146 215.933 273.263 225.018C269.381 234.103 249.097 252.242 249.097 252.242L238.641 235.622L277.426 211.58Z" fill="#FFBE9D"/>
<path d="M198.066 259.23C198.066 259.23 208.386 242.466 211.594 241.349C214.801 240.232 229.587 239.951 229.587 239.951L238.686 235.622L249.097 252.242C249.097 252.242 234.599 275.569 232.787 276.686C230.975 277.802 222.596 280.803 222.596 280.803L201.691 277.248L195.989 276.617L212.67 256.063C212.67 256.063 212.67 253.624 211.518 253.715C210.82 253.769 205.846 258.524 202.783 259.504C199.719 260.483 198.066 259.23 198.066 259.23Z" fill="#FFBE9D"/>
<path d="M219.699 260.529C219.575 260.815 219.417 261.085 219.229 261.334C218.911 261.851 218.41 262.565 217.766 263.423C214.378 267.926 210.213 271.785 205.467 274.817C204.564 275.387 203.806 275.827 203.275 276.109C203.01 276.273 202.728 276.408 202.434 276.511C202.666 276.304 202.92 276.123 203.192 275.972C203.7 275.653 204.428 275.212 205.308 274.582C209.926 271.449 214.049 267.639 217.538 263.279C218.206 262.443 218.736 261.76 219.093 261.273C219.267 261.003 219.47 260.754 219.699 260.529Z" fill="#EB996E"/>
<path d="M225.894 265.292C225.799 265.526 225.672 265.746 225.515 265.945C225.258 266.348 224.856 266.917 224.34 267.609C223 269.413 221.562 271.143 220.033 272.789C218.502 274.434 216.885 275.996 215.188 277.468C214.536 278.03 213.997 278.478 213.611 278.767C213.427 278.941 213.217 279.085 212.989 279.193C213.615 278.513 214.278 277.869 214.975 277.263C216.234 276.093 217.933 274.437 219.722 272.516C221.512 270.594 223.021 268.778 224.097 267.441C224.659 266.694 225.259 265.977 225.894 265.292Z" fill="#EB996E"/>
<path d="M227.73 273.298C226.44 274.638 225.059 275.887 223.597 277.035C222.217 278.285 220.75 279.435 219.207 280.476C221.876 277.886 224.724 275.487 227.73 273.298Z" fill="#EB996E"/>
<path d="M211.548 253.715C211.279 253.992 210.987 254.246 210.676 254.475C210.092 254.969 209.235 255.668 208.128 256.488C206.825 257.474 205.452 258.363 204.019 259.147C203.092 259.648 202.063 259.929 201.01 259.966C199.958 260.003 198.911 259.795 197.952 259.359L197.755 259.261L197.892 259.071L199.651 256.647L207.188 246.059C208.166 244.714 208.97 243.635 209.539 242.891L210.198 242.048C210.271 241.947 210.355 241.856 210.449 241.774C210.449 241.774 210.396 241.896 210.267 242.101L209.66 242.982C209.099 243.803 208.341 244.896 207.385 246.226C205.49 248.953 202.896 252.751 199.939 256.86L198.225 259.336L198.165 259.048C199.092 259.486 200.114 259.682 201.137 259.618C202.086 259.548 203.011 259.29 203.859 258.858C205.291 258.104 206.667 257.248 207.977 256.298C209.107 255.538 209.986 254.847 210.593 254.391C210.894 254.143 211.213 253.917 211.548 253.715Z" fill="#EB996E"/>
<path d="M165.302 282.193C164.67 276.243 162.572 263.811 168.335 257.126" stroke="#C958F0" stroke-width="5" stroke-linecap="round"/>
<path d="M160.889 280.294C160.257 274.344 158.159 261.912 163.922 255.227" stroke="#C958F0" stroke-width="5" stroke-linecap="round"/>
<path d="M156.476 277.636C155.844 271.685 153.746 259.253 159.509 252.569" stroke="#C958F0" stroke-width="5" stroke-linecap="round"/>
</g>
<defs>
<clipPath id="clip0_274_5941">
<rect width="342" height="312" fill="white"/>
</clipPath>
</defs>
</svg>
