<svg width="313" height="313" viewBox="0 0 313 313" fill="none" xmlns="http://www.w3.org/2000/svg">
<g opacity="0.6">
<path d="M288.661 66.4687C287.672 64.7994 286.629 63.1509 285.531 61.5233C271.058 40.0265 246.056 25.3155 221.491 18.6674C210.714 15.8 199.642 14.1847 188.495 13.8534C115.491 11.3807 86.4193 68.9414 62.287 83.7651C38.1547 98.5888 1.04544 123.948 3.51814 177.158C5.99084 230.368 44.3521 280.448 118.589 283.578C192.827 286.708 197.772 253.267 239.226 240.891C266.651 232.703 286.176 205.046 295.685 179.487C308.693 144.662 308.08 99.4214 288.661 66.4687Z" fill="#E6B2F8"/>
<path opacity="0.7" d="M288.661 66.4687C287.672 64.7994 286.629 63.1509 285.531 61.5233C271.058 40.0265 246.056 25.3155 221.491 18.6674C210.714 15.8 199.642 14.1847 188.495 13.8534C115.491 11.3807 86.4193 68.9414 62.287 83.7651C38.1547 98.5888 1.04544 123.948 3.51814 177.158C5.99084 230.368 44.3521 280.448 118.589 283.578C192.827 286.708 197.772 253.267 239.226 240.891C266.651 232.703 286.176 205.046 295.685 179.487C308.693 144.662 308.08 99.4214 288.661 66.4687Z" fill="white"/>
<path d="M276.047 251.533H283.929" stroke="#263238" stroke-linecap="round" stroke-linejoin="round"/>
<path d="M19.3372 251.533H271.678" stroke="#263238" stroke-linecap="round" stroke-linejoin="round"/>
<path d="M124.048 31.0308H52.0143V158.378H124.048V31.0308Z" fill="#E6B2F8" stroke="#263238" stroke-linecap="round" stroke-linejoin="round"/>
<path d="M112.73 47.9203H63.3386V141.482H112.73V47.9203Z" fill="white" stroke="#263238" stroke-linecap="round" stroke-linejoin="round"/>
<path d="M82.2626 83.3518L79.527 86.0874" stroke="#263238" stroke-linecap="round" stroke-linejoin="round"/>
<path d="M108.022 57.5919L84.3534 81.2547" stroke="#263238" stroke-linecap="round" stroke-linejoin="round"/>
<path d="M107.703 64.3528L101.262 70.7943" stroke="#263238" stroke-linecap="round" stroke-linejoin="round"/>
<path d="M71.6519 127.548L82.1186 117.087" stroke="#263238" stroke-linecap="round" stroke-linejoin="round"/>
<path d="M64.0961 43.0625V45.3599" stroke="#263238" stroke-linecap="round" stroke-linejoin="round"/>
<path d="M64.0961 31.9071V41.3847" stroke="#263238" stroke-linecap="round" stroke-linejoin="round"/>
<path d="M54.0112 48.2583H61.0412" stroke="#263238" stroke-linecap="round" stroke-linejoin="round"/>
<path d="M52.9408 32.5206L62.5687 45.9671" stroke="#263238" stroke-linecap="round" stroke-linejoin="round"/>
<path d="M59.9269 36.3518L53.3977 45.3599" stroke="#263238" stroke-linecap="round" stroke-linejoin="round"/>
<path d="M62.2619 33.1342L60.8972 35.0122" stroke="#263238" stroke-linecap="round" stroke-linejoin="round"/>
<path d="M112.536 43.0625V45.3599" stroke="#263238" stroke-linecap="round" stroke-linejoin="round"/>
<path d="M112.536 31.9071V41.3847" stroke="#263238" stroke-linecap="round" stroke-linejoin="round"/>
<path d="M122.627 48.2583H115.597" stroke="#263238" stroke-linecap="round" stroke-linejoin="round"/>
<path d="M123.698 32.5206L114.07 45.9671" stroke="#263238" stroke-linecap="round" stroke-linejoin="round"/>
<path d="M116.705 36.3518L123.234 45.3599" stroke="#263238" stroke-linecap="round" stroke-linejoin="round"/>
<path d="M114.37 33.1342L115.741 35.0122" stroke="#263238" stroke-linecap="round" stroke-linejoin="round"/>
<path d="M64.0961 147.16V144.919" stroke="#263238" stroke-linecap="round" stroke-linejoin="round"/>
<path d="M64.0961 158.04V148.794" stroke="#263238" stroke-linecap="round" stroke-linejoin="round"/>
<path d="M54.0112 142.089H61.0412" stroke="#263238" stroke-linecap="round" stroke-linejoin="round"/>
<path d="M52.9408 157.439L62.5687 144.324" stroke="#263238" stroke-linecap="round" stroke-linejoin="round"/>
<path d="M59.9269 153.702L53.3977 144.919" stroke="#263238" stroke-linecap="round" stroke-linejoin="round"/>
<path d="M62.2619 156.844L60.8972 155.01" stroke="#263238" stroke-linecap="round" stroke-linejoin="round"/>
<path d="M112.536 147.16V144.919" stroke="#263238" stroke-linecap="round" stroke-linejoin="round"/>
<path d="M112.536 158.04V148.794" stroke="#263238" stroke-linecap="round" stroke-linejoin="round"/>
<path d="M122.627 142.089H115.597" stroke="#263238" stroke-linecap="round" stroke-linejoin="round"/>
<path d="M123.698 157.439L114.07 144.324" stroke="#263238" stroke-linecap="round" stroke-linejoin="round"/>
<path d="M116.705 153.702L123.234 144.919" stroke="#263238" stroke-linecap="round" stroke-linejoin="round"/>
<path d="M114.37 156.844L115.741 155.01" stroke="#263238" stroke-linecap="round" stroke-linejoin="round"/>
<path d="M125.644 224.578H51.2006V228.697H125.644V224.578Z" fill="#BDBDBD" stroke="#263238" stroke-linecap="round" stroke-linejoin="round"/>
<path d="M46.95 256.873C46.9124 256.435 46.0047 246.093 46.3615 241.454C46.7183 236.816 47.2817 233.442 47.7888 230.418C48.1456 228.283 48.4837 226.261 48.7215 224.02C49.5541 216.076 48.7215 212.978 47.7763 209.391C47.4007 207.989 47.0126 206.536 46.687 204.727C45.435 198.004 46.324 187.449 46.3615 187.005L51.3695 187.418C51.3695 187.525 50.5307 197.76 51.6324 203.832C51.9267 205.441 52.2584 206.793 52.634 208.101C53.6732 211.995 54.6498 215.676 53.717 224.546C53.4666 226.938 53.091 229.028 52.7467 231.244C52.2334 234.306 51.7076 237.467 51.3695 241.836C51.044 246.068 51.9454 256.328 51.958 256.428L46.95 256.873Z" fill="#BDBDBD" stroke="#263238" stroke-linecap="round" stroke-linejoin="round"/>
<path d="M129.882 256.873C129.92 256.435 130.834 246.093 130.508 241.454C130.183 236.816 129.582 233.442 129.075 230.418C128.718 228.283 128.38 226.261 128.148 224.02C127.31 216.076 128.148 212.978 129.087 209.391C129.463 207.989 129.851 206.536 130.177 204.727C131.429 198.004 130.54 187.449 130.502 187.005L125.494 187.418C125.494 187.525 126.333 197.76 125.231 203.832C124.937 205.441 124.605 206.793 124.23 208.101C123.191 211.995 122.214 215.676 123.147 224.546C123.397 226.938 123.773 229.028 124.117 231.244C124.63 234.306 125.156 237.467 125.494 241.836C125.82 246.068 124.918 256.328 124.906 256.428L129.882 256.873Z" fill="#BDBDBD" stroke="#263238" stroke-linecap="round" stroke-linejoin="round"/>
<path d="M130.834 172.845H46.2301V190.085H50.9376C53.9737 190.329 70.0306 192.495 75.4205 193.628C80.8103 194.761 85.1673 194.492 88.0093 192.007C90.8138 194.511 95.0769 194.774 100.423 193.628C105.769 192.483 121.557 190.304 124.574 190.085H130.834V172.845Z" fill="#BDBDBD" stroke="#263238" stroke-linecap="round" stroke-linejoin="round"/>
<path d="M91.0517 182.698C91.0517 182.093 90.872 181.5 90.5354 180.997C90.1988 180.493 89.7203 180.101 89.1606 179.869C88.6009 179.638 87.9851 179.578 87.3911 179.696C86.7971 179.815 86.2517 180.107 85.8238 180.536C85.396 180.965 85.1049 181.511 84.9875 182.105C84.8701 182.699 84.9316 183.315 85.1643 183.874C85.3969 184.433 85.7902 184.911 86.2945 185.247C86.7987 185.582 87.3911 185.761 87.9969 185.759C88.3986 185.759 88.7963 185.68 89.1673 185.526C89.5384 185.372 89.8754 185.147 90.1592 184.862C90.4429 184.578 90.6678 184.241 90.821 183.869C90.9741 183.498 91.0525 183.1 91.0517 182.698Z" fill="white" stroke="#263238" stroke-linecap="round" stroke-linejoin="round"/>
<path d="M130.809 172.845H46.2301V176.858H130.809V172.845Z" fill="#263238" stroke="#263238" stroke-linecap="round" stroke-linejoin="round"/>
<path d="M133.695 169.634H42.3677V174.46H133.695V169.634Z" fill="#BDBDBD" stroke="#263238" stroke-linecap="round" stroke-linejoin="round"/>
<path d="M263.346 165.852C263.352 165.835 263.352 165.816 263.345 165.798C263.338 165.781 263.325 165.767 263.308 165.759C263.292 165.752 263.273 165.753 263.257 165.76C263.24 165.767 263.227 165.78 263.221 165.796C261.193 170.656 259.59 175.683 258.432 180.82C257.259 185.952 256.378 191.145 255.79 196.376L255.408 200.32C255.352 200.977 255.277 201.635 255.233 202.292L255.126 204.264C255.07 205.578 254.989 206.893 254.951 208.214L254.989 212.164L255.032 214.136C255.032 214.793 255.108 215.45 255.151 216.108C255.252 217.422 255.333 218.737 255.452 220.045C255.702 222.668 256.078 225.272 256.504 227.87C256.506 227.886 256.515 227.901 256.528 227.911C256.54 227.921 256.556 227.927 256.572 227.927C256.582 227.929 256.593 227.93 256.603 227.928C256.613 227.926 256.623 227.922 256.631 227.916C256.64 227.91 256.647 227.903 256.652 227.893C256.657 227.884 256.659 227.874 256.66 227.864C256.66 226.549 256.597 225.241 256.566 223.926C256.535 222.612 256.416 221.316 256.435 220.001C256.453 218.687 256.403 217.385 256.391 216.083L256.353 214.123L256.391 212.164V208.245L256.497 204.333L256.541 202.373C256.541 201.747 256.616 201.071 256.648 200.42L256.892 196.508C257.336 191.297 258.076 186.116 259.108 180.989C260.078 175.83 261.496 170.765 263.346 165.852Z" fill="#263238"/>
<path d="M263.903 186.329C263.906 186.321 263.907 186.312 263.906 186.303C263.905 186.295 263.903 186.286 263.899 186.279C263.895 186.271 263.889 186.264 263.882 186.259C263.875 186.253 263.867 186.25 263.859 186.247C263.842 186.243 263.824 186.244 263.808 186.251C263.792 186.257 263.779 186.27 263.771 186.285C261.536 192.819 260.049 199.586 259.339 206.455C258.995 209.879 258.607 213.309 258.563 216.759C258.475 220.208 258.596 223.659 258.926 227.094C258.929 227.109 258.936 227.123 258.948 227.133C258.959 227.143 258.974 227.149 258.989 227.15C258.997 227.152 259.006 227.152 259.015 227.15C259.024 227.148 259.032 227.144 259.039 227.139C259.046 227.134 259.052 227.127 259.056 227.119C259.061 227.111 259.063 227.103 259.064 227.094C259.464 223.664 259.69 220.239 259.947 216.815C260.203 213.391 260.222 209.967 260.441 206.549C260.923 199.711 262.082 192.938 263.903 186.329Z" fill="#263238"/>
<path d="M275.259 193.534C275.253 193.527 275.245 193.522 275.237 193.518C275.229 193.515 275.22 193.513 275.212 193.513C275.203 193.513 275.194 193.515 275.186 193.518C275.178 193.522 275.171 193.527 275.165 193.534C272.324 195.358 269.766 197.587 267.571 200.151C266.468 201.44 265.476 202.82 264.604 204.276L263.978 205.428L263.546 206.58C263.384 206.976 263.246 207.382 263.133 207.794C263.008 208.201 262.87 208.608 262.764 209.015C261.89 212.29 261.364 215.647 261.192 219.031C261.023 222.397 261.149 225.772 261.568 229.116C261.571 229.131 261.579 229.145 261.59 229.157C261.601 229.168 261.615 229.175 261.631 229.179C261.642 229.173 261.652 229.164 261.658 229.153C261.665 229.142 261.668 229.129 261.668 229.116L262.532 219.138C262.765 215.834 263.183 212.547 263.784 209.291C263.878 208.89 263.991 208.496 264.091 208.101C264.187 207.703 264.304 207.31 264.441 206.924L264.848 205.766L265.368 204.677C266.159 203.228 267.069 201.848 268.091 200.552C270.118 197.906 272.517 195.567 275.215 193.609C275.23 193.604 275.242 193.593 275.25 193.579C275.258 193.566 275.261 193.55 275.259 193.534Z" fill="#263238"/>
<path d="M269.762 206.361C268.288 207.44 267.104 208.865 266.313 210.511C265.481 212.128 264.832 213.833 264.379 215.594C264.241 216.033 264.134 216.471 264.041 216.915L263.728 218.242C263.559 219.132 263.446 220.031 263.389 220.934C263.389 221.842 263.352 222.75 263.389 223.651C263.456 224.557 263.575 225.458 263.746 226.349C263.749 226.362 263.756 226.375 263.766 226.384C263.776 226.393 263.789 226.398 263.803 226.399C263.811 226.402 263.82 226.403 263.829 226.402C263.839 226.401 263.847 226.398 263.855 226.393C263.863 226.388 263.869 226.382 263.874 226.374C263.879 226.367 263.883 226.358 263.884 226.349C264.092 225.474 264.251 224.588 264.36 223.695C264.504 222.812 264.641 221.942 264.742 221.066C264.842 220.189 264.986 219.325 265.055 218.449C265.124 217.573 265.242 216.702 265.43 215.845C265.738 214.126 266.233 212.447 266.908 210.837C267.52 209.185 268.513 207.701 269.806 206.505C269.817 206.492 269.822 206.475 269.822 206.458C269.822 206.441 269.817 206.424 269.806 206.411C269.804 206.4 269.798 206.389 269.791 206.38C269.783 206.372 269.773 206.365 269.762 206.361Z" fill="#263238"/>
<path d="M253.843 216.364C253.467 211.932 252.735 207.544 252.046 203.156C251.358 198.768 250.588 194.392 249.787 190.01C248.985 185.628 248.09 181.296 247.145 176.958C247.143 176.949 247.14 176.941 247.136 176.934C247.131 176.927 247.125 176.921 247.118 176.917C247.111 176.912 247.103 176.909 247.095 176.907C247.087 176.906 247.078 176.906 247.07 176.908C247.061 176.909 247.052 176.912 247.044 176.917C247.036 176.922 247.03 176.929 247.024 176.936C247.019 176.944 247.015 176.953 247.014 176.962C247.012 176.971 247.012 176.98 247.013 176.989C247.773 181.358 248.47 185.74 249.104 190.135C249.768 194.517 250.394 198.899 250.951 203.281C251.508 207.663 251.915 212.089 252.466 216.477L254.087 229.667C254.089 229.684 254.097 229.7 254.109 229.712C254.122 229.723 254.139 229.73 254.156 229.729C254.165 229.73 254.174 229.729 254.182 229.727C254.19 229.724 254.198 229.719 254.204 229.714C254.211 229.708 254.216 229.7 254.22 229.692C254.223 229.684 254.225 229.676 254.225 229.667C254.275 228.553 254.275 227.438 254.306 226.324C254.338 225.21 254.262 224.102 254.237 222.987C254.2 220.796 254.006 218.58 253.843 216.364Z" fill="#263238"/>
<path d="M251.183 216.296C250.945 214.543 250.625 212.796 250.287 211.056L249.661 208.471C249.455 207.607 249.267 206.743 249.035 205.891C248.152 202.454 247.02 199.086 245.649 195.813L245.117 194.592L244.528 193.403C244.153 192.595 243.696 191.832 243.276 191.055C242.408 189.504 241.331 188.078 240.077 186.817C240.064 186.81 240.049 186.807 240.034 186.809C240.019 186.811 240.005 186.818 239.995 186.828C239.984 186.839 239.977 186.853 239.975 186.868C239.973 186.883 239.976 186.898 239.983 186.911C241.15 188.217 242.136 189.674 242.913 191.243C243.295 192.032 243.702 192.808 244.034 193.622L244.553 194.83L245.016 196.082C246.243 199.365 247.228 202.734 247.965 206.161C248.372 207.863 248.641 209.604 248.966 211.325L249.386 213.923C249.536 214.787 249.718 215.645 249.843 216.508C250.118 218.242 250.438 219.97 250.738 221.704C251.039 223.438 251.326 225.179 251.69 226.919C251.694 226.934 251.702 226.948 251.715 226.958C251.727 226.968 251.742 226.974 251.758 226.975C251.777 226.975 251.794 226.968 251.807 226.955C251.82 226.942 251.827 226.925 251.827 226.906C251.827 225.135 251.796 223.363 251.708 221.592C251.621 219.82 251.37 218.061 251.183 216.296Z" fill="#263238"/>
<path d="M247.514 216.527C246.694 214.198 245.743 211.92 244.71 209.691C243.664 207.464 242.485 205.303 241.179 203.218C241.174 203.211 241.168 203.204 241.16 203.199C241.153 203.193 241.144 203.189 241.135 203.187C241.126 203.185 241.117 203.185 241.108 203.187C241.099 203.188 241.09 203.192 241.082 203.197C241.074 203.201 241.068 203.208 241.062 203.215C241.057 203.223 241.053 203.232 241.051 203.241C241.049 203.25 241.049 203.259 241.05 203.268C241.052 203.277 241.055 203.286 241.06 203.294C242.199 205.455 243.207 207.684 244.078 209.967C244.973 212.233 245.786 214.53 246.463 216.853C247.139 219.175 247.652 221.567 248.278 223.908C248.904 226.249 249.455 228.622 250.156 230.994C250.162 231.008 250.171 231.02 250.183 231.029C250.195 231.038 250.21 231.043 250.225 231.044C250.243 231.044 250.261 231.037 250.274 231.024C250.286 231.011 250.294 230.994 250.294 230.975C250.325 228.5 250.094 226.028 249.605 223.601C249.102 221.19 248.403 218.824 247.514 216.527Z" fill="#263238"/>
<path d="M247.364 224.271C246.911 222.82 246.253 221.442 245.411 220.177C244.628 218.88 243.674 217.695 242.575 216.652C242.014 216.144 241.408 215.688 240.766 215.288C240.134 214.877 239.444 214.565 238.719 214.361C238.703 214.357 238.686 214.358 238.671 214.365C238.656 214.372 238.644 214.384 238.637 214.399C238.631 214.416 238.631 214.436 238.638 214.453C238.645 214.47 238.658 214.484 238.675 214.493C239.981 215.124 241.14 216.024 242.074 217.134C243.02 218.218 243.816 219.425 244.44 220.721C245.117 221.973 245.461 223.401 246.049 224.715C246.306 225.385 246.563 226.061 246.857 226.731C247.111 227.432 247.41 228.116 247.752 228.778C247.758 228.789 247.767 228.798 247.778 228.805C247.789 228.811 247.802 228.815 247.815 228.815C247.833 228.815 247.85 228.808 247.863 228.795C247.876 228.782 247.883 228.765 247.883 228.747C247.91 227.99 247.882 227.233 247.802 226.481C247.702 225.742 247.539 225.003 247.364 224.271Z" fill="#263238"/>
<path d="M247.639 183.33C245.426 182.711 243.423 181.5 241.848 179.826C240.273 178.153 239.184 176.081 238.7 173.834C237.022 166.009 242.425 169.364 237.586 157.076C232.747 144.788 233.861 141.989 235.533 138.452C237.204 134.915 238.143 136.03 239.633 140.687C241.123 145.345 246.519 152.581 248.572 166.197C250.625 179.812 247.639 183.33 247.639 183.33Z" fill="#E6B2F8"/>
<path d="M261.975 170.109C261.975 170.109 257.136 168.432 256.967 159.311C256.798 150.19 260.504 152.043 261.067 140.687C261.63 129.332 262.369 121.319 264.416 121.131C266.463 120.943 271.866 126.721 273.731 139.385C275.597 152.049 271.308 160.425 267.584 164.15C263.859 167.874 261.975 170.109 261.975 170.109Z" fill="#E6B2F8"/>
<path d="M245.029 194.317C245.029 194.317 243.915 187.612 241.68 184.445C239.445 181.277 234.606 178.491 231.439 172.344C228.271 166.197 224.734 163.217 224.922 171.969C225.11 180.72 229.016 185.19 233.861 188.169C238.706 191.149 245.029 194.317 245.029 194.317Z" fill="#E6B2F8"/>
<path d="M242.982 205.86C242.982 205.86 238.506 197.296 231.996 190.968C225.485 184.639 220.264 181.465 222.124 184.632C223.983 187.8 226.224 187.612 229.391 193.202C232.559 198.793 231.626 202.88 236.096 206.048C240.566 209.215 242.982 205.86 242.982 205.86Z" fill="#E6B2F8"/>
<path d="M242.425 216.846C242.237 216.289 242.049 212.195 235.72 208.84C229.391 205.485 223.432 206.793 224.177 208.471C224.922 210.148 228.828 212.94 232.741 214.618C236.653 216.296 242.425 216.846 242.425 216.846Z" fill="#E6B2F8"/>
<path d="M261.605 194.686C261.605 194.686 258.813 191.143 260.303 183.693C261.793 176.244 265.142 178.11 268.867 174.197C272.592 170.285 271.847 169.727 275.572 165.633C279.296 161.539 282.645 159.305 284.135 160.976C285.625 162.647 283.39 167.862 281.155 170.848C278.921 173.834 275.384 175.318 273.712 179.042C272.041 182.767 272.78 188.727 268.498 191.518C264.216 194.31 261.605 194.686 261.605 194.686Z" fill="#E6B2F8"/>
<path d="M270.914 196.739C270.914 196.739 277.619 189.102 282.464 183.518C287.309 177.934 289.168 173.646 289.35 177.371C289.531 181.096 291.027 184.075 287.115 188.914C283.202 193.753 270.914 196.739 270.914 196.739Z" fill="#E6B2F8"/>
<path d="M267.377 209.028C267.377 209.028 267.189 206.048 277.806 199.156C288.423 192.263 292.887 190.968 291.772 193.76C290.658 196.552 286.001 199.343 280.974 204.402C275.947 209.46 267.377 209.028 267.377 209.028Z" fill="#E6B2F8"/>
<path d="M248.084 182.535C248.084 182.535 245.58 169.177 242.982 159.68C240.384 150.184 238.7 144.412 238.7 144.412" stroke="#263238" stroke-linecap="round" stroke-linejoin="round"/>
<path d="M261.549 170.272C261.549 170.272 266.075 155.793 267.565 147.041C269.055 138.29 267.377 131.773 266.632 127.86" stroke="#263238" stroke-linecap="round" stroke-linejoin="round"/>
<path d="M244.447 194.06C242.433 190.613 240.129 187.344 237.561 184.288C233.498 179.418 230.318 176.814 228.49 172.15" stroke="#263238" stroke-linecap="round" stroke-linejoin="round"/>
<path d="M261.605 194.686C261.605 194.686 263.095 185.747 266.613 181.089C270.132 176.432 277.255 169.195 280.022 164.513" stroke="#263238" stroke-linecap="round" stroke-linejoin="round"/>
<path d="M241.987 216.646C241.987 216.646 235.727 212.565 231.251 210.33" stroke="#263238" stroke-linecap="round" stroke-linejoin="round"/>
<path d="M260.21 256.14H252.015C251.305 256.141 250.61 255.932 250.019 255.538C249.427 255.145 248.965 254.586 248.691 253.931C246.012 247.514 238.863 228.991 243.17 223.739C247.27 218.731 264.948 218.731 269.055 223.739C273.362 228.991 266.207 247.527 263.534 253.931C263.259 254.585 262.797 255.144 262.205 255.537C261.614 255.931 260.92 256.14 260.21 256.14Z" fill="#263238" stroke="#263238" stroke-linecap="round" stroke-linejoin="round"/>
<path d="M230.042 32.8776C226.104 32.8776 222.263 34.0937 219.042 36.3597C215.821 38.6257 213.379 41.831 212.048 45.5375C210.718 49.244 210.565 53.2709 211.61 57.0678C212.654 60.8647 214.846 64.2463 217.886 66.7504L212.089 76.0716L222.437 69.5361C225.042 70.6658 227.867 71.2008 230.705 71.1021C233.543 71.0035 236.324 70.2737 238.845 68.9658C241.366 67.658 243.564 65.8049 245.279 63.5413C246.994 61.2776 248.184 58.6603 248.76 55.8795C249.337 53.0987 249.288 50.2243 248.615 47.4651C247.942 44.706 246.662 42.1315 244.87 39.9287C243.077 37.7258 240.816 35.9501 238.252 34.7304C235.687 33.5107 232.882 32.8778 230.042 32.8776Z" fill="white" stroke="#263238" stroke-linecap="round" stroke-linejoin="round"/>
<path d="M226.48 66.2309V60.8974H231.883V66.2309H226.48ZM228.233 59.0069L226.612 37.8856H232.246L230.174 59.0069H228.233Z" fill="black"/>
<path d="M171.906 54.3494C171.906 54.3494 163.868 57.5107 162.234 62.2432C160.6 66.9758 161.827 68.8225 161.414 72.2592C161.001 75.696 155.968 77.6554 156.512 81.4677C157.057 85.28 162.096 84.5977 159.373 88.1784C156.65 91.7591 152.969 90.9453 155.555 96.7358C158.14 102.526 165.37 109.882 179.261 108.58C193.152 107.278 200.946 103.171 202.824 100.01C204.702 96.8485 207.043 93.4306 205.14 91.9845C203.237 90.5384 200.37 90.9328 201.728 88.1659C203.087 85.399 205.002 84.7479 203.638 80.9293C202.273 77.1107 193.966 77.9058 195.875 72.7913C197.785 67.6769 197.753 65.0289 193.559 60.2713C189.365 55.5137 180.081 50.8 171.906 54.3494Z" fill="#263238" stroke="#263238" stroke-linecap="round" stroke-linejoin="round"/>
<path d="M151.004 181.077C151.141 180.657 150.584 196.577 150.86 202.023C151.135 207.469 151.279 214.449 151.561 221.573C151.843 228.697 151.98 242.8 152.118 244.472C152.256 246.143 151.417 252.153 151.417 252.153C151.417 252.153 152.256 253.549 154.91 253.129C157.564 252.71 157.702 253.693 158.403 251.733C159.104 249.774 160.494 244.334 162.309 234.982C164.125 225.629 165.245 220.878 164.688 216.965C164.131 213.053 163.436 209.284 163.436 208.727C163.436 208.17 168.181 184.432 168.181 184.432L151.004 181.077Z" fill="white" stroke="#263238" stroke-linecap="round" stroke-linejoin="round"/>
<path d="M149.745 249.918C149.745 249.918 148.068 252.992 147.511 253.674C146.953 254.356 143.041 256.466 141.507 257.58C139.974 258.695 138.715 259.396 140.111 260.936C141.507 262.476 148.205 262.188 150.165 261.493C152.124 260.798 154.491 258.839 155.886 258.839C157.282 258.839 159.937 258.839 159.937 256.047C159.955 254.552 159.862 253.058 159.661 251.577C159.661 251.577 160.638 250.181 158.822 250.463C157.404 250.772 156.039 251.289 154.772 251.996C154.772 251.996 151.98 246.988 149.745 249.918Z" fill="#E6B2F8" stroke="#263238" stroke-linecap="round" stroke-linejoin="round"/>
<path d="M159.912 256.516C158.939 256.538 157.969 256.619 157.007 256.76C153.095 257.324 151.999 259.696 146.534 260.81C142.991 261.537 140.756 260.26 139.648 259.277C139.416 259.74 139.504 260.26 140.136 260.954C141.532 262.488 148.231 262.206 150.19 261.512C152.149 260.817 154.516 258.857 155.912 258.857C157.308 258.857 159.63 258.857 159.912 256.516Z" fill="white" stroke="#263238" stroke-linecap="round" stroke-linejoin="round"/>
<path d="M180.607 184.708C180.607 184.708 186.329 205.096 187.725 208.589C188.912 211.233 190.363 213.75 192.057 216.101C192.057 216.101 198.755 234.255 200.852 238.725C202.949 243.195 204.902 250.732 205.322 251.99C205.783 253.314 206.155 254.667 206.436 256.04C206.436 256.46 207.556 258.544 209.51 257.574C211.463 256.604 211.744 253.668 211.744 253.668C211.744 253.668 211.463 245.843 209.791 233.141C208.12 220.44 205.597 215.407 204.345 213.172C203.093 210.937 202.53 210.937 202.386 209.259C202.242 207.582 199.068 183.03 199.068 182.473C199.068 181.916 184.795 185.828 180.607 184.708Z" fill="white" stroke="#263238" stroke-linecap="round" stroke-linejoin="round"/>
<path d="M210.067 255.508C209.876 254.997 209.578 254.534 209.192 254.148C208.807 253.762 208.343 253.464 207.832 253.273C206.161 252.71 205.04 253.273 204.621 254.807C204.201 256.341 203.506 258.3 203.506 258.3C203.506 258.3 200.852 262.77 199.875 264.166C198.899 265.562 200.307 268.679 203.97 268.61C208.352 268.517 209.791 267.653 211.043 264.854C212.02 262.534 212.856 260.157 213.547 257.737C214.386 255.233 212.708 252.147 212.708 252.147L211.744 251.026C211.744 251.026 210.768 254.525 210.067 255.508Z" fill="#E6B2F8" stroke="#263238" stroke-linecap="round" stroke-linejoin="round"/>
<path d="M213.679 254.989C213.309 256.015 212.777 257.493 212.12 259.483C210.774 263.521 211 266.288 205.541 266.739C201.566 267.064 200.095 266.006 199.588 265.405C199.713 266.876 201.19 268.667 203.97 268.61C208.352 268.517 209.791 267.653 211.043 264.854C212.02 262.534 212.856 260.157 213.547 257.737C213.818 256.846 213.863 255.901 213.679 254.989Z" fill="white" stroke="#263238" stroke-linecap="round" stroke-linejoin="round"/>
<path d="M160.356 145.889C156.572 149.764 153.709 154.441 151.98 159.574C149.326 167.812 147.648 181.359 147.648 181.359C147.648 181.359 151.836 183.593 162.873 185.546C173.909 187.5 175.436 186.661 175.436 186.661C175.436 186.661 181.302 187.913 190.661 186.248C200.019 184.582 205.741 181.778 205.741 181.778C205.741 181.778 202.805 161.389 200.151 155.943C198.735 152.929 197.004 150.073 194.986 147.423L160.356 145.889Z" fill="#E6B2F8" stroke="#263238" stroke-linecap="round" stroke-linejoin="round"/>
<path d="M169.715 169.765L173.903 176.188L175.436 186.661" stroke="#263238" stroke-linecap="round" stroke-linejoin="round"/>
<path d="M189.822 148.988C189.822 148.988 191.913 151.918 192.326 157.752" stroke="#263238" stroke-linecap="round" stroke-linejoin="round"/>
<path d="M185.215 149.658L186.191 154.829" stroke="#263238" stroke-linecap="round" stroke-linejoin="round"/>
<path d="M165.665 147.567C165.665 147.567 163.705 153.013 163.568 154.409" stroke="#263238" stroke-linecap="round" stroke-linejoin="round"/>
<path d="M162.309 146.866L160.776 149.658" stroke="#263238" stroke-linecap="round" stroke-linejoin="round"/>
<path d="M160.375 142.259V145.889C160.375 145.889 164.707 148.262 177.133 149.238C189.384 150.202 195.005 147.423 195.005 147.423V144.212L160.375 142.259Z" fill="#263238" stroke="#263238" stroke-linecap="round" stroke-linejoin="round"/>
<path d="M183.568 88.8545C183.568 88.8545 183.437 95.6153 183.831 97.0738C184.226 98.5324 184.363 99.4589 187.274 98.9518C190.185 98.4448 191.249 96.8297 194.699 97.6247C198.148 98.4197 199.6 103.19 199.469 111.14C199.337 119.09 196.289 126.383 196.026 130.089C195.763 133.795 196.157 141.62 195.494 142.816C194.83 144.011 193.904 146.127 181.578 144.932C169.252 143.736 162.096 143.21 160.375 142.284C158.653 141.357 160.112 138.571 160.506 137.645C160.901 136.718 161.965 131.948 160.907 128.881C159.713 125.704 159.487 122.245 160.256 118.94C160.826 115.918 161.225 112.867 161.452 109.8C161.452 109.8 147.936 119.866 144.888 120.136C141.839 120.405 141.839 118.414 142.897 116.555C143.955 114.696 149.257 110.99 152.437 105.287C155.617 99.5841 158.272 98.0003 161.827 97.3368C165.383 96.6732 171.768 98.0003 171.768 98.0003C171.768 98.0003 173.646 91.2395 172.958 87.7965L183.568 88.8545Z" fill="white" stroke="#263238" stroke-linecap="round" stroke-linejoin="round"/>
<path d="M195.493 142.791C196.157 141.595 195.756 133.776 196.026 130.064C196.182 127.848 197.328 124.355 198.26 120.205C196.668 118.974 195.351 117.424 194.395 115.654C193.438 113.883 192.864 111.932 192.708 109.926C192.208 105.755 192.349 101.533 193.127 97.4057C190.842 97.3431 189.697 98.5074 187.274 98.9456C186.531 99.1348 185.752 99.1348 185.008 98.9456C184.013 99.8018 182.857 100.451 181.608 100.857C180.359 101.262 179.042 101.414 177.734 101.306C173.446 100.899 171.443 98.7578 170.748 97.8C169.715 97.6185 168.018 97.3556 166.253 97.2241C165.571 101.393 161.439 109.788 161.439 109.788C161.217 112.858 160.822 115.914 160.256 118.94C159.48 122.241 159.698 125.697 160.882 128.875C161.94 131.923 160.882 136.693 160.481 137.639C160.081 138.584 158.603 141.351 160.35 142.277C162.096 143.204 169.233 143.736 181.552 144.925C193.872 146.115 194.83 143.98 195.493 142.791Z" fill="white" stroke="#263238" stroke-linecap="round" stroke-linejoin="round"/>
<path d="M171.649 99.1522C172.005 99.1522 172.294 98.8636 172.294 98.5075C172.294 98.1513 172.005 97.8627 171.649 97.8627C171.293 97.8627 171.004 98.1513 171.004 98.5075C171.004 98.8636 171.293 99.1522 171.649 99.1522Z" fill="#263238" stroke="#263238" stroke-linecap="round" stroke-linejoin="round"/>
<path d="M172.3 100.21C172.3 100.038 172.232 99.8735 172.11 99.752C171.989 99.6305 171.824 99.5623 171.652 99.5623C171.48 99.5623 171.316 99.6305 171.194 99.752C171.073 99.8735 171.004 100.038 171.004 100.21C171.004 100.382 171.073 100.547 171.194 100.668C171.316 100.79 171.48 100.858 171.652 100.858C171.824 100.858 171.989 100.79 172.11 100.668C172.232 100.547 172.3 100.382 172.3 100.21Z" fill="#263238" stroke="#263238" stroke-linecap="round" stroke-linejoin="round"/>
<path d="M172.475 101.85C172.475 101.678 172.407 101.514 172.286 101.392C172.164 101.271 171.999 101.202 171.828 101.202C171.656 101.202 171.491 101.271 171.369 101.392C171.248 101.514 171.18 101.678 171.18 101.85C171.18 102.022 171.248 102.187 171.369 102.308C171.491 102.43 171.656 102.498 171.828 102.498C171.999 102.498 172.164 102.43 172.286 102.308C172.407 102.187 172.475 102.022 172.475 101.85Z" fill="#263238" stroke="#263238" stroke-linecap="round" stroke-linejoin="round"/>
<path d="M172.776 103.772C172.776 103.648 172.739 103.527 172.67 103.424C172.602 103.321 172.504 103.241 172.389 103.194C172.275 103.146 172.149 103.134 172.028 103.158C171.906 103.182 171.795 103.242 171.707 103.329C171.62 103.417 171.56 103.529 171.536 103.65C171.512 103.771 171.524 103.897 171.572 104.012C171.619 104.126 171.699 104.224 171.802 104.293C171.905 104.361 172.026 104.398 172.15 104.398C172.316 104.398 172.475 104.332 172.593 104.215C172.71 104.097 172.776 103.938 172.776 103.772Z" fill="#263238" stroke="#263238" stroke-linecap="round" stroke-linejoin="round"/>
<path d="M172.3 106.276C172.656 106.276 172.945 105.987 172.945 105.631C172.945 105.275 172.656 104.987 172.3 104.987C171.944 104.987 171.655 105.275 171.655 105.631C171.655 105.987 171.944 106.276 172.3 106.276Z" fill="#263238" stroke="#263238" stroke-linecap="round" stroke-linejoin="round"/>
<path d="M173.271 107.334C173.271 107.162 173.202 106.997 173.081 106.876C172.959 106.754 172.794 106.686 172.623 106.686C172.451 106.686 172.286 106.754 172.164 106.876C172.043 106.997 171.975 107.162 171.975 107.334C171.975 107.506 172.043 107.671 172.164 107.792C172.286 107.914 172.451 107.982 172.623 107.982C172.794 107.982 172.959 107.914 173.081 107.792C173.202 107.671 173.271 107.506 173.271 107.334Z" fill="#263238" stroke="#263238" stroke-linecap="round" stroke-linejoin="round"/>
<path d="M173.515 109.112C173.515 108.988 173.478 108.867 173.409 108.764C173.34 108.661 173.243 108.581 173.128 108.533C173.014 108.486 172.888 108.474 172.767 108.498C172.645 108.522 172.534 108.582 172.446 108.669C172.358 108.757 172.299 108.868 172.275 108.99C172.251 109.111 172.263 109.237 172.31 109.351C172.358 109.466 172.438 109.564 172.541 109.632C172.644 109.701 172.765 109.738 172.889 109.738C173.055 109.738 173.214 109.672 173.331 109.554C173.449 109.437 173.515 109.278 173.515 109.112Z" fill="#263238" stroke="#263238" stroke-linecap="round" stroke-linejoin="round"/>
<path d="M173.834 110.489C173.834 110.365 173.797 110.244 173.728 110.141C173.66 110.038 173.562 109.958 173.447 109.911C173.333 109.863 173.207 109.851 173.086 109.875C172.964 109.899 172.853 109.959 172.765 110.046C172.678 110.134 172.618 110.245 172.594 110.367C172.57 110.488 172.582 110.614 172.63 110.729C172.677 110.843 172.757 110.941 172.86 111.01C172.963 111.078 173.084 111.115 173.208 111.115C173.374 111.115 173.533 111.049 173.651 110.932C173.768 110.814 173.834 110.655 173.834 110.489Z" fill="#263238" stroke="#263238" stroke-linecap="round" stroke-linejoin="round"/>
<path d="M174.159 112.054C174.159 111.93 174.123 111.809 174.054 111.706C173.985 111.603 173.887 111.523 173.773 111.476C173.659 111.428 173.533 111.416 173.411 111.44C173.29 111.464 173.178 111.524 173.091 111.611C173.003 111.699 172.944 111.811 172.919 111.932C172.895 112.053 172.908 112.179 172.955 112.294C173.003 112.408 173.083 112.506 173.186 112.575C173.289 112.643 173.41 112.68 173.533 112.68C173.699 112.68 173.859 112.614 173.976 112.497C174.094 112.379 174.159 112.22 174.159 112.054Z" fill="#263238" stroke="#263238" stroke-linecap="round" stroke-linejoin="round"/>
<path d="M174.892 113.644C174.892 113.52 174.855 113.399 174.786 113.296C174.718 113.193 174.62 113.113 174.505 113.066C174.391 113.018 174.265 113.006 174.144 113.03C174.022 113.054 173.911 113.114 173.823 113.201C173.736 113.289 173.676 113.401 173.652 113.522C173.628 113.643 173.64 113.769 173.688 113.884C173.735 113.998 173.815 114.096 173.918 114.165C174.021 114.233 174.142 114.27 174.266 114.27C174.432 114.27 174.591 114.204 174.709 114.087C174.826 113.969 174.892 113.81 174.892 113.644Z" fill="#263238" stroke="#263238" stroke-linecap="round" stroke-linejoin="round"/>
<path d="M175.292 115.428C175.649 115.428 175.937 115.14 175.937 114.783C175.937 114.427 175.649 114.139 175.292 114.139C174.936 114.139 174.648 114.427 174.648 114.783C174.648 115.14 174.936 115.428 175.292 115.428Z" fill="#263238" stroke="#263238" stroke-linecap="round" stroke-linejoin="round"/>
<path d="M176.751 115.585C177.107 115.585 177.396 115.296 177.396 114.94C177.396 114.584 177.107 114.295 176.751 114.295C176.395 114.295 176.106 114.584 176.106 114.94C176.106 115.296 176.395 115.585 176.751 115.585Z" fill="#263238" stroke="#263238" stroke-linecap="round" stroke-linejoin="round"/>
<path d="M178.61 115.503C178.966 115.503 179.255 115.215 179.255 114.859C179.255 114.502 178.966 114.214 178.61 114.214C178.254 114.214 177.966 114.502 177.966 114.859C177.966 115.215 178.254 115.503 178.61 115.503Z" fill="#263238" stroke="#263238" stroke-linecap="round" stroke-linejoin="round"/>
<path d="M180.15 114.696C180.506 114.696 180.795 114.407 180.795 114.051C180.795 113.695 180.506 113.406 180.15 113.406C179.794 113.406 179.505 113.695 179.505 114.051C179.505 114.407 179.794 114.696 180.15 114.696Z" fill="#263238" stroke="#263238" stroke-linecap="round" stroke-linejoin="round"/>
<path d="M182.016 112.68C182.016 112.556 181.979 112.435 181.91 112.332C181.841 112.229 181.744 112.149 181.629 112.102C181.515 112.054 181.389 112.042 181.268 112.066C181.146 112.09 181.035 112.15 180.947 112.237C180.859 112.325 180.8 112.437 180.776 112.558C180.752 112.679 180.764 112.805 180.811 112.92C180.859 113.034 180.939 113.132 181.042 113.201C181.145 113.269 181.266 113.306 181.39 113.306C181.556 113.306 181.715 113.24 181.832 113.123C181.95 113.005 182.016 112.846 182.016 112.68Z" fill="#263238" stroke="#263238" stroke-linecap="round" stroke-linejoin="round"/>
<path d="M182.416 111.703C182.772 111.703 183.061 111.415 183.061 111.059C183.061 110.703 182.772 110.414 182.416 110.414C182.06 110.414 181.772 110.703 181.772 111.059C181.772 111.415 182.06 111.703 182.416 111.703Z" fill="#263238" stroke="#263238" stroke-linecap="round" stroke-linejoin="round"/>
<path d="M183.631 109.55C183.631 109.426 183.594 109.305 183.525 109.202C183.457 109.099 183.359 109.019 183.244 108.972C183.13 108.924 183.004 108.912 182.883 108.936C182.761 108.96 182.65 109.02 182.562 109.107C182.475 109.195 182.415 109.307 182.391 109.428C182.367 109.549 182.379 109.675 182.426 109.79C182.474 109.904 182.554 110.002 182.657 110.071C182.76 110.139 182.881 110.176 183.005 110.176C183.171 110.176 183.33 110.11 183.447 109.993C183.565 109.875 183.631 109.716 183.631 109.55Z" fill="#263238" stroke="#263238" stroke-linecap="round" stroke-linejoin="round"/>
<path d="M184.445 107.979C184.445 107.855 184.408 107.734 184.339 107.631C184.27 107.528 184.173 107.448 184.058 107.4C183.944 107.353 183.818 107.341 183.697 107.365C183.575 107.389 183.464 107.449 183.376 107.536C183.288 107.624 183.229 107.735 183.205 107.857C183.18 107.978 183.193 108.104 183.24 108.218C183.288 108.333 183.368 108.43 183.471 108.499C183.574 108.568 183.695 108.605 183.819 108.605C183.985 108.605 184.144 108.539 184.261 108.421C184.379 108.304 184.445 108.145 184.445 107.979Z" fill="#263238" stroke="#263238" stroke-linecap="round" stroke-linejoin="round"/>
<path d="M184.2 107.009C184.557 107.009 184.845 106.72 184.845 106.364C184.845 106.008 184.557 105.719 184.2 105.719C183.844 105.719 183.556 106.008 183.556 106.364C183.556 106.72 183.844 107.009 184.2 107.009Z" fill="#263238" stroke="#263238" stroke-linecap="round" stroke-linejoin="round"/>
<path d="M185.734 104.824C185.734 104.7 185.697 104.579 185.629 104.476C185.56 104.373 185.462 104.293 185.348 104.245C185.233 104.198 185.107 104.186 184.986 104.21C184.865 104.234 184.753 104.294 184.666 104.381C184.578 104.469 184.518 104.58 184.494 104.702C184.47 104.823 184.482 104.949 184.53 105.063C184.577 105.178 184.657 105.275 184.76 105.344C184.863 105.413 184.984 105.45 185.108 105.45C185.274 105.45 185.433 105.384 185.551 105.266C185.668 105.149 185.734 104.99 185.734 104.824Z" fill="#263238" stroke="#263238" stroke-linecap="round" stroke-linejoin="round"/>
<path d="M186.141 103.365C186.141 103.193 186.073 103.029 185.951 102.907C185.83 102.786 185.665 102.717 185.493 102.717C185.321 102.717 185.156 102.786 185.035 102.907C184.913 103.029 184.845 103.193 184.845 103.365C184.845 103.537 184.913 103.702 185.035 103.823C185.156 103.945 185.321 104.013 185.493 104.013C185.665 104.013 185.83 103.945 185.951 103.823C186.073 103.702 186.141 103.537 186.141 103.365Z" fill="#263238" stroke="#263238" stroke-linecap="round" stroke-linejoin="round"/>
<path d="M186.548 101.744C186.548 101.62 186.511 101.499 186.443 101.396C186.374 101.293 186.276 101.213 186.162 101.165C186.047 101.118 185.921 101.106 185.8 101.13C185.678 101.154 185.567 101.214 185.479 101.301C185.392 101.389 185.332 101.5 185.308 101.622C185.284 101.743 185.296 101.869 185.344 101.983C185.391 102.098 185.471 102.196 185.574 102.264C185.677 102.333 185.798 102.37 185.922 102.37C186.088 102.37 186.247 102.304 186.365 102.186C186.482 102.069 186.548 101.91 186.548 101.744Z" fill="#263238" stroke="#263238" stroke-linecap="round" stroke-linejoin="round"/>
<path d="M186.949 100.373C186.949 100.249 186.912 100.128 186.843 100.025C186.774 99.9222 186.677 99.842 186.562 99.7946C186.448 99.7472 186.322 99.7348 186.201 99.759C186.079 99.7831 185.968 99.8428 185.88 99.9303C185.792 100.018 185.733 100.129 185.709 100.251C185.685 100.372 185.697 100.498 185.744 100.613C185.792 100.727 185.872 100.825 185.975 100.893C186.078 100.962 186.199 100.999 186.323 100.999C186.489 100.999 186.648 100.933 186.765 100.816C186.883 100.698 186.949 100.539 186.949 100.373Z" fill="#263238" stroke="#263238" stroke-linecap="round" stroke-linejoin="round"/>
<path d="M186.629 99.5717C186.986 99.5717 187.274 99.283 187.274 98.9269C187.274 98.5708 186.986 98.2821 186.629 98.2821C186.273 98.2821 185.985 98.5708 185.985 98.9269C185.985 99.283 186.273 99.5717 186.629 99.5717Z" fill="#263238" stroke="#263238" stroke-linecap="round" stroke-linejoin="round"/>
<path d="M180.958 61.974C180.958 61.974 179.706 65.0539 178.955 65.9804C178.203 66.9069 175.724 67.9836 173.414 67.8271C171.105 67.6706 169.558 66.9069 167.405 68.9038C165.251 70.9008 166.153 74.6067 166.153 75.2202C166.153 75.8336 167.849 85.3864 168.463 87.2394C169.076 89.0923 175.28 93.1112 177.108 93.274C178.936 93.4368 183.424 90.8138 185.121 89.1174C186.817 87.4209 187.124 82.1875 187.581 80.7978C188.038 79.4081 188.357 74.0245 188.357 74.0245C188.499 73.2222 188.396 72.3958 188.061 71.6531C187.726 70.9104 187.175 70.2861 186.479 69.8616C184.044 68.1526 180.344 64.9225 180.958 61.974Z" fill="white" stroke="#263238" stroke-linecap="round" stroke-linejoin="round"/>
<path d="M175.192 79.6523C175.192 79.6523 176.25 80.7102 177.233 80.6289C178.109 80.4972 178.899 80.0303 179.437 79.3268" stroke="#263238" stroke-linecap="round" stroke-linejoin="round"/>
<path d="M169.158 72.0651C169.158 72.0651 169.646 69.7865 172.663 70.2748" stroke="#263238" stroke-linecap="round" stroke-linejoin="round"/>
<path d="M180.576 70.0307C180.576 70.0307 184.082 69.292 184.958 71.5769" stroke="#263238" stroke-linecap="round" stroke-linejoin="round"/>
<path d="M172.86 77.2036C173.332 77.1602 173.646 76.3798 173.561 75.4606C173.476 74.5414 173.025 73.8314 172.554 73.8749C172.082 73.9183 171.768 74.6987 171.853 75.6179C171.938 76.5371 172.389 77.2471 172.86 77.2036Z" fill="#263238"/>
<path d="M182.692 75.6272C182.585 76.5474 182.122 77.2485 181.653 77.1984C181.183 77.1483 180.889 76.3533 180.989 75.4394C181.089 74.5254 181.559 73.818 182.028 73.8744C182.498 73.9307 182.792 74.7132 182.692 75.6272Z" fill="#263238"/>
<path d="M166.384 76.7163C166.384 76.7163 164.751 73.2107 163.774 76.1467C162.797 79.0826 164.262 80.6288 165.164 81.3675C165.92 81.9526 166.708 82.4959 167.524 82.9951L166.384 76.7163Z" fill="white" stroke="#263238" stroke-linecap="round" stroke-linejoin="round"/>
<path d="M188.326 76.372C188.326 76.372 189.953 73.868 190.611 76.1279C191.268 78.3877 190.529 79.7962 189.628 80.7791C188.848 81.5716 188.011 82.3059 187.124 82.9763L187.944 79.7149L188.326 76.372Z" fill="white" stroke="#263238" stroke-linecap="round" stroke-linejoin="round"/>
<path d="M166.222 100.122C166.222 100.122 167.28 93.6809 167.605 92.1347C167.931 90.5885 168.751 89.0047 169.402 86.3442C170.053 83.6837 170.541 83.571 171.117 84.1407C171.693 84.7104 171.605 86.0938 171.443 86.7511C171.28 87.4084 171.036 88.4601 171.036 88.4601C171.036 88.4601 172.989 85.6055 173.727 84.3848C174.466 83.1641 175.03 82.5068 175.605 82.6696C175.72 82.704 175.827 82.7617 175.919 82.8389C176.01 82.9162 176.085 83.0115 176.139 83.1189C176.192 83.2263 176.223 83.3435 176.229 83.4633C176.235 83.583 176.217 83.7028 176.175 83.8152C176.68 83.1644 177.144 82.4828 177.565 81.7744C177.728 81.4489 178.297 81.3675 178.786 81.9372C178.954 82.1203 179.067 82.348 179.11 82.5932C179.153 82.8384 179.126 83.0908 179.03 83.3206C178.948 83.7338 178.135 86.1752 178.135 86.1752C178.135 86.1752 179.28 85.1173 179.768 85.28C180.257 85.4428 180.257 86.3442 179.687 87.4022C179.117 88.4601 178.541 91.1582 178.379 91.7842C178.216 92.4102 178.009 93.2427 178.009 93.2427C178.815 92.7182 179.498 92.0265 180.013 91.2145C180.908 89.831 181.152 88.9296 181.559 89.4241C181.966 89.9187 181.559 90.7262 181.07 91.7842C180.49 93.5467 179.414 95.1049 177.972 96.2726C175.524 98.4761 172.964 101.281 171.937 102.389C170.91 103.497 164.676 110.627 161.089 114.871C157.502 119.115 151.304 125.306 149.67 127.022C148.036 128.737 146.002 130.853 142.083 128.411C138.164 125.97 139.473 120.092 142.165 117.4C144.856 114.708 159.211 107.447 161.74 105.243C163.425 103.714 164.929 101.996 166.222 100.122Z" fill="white" stroke="#263238" stroke-linecap="round" stroke-linejoin="round"/>
<path d="M176.169 83.8152L172.745 91.396" stroke="#263238" stroke-linecap="round" stroke-linejoin="round"/>
<path d="M178.128 86.1752L175.518 92.7043" stroke="#263238" stroke-linecap="round" stroke-linejoin="round"/>
<path d="M178.003 93.2615L177.314 94.6575" stroke="#263238" stroke-linecap="round" stroke-linejoin="round"/>
<path d="M171.036 88.4601C171.036 88.4601 169.264 90.0126 168.864 91.2145" stroke="#263238" stroke-linecap="round" stroke-linejoin="round"/>
<path d="M197.04 110.752L207.531 121.726C207.531 121.726 199.901 131.623 197.634 134.127C196.421 135.498 195.105 136.775 193.697 137.945C193.697 137.945 190.241 137.226 189.165 136.274C188.088 135.323 187.287 133.77 185.471 132.574C183.656 131.379 178.792 130.909 179.149 131.98C179.505 133.05 182.491 133.294 182.491 133.294L185.352 135.917L185.978 137.795C184.962 137.484 184.026 136.954 183.236 136.243C182.166 135.166 179.061 134.333 179.299 135.767C179.537 137.201 180.732 137.194 182.429 138.747C184.125 140.299 184.307 141.608 186.003 142.559C187.142 143.146 188.435 143.365 189.703 143.185C190.143 143.602 190.672 143.915 191.249 144.1C191.827 144.286 192.439 144.339 193.04 144.256C195.187 144.018 196.019 143.423 196.977 142.108C197.935 140.794 211.469 132.337 213.466 129.714C215.463 127.091 219.908 122.558 220.145 121.131C220.383 119.704 217.522 116.242 215.137 113.375C212.752 110.508 210.192 107.359 204.408 100.379C200.946 96.2038 195.819 95.1333 192.601 98.232" fill="white"/>
<path d="M197.04 110.752L207.531 121.726C207.531 121.726 199.901 131.623 197.634 134.127C196.421 135.498 195.105 136.775 193.697 137.945C193.697 137.945 190.241 137.226 189.165 136.274C188.088 135.323 187.287 133.77 185.471 132.574C183.656 131.379 178.792 130.909 179.149 131.98C179.505 133.05 182.491 133.294 182.491 133.294L185.352 135.917L185.978 137.795C184.962 137.484 184.026 136.954 183.236 136.243C182.166 135.166 179.061 134.333 179.299 135.767C179.537 137.201 180.732 137.194 182.429 138.747C184.125 140.299 184.307 141.608 186.003 142.559C187.142 143.146 188.435 143.365 189.703 143.185C190.143 143.602 190.672 143.915 191.249 144.1C191.827 144.286 192.439 144.339 193.04 144.256C195.187 144.018 196.019 143.423 196.977 142.108C197.935 140.794 211.469 132.337 213.466 129.714C215.463 127.091 219.908 122.558 220.145 121.131C220.383 119.704 217.522 116.242 215.137 113.375C212.752 110.508 210.192 107.359 204.408 100.379C200.946 96.2038 195.819 95.1333 192.601 98.232" stroke="#263238" stroke-linecap="round" stroke-linejoin="round"/>
<path d="M189.766 135.579C189.766 135.579 186.636 132.349 185.753 131.879C184.87 131.41 183.794 132.186 182.492 133.294C181.189 134.402 181.866 134.79 182.679 134.546C183.493 134.302 185.277 133.444 185.277 133.444L187.781 136.75" fill="white"/>
<path d="M189.766 135.579C189.766 135.579 186.636 132.349 185.753 131.879C184.87 131.41 183.794 132.186 182.492 133.294C181.189 134.402 181.866 134.79 182.679 134.546C183.493 134.302 185.277 133.444 185.277 133.444L187.781 136.75" stroke="#263238" stroke-linecap="round" stroke-linejoin="round"/>
<path d="M192.051 136.524C192.051 136.524 190.473 134.158 190.003 133.926C189.534 133.695 187.086 136.837 186.773 137.545C186.46 138.252 186.066 139.673 186.93 139.423C187.794 139.172 188.664 138.083 189.058 137.614C189.384 137.295 189.795 137.078 190.241 136.988L190.867 137.776" fill="white"/>
<path d="M192.051 136.524C192.051 136.524 190.473 134.158 190.003 133.926C189.534 133.695 187.086 136.837 186.773 137.545C186.46 138.252 186.066 139.673 186.93 139.423C187.794 139.172 188.664 138.083 189.058 137.614C189.384 137.295 189.795 137.078 190.241 136.988L190.867 137.776" stroke="#263238" stroke-linecap="round" stroke-linejoin="round"/>
<path d="M194.329 139.197C193.962 138.166 193.461 137.187 192.839 136.286C192.126 135.498 190.711 136.443 190.241 136.994C189.772 137.545 189.453 139.748 189.133 140.456C188.814 141.163 189.371 141.326 190.079 140.775C190.74 140.168 191.323 139.48 191.813 138.728" fill="white"/>
<path d="M194.329 139.197C193.962 138.166 193.461 137.187 192.839 136.286C192.126 135.498 190.711 136.443 190.241 136.994C189.772 137.545 189.453 139.748 189.133 140.456C188.814 141.163 189.371 141.326 190.079 140.775C190.74 140.168 191.323 139.48 191.813 138.728" stroke="#263238" stroke-linecap="round" stroke-linejoin="round"/>
</g>
</svg>
