<svg width="331" height="272" viewBox="0 0 331 272" fill="none" xmlns="http://www.w3.org/2000/svg">
<g clip-path="url(#clip0_282_4848)">
<path d="M81.7003 248.192L82.3735 262.413L82.3735 262.414C82.4871 264.818 81.6433 267.168 80.0278 268.948C78.4122 270.728 76.1572 271.793 73.7588 271.907L73.4649 271.921L72.3627 248.636L81.7003 248.192Z" fill="#2F2E41"/>
<path d="M283.459 224.159C276.7 237.377 268.128 250.161 257.281 261.731C257.04 261.992 256.797 262.247 256.551 262.506L230.852 250.313C231.009 250.052 231.181 249.758 231.367 249.436C242.406 230.508 309.046 115.04 306.94 88.8879C307.185 91.0448 315.084 162.375 283.459 224.159Z" fill="#E6E6E6"/>
<path d="M262.239 264.083C261.879 264.288 261.51 264.489 261.139 264.683L241.86 255.536C242.129 255.344 242.443 255.118 242.804 254.863C248.711 250.613 266.274 237.862 283.459 224.159C301.927 209.433 319.963 193.61 322.641 186.057C322.097 187.789 305.193 240.435 262.239 264.083Z" fill="#E6E6E6"/>
<path d="M32.0697 271.353C48.5017 271.353 61.8225 258.003 61.8225 241.536C61.8225 225.068 48.5017 211.719 32.0697 211.719C15.6377 211.719 2.31691 225.068 2.31691 241.536C2.31691 258.003 15.6377 271.353 32.0697 271.353Z" fill="#C958F0"/>
<path d="M43.9877 229.023H20.1517C19.0985 229.025 18.0887 229.444 17.3439 230.191C16.5992 230.937 16.1803 231.949 16.1791 233.005V250.067C16.1802 251.123 16.5992 252.134 17.3439 252.881C18.0887 253.627 19.0985 254.047 20.1517 254.048H43.9877C45.041 254.047 46.0508 253.627 46.7955 252.881C47.5403 252.134 47.9592 251.123 47.9604 250.067V233.005C47.9592 231.949 47.5403 230.937 46.7955 230.191C46.0507 229.444 45.041 229.025 43.9877 229.023ZM43.9877 231.298C44.13 231.299 44.2717 231.318 44.4094 231.354L32.0725 241.216L19.8077 231.333C19.9209 231.31 20.0361 231.298 20.1517 231.298H43.9877ZM43.9877 251.773H20.1517C19.7003 251.773 19.2676 251.593 18.9484 251.273C18.6292 250.953 18.4497 250.519 18.4492 250.067V233.158L31.3585 243.56C31.5596 243.722 31.8096 243.81 32.0676 243.811C32.3255 243.811 32.5759 243.724 32.7775 243.563L45.6903 233.24V250.067C45.6898 250.519 45.5103 250.953 45.1911 251.273C44.8719 251.593 44.4391 251.773 43.9877 251.773Z" fill="white"/>
<path d="M146.893 198.488L153.55 198.543C154.224 198.548 154.89 198.406 155.504 198.127C156.117 197.848 156.662 197.438 157.101 196.926C157.54 196.414 157.862 195.812 158.045 195.163C158.229 194.513 158.268 193.831 158.161 193.164C158.046 192.447 157.764 191.767 157.339 191.178C156.914 190.59 156.357 190.11 155.713 189.777C155.068 189.443 154.355 189.266 153.63 189.26C152.905 189.253 152.189 189.417 151.538 189.739L145.26 192.843L123.788 197.642L114.588 188.217L109.304 196.938L121.718 206.55L146.893 198.488Z" fill="#FFB8B8"/>
<path d="M145.645 267.417L137.802 268.928C132.444 252.004 126.639 235.976 126.64 223.58C119.058 232.037 109.656 236.875 98.5846 238.394L99.7913 219.65L108.841 214.813L122.692 208.406C123.905 207.846 125.213 207.521 126.547 207.451C129.14 207.314 131.692 208.143 133.712 209.779C135.731 211.415 137.075 213.742 137.486 216.312L145.645 267.417Z" fill="#2F2E41"/>
<path d="M108.087 236.127L104.961 238.508C103.617 239.531 102.029 240.185 100.355 240.404C98.6804 240.623 96.9783 240.399 95.4171 239.755C86.4632 233.029 80.102 235.013 74.3366 245.165C67.4213 237.343 65.7152 226.047 71.8869 214.36L106.126 215.115L113.065 212.999L108.087 236.127Z" fill="#2F2E41"/>
<path d="M96.6842 271.154C94.7223 271.759 92.6105 271.652 90.7188 270.854C88.8271 270.055 87.2762 268.615 86.3378 266.785C83.2607 264.069 80.6644 260.18 78.4126 255.451C76.7969 251.983 75.4096 248.411 74.2594 244.761C72.7013 239.938 75.3067 234.669 80.156 233.226C80.3002 233.183 80.4461 233.143 80.5938 233.105C87.0674 231.439 93.7153 235.181 95.9281 241.501L102.363 259.879C102.743 260.965 102.906 262.115 102.842 263.263C102.779 264.412 102.49 265.537 101.993 266.574C101.496 267.611 100.8 268.54 99.9443 269.308C99.0889 270.075 98.091 270.666 97.0077 271.047C96.9006 271.085 96.7928 271.12 96.6842 271.154Z" fill="#2F2E41"/>
<path opacity="0.2" d="M77.3169 253.359C77.3169 253.359 84.8586 261.824 86.367 266.661L77.3169 253.359Z" fill="#1B0915"/>
<path d="M48.0671 213.41L45.5431 219.583C45.2877 220.208 45.1713 220.881 45.2021 221.555C45.2329 222.23 45.4101 222.889 45.7214 223.488C46.0327 224.087 46.4706 224.61 47.0044 225.022C47.5383 225.433 48.1554 225.723 48.8126 225.872C49.5199 226.031 50.2547 226.022 50.9578 225.845C51.661 225.668 52.3128 225.328 52.8609 224.852C53.409 224.376 53.838 223.779 54.1134 223.106C54.3888 222.434 54.503 221.707 54.4467 220.982L53.9028 213.988L57.4344 192.226L69.5841 187.169L63.4671 179.012L49.951 186.991L48.0671 213.41Z" fill="#FFB8B8"/>
<path d="M108.389 214.36C99.7211 228.95 82.4419 234.6 67.6422 223.175C70.2456 214.602 78.6509 190.91 73.2209 190.003C61.6917 194.849 61.675 183.472 59.5184 177.779L85.7636 168.105L99.9421 172.035L102.848 173.068C104.74 173.741 106.381 174.978 107.55 176.613C108.719 178.248 109.36 180.202 109.388 182.214C103.432 190.836 99.0226 200.035 108.389 214.36Z" fill="#C958F0"/>
<path d="M111.707 202.569L101.3 193.953L104.769 173.849L118.947 188.965L111.707 202.569Z" fill="#C958F0"/>
<path d="M284.401 64.4586H282.914V23.6299C282.914 17.3629 280.429 11.3525 276.008 6.92104C271.586 2.48957 265.588 0 259.335 0H173.019C166.766 0 160.768 2.48957 156.346 6.92104C151.924 11.3525 149.44 17.3629 149.44 23.6299V247.62C149.44 253.887 151.924 259.897 156.346 264.329C160.768 268.76 166.766 271.25 173.019 271.25H259.334C265.588 271.25 271.585 268.76 276.007 264.329C280.429 259.897 282.913 253.887 282.913 247.62V93.5211H284.401L284.401 64.4586Z" fill="#3F3D56"/>
<path d="M260.286 6.14723H249.019C249.537 7.42037 249.735 8.80174 249.595 10.1696C249.456 11.5375 248.982 12.85 248.217 13.9913C247.451 15.1326 246.418 16.0677 245.207 16.7143C243.996 17.3609 242.645 17.6991 241.273 17.699H191.824C190.452 17.6989 189.101 17.3607 187.89 16.7141C186.68 16.0676 185.646 15.1326 184.881 13.9914C184.116 12.8503 183.642 11.538 183.502 10.1703C183.362 8.80262 183.56 7.4214 184.078 6.14835H173.553C168.883 6.14835 164.404 8.00759 161.102 11.3171C157.799 14.6266 155.944 19.1152 155.944 23.7955V247.455C155.944 252.136 157.799 256.624 161.102 259.934C164.404 263.243 168.883 265.103 173.553 265.103H260.283C264.953 265.103 269.432 263.243 272.734 259.934C276.037 256.624 277.892 252.136 277.892 247.455V247.455V23.7944C277.892 19.114 276.037 14.6254 272.734 11.3159C269.432 8.00646 264.953 6.14722 260.283 6.14722H260.286L260.286 6.14723Z" fill="white"/>
<path d="M217.068 252.604C222.409 252.604 226.738 248.265 226.738 242.913C226.738 237.561 222.409 233.223 217.068 233.223C211.728 233.223 207.399 237.561 207.399 242.913C207.399 248.265 211.728 252.604 217.068 252.604Z" fill="#E6E6E6"/>
<path d="M177.841 153.295C176.927 153.295 176.183 154.146 176.183 155.192C176.183 156.237 176.927 157.088 177.841 157.088H255.995C256.909 157.088 257.653 156.237 257.653 155.192C257.653 154.146 256.909 153.295 255.995 153.295H177.841Z" fill="#E6E6E6"/>
<path d="M177.841 198.021C176.927 198.021 176.183 198.872 176.183 199.917C176.183 200.963 176.927 201.814 177.841 201.814H255.995C256.909 201.814 257.653 200.963 257.653 199.917C257.653 198.872 256.909 198.021 255.995 198.021H177.841Z" fill="#E6E6E6"/>
<path d="M177.841 164.673C176.927 164.673 176.183 165.524 176.183 166.57C176.183 167.615 176.927 168.466 177.841 168.466H211.471C212.385 168.466 213.129 167.615 213.129 166.57C213.129 165.524 212.385 164.673 211.471 164.673H177.841Z" fill="#E6E6E6"/>
<path d="M177.841 175.519C176.927 175.519 176.183 176.37 176.183 177.415C176.183 178.461 176.927 179.311 177.841 179.311H255.995C256.909 179.311 257.653 178.461 257.653 177.415C257.653 176.37 256.909 175.519 255.995 175.519H177.841Z" fill="#E6E6E6"/>
<path d="M177.841 186.897C176.927 186.897 176.183 187.748 176.183 188.793C176.183 189.839 176.927 190.689 177.841 190.689H211.471C212.385 190.689 213.129 189.839 213.129 188.793C213.129 187.748 212.385 186.897 211.471 186.897H177.841Z" fill="#E6E6E6"/>
<path d="M192.595 66.949H241.246C241.783 66.9496 242.298 67.1639 242.678 67.5447C243.058 67.9255 243.272 68.4419 243.273 68.9804V119.757C243.272 120.296 243.058 120.812 242.678 121.193C242.298 121.574 241.783 121.788 241.246 121.789H192.595C192.057 121.788 191.542 121.574 191.162 121.193C190.782 120.812 190.568 120.296 190.568 119.757V68.9804C190.568 68.4419 190.782 67.9255 191.162 67.5447C191.542 67.1638 192.057 66.9496 192.595 66.949Z" fill="#C958F0"/>
<path d="M230.879 111.318C231.06 111.318 231.239 111.283 231.407 111.214C231.574 111.145 231.726 111.043 231.854 110.915C231.982 110.787 232.084 110.635 232.153 110.468C232.222 110.3 232.258 110.121 232.258 109.939C232.258 109.758 232.223 109.579 232.154 109.411C232.084 109.244 231.983 109.091 231.855 108.963C231.727 108.835 231.575 108.733 231.408 108.664C231.241 108.595 231.061 108.559 230.881 108.56H202.961C202.78 108.559 202.601 108.595 202.434 108.664C202.267 108.733 202.115 108.834 201.987 108.962C201.859 109.09 201.757 109.242 201.688 109.41C201.618 109.577 201.582 109.757 201.582 109.938C201.582 110.119 201.618 110.299 201.687 110.466C201.756 110.634 201.858 110.786 201.986 110.914C202.114 111.042 202.266 111.144 202.433 111.213C202.6 111.283 202.779 111.318 202.96 111.318H230.879Z" fill="white"/>
<path d="M230.879 103.192C231.244 103.192 231.594 103.047 231.852 102.788C232.11 102.529 232.255 102.179 232.255 101.813C232.255 101.447 232.11 101.096 231.852 100.838C231.594 100.579 231.244 100.434 230.879 100.434H202.961C202.596 100.433 202.246 100.579 201.988 100.837C201.73 101.096 201.585 101.446 201.585 101.812C201.584 102.178 201.729 102.529 201.987 102.788C202.245 103.046 202.595 103.192 202.96 103.192H230.879Z" fill="white"/>
<path d="M216.92 77.4202C218.634 77.4202 220.308 77.9293 221.733 78.8832C223.158 79.8372 224.268 81.193 224.924 82.7793C225.579 84.3657 225.751 86.1112 225.416 87.7952C225.082 89.4792 224.257 91.0261 223.046 92.2402C221.834 93.4544 220.291 94.2812 218.61 94.6162C216.93 94.9511 215.188 94.7792 213.605 94.1221C212.022 93.4651 210.669 92.3523 209.717 90.9247C208.766 89.497 208.257 87.8186 208.257 86.1016C208.26 83.7999 209.174 81.5933 210.798 79.9658C212.422 78.3382 214.623 77.4228 216.92 77.4202Z" fill="white"/>
<path d="M106.39 165.473H80.6726C80.1436 165.472 79.6364 165.261 79.2623 164.886C78.8883 164.512 78.6779 164.003 78.6773 163.473V152.364C78.6773 148.416 80.2422 144.63 83.0279 141.838C85.8136 139.046 89.5918 137.478 93.5314 137.478C97.4709 137.478 101.249 139.046 104.035 141.838C106.82 144.63 108.385 148.416 108.385 152.364V163.473C108.385 164.003 108.174 164.512 107.8 164.886C107.426 165.261 106.919 165.472 106.39 165.473Z" fill="#2F2E41"/>
<path d="M105.927 159.125C108.812 153.836 106.872 147.204 101.594 144.313C96.3169 141.422 89.6998 143.366 86.8148 148.655C83.9298 153.944 85.8694 160.575 91.147 163.466C96.4246 166.357 103.042 164.414 105.927 159.125Z" fill="#FFB6B6"/>
<path d="M111.9 153.475H96.1739L96.0126 151.212L95.2064 153.475H92.7849L92.4654 148.991L90.8674 153.475H86.182V153.253C86.1855 150.131 87.4246 147.138 89.6274 144.93C91.8302 142.723 94.8169 141.481 97.9322 141.477H100.149C103.265 141.481 106.251 142.723 108.454 144.93C110.657 147.138 111.896 150.131 111.9 153.253V153.475Z" fill="#2F2E41"/>
<path d="M96.0452 167.546C95.9268 167.546 95.8087 167.536 95.6921 167.515L84.1771 165.479V146.407H96.8529L96.5391 146.774C92.1728 151.877 95.4623 160.152 97.8117 164.63C97.9849 164.958 98.0621 165.329 98.0344 165.699C98.0068 166.069 97.8755 166.423 97.6555 166.722C97.4713 166.977 97.2293 167.185 96.9493 167.328C96.6694 167.472 96.3596 167.546 96.0452 167.546Z" fill="#2F2E41"/>
<path d="M134.383 261.709L148.59 261.708H148.591C150.992 261.708 153.295 262.664 154.993 264.366C156.69 266.067 157.644 268.375 157.644 270.781V271.076L134.384 271.077L134.383 261.709Z" fill="#2F2E41"/>
<path d="M330.628 272H0.37191C0.273273 272 0.178676 271.961 0.10893 271.891C0.039183 271.821 0 271.726 0 271.627C0 271.529 0.039183 271.434 0.10893 271.364C0.178676 271.294 0.273273 271.255 0.37191 271.255H330.628C330.727 271.255 330.821 271.294 330.891 271.364C330.961 271.434 331 271.529 331 271.627C331 271.726 330.961 271.821 330.891 271.891C330.821 271.961 330.727 272 330.628 272Z" fill="#CACACA"/>
</g>
<defs>
<clipPath id="clip0_282_4848">
<rect width="331" height="272" fill="white"/>
</clipPath>
</defs>
</svg>
