<svg width="362" height="358" viewBox="0 0 362 358" fill="none" xmlns="http://www.w3.org/2000/svg">
<path d="M270.523 13.5215H206.793V75.1943H270.523V13.5215Z" fill="#EBEBEB"/>
<path d="M263.241 20.5696H214.075V68.1463H263.241V20.5696Z" fill="white"/>
<path d="M215.993 20.5696H214.075V68.1463H215.993V20.5696Z" fill="#DBDBDB"/>
<path d="M272.441 13.5215H270.523V75.1943H272.441V13.5215Z" fill="#DBDBDB"/>
<path d="M227.918 50.3486C232.587 60.6303 250.544 58.7404 251.646 46.0747C252.202 39.6855 247.663 31.9179 238.784 31.9265H238.741C228.3 32.7068 224.707 43.3005 227.918 50.3486Z" fill="#EBEBEB"/>
<path d="M227.058 29.3517C228.054 29.456 228.978 29.9145 229.662 30.6434C230.383 31.3196 231.19 32.568 230.877 33.5823C230.799 33.8423 230.634 33.7903 230.356 33.7816C229.483 33.6491 228.684 33.2132 228.1 32.5506C227.442 31.9501 226.846 31.285 226.321 30.5654C226.247 30.4398 226.208 30.2967 226.209 30.1511C226.211 30.0055 226.251 29.8629 226.327 29.7384C226.402 29.6139 226.51 29.5123 226.639 29.4442C226.768 29.3761 226.913 29.3441 227.058 29.3517Z" fill="#EBEBEB"/>
<path d="M234.401 25.494C235.31 26.0817 235.967 26.9877 236.241 28.0341C236.519 28.849 236.753 30.08 236.137 30.7822C236.07 30.8471 235.985 30.8888 235.893 30.9013C235.8 30.9138 235.707 30.8964 235.625 30.8516C234.887 30.4961 234.558 29.4211 234.271 28.7189C233.853 27.8619 233.608 26.931 233.551 25.9795C233.553 25.8811 233.581 25.7851 233.632 25.7007C233.682 25.6163 233.754 25.5463 233.839 25.4975C233.925 25.4487 234.021 25.4227 234.12 25.4221C234.218 25.4215 234.315 25.4463 234.401 25.494Z" fill="#EBEBEB"/>
<path d="M222.598 34.9433C224.247 34.5878 226.495 35.134 227.12 36.8765C227.152 37.0006 227.135 37.1324 227.071 37.244C227.008 37.3556 226.904 37.4383 226.781 37.4747C226.136 37.6382 225.454 37.5801 224.846 37.31C224.099 37.0846 223.327 37.0326 222.598 36.7465C221.869 36.4604 221.608 35.16 222.598 34.9433Z" fill="#EBEBEB"/>
<path d="M242.472 27.3229C242.826 26.5842 243.332 25.9283 243.957 25.3983C244.26 25.0949 244.66 25.3983 244.599 25.7971C244.495 26.534 244.512 27.2969 244.391 28.0337C244.338 28.7698 244.149 29.4898 243.835 30.1577C243.743 30.3242 243.602 30.4588 243.432 30.5434C243.261 30.6281 243.069 30.6588 242.88 30.6315C242.692 30.6042 242.516 30.5201 242.376 30.3906C242.237 30.261 242.14 30.0921 242.099 29.9063C241.949 29.0274 242.079 28.1234 242.472 27.3229Z" fill="#EBEBEB"/>
<path d="M222.155 41.2547C223.273 41.2579 224.351 41.6784 225.175 42.4337C225.233 42.4945 225.276 42.5673 225.302 42.6469C225.328 42.7266 225.336 42.811 225.325 42.894C225.314 42.977 225.285 43.0566 225.24 43.1269C225.194 43.1973 225.134 43.2566 225.062 43.3006C224.089 43.7117 223.013 43.8116 221.981 43.5867C221.235 43.526 219.542 43.5867 219.629 42.4511C219.716 41.3154 221.322 41.1854 222.155 41.2547Z" fill="#EBEBEB"/>
<path d="M221.166 50.4437C221.598 49.7388 222.208 49.1591 222.934 48.7622C223.66 48.3653 224.478 48.165 225.305 48.1811C225.406 48.1857 225.503 48.2149 225.589 48.2662C225.675 48.3175 225.747 48.3892 225.799 48.4751C225.85 48.5609 225.88 48.6581 225.884 48.7581C225.889 48.858 225.869 48.9576 225.826 49.048C225.357 49.7212 224.735 50.274 224.011 50.6612C223.287 51.0484 222.481 51.2591 221.66 51.276C221.564 51.2712 221.471 51.2428 221.389 51.1933C221.307 51.1438 221.238 51.0748 221.189 50.9924C221.14 50.91 221.113 50.8168 221.108 50.7211C221.104 50.6253 221.124 50.5301 221.166 50.4437Z" fill="#EBEBEB"/>
<path d="M224.073 58.3328C224.431 57.4469 225.033 56.6804 225.809 56.1222C226.567 55.4073 227.523 54.9362 228.552 54.7698C228.89 54.7698 229.055 55.1512 228.96 55.472C228.753 55.959 228.497 56.4238 228.196 56.8591C227.914 57.3226 227.559 57.7382 227.146 58.0901C226.799 58.4114 226.387 58.655 225.938 58.8045C225.489 58.954 225.013 59.006 224.542 58.957C224.469 58.9499 224.398 58.9276 224.334 58.8916C224.27 58.8556 224.214 58.8067 224.17 58.748C224.126 58.6893 224.095 58.6221 224.078 58.5506C224.061 58.4791 224.06 58.4049 224.073 58.3328Z" fill="#EBEBEB"/>
<path d="M234.288 57.9518C234.329 57.8855 234.387 57.8308 234.455 57.7929C234.524 57.755 234.601 57.7351 234.679 57.7351C234.757 57.7351 234.834 57.755 234.902 57.7929C234.97 57.8308 235.028 57.8855 235.069 57.9518C235.436 58.7359 235.504 59.6267 235.26 60.4572C235.16 61.4754 234.738 62.4352 234.054 63.1967C233.94 63.3059 233.8 63.384 233.648 63.4236C233.495 63.4632 233.335 63.463 233.182 63.423C233.03 63.3829 232.89 63.3044 232.777 63.195C232.664 63.0855 232.58 62.9488 232.535 62.7979C232.066 61.0467 233.342 59.2869 234.288 57.9518Z" fill="#EBEBEB"/>
<path d="M242.655 57.6911C242.7 57.6143 242.763 57.5489 242.837 57.4997C242.912 57.4505 242.997 57.4189 243.085 57.4072C243.174 57.3955 243.264 57.404 243.349 57.4322C243.434 57.4604 243.511 57.5074 243.575 57.5697C244.251 58.2797 244.669 59.1953 244.764 60.1705C244.859 61.0374 245.102 62.1644 244.677 62.936C244.61 63.0487 244.517 63.1447 244.407 63.2167C244.297 63.2886 244.173 63.3347 244.042 63.3514C243.912 63.3681 243.779 63.355 243.655 63.3131C243.53 63.2711 243.417 63.2015 243.323 63.1094C242.689 62.5719 242.455 61.2975 242.29 60.5086C242.055 59.557 242.185 58.5517 242.655 57.6911Z" fill="#EBEBEB"/>
<path d="M249.798 53.5996C250.161 53.6315 250.516 53.7254 250.848 53.8771C251.201 54.0941 251.538 54.3376 251.854 54.6053C252.374 55.0713 252.928 55.4974 253.512 55.8796C253.642 55.9592 253.742 56.0785 253.798 56.2198C253.854 56.361 253.862 56.5166 253.822 56.6631C253.782 56.8096 253.696 56.9392 253.575 57.0324C253.455 57.1256 253.308 57.1774 253.156 57.18C252.691 57.2497 252.216 57.2258 251.76 57.1097C251.304 56.9936 250.876 56.7876 250.501 56.5038C250.092 56.2048 249.745 55.8312 249.476 55.4028C249.261 54.9921 249.159 54.5311 249.181 54.0678C249.183 53.9935 249.201 53.9205 249.235 53.8543C249.269 53.7881 249.317 53.7303 249.376 53.6853C249.436 53.6403 249.504 53.6092 249.577 53.5944C249.65 53.5796 249.725 53.5814 249.798 53.5996Z" fill="#EBEBEB"/>
<path d="M253.547 46.7682C254.069 46.6419 254.614 46.6364 255.139 46.7521C255.663 46.8677 256.155 47.1015 256.576 47.4357C257.157 47.9038 257.921 48.8314 257.635 49.629C257.612 49.7165 257.566 49.7962 257.502 49.8602C257.438 49.9242 257.358 49.97 257.27 49.9931C256.586 49.996 255.912 49.8291 255.309 49.5076C254.404 49.338 253.58 48.8748 252.965 48.1899C252.891 48.0616 252.847 47.9179 252.837 47.77C252.827 47.6221 252.851 47.4738 252.907 47.3365C252.963 47.1993 253.05 47.0767 253.161 46.9782C253.272 46.8796 253.404 46.8078 253.547 46.7682Z" fill="#EBEBEB"/>
<path d="M252.592 39.7633C252.932 39.3242 253.43 39.035 253.981 38.957C254.855 38.7245 255.746 38.5565 256.645 38.4542C257.122 38.3762 257.695 38.8704 257.348 39.3212C256.874 40.0847 256.206 40.7097 255.413 41.133C254.545 41.5405 253.286 41.9999 252.627 41.029C252.499 40.844 252.428 40.6259 252.422 40.4013C252.415 40.1766 252.475 39.955 252.592 39.7633Z" fill="#EBEBEB"/>
<path d="M248.14 33.3222C248.443 31.6404 250.24 30.8775 251.672 30.4354C252.271 30.2533 252.54 30.9902 252.227 31.4063C251.915 31.8224 251.507 32.3686 251.125 32.8281C250.743 33.2875 250.544 33.747 250.257 34.2065C250.12 34.4556 249.895 34.6451 249.627 34.7388C249.358 34.8324 249.064 34.8236 248.801 34.7139C248.538 34.6042 248.326 34.4015 248.204 34.1446C248.081 33.8877 248.059 33.5948 248.14 33.3222Z" fill="#EBEBEB"/>
<path d="M235.46 40.6997C235.46 41.1678 235.078 40.2576 234.592 40.2576C234.106 40.2576 233.724 41.1245 233.724 40.6997C233.724 40.4698 233.816 40.2493 233.978 40.0867C234.141 39.9241 234.362 39.8328 234.592 39.8328C234.822 39.8328 235.043 39.9241 235.206 40.0867C235.368 40.2493 235.46 40.4698 235.46 40.6997Z" fill="#A6A6A6"/>
<path d="M244.347 40.6997C244.347 41.1678 243.965 40.2662 243.479 40.2662C242.993 40.2662 242.611 41.1331 242.611 40.6997C242.611 40.4698 242.703 40.2493 242.866 40.0867C243.028 39.9241 243.249 39.8328 243.479 39.8328C243.709 39.8328 243.93 39.9241 244.093 40.0867C244.256 40.2493 244.347 40.4698 244.347 40.6997Z" fill="#A6A6A6"/>
<path d="M233.004 42.9884C233.005 43.39 232.888 43.7831 232.666 44.1178C232.443 44.4526 232.127 44.7139 231.756 44.8688C231.385 45.0237 230.976 45.0651 230.582 44.9878C230.187 44.9105 229.825 44.718 229.54 44.4346C229.255 44.1513 229.061 43.7898 228.982 43.3961C228.902 43.0023 228.942 42.594 229.096 42.2228C229.249 41.8516 229.509 41.5343 229.844 41.311C230.178 41.0877 230.571 40.9685 230.973 40.9685C231.51 40.9685 232.025 41.181 232.406 41.5596C232.786 41.9382 233.001 42.4519 233.004 42.9884Z" fill="white"/>
<path d="M249.528 42.9884C249.53 43.39 249.412 43.7831 249.19 44.1178C248.968 44.4526 248.652 44.7139 248.281 44.8688C247.91 45.0237 247.501 45.0651 247.107 44.9878C246.712 44.9105 246.349 44.718 246.064 44.4346C245.78 44.1513 245.585 43.7898 245.506 43.3961C245.427 43.0023 245.467 42.594 245.62 42.2228C245.774 41.8516 246.034 41.5343 246.368 41.311C246.702 41.0877 247.095 40.9685 247.497 40.9685C248.035 40.9685 248.55 41.181 248.93 41.5596C249.311 41.9382 249.526 42.4519 249.528 42.9884Z" fill="white"/>
<path d="M237.413 41.0032C237.578 41.2954 237.821 41.5357 238.116 41.6967C238.389 41.8161 238.685 41.8776 238.984 41.8776C239.282 41.8776 239.578 41.8161 239.852 41.6967C240.147 41.5375 240.393 41.3007 240.563 41.0118C240.58 41.212 240.549 41.4132 240.472 41.5988C240.395 41.7843 240.274 41.9487 240.121 42.0782C239.798 42.3413 239.391 42.4797 238.975 42.4683C238.557 42.4773 238.151 42.3357 237.829 42.0695C237.681 41.9369 237.566 41.7713 237.493 41.5861C237.421 41.4008 237.393 41.2011 237.413 41.0032Z" fill="#A6A6A6"/>
<path d="M351.636 74.7524H287.907V136.425H351.636V74.7524Z" fill="#EBEBEB"/>
<path d="M344.355 81.8005H295.189V129.377H344.355V81.8005Z" fill="white"/>
<path d="M297.107 81.8005H295.189V129.377H297.107V81.8005Z" fill="#DBDBDB"/>
<path d="M353.555 74.7524H351.636V136.425H353.555V74.7524Z" fill="#DBDBDB"/>
<path d="M338.28 107.834C336.985 104.59 334.896 101.723 332.204 99.4944C330.619 98.1308 328.761 97.1207 326.754 96.5317C324.747 95.9426 322.637 95.7882 320.566 96.0787C319.298 96.2534 318.056 96.5824 316.869 97.0583C310.09 99.7718 307.443 106.594 306.844 109.039C306.202 108.95 305.57 108.793 304.961 108.571C304.683 108.294 307.756 95.1598 320.088 93.4606C320.736 93.3684 321.388 93.3134 322.041 93.2959C325.428 93.2185 328.751 94.2306 331.519 96.1827C336.535 99.6504 339.234 105.138 339.599 106.777C339.668 107.106 339.147 107.453 338.28 107.834Z" fill="#A6A6A6"/>
<path d="M338.28 107.834C337.714 108.076 337.134 108.285 336.544 108.458C335.373 105.758 333.59 103.366 331.337 101.471C329.931 100.263 328.283 99.3689 326.503 98.8486C324.724 98.3283 322.853 98.1938 321.017 98.454C319.681 98.6319 318.379 99.0089 317.155 99.5724C312 101.93 309.709 106.985 308.98 109.412L306.914 109.039C307.513 106.594 310.16 99.7718 316.938 97.0583C318.126 96.5824 319.368 96.2534 320.636 96.0787C322.696 95.7984 324.793 95.9578 326.787 96.5466C328.781 97.1354 330.628 98.1401 332.205 99.4944C334.896 101.723 336.985 104.59 338.28 107.834Z" fill="#C7C7C7"/>
<path d="M336.544 108.458C335.871 108.669 335.184 108.828 334.487 108.935C333.297 106.559 331.542 104.511 329.375 102.971C327.05 101.329 324.179 100.651 321.364 101.081C320.511 101.201 319.673 101.414 318.865 101.714C314.378 103.396 312.199 107.401 311.331 109.802L308.936 109.412C309.665 106.985 311.956 101.931 317.112 99.5725C318.336 99.009 319.638 98.6321 320.974 98.4542C322.817 98.1875 324.695 98.3188 326.483 98.8393C328.271 99.3597 329.926 100.257 331.336 101.471C333.59 103.366 335.373 105.758 336.544 108.458Z" fill="#DBDBDB"/>
<path d="M334.487 108.935C334.266 108.999 334.031 108.999 333.81 108.935C333.506 108.71 331.102 105.303 327.561 103.569C326.098 102.807 324.451 102.468 322.805 102.589C322.233 102.638 321.666 102.74 321.113 102.893C315.862 104.366 314.005 110.088 313.302 110.088C313.154 110.088 312.364 109.975 311.323 109.811C312.191 107.409 314.369 103.404 318.856 101.722C319.664 101.422 320.502 101.21 321.356 101.09C324.17 100.66 327.042 101.337 329.366 102.979C331.535 104.516 333.294 106.561 334.487 108.935Z" fill="#EBEBEB"/>
<path d="M342.072 109.949C342.109 110.538 342.023 111.129 341.821 111.683C341.446 112.716 340.692 113.568 339.712 114.067C337.108 115.48 334.93 113.087 334.93 113.087C334.584 113.525 334.154 113.887 333.665 114.154C333.176 114.421 332.638 114.586 332.083 114.639C331.511 114.654 330.948 114.496 330.466 114.187C329.985 113.878 329.608 113.431 329.384 112.905C329.384 112.905 327.735 112.472 327.717 111.172C327.717 109.438 329.661 109.533 329.661 109.533C329.661 109.533 329.34 106.482 331.597 105.701C332.295 105.463 333.051 105.463 333.749 105.701C334.341 105.89 334.872 106.235 335.285 106.698C335.438 106.054 335.792 105.475 336.296 105.045C336.8 104.615 337.428 104.356 338.089 104.306C339.824 104.245 340.909 106.282 340.909 106.282C341.317 106.22 341.733 106.288 342.1 106.476C342.466 106.664 342.763 106.964 342.949 107.331C343.122 107.802 343.129 108.318 342.97 108.794C342.811 109.269 342.494 109.677 342.072 109.949Z" fill="#EBEBEB"/>
<path d="M301.733 108.008C301.939 107.16 302.387 106.39 303.024 105.793C303.66 105.195 304.457 104.796 305.317 104.644C308.364 104.054 309.752 107.071 309.752 107.071C310.226 106.743 310.762 106.514 311.328 106.397C311.893 106.281 312.476 106.28 313.041 106.395C313.61 106.559 314.116 106.888 314.496 107.34C314.877 107.793 315.113 108.348 315.177 108.935C315.177 108.935 316.678 109.854 316.296 111.155C315.793 112.888 313.883 112.178 313.883 112.178C313.883 112.178 313.267 115.298 310.794 115.377C310.034 115.42 309.281 115.207 308.659 114.77C308.134 114.399 307.712 113.901 307.435 113.322C307.089 113.906 306.567 114.367 305.944 114.638C305.32 114.909 304.627 114.976 303.963 114.83C302.227 114.354 301.776 112.022 301.776 112.022C301.347 111.968 300.947 111.778 300.634 111.48C300.322 111.182 300.113 110.791 300.04 110.366C300.005 109.838 300.154 109.313 300.463 108.883C300.771 108.453 301.221 108.143 301.733 108.008Z" fill="#EBEBEB"/>
<path d="M318.518 99.7807C318.518 100.258 318.136 99.3386 317.65 99.3386C317.164 99.3386 316.782 100.258 316.782 99.7807C316.782 99.5508 316.873 99.3303 317.036 99.1677C317.199 99.0052 317.419 98.9138 317.65 98.9138C317.88 98.9138 318.101 99.0052 318.263 99.1677C318.426 99.3303 318.518 99.5508 318.518 99.7807Z" fill="#A6A6A6"/>
<path d="M327.405 99.7807C327.405 100.258 327.023 99.356 326.537 99.356C326.051 99.356 325.669 100.223 325.669 99.7807C325.669 99.5508 325.761 99.3303 325.924 99.1677C326.086 99.0052 326.307 98.9138 326.537 98.9138C326.768 98.9138 326.988 99.0052 327.151 99.1677C327.314 99.3303 327.405 99.5508 327.405 99.7807Z" fill="#A6A6A6"/>
<path d="M316.053 102.035C316.055 102.436 315.937 102.829 315.715 103.164C315.493 103.499 315.176 103.76 314.805 103.915C314.434 104.07 314.026 104.111 313.631 104.034C313.237 103.957 312.874 103.764 312.589 103.481C312.304 103.197 312.11 102.836 312.031 102.442C311.952 102.048 311.992 101.64 312.145 101.269C312.298 100.898 312.559 100.58 312.893 100.357C313.227 100.134 313.62 100.015 314.022 100.015C314.559 100.015 315.074 100.227 315.455 100.606C315.836 100.984 316.051 101.498 316.053 102.035Z" fill="white"/>
<path d="M332.577 102.035C332.579 102.437 332.461 102.83 332.239 103.165C332.016 103.5 331.699 103.761 331.328 103.916C330.956 104.07 330.547 104.111 330.152 104.033C329.758 103.955 329.395 103.762 329.11 103.478C328.826 103.193 328.632 102.831 328.554 102.437C328.476 102.043 328.517 101.634 328.672 101.263C328.827 100.892 329.088 100.575 329.424 100.353C329.759 100.131 330.153 100.013 330.555 100.015C331.091 100.015 331.606 100.227 331.985 100.606C332.364 100.985 332.577 101.499 332.577 102.035Z" fill="white"/>
<path d="M320.462 100.049C320.627 100.342 320.87 100.582 321.165 100.743C321.435 100.873 321.732 100.938 322.033 100.934C322.333 100.936 322.629 100.87 322.9 100.743C323.193 100.58 323.436 100.34 323.603 100.049C323.621 100.249 323.59 100.449 323.515 100.635C323.439 100.82 323.321 100.985 323.17 101.116C322.846 101.384 322.436 101.526 322.015 101.514C321.597 101.521 321.19 101.376 320.87 101.107C320.724 100.974 320.611 100.81 320.541 100.626C320.47 100.443 320.443 100.245 320.462 100.049Z" fill="#A6A6A6"/>
<path d="M39.367 209.368L27.9802 209.602L22.2 209.706C20.2646 209.706 18.3205 209.706 16.3851 209.75H16.0032V209.368L15.9512 199.667V199.225H16.3851L27.8761 199.277C31.7122 199.277 35.5396 199.373 39.367 199.416H39.6101V199.65C39.6101 201.289 39.5319 202.927 39.4972 204.548L39.367 209.368ZM39.367 209.368L39.2455 204.462C39.2455 202.849 39.1501 201.254 39.1327 199.667L39.367 199.902C35.5396 199.945 31.7122 200.04 27.8761 200.04L16.3851 200.101L16.8191 199.667V209.368L16.4285 208.978C18.3205 208.978 20.2125 208.978 22.1132 209.022L27.824 209.126L39.367 209.368Z" fill="#EBEBEB"/>
<path d="M26.5484 221.6L15.1616 221.834L9.38143 221.938C7.44602 221.938 5.50193 221.938 3.56652 221.982H3.18464V221.6L3.13257 211.9V211.483H3.56652L15.0575 211.535C18.8849 211.535 22.721 211.631 26.5484 211.674H26.7915V211.908C26.7915 213.547 26.722 215.185 26.6786 216.806L26.5484 221.6ZM26.5484 221.6L26.4269 216.685C26.3835 215.072 26.3315 213.477 26.3141 211.891L26.5484 212.125C22.721 212.168 18.8849 212.264 15.0575 212.264L3.56652 212.35L4.00047 211.926L3.95707 221.626L3.56652 221.236C5.45853 221.236 7.35055 221.236 9.25124 221.236L14.962 221.34L26.5484 221.6Z" fill="#EBEBEB"/>
<path d="M278.898 107.721L267.511 107.964L261.731 108.06C259.796 108.103 257.852 108.06 255.916 108.112H255.534V107.721L255.482 98.0206V97.5872H255.916L267.407 97.6478C271.243 97.6478 275.071 97.7432 278.898 97.7866H279.141V98.0206C279.141 99.6678 279.063 101.306 279.02 102.927L278.898 107.721ZM278.898 107.721L278.777 102.823C278.777 101.202 278.681 99.6071 278.664 98.0206L278.898 98.2547C275.071 98.3067 271.243 98.3934 267.407 98.4021L255.916 98.4541L256.35 98.0206L256.307 107.721L255.916 107.34C257.808 107.34 259.7 107.34 261.601 107.34L267.312 107.435L278.898 107.721Z" fill="#EBEBEB"/>
<path d="M266.079 119.954L254.693 120.196L248.904 120.292C246.977 120.335 245.033 120.292 243.097 120.344H242.716V119.954L242.672 110.253V109.819H243.106L254.597 109.871C258.424 109.871 262.261 109.975 266.088 110.019H266.331V110.253C266.331 111.9 266.262 113.538 266.218 115.16L266.079 119.954ZM266.079 119.954L265.958 115.056C265.914 113.434 265.862 111.839 265.845 110.253L266.079 110.487C262.252 110.539 258.416 110.626 254.588 110.634L243.097 110.686L243.531 110.253L243.488 119.954L243.097 119.572C244.989 119.572 246.881 119.572 248.782 119.616L254.484 119.711L266.079 119.954Z" fill="#EBEBEB"/>
<path d="M357.078 221.6L345.682 221.834L339.902 221.938C337.976 221.938 336.031 221.938 334.096 221.982H333.706V221.6L333.662 211.9V211.483H334.096L345.587 211.535C349.414 211.535 353.251 211.631 357.078 211.674H357.312V211.908C357.312 213.547 357.243 215.185 357.199 216.806L357.078 221.6ZM357.078 221.6L356.956 216.694C356.956 215.081 356.852 213.486 356.844 211.9L357.078 212.134C353.251 212.177 349.414 212.272 345.587 212.272L334.096 212.324L334.53 211.9L334.478 221.6L334.096 221.21C335.988 221.21 337.88 221.21 339.772 221.21L345.483 221.314L357.078 221.6Z" fill="#EBEBEB"/>
<path d="M344.259 14.8653L332.864 15.108L327.084 15.2034C325.157 15.2034 323.213 15.2034 321.277 15.2554H320.922V14.8653V5.16442V4.73096H321.364L332.855 4.78297C336.683 4.78297 340.51 4.88701 344.346 4.93035H344.581V5.15575C344.581 6.8029 344.502 8.44139 344.468 10.0539L344.259 14.8653ZM344.259 14.8653L344.138 9.96717C344.094 8.34602 344.034 6.75089 344.016 5.16442L344.259 5.39849C340.423 5.39849 336.596 5.5372 332.768 5.54587L321.277 5.59788L321.711 5.16442L321.659 14.8653L321.277 14.4752C323.169 14.4752 325.053 14.4752 326.954 14.5272L332.664 14.6225L344.259 14.8653Z" fill="#EBEBEB"/>
<path d="M357.078 27.0977L345.682 27.3404L339.902 27.4358C337.976 27.4358 336.031 27.4358 334.096 27.4878H333.706V27.0977L333.662 17.3968V16.9634H334.096L345.587 17.0154C349.414 17.0154 353.251 17.1194 357.078 17.1628H357.312V17.3968C357.312 19.044 357.243 20.6825 357.199 22.295L357.078 27.0977ZM357.078 27.0977L356.956 22.1996C356.956 20.5784 356.852 18.9833 356.844 17.3968L357.078 17.6309C353.251 17.6309 349.414 17.7696 345.587 17.7783L334.096 17.8303L334.53 17.3968L334.478 27.0977L334.096 26.7076C335.988 26.7076 337.88 26.7076 339.772 26.7596L345.483 26.855L357.078 27.0977Z" fill="#EBEBEB"/>
<path d="M26.5484 14.8654L15.1616 15.1081L9.34671 15.2035C7.4113 15.2035 5.46721 15.2035 3.5318 15.2555H3.18464V14.8654L3.13257 5.15587V4.72241H3.56652L15.0575 4.77443C18.8849 4.77443 22.721 4.87846 26.5484 4.9218H26.7915V5.15587C26.7915 6.80303 26.722 8.44151 26.6786 10.054L26.5484 14.8654ZM26.5484 14.8654L26.4269 9.96729C26.3835 8.34615 26.3315 6.75101 26.3141 5.16454L26.5484 5.39861C22.721 5.39861 18.8849 5.53732 15.0575 5.54599L3.56652 5.598L4.00047 5.16454L3.95707 14.8654L3.56652 14.4753C5.45853 14.4753 7.35055 14.4753 9.25124 14.5273L14.962 14.6227L26.5484 14.8654Z" fill="#EBEBEB"/>
<path d="M204.71 196.338L193.341 196.572L187.561 196.676C185.625 196.676 183.69 196.676 181.746 196.72H181.364V196.338V186.637V186.195H181.798L193.289 186.247C197.125 186.247 200.952 186.343 204.788 186.386H205.023V186.62C205.023 188.259 204.945 189.897 204.91 191.518L204.71 196.338ZM204.71 196.338L204.58 191.432C204.58 189.819 204.485 188.224 204.467 186.637L204.71 186.872C200.874 186.872 197.047 187.01 193.211 187.01L181.72 187.062L182.154 186.637L182.11 196.338L181.72 195.948C183.62 195.948 185.504 195.948 187.404 195.992L193.115 196.096L204.71 196.338Z" fill="#EBEBEB"/>
<path d="M50.7104 33.8337C50.7104 33.7854 50.6912 33.7391 50.657 33.7049C50.6228 33.6708 50.5765 33.6516 50.5281 33.6516C50.4798 33.6516 50.4334 33.6708 50.3992 33.7049C50.3651 33.7391 50.3459 33.7854 50.3459 33.8337C49.7383 41.6967 49.9466 49.629 50.0508 57.518C50.1549 65.407 49.9032 73.322 50.3111 81.1936C50.3111 81.2511 50.334 81.3062 50.3747 81.3469C50.4154 81.3875 50.4706 81.4104 50.5281 81.4104C50.5857 81.4104 50.6409 81.3875 50.6815 81.3469C50.7222 81.3062 50.7451 81.2511 50.7451 81.1936C51.153 73.322 50.9013 65.3983 51.0055 57.518C51.1096 49.6377 51.3179 41.6967 50.7104 33.8337Z" fill="#C7C7C7"/>
<path d="M54.6857 87.652C54.6857 92.3854 51.9865 94.0585 50.5285 94.0585C49.0704 94.0585 46.3625 92.3767 46.3625 87.652C46.3625 82.9272 50.5285 75.3503 50.5285 75.3503C50.6586 75.5931 54.6857 82.9966 54.6857 87.652Z" fill="#EBEBEB"/>
<path d="M64.4666 34.6312C64.4666 34.576 64.4446 34.5231 64.4056 34.484C64.3665 34.445 64.3135 34.4231 64.2583 34.4231C64.2031 34.4231 64.1501 34.445 64.111 34.484C64.0719 34.5231 64.05 34.576 64.05 34.6312C63.373 44.7308 63.6942 54.9692 63.7549 65.0861C63.8157 75.2031 63.7549 85.3981 64.0153 95.5498C64.0261 95.6074 64.0568 95.6594 64.102 95.6968C64.1471 95.7342 64.204 95.7547 64.2626 95.7547C64.3213 95.7547 64.3782 95.7342 64.4233 95.6968C64.4685 95.6594 64.4991 95.6074 64.51 95.5498C64.727 85.3981 64.7183 75.2378 64.7704 65.0861C64.8224 54.9345 65.1522 44.7568 64.4666 34.6312Z" fill="#C7C7C7"/>
<path d="M68.4245 104.384C68.4245 109.126 65.7166 110.799 64.2585 110.799C62.8005 110.799 60.1013 109.117 60.1013 104.384C60.1013 99.6505 64.2585 92.0823 64.2585 92.0823C64.3974 92.3337 68.4245 99.7372 68.4245 104.384Z" fill="#DBDBDB"/>
<path d="M79.3427 24.575C79.333 24.5281 79.3074 24.4861 79.2703 24.4559C79.2331 24.4257 79.1867 24.4092 79.1388 24.4092C79.0909 24.4092 79.0444 24.4257 79.0073 24.4559C78.9701 24.4861 78.9445 24.5281 78.9348 24.575C78.6397 40.6304 78.3794 56.6945 79.0216 72.7412C79.0216 72.7734 79.0344 72.8043 79.0572 72.827C79.08 72.8498 79.1109 72.8626 79.1431 72.8626C79.1753 72.8626 79.2062 72.8498 79.229 72.827C79.2518 72.8043 79.2646 72.7734 79.2646 72.7412C79.9069 56.6945 79.6465 40.6304 79.3427 24.575Z" fill="#C7C7C7"/>
<path d="M83.3001 77.8993C83.3001 82.6327 80.6009 84.3058 79.1428 84.3058C77.6848 84.3058 74.9856 82.6327 74.9856 77.8993C74.9856 73.1659 79.1428 65.5977 79.1428 65.5977C79.273 65.8404 83.3001 73.2439 83.3001 77.8993Z" fill="#EBEBEB"/>
<path d="M94.4005 30.2184C94.4005 30.1885 94.3886 30.1599 94.3675 30.1387C94.3463 30.1176 94.3176 30.1057 94.2877 30.1057C94.2578 30.1057 94.2291 30.1176 94.2079 30.1387C94.1868 30.1599 94.1749 30.1885 94.1749 30.2184C93.5587 35.4806 93.793 40.9249 93.793 46.2131C93.793 51.5014 93.793 56.8849 93.793 62.2165C93.8538 72.871 93.793 83.5428 94.0186 94.206C94.0186 94.2703 94.0443 94.3321 94.0898 94.3776C94.1354 94.4231 94.1972 94.4487 94.2617 94.4487C94.3261 94.4487 94.3879 94.4231 94.4335 94.3776C94.4791 94.3321 94.5047 94.2703 94.5047 94.206C94.765 83.5428 94.6696 72.871 94.7303 62.2165C94.7303 57.015 94.7303 51.8135 94.7303 46.6639C94.7998 41.2197 95.0514 35.628 94.4005 30.2184Z" fill="#C7C7C7"/>
<path d="M98.4711 98.7838C98.4711 103.517 95.7632 105.19 94.3052 105.19C92.8471 105.19 90.1479 103.517 90.1479 98.7838C90.1479 94.0504 94.3052 86.4822 94.3052 86.4822C94.4006 86.6989 98.4711 94.1024 98.4711 98.7838Z" fill="#DBDBDB"/>
<path d="M108.591 31.1639C108.591 31.1225 108.574 31.0828 108.545 31.0535C108.515 31.0243 108.476 31.0078 108.434 31.0078C108.393 31.0078 108.353 31.0243 108.324 31.0535C108.295 31.0828 108.278 31.1225 108.278 31.1639C107.592 40.5526 108.009 50.1061 108.026 59.5122C108.044 68.9183 107.662 78.4805 108.321 87.8693C108.321 87.8991 108.333 87.9278 108.355 87.9489C108.376 87.9701 108.404 87.9819 108.434 87.9819C108.464 87.9819 108.493 87.9701 108.514 87.9489C108.535 87.9278 108.547 87.8991 108.547 87.8693C109.207 78.4805 108.825 68.927 108.842 59.5122C108.86 50.0974 109.276 40.518 108.591 31.1639Z" fill="#C7C7C7"/>
<path d="M112.626 87.0714C112.626 91.8048 109.927 93.478 108.469 93.478C107.011 93.478 104.312 91.8048 104.312 87.0714C104.312 82.338 108.469 74.7698 108.469 74.7698C108.565 75.0125 112.626 82.416 112.626 87.0714Z" fill="#EBEBEB"/>
<path d="M47.2649 22.0175C47.2649 22.0175 37.8135 24.1155 37.8135 32.8107C37.8135 41.506 50.2678 40.613 50.2678 40.613C50.2678 40.613 51.0229 48.1032 60.6305 50.808C70.2381 53.5128 77.0424 46.0053 77.0424 46.0053C77.9709 47.1063 79.1421 47.9775 80.4642 48.5506C81.7863 49.1237 83.2233 49.383 84.6626 49.3083C86.1081 49.2983 87.5225 48.8878 88.7483 48.1225C89.9741 47.3572 90.9633 46.2672 91.6058 44.9737C91.6058 44.9737 97.1603 47.375 102.567 45.121C104.115 44.4879 105.512 43.5349 106.665 42.3247C107.818 41.1145 108.702 39.6744 109.259 38.099C109.259 38.099 116.766 38.9659 118.12 32.0999C119.474 25.2338 111.064 23.1012 111.064 23.1012C111.064 23.1012 110.89 11.8832 103.079 8.67561C100.245 7.54365 97.188 7.07617 94.1442 7.30912C91.1004 7.54207 88.1507 8.46924 85.5218 10.0193C85.5218 10.0193 76.0617 -2.421 61.9497 0.422506C47.8377 3.26601 47.2649 22.0175 47.2649 22.0175Z" fill="#EBEBEB"/>
<path d="M92.8643 23.4913C92.8643 23.396 92.7254 23.422 92.7167 23.4913C92.5084 24.8958 91.8488 30.2273 89.8006 30.288C87.8739 30.3487 86.329 25.7193 85.9211 24.0548C85.9211 24.0365 85.9138 24.0188 85.9008 24.0058C85.8877 23.9928 85.8701 23.9855 85.8516 23.9855C85.8332 23.9855 85.8156 23.9928 85.8026 24.0058C85.7895 24.0188 85.7822 24.0365 85.7822 24.0548C85.869 26.2308 87.1622 31.8571 90.1217 31.311C92.7341 30.9209 93.1593 25.0952 92.8643 23.4913Z" fill="white"/>
<path d="M63.0695 23.4913C63.0695 23.396 63.217 23.422 63.2257 23.4913C63.434 24.8958 64.0936 30.2273 66.1331 30.288C68.0685 30.3487 69.6047 25.7193 70.0213 24.0548C70.0213 23.9682 70.1602 24.0028 70.1602 24.0548C70.0734 26.2308 68.7802 31.8571 65.8207 31.311C63.1996 30.9209 62.783 25.0952 63.0695 23.4913Z" fill="white"/>
<path d="M74.1699 27.1499C74.7205 27.6322 75.33 28.0429 75.9838 28.3723C76.5917 28.6764 77.2573 28.8478 77.9366 28.8751C78.6096 28.8942 79.2771 28.7483 79.8807 28.4503C80.5299 28.1199 81.1172 27.68 81.6165 27.1499C81.3676 27.9263 80.8719 28.6003 80.2046 29.0697C79.5373 29.5391 78.7349 29.7782 77.9192 29.7507C77.0917 29.7259 76.2917 29.4474 75.628 28.9531C74.9853 28.4973 74.4808 27.8734 74.1699 27.1499Z" fill="white"/>
<path d="M0 288.934L45.2522 288.717L90.5043 288.648L181 288.501L271.496 288.639L316.748 288.717L362 288.934L316.748 289.142L271.496 289.22L181 289.368L90.5043 289.22L45.2522 289.142L0 288.934Z" fill="#263238"/>
<path d="M180.546 351.847C240.467 351.847 289.042 347.741 289.042 342.675C289.042 337.609 240.467 333.503 180.546 333.503C120.626 333.503 72.0503 337.609 72.0503 342.675C72.0503 347.741 120.626 351.847 180.546 351.847Z" fill="#EBEBEB"/>
<path d="M219.643 289.185C225.423 291.569 227.862 283.984 227.688 278.461C227.515 272.939 225.701 268.83 223.983 268.518C220.98 267.98 212.127 286.038 219.643 289.185Z" fill="#BE37ED"/>
<path d="M174.409 259.84C172.062 262.702 169.494 265.374 166.728 267.833C159.975 274.014 151.288 280.343 148.736 277.603C144.891 273.503 159.758 251.344 162.744 248.917C163.861 247.923 165.28 247.332 166.774 247.24C168.267 247.147 169.748 247.557 170.98 248.406C174.782 250.833 177.004 256.407 174.409 259.84Z" fill="#BE37ED"/>
<path opacity="0.1" d="M161.902 270.434C163.591 269.725 165.207 268.854 166.728 267.833C159.975 274.014 151.288 280.343 148.736 277.603C144.891 273.503 159.758 251.344 162.744 248.917C163.861 247.923 165.28 247.332 166.774 247.24C168.267 247.147 169.748 247.557 170.98 248.406C164.745 252.159 159.809 257.728 156.834 264.366C156.027 266.29 153.935 270.841 158.569 271.301C159.585 271.457 161 270.772 161.902 270.434Z" fill="#030402"/>
<path d="M183.001 292.324C179.92 294.552 146.549 305.674 139.519 302.623C132.489 299.571 130.076 280.759 132.463 280.759C134.85 280.759 138.738 285.189 139.328 285.267C139.667 285.319 145.212 282.103 150.567 279.311C154.334 277.352 158.005 275.592 159.715 275.323C174.139 273.026 182.515 284.183 183.513 289.662C183.738 290.937 183.582 291.899 183.001 292.324Z" fill="#BE37ED"/>
<path opacity="0.1" d="M183.001 292.324C179.92 294.552 146.549 305.674 139.519 302.623C132.489 299.571 130.076 280.759 132.463 280.759C134.85 280.759 138.738 285.189 139.328 285.267C139.667 285.319 145.212 282.103 150.567 279.311C147.822 281.325 145.504 283.862 143.746 286.775C139.545 294.491 150.645 298.106 156.183 298.193C161.494 298.297 166.597 296.658 171.553 294.864C175.641 293.373 179.635 291.636 183.513 289.662C183.738 290.937 183.582 291.899 183.001 292.324Z" fill="#030402"/>
<path d="M221.101 289.116C220.946 289.423 220.76 289.714 220.546 289.983C217.378 294.153 204.924 301.253 194.153 302.857C182.549 304.591 161.364 301.496 157.545 293.243C153.726 284.99 164.966 246.429 165.816 244.392L207.9 241.193L208.213 241.973C210.495 247.634 224.278 282.268 221.101 289.116Z" fill="#BE37ED"/>
<path opacity="0.1" d="M220.546 290.009C217.378 294.179 204.924 301.279 194.153 302.883C182.549 304.617 161.364 301.522 157.545 293.269C153.726 285.015 164.966 246.455 165.816 244.417L207.9 241.219L208.213 241.999C197.156 246.377 186.125 251.994 177.628 260.438C169.131 268.882 163.256 283.845 172.959 293.702C181.369 302.267 195.819 300.741 206.095 297.17C211.178 295.361 216.029 292.957 220.546 290.009Z" fill="#030402"/>
<path d="M218.307 293.07C217.543 294.188 213.915 297.404 209.029 301.219C198.441 309.541 181.959 320.863 176.049 320.482C167.37 319.927 157.719 300.837 160.244 299.927C162.77 299.017 168.594 302.259 169.253 302.12C169.731 302.016 176.752 293.616 182.159 288.154C183.637 286.516 185.307 285.061 187.132 283.82C204.932 274.093 220.728 289.507 218.307 293.07Z" fill="#BE37ED"/>
<path opacity="0.1" d="M209.029 301.219C198.441 309.541 181.959 320.863 176.049 320.482C167.37 319.927 157.719 300.837 160.244 299.927C162.77 299.017 168.594 302.259 169.253 302.12C169.731 302.016 176.752 293.616 182.159 288.154C178.948 292.133 175.658 296.971 174.973 301.981C173.792 310.651 184.519 311.596 190.508 310.373C197.416 308.96 203.336 305.293 209.029 301.219Z" fill="#030402"/>
<path d="M215.121 286.784C209.107 288.847 193.033 263.256 191.896 259.042C190.707 254.647 192.869 251.466 196.028 249.792C200.298 247.556 206.382 248.059 208.586 252.046C211.025 256.468 215.451 268.518 216.788 277.187C217.586 282.163 217.317 286.038 215.121 286.784Z" fill="#BE37ED"/>
<path opacity="0.1" d="M215.121 286.784C209.107 288.848 193.033 263.256 191.896 259.043C190.707 254.647 192.869 251.466 196.028 249.793C194.526 252.576 197.017 258.332 198.006 260.326C199.675 263.433 201.615 266.386 203.804 269.151C205.647 271.797 207.759 274.246 210.105 276.459C210.973 277.257 213.212 279.372 214.401 279.433C215.876 279.502 216.527 278.479 216.788 277.187C217.586 282.164 217.317 286.039 215.121 286.784Z" fill="#030402"/>
<path d="M164.94 244.487C162.397 244.062 162.605 248.96 163.1 249.784C163.595 250.607 171.51 256.242 185.439 255.176C200.723 254.023 210.131 247.972 210.886 246.871C211.641 245.77 210.07 241.054 208.404 241.184C206.738 241.314 189.814 248.622 164.94 244.487Z" fill="#BE37ED"/>
<path opacity="0.6" d="M164.94 244.487C162.397 244.062 162.605 248.96 163.1 249.784C163.595 250.607 171.51 256.242 185.439 255.176C200.723 254.023 210.131 247.972 210.886 246.871C211.641 245.77 210.07 241.054 208.404 241.184C206.738 241.314 189.814 248.622 164.94 244.487Z" fill="white"/>
<path d="M172.456 189.099L160.713 197.509C160.06 197.52 159.407 197.48 158.76 197.387C156.386 197.132 154.13 196.219 152.246 194.752C150.363 193.285 148.928 191.321 148.103 189.082C144.752 180.205 149.743 169.091 162.857 171.336C169.748 172.515 171.831 178.696 172.404 183.473C172.613 185.342 172.631 187.227 172.456 189.099Z" fill="#BE37ED"/>
<path opacity="0.6" d="M161.537 193.564C161.537 193.564 155.991 193.824 153.987 188.518C151.982 183.213 154.967 176.555 162.804 177.899C169.669 179.078 168.559 188.527 168.559 188.527L161.537 193.564Z" fill="white"/>
<path d="M230.214 186.976C230.266 191.622 227.775 194.578 224.746 196.46C221.589 198.248 218.085 199.341 214.47 199.667L204.056 189.68C204.056 189.68 201.938 180.656 210.053 175.749C214.87 172.836 220.997 172.663 225.224 175.749C228.131 177.899 230.136 181.575 230.214 186.976Z" fill="#BE37ED"/>
<path opacity="0.6" d="M208.091 189.81C208.091 189.81 206.824 184.409 211.684 181.47C216.545 178.532 223.635 180.257 223.739 188.189C223.835 195.125 214.323 195.783 214.323 195.783L208.091 189.81Z" fill="white"/>
<path opacity="0.1" d="M214.253 191.397C216.449 196.659 220.598 197.595 224.746 196.46C221.589 198.248 218.085 199.341 214.47 199.667L204.056 189.68C204.056 189.68 201.938 180.656 210.053 175.749C214.87 172.836 220.997 172.663 225.224 175.749C217.369 175.558 211.068 183.742 214.253 191.397Z" fill="#030402"/>
<path d="M219.443 228.024C219.115 229.411 218.671 230.768 218.116 232.081C217.476 233.571 216.682 234.988 215.746 236.312C212.535 240.82 207.762 244.114 202.311 246.42C194.798 249.418 186.707 250.695 178.635 250.157C168.923 249.515 160.886 246.186 155.54 241.227C152.839 238.778 150.772 235.711 149.517 232.289C147.547 226.802 148.649 221.652 150.576 216.581C152.051 212.688 154.004 208.839 155.419 204.929C156.348 202.332 157.465 199.806 158.76 197.37C159.469 196.052 160.249 194.773 161.095 193.538C163.124 190.527 165.658 187.887 168.585 185.736C169.783 184.861 171.051 184.087 172.377 183.421C176.218 181.515 180.424 180.453 184.71 180.309C186.552 180.209 188.397 180.209 190.239 180.309C201.834 180.976 209.107 185.614 212.986 190.66C217.022 195.965 222.794 214.335 219.443 228.024Z" fill="#BE37ED"/>
<g opacity="0.4">
<path opacity="0.6" d="M162.397 229.064C162.51 231.525 161.928 233.968 160.717 236.114C159.506 238.261 157.715 240.023 155.549 241.201C152.829 238.765 150.743 235.703 149.474 232.281C147.512 226.784 148.606 221.644 150.541 216.572C153.691 216.883 156.622 218.318 158.799 220.612C160.977 222.906 162.254 225.907 162.397 229.064Z" fill="white"/>
<path opacity="0.6" d="M219.444 228.024C219.114 229.411 218.67 230.768 218.116 232.081C215.26 238.8 209.341 243.49 202.311 246.42C199.926 245.793 197.745 244.559 195.979 242.839C194.214 241.119 192.926 238.971 192.239 236.605C191.553 234.238 191.492 231.735 192.063 229.338C192.634 226.942 193.817 224.734 195.497 222.93C197.176 221.127 199.296 219.789 201.647 219.047C203.999 218.305 206.503 218.185 208.915 218.698C211.328 219.211 213.565 220.34 215.411 221.975C217.256 223.609 218.645 225.693 219.444 228.024Z" fill="white"/>
</g>
<path opacity="0.1" d="M215.746 236.312C212.535 240.82 207.762 244.114 202.311 246.42C194.798 249.418 186.708 250.695 178.635 250.157C168.923 249.515 160.887 246.186 155.54 241.228C152.839 238.778 150.772 235.711 149.517 232.29C147.547 226.802 148.649 221.652 150.576 216.581C152.051 212.688 154.004 208.839 155.419 204.93C156.348 202.332 157.465 199.806 158.76 197.37C156.386 197.115 154.13 196.202 152.246 194.735C150.363 193.267 148.928 191.303 148.103 189.065C144.752 180.188 149.743 169.074 162.857 171.319C169.748 172.498 171.831 178.679 172.404 183.456C176.245 181.55 180.45 180.488 184.736 180.344C186.578 180.243 188.423 180.243 190.265 180.344C169.227 184.843 161.138 213.998 160.192 220.083C159.178 226.266 160.636 232.599 164.254 237.717C172.265 248.761 189.519 247.894 201.096 244.002C206.342 242.195 211.282 239.602 215.746 236.312Z" fill="#030402"/>
<path opacity="0.6" d="M172.013 212.558C168.646 213.807 162.614 225.978 164.836 229.238C167.057 232.497 185.491 234.665 189.006 231.561C192.521 228.458 187.644 215.766 185.483 214.136C183.322 212.506 175.146 211.397 172.013 212.558Z" fill="white"/>
<path d="M165.981 211.24C164.575 211.058 163.186 212.341 162.952 214.041C162.718 215.74 163.725 217.344 165.131 217.508C166.537 217.673 167.934 216.416 168.16 214.717C168.385 213.018 167.396 211.431 165.981 211.24Z" fill="#263238"/>
<path d="M167.908 213.087C167.908 213.035 167.778 213.087 167.795 213.087C168.307 215.575 167.04 218.375 164.202 218.358C164.159 218.358 164.141 218.419 164.202 218.427C167.248 219.069 169.08 215.723 167.908 213.087Z" fill="#263238"/>
<path d="M193.285 213.911C194.709 214.006 195.811 215.549 195.698 217.257C195.585 218.965 194.283 220.343 192.86 220.248C191.437 220.153 190.334 218.618 190.456 216.902C190.577 215.185 191.853 213.815 193.285 213.911Z" fill="#263238"/>
<path d="M191.02 215.332C191.02 215.289 191.15 215.332 191.124 215.384C190.117 217.725 190.794 220.724 193.589 221.271V221.34C190.421 221.314 189.336 217.682 191.02 215.332Z" fill="#263238"/>
<path d="M168.663 205.085C168.55 204.314 167.63 204.219 167.005 204.262C166.187 204.339 165.39 204.565 164.653 204.929C164.478 205.013 164.333 205.151 164.24 205.322C164.148 205.493 164.112 205.689 164.138 205.882C164.164 206.074 164.251 206.254 164.385 206.394C164.52 206.535 164.696 206.629 164.888 206.663C165.662 206.727 166.441 206.651 167.187 206.438C167.838 206.282 168.784 205.926 168.663 205.085Z" fill="#263238"/>
<path d="M192.834 207.582C193.103 206.854 194.032 206.914 194.622 207.114C195.411 207.342 196.148 207.722 196.792 208.232C196.952 208.347 197.071 208.511 197.131 208.699C197.191 208.888 197.189 209.09 197.125 209.277C197.061 209.464 196.938 209.625 196.775 209.737C196.611 209.848 196.417 209.904 196.219 209.897C195.446 209.802 194.696 209.571 194.006 209.212C193.398 208.934 192.548 208.388 192.834 207.582Z" fill="#263238"/>
<path d="M175.927 218.54C174.374 218.332 170.72 215.073 171.397 213.512C172.074 211.952 180.25 213.061 181.222 214.379C182.194 215.697 176.795 218.653 175.927 218.54Z" fill="#263238"/>
<path d="M204.759 223.672C204.678 224.483 204.357 225.251 203.839 225.879C203.32 226.508 202.627 226.969 201.846 227.204C201.065 227.439 200.232 227.437 199.453 227.199C198.673 226.961 197.981 226.498 197.465 225.867C196.949 225.236 196.632 224.467 196.553 223.656C196.475 222.846 196.639 222.03 197.025 221.312C197.411 220.595 198.002 220.008 198.722 219.625C199.442 219.243 200.259 219.082 201.07 219.164C202.157 219.276 203.155 219.813 203.846 220.658C204.537 221.502 204.866 222.586 204.759 223.672Z" fill="#FF99BA"/>
<path d="M160.444 219.364C160.361 220.174 160.039 220.941 159.519 221.569C158.999 222.196 158.305 222.656 157.524 222.889C156.742 223.122 155.909 223.119 155.13 222.879C154.351 222.639 153.66 222.174 153.145 221.543C152.631 220.911 152.315 220.141 152.239 219.33C152.162 218.519 152.328 217.704 152.715 216.987C153.103 216.27 153.694 215.685 154.415 215.304C155.135 214.923 155.953 214.764 156.764 214.847C157.852 214.959 158.85 215.497 159.54 216.344C160.231 217.191 160.556 218.277 160.444 219.364Z" fill="#FF99BA"/>
<path d="M67.5013 103.621H58.7095V288.882H67.5013V103.621Z" fill="#EBEBEB"/>
<path d="M67.7274 98.9918C67.7274 99.9057 67.4561 100.799 66.9478 101.559C66.4395 102.319 65.717 102.911 64.8717 103.261C64.0265 103.61 63.0963 103.702 62.199 103.524C61.3017 103.345 60.4774 102.905 59.8305 102.259C59.1835 101.613 58.743 100.79 58.5645 99.8932C58.386 98.9969 58.4776 98.0678 58.8277 97.2235C59.1778 96.3792 59.7708 95.6576 60.5315 95.1498C61.2922 94.6421 62.1866 94.3711 63.1015 94.3711C64.3283 94.3711 65.505 94.8579 66.3725 95.7245C67.24 96.591 67.7274 97.7663 67.7274 98.9918Z" fill="#EBEBEB"/>
<path d="M302.563 103.621H293.771V288.882H302.563V103.621Z" fill="#EBEBEB"/>
<path d="M302.797 98.9918C302.797 99.9057 302.526 100.799 302.018 101.559C301.509 102.319 300.787 102.911 299.942 103.261C299.096 103.61 298.166 103.702 297.269 103.524C296.371 103.345 295.547 102.905 294.9 102.259C294.253 101.613 293.813 100.79 293.634 99.8932C293.456 98.9969 293.547 98.0678 293.898 97.2235C294.248 96.3792 294.841 95.6576 295.601 95.1498C296.362 94.6421 297.256 94.3711 298.171 94.3711C299.397 94.3734 300.573 94.8609 301.44 95.727C302.307 96.593 302.795 97.767 302.797 98.9918Z" fill="#EBEBEB"/>
<path d="M293.78 227.816H67.5015V255.245H293.78V227.816Z" fill="#EBEBEB"/>
<path d="M76.137 227.825H67.5015V255.246H76.137V227.825Z" fill="#DBDBDB"/>
<path d="M293.771 227.825H285.135V255.246H293.771V227.825Z" fill="#DBDBDB"/>
<path d="M175.919 251.111H87.2202V231.96H175.919V251.111ZM88.0881 250.244H175.051V232.827H88.0881V250.244Z" fill="#DBDBDB"/>
<path d="M142.288 241.973H120.825V238.02H142.262L142.288 241.973ZM121.719 241.106H141.42V238.887H121.693L121.719 241.106Z" fill="#DBDBDB"/>
<path d="M274.044 251.111H185.344V231.96H274.044V251.111ZM186.212 250.244H273.176V232.827H186.212V250.244Z" fill="#DBDBDB"/>
<path d="M240.413 241.973H218.976V238.02H240.413V241.973ZM219.843 241.106H239.545V238.887H219.843V241.106Z" fill="#DBDBDB"/>
<path d="M293.78 219.502H67.5015V227.825H293.78V219.502Z" fill="#DBDBDB"/>
<path d="M293.78 197.925H67.5015V219.503H293.78V197.925Z" fill="#BE37ED"/>
<path opacity="0.6" d="M293.78 197.925H67.5015V219.503H293.78V197.925Z" fill="white"/>
<path d="M293.545 114.093H67.5015V121.488H293.545V114.093Z" fill="#EBEBEB"/>
<path d="M74.0282 121.497H71.0339V227.825H74.0282V121.497Z" fill="#EBEBEB"/>
<path d="M88.4264 121.497H85.4321V227.825H88.4264V121.497Z" fill="#EBEBEB"/>
<path d="M102.825 121.497H99.8306V227.825H102.825V121.497Z" fill="#EBEBEB"/>
<path d="M117.223 121.497H114.229V227.825H117.223V121.497Z" fill="#EBEBEB"/>
<path d="M131.622 121.497H128.627V227.825H131.622V121.497Z" fill="#EBEBEB"/>
<path d="M146.02 121.497H143.026V227.825H146.02V121.497Z" fill="#EBEBEB"/>
<path d="M160.419 121.497H157.424V227.825H160.419V121.497Z" fill="#EBEBEB"/>
<path d="M174.817 121.497H171.823V227.825H174.817V121.497Z" fill="#EBEBEB"/>
<path d="M189.215 121.497H186.221V227.825H189.215V121.497Z" fill="#EBEBEB"/>
<path d="M203.614 121.497H200.62V227.825H203.614V121.497Z" fill="#EBEBEB"/>
<path d="M218.012 121.497H215.018V227.825H218.012V121.497Z" fill="#EBEBEB"/>
<path d="M232.42 121.497H229.425V227.825H232.42V121.497Z" fill="#EBEBEB"/>
<path d="M246.818 121.497H243.823V227.825H246.818V121.497Z" fill="#EBEBEB"/>
<path d="M261.216 121.497H258.222V227.825H261.216V121.497Z" fill="#EBEBEB"/>
<path d="M275.615 121.497H272.62V227.825H275.615V121.497Z" fill="#EBEBEB"/>
<path d="M290.013 121.497H287.019V227.825H290.013V121.497Z" fill="#EBEBEB"/>
<path d="M293.545 114.093H67.5015V121.488H293.545V114.093Z" fill="#EBEBEB"/>
<path d="M149.412 340.256C149.665 343.219 150.727 346.056 152.485 348.457C155.39 352.407 159.488 355.321 164.175 356.771C169.764 358.349 185.222 358.505 192 356.667C198.778 354.829 203.552 349.974 203.04 341.452C202.527 332.93 194.421 324.114 194.421 324.114C189.041 324.769 183.606 324.845 178.209 324.339C176.731 324.197 175.24 324.243 173.774 324.478C167.343 325.466 162.491 329.558 160.469 329.679C158.039 329.818 154.498 325.934 153.439 325.813C152.38 325.692 148.701 331.197 149.412 340.256Z" fill="#BE37ED"/>
<path opacity="0.6" d="M149.412 340.256C149.665 343.219 150.727 346.056 152.485 348.457C155.39 352.407 159.488 355.321 164.175 356.771C169.764 358.349 185.222 358.505 192 356.667C198.778 354.829 203.552 349.974 203.04 341.452C202.527 332.93 194.421 324.114 194.421 324.114C189.041 324.769 183.606 324.845 178.209 324.339C176.731 324.197 175.24 324.243 173.774 324.478C167.343 325.466 162.491 329.558 160.469 329.679C158.039 329.818 154.498 325.934 153.439 325.813C152.38 325.692 148.701 331.197 149.412 340.256Z" fill="white"/>
<path d="M155.653 347.72C155.488 347.616 158.439 336.892 167.873 331.249C168.038 331.145 168.038 331.379 167.873 331.509C165.382 333.65 158.647 341.47 156.894 347.062C168.654 350.477 181.464 341.739 184.719 336.971C184.797 336.866 184.953 336.971 184.892 337.101C176.578 352.254 157.267 349.775 155.653 347.72Z" fill="#BE37ED"/>
<path opacity="0.1" d="M152.485 348.457C155.39 352.407 159.488 355.321 164.175 356.771C169.764 358.349 185.222 358.505 192 356.667C198.778 354.829 203.552 349.974 203.04 341.452C202.528 332.93 194.421 324.114 194.421 324.114C189.041 324.769 183.606 324.845 178.209 324.339C176.731 324.197 175.241 324.243 173.774 324.478C179.138 326.671 184.397 330.347 187.66 335.167C194.048 344.703 182.635 350.121 174.868 351.491C167.273 352.85 159.442 351.789 152.485 348.457Z" fill="#030402"/>
<path d="M197.563 314.465C198.327 317.335 202.319 321.401 202.675 321.297L203.083 321.21C205.981 320.437 208.505 318.653 210.2 316.182C213.264 311.847 211.936 306.056 210.573 305.701C209.21 305.345 207.969 307.799 205.626 308.301C203.283 308.804 202.033 307.694 200.61 306.758C200.419 307.01 196.826 311.674 197.563 314.465Z" fill="#BE37ED"/>
<path d="M173.783 324.868C175.233 327.343 177.359 329.354 179.912 330.666C182.465 331.977 185.34 332.534 188.199 332.272C196.357 331.786 201.443 327.018 203.083 321.21C203.552 319.539 203.737 317.801 203.63 316.069C203.466 312.756 202.423 309.546 200.61 306.767C199.076 304.413 196.932 302.518 194.405 301.285C191.879 300.052 189.065 299.525 186.263 299.762C185.356 299.818 184.454 299.94 183.564 300.126C175.206 301.921 171.284 309.541 171.37 316.381C171.428 319.371 172.26 322.294 173.783 324.868Z" fill="#BE37ED"/>
<path opacity="0.6" d="M173.783 324.868C175.233 327.343 177.359 329.354 179.912 330.666C182.465 331.977 185.34 332.534 188.199 332.272C196.357 331.786 201.443 327.018 203.083 321.21C203.552 319.539 203.737 317.801 203.63 316.069C203.466 312.756 202.423 309.546 200.61 306.767C199.076 304.413 196.932 302.518 194.405 301.285C191.879 300.052 189.065 299.525 186.263 299.762C185.356 299.818 184.454 299.94 183.564 300.126C175.206 301.921 171.284 309.541 171.37 316.381C171.428 319.371 172.26 322.294 173.783 324.868Z" fill="white"/>
<path d="M194.127 315.401C197.234 314.803 198.466 319.814 195.125 320.455C191.783 321.097 190.915 316.008 194.127 315.401Z" fill="#263238"/>
<path opacity="0.1" d="M173.783 324.868C175.233 327.344 177.359 329.355 179.912 330.666C182.465 331.977 185.34 332.534 188.199 332.272C196.357 331.786 201.443 327.018 203.083 321.21C205.981 320.437 208.505 318.653 210.2 316.182C213.264 311.847 211.936 306.056 210.573 305.701C209.211 305.345 207.969 307.799 205.626 308.301C203.283 308.804 202.033 307.695 200.61 306.758C199.076 304.404 196.931 302.51 194.405 301.276C191.879 300.043 189.065 299.517 186.263 299.754C185.356 299.809 184.454 299.931 183.564 300.118C193.71 302.918 202.354 316.06 191.783 323.767C189.718 325.199 187.368 326.167 184.893 326.606C182.418 327.044 179.877 326.942 177.445 326.307C176.173 325.972 174.943 325.489 173.783 324.868Z" fill="#030402"/>
<path d="M236.862 280.508C246.131 281.93 264.123 319.303 254.454 323.854C246.643 327.538 221.101 308.119 221.865 295.167C222.377 286.585 230.362 279.511 236.862 280.508Z" fill="#AD6359"/>
<path d="M164.453 276.668C163.906 262.051 171.596 233.824 187.018 228.987C202.441 224.149 219.53 232.836 222.359 252.853C224.564 268.458 218.688 284.591 218.688 284.591C218.688 284.591 231.706 279.468 235.647 280.317C243.458 282.008 251.573 297.058 243.761 306.108C238.181 312.567 199.646 341.955 178.105 320.794C165.816 308.726 165.121 294.812 164.453 276.668Z" fill="#AD6359"/>
<g opacity="0.1">
<path d="M236.862 280.508C246.131 281.93 264.123 319.303 254.454 323.854C246.643 327.538 221.101 308.119 221.865 295.167C222.377 286.585 230.361 279.511 236.862 280.508Z" fill="black"/>
<path d="M164.453 276.668C163.906 262.051 171.596 233.824 187.018 228.987C202.441 224.149 219.53 232.836 222.359 252.853C224.564 268.458 218.688 284.591 218.688 284.591C218.688 284.591 231.706 279.468 235.647 280.317C243.458 282.008 251.573 297.058 243.761 306.108C238.181 312.567 199.646 341.955 178.105 320.794C165.816 308.726 165.121 294.812 164.453 276.668Z" fill="black"/>
</g>
<path d="M219.157 282.146C217.974 286.276 216.102 290.177 213.62 293.685C212.44 295.375 211.172 296.988 209.836 298.557C208.438 300.307 206.877 301.921 205.175 303.377C204.984 303.524 205.175 303.81 205.41 303.672C206.321 302.996 207.319 302.441 208.204 301.712C209.074 300.984 209.905 300.212 210.695 299.398C212.213 297.848 213.545 296.125 214.661 294.266C216.891 290.536 218.473 286.455 219.339 282.198C219.357 282.094 219.235 282.042 219.157 282.146Z" fill="#263238"/>
<path d="M238.763 305.787C237.286 308.612 235.351 311.173 233.034 313.364C231.95 314.378 230.83 315.315 229.667 316.208C228.456 317.212 227.141 318.084 225.744 318.808C225.588 318.878 225.683 319.155 225.84 319.094C226.56 318.791 227.315 318.6 228.027 318.227C228.732 317.872 229.416 317.475 230.075 317.04C231.371 316.188 232.554 315.177 233.599 314.032C235.798 311.612 237.578 308.843 238.867 305.839C238.901 305.796 238.797 305.718 238.763 305.787Z" fill="#263238"/>
<path d="M88.3994 284.912C93.2769 286.082 120.781 291.891 137.965 286.984C151.102 283.387 162.345 274.87 169.357 263.204C180.639 244.765 169.99 230.868 158.595 236.919C145.064 244.115 132.558 253.087 123.827 255.991C113.152 259.529 94.6309 260.5 91.7147 261.046C85.5787 262.199 82.3241 283.438 88.3994 284.912Z" fill="#AD6359"/>
<path d="M93.4592 261.097C91.8015 258.731 85.1968 254.7 84.2074 252.732C83.218 250.764 81.8728 245.25 78.948 246.707C76.0232 248.163 79.0087 256.061 79.7117 257.864C80.4147 259.667 61.8417 253.486 60.2969 257.864C58.752 262.242 71.8486 265.189 71.5795 266.082C71.3105 266.975 57.3287 265.319 56.4261 269.203C55.5234 273.087 70.6509 273.46 70.6248 273.763C70.5988 274.067 59.8542 270.226 58.3962 273.46C56.9381 276.693 72.1697 279.58 72.1176 280.265C72.0656 280.95 63.1436 282.172 63.7945 285.649C64.4454 289.125 77.8805 285.562 79.1129 285.423C80.3453 285.285 89.8835 285.926 91.3676 284.444C92.8517 282.961 94.6396 262.788 93.4592 261.097Z" fill="#AD6359"/>
<g opacity="0.1">
<path d="M88.3994 284.912C93.2769 286.082 120.781 291.891 137.965 286.984C151.102 283.387 162.345 274.87 169.357 263.204C180.639 244.765 169.99 230.868 158.595 236.919C145.064 244.115 132.558 253.087 123.827 255.991C113.152 259.529 94.6309 260.5 91.7147 261.046C85.5787 262.199 82.3241 283.438 88.3994 284.912Z" fill="black"/>
<path d="M93.4592 261.098C91.8015 258.731 85.1968 254.7 84.2074 252.732C83.218 250.764 81.8728 245.25 78.948 246.707C76.0232 248.163 79.0087 256.061 79.7117 257.864C80.4147 259.667 61.8417 253.486 60.2969 257.864C58.752 262.242 71.8486 265.19 71.5795 266.082C71.3105 266.975 57.3287 265.32 56.4261 269.203C55.5234 273.087 70.6509 273.46 70.6248 273.763C70.5988 274.067 59.8542 270.226 58.3962 273.46C56.9381 276.694 72.1697 279.58 72.1176 280.265C72.0656 280.95 63.1436 282.173 63.7945 285.649C64.4454 289.125 77.8805 285.562 79.1129 285.424C80.3453 285.285 89.8835 285.926 91.3676 284.444C92.8517 282.961 94.6396 262.788 93.4592 261.098Z" fill="black"/>
</g>
<path d="M81.6124 261.852C80.2643 264.696 79.2816 267.699 78.6875 270.79C78.1989 273.917 78.1434 277.097 78.5226 280.239C78.5226 280.482 78.9219 280.482 78.8958 280.239C78.712 277.131 78.8897 274.013 79.4253 270.946C79.8659 267.863 80.694 264.848 81.8901 261.973C81.9595 261.817 81.6905 261.696 81.6124 261.852Z" fill="#263238"/>
<path d="M68.9151 273.495C67.9517 273.338 66.997 273.165 66.0423 272.974C65.0876 272.784 64.3065 272.671 63.3605 272.576C62.3017 272.454 61.6247 272.42 60.5659 272.211C60.2621 272.142 60.2014 272.211 60.4878 272.342C62.2446 272.881 64.033 273.312 65.8427 273.633C66.7801 273.755 67.7087 273.859 68.646 273.945C69.6483 274.068 70.6566 274.134 71.6663 274.145C71.7878 274.145 71.8312 273.945 71.6663 273.919C70.8245 273.729 69.8351 273.651 68.9151 273.495Z" fill="#263238"/>
<path d="M202.667 303.707C201.712 303.091 207.284 284.279 207.735 264.843C208.282 241.262 203.526 226.941 204.359 225.64C206.095 222.988 209.749 225.415 210.339 225.372C210.929 225.328 233.772 218.15 249.03 224.774C264.288 231.397 274.199 252.662 271.109 269.949C268.02 287.235 254.333 316.763 206.451 303.369C206.165 303.291 204.785 305.111 202.667 303.707Z" fill="#BE37ED"/>
<g opacity="0.6">
<path d="M202.667 303.707C201.712 303.091 207.284 284.279 207.735 264.843C208.282 241.262 203.526 226.941 204.359 225.64C206.095 222.988 209.749 225.415 210.339 225.372C210.929 225.328 233.772 218.15 249.03 224.774C264.288 231.397 274.199 252.662 271.109 269.949C268.02 287.235 254.333 316.763 206.451 303.369C206.165 303.291 204.785 305.111 202.667 303.707Z" fill="white"/>
</g>
<path d="M210.452 228.822C211.624 231.68 212.593 234.618 213.351 237.612C214.085 240.618 214.664 243.659 215.086 246.724C215.974 252.862 216.265 259.073 215.954 265.267C215.674 271.465 214.802 277.622 213.351 283.655C212.658 286.669 211.812 289.647 210.816 292.575C210.382 294.058 209.731 295.471 209.176 296.91C208.621 298.349 208.022 299.771 207.44 301.184C207.865 299.701 208.308 298.219 208.759 296.754C209.211 295.289 209.714 293.841 210.018 292.324C210.73 289.342 211.554 286.394 212.049 283.369L212.465 281.115C212.604 280.36 212.786 279.623 212.865 278.861L213.472 274.318C213.715 272.809 213.776 271.275 213.923 269.758C214.071 268.241 214.21 266.715 214.218 265.189L214.375 260.612L214.305 256.034C214.21 252.983 214.019 249.966 213.706 246.888C213.158 240.782 212.069 234.736 210.452 228.822Z" fill="#BE37ED"/>
<path d="M287.495 297.04C296.669 298.991 312.491 337.326 302.579 341.34C294.603 344.573 270.181 323.724 271.682 310.842C272.689 302.285 281.064 295.67 287.495 297.04Z" fill="#AD6359"/>
<path d="M215.416 289.073C215.72 274.456 224.963 246.706 240.655 242.753C256.346 238.8 272.897 248.449 274.581 268.596C275.883 284.305 269.096 300.074 269.096 300.074C269.096 300.074 282.383 295.739 286.28 296.78C293.996 298.912 301.217 314.404 292.902 322.987C286.966 329.116 246.808 356.259 226.517 333.901C214.948 321.157 215.052 307.226 215.416 289.073Z" fill="#AD6359"/>
<path d="M269.729 297.673C268.305 301.725 266.213 305.51 263.541 308.874C262.257 310.495 260.937 312.029 259.479 313.52C257.984 315.187 256.333 316.708 254.55 318.063C254.513 318.094 254.489 318.137 254.483 318.184C254.476 318.231 254.488 318.279 254.515 318.318C254.542 318.357 254.583 318.385 254.63 318.396C254.676 318.406 254.725 318.399 254.767 318.375C255.721 317.751 256.745 317.257 257.674 316.581C258.579 315.903 259.448 315.18 260.278 314.413C261.883 312.954 263.311 311.309 264.53 309.515C266.974 305.917 268.787 301.93 269.894 297.725C269.929 297.63 269.764 297.569 269.729 297.673Z" fill="#263238"/>
<path d="M287.946 322.389C286.312 325.127 284.232 327.573 281.793 329.628C280.656 330.581 279.476 331.457 278.269 332.28C276.999 333.21 275.635 334.003 274.199 334.647C274.042 334.708 274.121 334.994 274.285 334.933C275.023 334.673 275.778 334.534 276.516 334.222C277.239 333.909 277.944 333.553 278.625 333.156C279.967 332.377 281.209 331.437 282.322 330.356C284.649 328.059 286.584 325.397 288.05 322.475C288.085 322.449 287.99 322.319 287.946 322.389Z" fill="#263238"/>
<path d="M205.93 226.984C216.51 254.18 205.583 300.291 202.641 302.095C202.641 302.095 153.231 305.016 130.883 255.116C129.685 252.437 165.347 231.198 174.173 226.698C182.436 222.494 196.661 225.233 203.769 226.083C204.975 226.221 205.748 226.499 205.93 226.984Z" fill="#AD6359"/>
<g opacity="0.1">
<path d="M174.338 262.45C174.125 262.328 173.89 262.25 173.646 262.22C173.402 262.19 173.155 262.209 172.918 262.275C172.682 262.341 172.461 262.454 172.268 262.606C172.075 262.758 171.915 262.946 171.796 263.161C171.496 263.631 171.389 264.197 171.495 264.744C171.602 265.291 171.914 265.776 172.368 266.1C172.701 266.302 173.101 266.364 173.48 266.273C173.858 266.182 174.186 265.945 174.391 265.614C174.575 265.51 174.742 265.379 174.885 265.224C175.043 265.01 175.155 264.765 175.213 264.506C175.272 264.246 175.275 263.978 175.224 263.717C175.172 263.456 175.067 263.208 174.915 262.99C174.762 262.772 174.566 262.588 174.338 262.45Z" fill="black"/>
<path d="M153.327 276.164C153.114 276.043 152.878 275.965 152.634 275.935C152.391 275.905 152.143 275.924 151.907 275.99C151.67 276.056 151.449 276.168 151.257 276.32C151.064 276.472 150.903 276.661 150.784 276.875C150.483 277.346 150.376 277.914 150.485 278.461C150.593 279.009 150.908 279.493 151.365 279.814C151.53 279.917 151.714 279.986 151.906 280.017C152.098 280.048 152.294 280.041 152.482 279.996C152.671 279.95 152.85 279.868 153.006 279.754C153.163 279.639 153.296 279.495 153.396 279.329C153.578 279.225 153.742 279.093 153.882 278.939C154.041 278.724 154.154 278.479 154.212 278.219C154.27 277.959 154.273 277.69 154.221 277.428C154.169 277.167 154.062 276.919 153.908 276.702C153.754 276.484 153.556 276.301 153.327 276.164Z" fill="black"/>
<path d="M182.089 293.104C181.967 293.104 181.82 293.226 181.898 293.365C182.06 293.6 182.24 293.823 182.436 294.032C182.54 294.162 182.818 294.552 182.679 294.743C182.54 294.934 182.106 294.743 181.95 294.656C181.234 294.084 180.744 293.276 180.57 292.376C180.558 292.342 180.535 292.313 180.504 292.294C180.473 292.275 180.436 292.267 180.4 292.273C180.364 292.278 180.331 292.295 180.307 292.322C180.282 292.349 180.268 292.383 180.266 292.42C180.371 293.599 181.082 296.277 182.783 295.887C183.085 295.798 183.342 295.599 183.503 295.329C183.663 295.059 183.716 294.738 183.651 294.431C183.565 294.073 183.368 293.751 183.087 293.513C182.806 293.274 182.457 293.131 182.089 293.104Z" fill="black"/>
</g>
<path d="M192.33 334.63C193.892 329.862 206.52 303.421 203.005 285.883C199.265 267.253 193.024 252.489 186.637 247.842C169.149 235.107 154.525 252.177 157.224 264.808C160.582 280.664 167.239 286.984 169.235 295.948C169.461 296.988 166.692 319.814 168.775 329.411C170.069 335.54 190.343 340.56 192.33 334.63Z" fill="#AD6359"/>
<path d="M168.61 325.666C166.241 326.368 162.795 329.723 160.799 330.087C158.803 330.451 153.066 332.237 154.464 334.11C155.861 335.982 163.759 335.115 165.555 334.907C167.352 334.699 160.921 344.851 165.234 346.238C169.548 347.625 172.698 340.308 173.575 340.586C174.451 340.863 172.594 348.821 176.439 349.784C180.284 350.746 180.891 341.981 181.195 341.981C181.499 341.981 177.498 347.877 180.692 349.09C183.885 350.304 186.992 341.73 187.635 341.834C188.277 341.938 189.37 347.287 192.842 347.296C196.314 347.304 192.981 339.06 192.842 338.323C192.703 337.586 193.519 332.09 192.061 331.058C190.603 330.027 170.303 325.163 168.61 325.666Z" fill="#AD6359"/>
<path d="M168.498 306.108C167.968 302.689 168.127 299.2 168.966 295.843C169.157 294.977 169.426 294.179 169.678 293.355C169.964 292.539 170.291 291.737 170.659 290.954C171.38 289.386 172.292 287.912 173.375 286.567C172.589 288.075 171.891 289.626 171.284 291.214C170.681 292.788 170.188 294.401 169.808 296.043C169.408 297.686 169.104 299.35 168.897 301.028C168.676 302.713 168.543 304.409 168.498 306.108Z" fill="#263238"/>
<path d="M169.192 295.948C168.003 293.893 166.962 291.778 165.981 289.645C165 287.512 164.071 285.311 163.178 283.178C162.284 281.045 161.442 278.843 160.661 276.598C159.88 274.353 159.116 272.168 158.448 269.888C159.747 271.868 160.907 273.936 161.919 276.078C162.961 278.193 163.898 280.352 164.792 282.528C165.686 284.704 166.528 286.906 167.239 289.142C168.008 291.375 168.66 293.647 169.192 295.948Z" fill="#263238"/>
<path d="M157.701 273.391C158.667 274.01 159.544 274.76 160.305 275.619C161.094 276.457 161.76 277.403 162.284 278.427C160.343 277.17 158.759 275.436 157.684 273.391H157.701Z" fill="#263238"/>
<path d="M194.795 259.442C197.089 264.904 199.086 270.486 200.775 276.165C201.637 279.015 202.35 281.909 202.91 284.834C203.04 285.579 203.135 286.325 203.248 287.07C203.361 287.816 203.396 288.605 203.396 289.359C203.396 290.113 203.396 290.876 203.396 291.622C203.396 292.367 203.344 293.113 203.292 293.858C202.852 299.788 201.982 305.679 200.688 311.483C200.028 314.379 199.265 317.248 198.353 320.083L197.624 322.181L196.808 324.261C196.513 324.946 196.201 325.614 195.897 326.29C195.593 326.966 195.177 327.59 194.83 328.241C195.98 325.529 196.886 322.721 197.537 319.849C198.249 316.988 198.822 314.11 199.36 311.18C200.397 305.399 201.132 299.568 201.565 293.711C201.625 292.983 201.669 292.255 201.686 291.526C201.703 290.798 201.729 290.079 201.686 289.359C201.643 288.64 201.608 287.937 201.573 287.227L201.278 285.077C200.835 282.198 200.15 279.338 199.456 276.477C198.023 270.807 196.435 265.12 194.795 259.442Z" fill="#263238"/>
<path d="M197.086 261.392C197.586 262.587 197.908 263.849 198.041 265.137C198.23 266.421 198.207 267.727 197.971 269.004C197.591 267.777 197.327 266.517 197.182 265.241C197.011 263.965 196.979 262.675 197.086 261.392Z" fill="#263238"/>
<path d="M188.546 328.691C186.346 327.393 183.982 326.396 181.516 325.726C178.971 325.143 176.356 324.918 173.748 325.059C173.549 325.059 173.505 325.388 173.705 325.38C176.269 325.394 178.821 325.717 181.308 326.342C183.785 326.888 186.179 327.763 188.425 328.943C188.546 328.977 188.668 328.761 188.546 328.691Z" fill="#263238"/>
<path d="M173.757 182.702C174.95 183.771 176.423 184.479 178.004 184.741C179.585 185.004 181.208 184.811 182.683 184.185C184.157 183.559 185.423 182.526 186.331 181.207C187.239 179.888 187.751 178.337 187.809 176.738C190.577 178.783 194.231 179.451 197.251 177.214C200.272 174.978 200.853 170.86 199.1 167.557C199.1 167.557 199.048 167.557 199.056 167.557C200.324 170.73 199.82 174.579 196.904 176.677C194.413 178.471 191.697 178.168 189.327 176.894C190.586 177.113 191.876 177.072 193.118 176.774C194.36 176.476 195.527 175.926 196.548 175.16C197.652 174.268 198.468 173.072 198.896 171.72C199.323 170.368 199.343 168.92 198.952 167.557C202.077 166.647 205.106 164.601 206.251 161.436C206.741 160.123 206.837 158.696 206.529 157.329C206.221 155.963 205.521 154.715 204.516 153.738C205.919 153.04 207.088 151.949 207.88 150.598C208.672 149.247 209.052 147.695 208.975 146.131C208.897 144.568 208.365 143.06 207.444 141.794C206.523 140.527 205.252 139.557 203.787 139C204.748 138.4 205.543 137.567 206.098 136.579C206.653 135.591 206.95 134.479 206.962 133.347C206.974 132.214 206.701 131.096 206.167 130.096C205.633 129.097 204.857 128.247 203.908 127.626C204.546 127.031 205.001 126.266 205.218 125.421C205.435 124.576 205.405 123.687 205.132 122.858C204.542 120.899 202.867 119.564 201.105 118.628C201.348 117.75 201.368 116.825 201.162 115.938C200.956 115.05 200.53 114.228 199.924 113.548C199.116 112.7 198.032 112.168 196.866 112.046C195.701 111.924 194.53 112.219 193.563 112.88C192.131 109.967 190.161 106.994 187.045 105.737C184.484 104.705 181.291 104.982 179.338 107.028C178.572 105.877 177.57 104.901 176.399 104.165C175.227 103.429 173.912 102.949 172.542 102.758C171.171 102.567 169.775 102.669 168.447 103.057C167.118 103.445 165.887 104.11 164.835 105.008C163.9 104.249 162.783 103.748 161.593 103.554C160.404 103.361 159.185 103.483 158.057 103.907C156.483 104.425 155.059 105.317 153.908 106.508C153.02 105.899 151.965 105.581 150.887 105.596C149.81 105.612 148.764 105.961 147.894 106.595C147.103 107.216 146.459 108.005 146.009 108.904C145.558 109.804 145.313 110.791 145.29 111.796C144.937 112.264 144.483 112.646 143.962 112.915C142.658 113.591 141.541 114.577 140.708 115.787C139.876 116.996 139.354 118.392 139.189 119.85C138.337 120.013 137.53 120.356 136.821 120.856C136.113 121.356 135.52 122.002 135.083 122.75C134.645 123.499 134.374 124.332 134.285 125.194C134.197 126.056 134.295 126.927 134.572 127.748C132.989 128.61 131.809 130.061 131.288 131.785C130.766 133.509 130.945 135.369 131.786 136.963C130.581 137.742 129.558 138.773 128.788 139.983C128.018 141.193 127.519 142.556 127.325 143.977C127.038 146.187 127.672 148.771 129.685 149.88C128.305 150.973 128.488 153.149 129.468 154.536C129.855 155.056 130.297 155.533 130.788 155.957C131.352 156.469 132.22 156.963 132.576 157.691C132.931 158.419 132.732 159.312 132.766 160.075C132.797 160.629 132.884 161.178 133.027 161.714C133.597 163.697 134.827 165.427 136.514 166.618C138.2 167.809 140.243 168.391 142.305 168.268C142.47 171.224 145.004 173.244 147.642 174.232C148.505 174.536 149.394 174.759 150.298 174.9C151.117 174.982 151.89 175.315 152.511 175.853C152.893 176.226 153.197 176.72 153.587 177.058C155.011 178.367 156.746 178.541 158.482 178.463C159.194 186.343 168.758 187.964 173.757 182.702ZM147.59 107.774C148.384 106.977 149.405 106.446 150.514 106.255C151.623 106.064 152.763 106.222 153.778 106.708L153.605 106.924C153.605 106.924 152.867 106.812 152.502 106.803C151.832 106.781 151.162 106.86 150.515 107.037C149.536 107.287 148.625 107.75 147.846 108.393C147.068 109.036 146.441 109.843 146.011 110.756L145.898 110.955C146.151 109.757 146.738 108.655 147.59 107.774ZM199.473 115.307C198.852 114.431 197.975 113.768 196.962 113.41C195.949 113.051 194.849 113.014 193.814 113.305L193.736 113.149C195.776 112.221 197.894 111.935 199.638 113.851C200.172 114.446 200.538 115.172 200.699 115.955C200.861 116.738 200.812 117.549 200.558 118.307C200.485 117.225 200.109 116.186 199.473 115.307ZM158.812 178.454H158.89C159.75 180.752 161.473 182.626 163.693 183.676C165.913 184.727 168.455 184.872 170.78 184.08C165.764 186.178 160.218 185.103 158.812 178.454Z" fill="#263238"/>
<path d="M184.015 220.361C177.454 239.346 160.808 248.102 151.079 251.136C136.012 255.861 93.7975 261.297 81.7163 234.769C78.913 228.622 77.4897 219.442 77.1686 209.533C76.5437 190.556 79.9632 168.9 85.4743 160.682C97.1736 143.248 129.303 132.385 157.206 143.725C179.667 152.862 190.594 201.358 184.015 220.361Z" fill="#AD6359"/>
<path d="M135.613 190.894C134.412 190.609 133.227 190.259 132.063 189.845C130.71 189.429 129.581 189.238 128.644 188.111C128.416 187.758 128.312 187.34 128.346 186.921C128.381 186.503 128.552 186.107 128.835 185.796C130.119 184.531 131.907 184.626 133.565 185.059C135.247 185.443 136.726 186.438 137.714 187.851C138.772 189.281 137.245 191.215 135.613 190.894Z" fill="#263238"/>
<path d="M96.7745 190.79C97.9768 190.525 99.1646 190.198 100.333 189.81C101.687 189.42 102.798 189.238 103.744 188.077C103.975 187.73 104.085 187.317 104.056 186.901C104.028 186.486 103.863 186.092 103.588 185.779C102.329 184.505 100.55 184.583 98.9009 184.99C97.2308 185.354 95.7537 186.32 94.7523 187.704C93.6588 189.152 95.1255 191.093 96.7745 190.79Z" fill="#263238"/>
<path d="M123.107 220.482C123.293 220.985 123.444 221.501 123.558 222.025C124.044 224.105 124.356 227.764 121.206 229.099C120.003 229.576 118.676 229.643 117.431 229.29C114.011 228.475 110.809 224.894 110.809 224.894C118.142 226.091 123.107 220.482 123.107 220.482Z" fill="#263238"/>
<path d="M123.558 222.025C124.044 224.106 124.356 227.764 121.206 229.099C120.003 229.576 118.676 229.644 117.43 229.29C117.691 227.455 118.527 225.75 119.817 224.418C120.848 223.325 122.133 222.503 123.558 222.025Z" fill="#FF99BA"/>
<path d="M106.052 195.272C105.375 203.074 105.879 200.3 104.863 208.085C103.127 208.293 95.3164 208.726 95.9152 209.394C98.0763 211.795 104.455 215.852 104.429 215.913C103.613 218.054 100.151 220.447 100.333 220.612C110.4 230.009 119.843 224.184 122.994 220.872C123.627 220.204 123.358 220.23 122.994 220.525C119.782 222.935 110.201 226.793 103.093 220.36C104.423 219.09 105.418 217.512 105.992 215.766C106.061 215.549 101.045 212.099 99.0483 210.191C101.418 209.966 104.334 209.897 106.096 209.749C106.504 209.749 107.484 203.568 106.773 195.246C106.769 195.15 106.728 195.06 106.658 194.995C106.588 194.93 106.495 194.895 106.399 194.899C106.304 194.902 106.214 194.944 106.149 195.013C106.083 195.083 106.049 195.176 106.052 195.272Z" fill="#263238"/>
<path d="M131.048 197.032C137.427 196.85 137.314 209.619 131.404 209.784C125.493 209.949 125.693 197.179 131.048 197.032Z" fill="#263238"/>
<path d="M133.079 197.517C134.103 198.029 135.162 199.026 136.325 199.017C137.67 199.017 138.564 197.76 139.319 196.564C139.397 196.442 139.501 196.564 139.519 196.668C139.771 198.766 139.189 201.002 136.967 201.548C134.945 202.051 133.279 200.352 132.532 198.298C132.393 197.916 132.671 197.301 133.079 197.517Z" fill="#263238"/>
<path d="M101.097 197.257C95.5335 196.832 95.0215 209.125 100.151 209.524C105.28 209.923 105.749 197.613 101.097 197.257Z" fill="#263238"/>
<path d="M99.5429 197.517C98.5188 198.029 97.4686 199.026 96.297 199.017C94.9517 199.017 94.0578 197.76 93.3027 196.564C93.2246 196.442 93.1205 196.564 93.1031 196.668C92.8514 198.766 93.4329 201.002 95.6547 201.548C97.6769 202.051 99.3433 200.352 100.09 198.298C100.229 197.916 99.9508 197.301 99.5429 197.517Z" fill="#263238"/>
<path d="M128.704 253.963C123.922 253.572 119.158 254.188 114.384 253.624C109.762 253.062 105.217 251.983 100.836 250.408C96.1296 248.862 91.7254 246.516 87.8177 243.473C87.5661 243.265 87.6181 243.421 87.8177 243.655C90.9524 246.776 94.6437 249.284 98.7012 251.05C102.627 252.888 106.767 254.23 111.025 255.046C115.393 255.854 119.842 256.145 124.278 255.913C129.329 255.688 135.344 255.168 138.633 259.892C138.72 260.014 138.92 259.892 138.841 259.771C136.915 256.052 132.74 254.301 128.704 253.963Z" fill="#263238"/>
<path d="M153.952 255.055C154.483 253.308 155.396 251.7 156.625 250.348C157.873 249.018 159.261 247.827 160.765 246.793C163.707 244.695 166.701 242.823 169.513 240.664C172.415 238.724 174.961 236.299 177.038 233.495C179.002 230.534 180.804 227.469 182.436 224.314C181.424 227.785 179.996 231.12 178.183 234.249C177.223 235.829 176.071 237.285 174.755 238.584C173.427 239.828 172.021 240.986 170.546 242.051C167.634 244.148 164.618 246.098 161.511 247.894C159.98 248.78 158.528 249.795 157.172 250.928C155.856 252.097 154.765 253.495 153.952 255.055Z" fill="#263238"/>
<path d="M79.1389 184.132C81.5107 184.072 83.7728 183.122 85.4746 181.47C89.0069 178.081 89.2933 174.882 89.2933 174.882C93.1554 172.203 96.0889 167.253 95.2384 162.667C97.4785 163.115 99.7967 162.976 101.967 162.264C104.138 161.551 106.086 160.289 107.623 158.601C110.782 171.605 127.767 176.98 139.128 169.871C139.605 175.168 141.211 180.543 145.116 184.297C148.87 187.938 153.595 190.421 158.725 191.449C158.721 191.475 158.721 191.501 158.725 191.527C156.061 201.41 166.12 209.81 175.476 207.903C176.357 207.81 177.228 207.639 178.079 207.391C182.61 206.022 187.036 203.785 188.867 199.216C189.992 196.308 190.033 193.093 188.983 190.157C187.933 187.222 185.862 184.76 183.148 183.222C185.026 181.37 186.22 178.937 186.536 176.32C186.851 173.703 186.268 171.057 184.884 168.813C183.061 165.909 178.687 164.531 178.253 161.072C177.858 157.205 176.213 153.573 173.566 150.724C170.92 147.876 167.416 145.966 163.585 145.285C161.491 145.047 159.512 144.204 157.892 142.858C156.846 141.921 155.742 141.053 154.585 140.257C150.029 137.296 144.627 135.91 139.206 136.312C136.03 136.555 132.87 138.142 129.72 137.257C126.986 136.494 118.377 137.119 115.573 137.743C103.353 140.456 98.3281 146.048 98.3281 146.048C98.3281 146.048 91.923 147.392 86.5421 155.038C81.3954 162.337 81.3347 166.308 81.3347 166.308C80.6402 168.294 79.8198 170.234 78.8785 172.116C75.7107 176.997 78.8004 184.141 79.1389 184.132ZM158.864 192.021C160.426 199.346 162.787 202.71 165.72 205.025C161.147 202.398 157.987 197.717 158.864 192.021ZM108.752 158.878C110.363 162.083 112.7 164.869 115.578 167.013C118.455 169.158 121.794 170.602 125.328 171.232C117.96 170.556 111.555 166.785 108.752 158.878Z" fill="#263238"/>
<path d="M160.001 207.556C160.001 207.556 167.291 191.362 176.404 190.27C186.038 189.108 189.423 206.481 183.347 214.284C176.265 223.43 164.097 221.219 164.097 221.219L160.001 207.556Z" fill="#AD6359"/>
<path d="M174.295 200.777C175.577 199.41 177.019 198.202 178.591 197.18C178.773 197.067 178.591 196.755 178.4 196.85C171.717 200.214 165.955 208.016 167.595 215.818C167.606 215.876 167.636 215.928 167.682 215.965C167.727 216.003 167.784 216.023 167.842 216.023C167.901 216.023 167.958 216.003 168.003 215.965C168.048 215.928 168.079 215.876 168.09 215.818C168.211 215.099 168.324 214.397 168.445 213.694C169.504 211.683 170.459 209.863 172.342 208.389C174.145 206.968 176.303 206.069 178.582 205.788C178.851 205.788 178.782 205.381 178.522 205.381C176.746 205.421 174.999 205.84 173.397 206.608C171.796 207.377 170.377 208.477 169.235 209.837C169.687 208.014 170.391 206.263 171.327 204.635C172.174 203.216 173.169 201.891 174.295 200.682" fill="#263238"/>
<path d="M166.068 220.76C166.058 220.764 166.05 220.77 166.045 220.779C166.039 220.787 166.036 220.797 166.036 220.807C166.036 220.818 166.039 220.827 166.045 220.836C166.05 220.844 166.058 220.851 166.068 220.855C166.077 220.851 166.085 220.844 166.09 220.836C166.096 220.827 166.099 220.818 166.099 220.807C166.099 220.797 166.096 220.787 166.09 220.779C166.085 220.77 166.077 220.764 166.068 220.76Z" fill="#263238"/>
<path d="M180.084 229.507C180.674 231.943 185.413 221.8 185.413 220.482C185.413 219.164 189.188 214.249 189.753 211.518C190.317 208.787 190.751 201.115 190.464 199.381C190.178 197.647 192.053 192.584 191.185 189.646C190.317 186.707 181.56 160.751 158.812 148.207C136.064 135.662 120.043 139.052 120.043 139.052C111.8 140.117 103.698 142.076 95.8808 144.895C83.2442 149.507 73.4283 185.051 73.5759 185.727C73.7234 186.403 75.1815 188.198 75.1034 190.183C75.0253 192.168 73.5932 194.622 75.1034 196.069C76.6135 197.517 75.3117 202.736 75.8845 204.591C76.4573 206.447 77.0908 206.776 77.1256 208.137C77.1603 209.498 73.7321 175.073 109.88 152.29C109.88 152.29 167.309 177.205 180.084 229.507Z" fill="#BE37ED"/>
<path d="M77.0906 207.79C77.1046 207.914 77.1046 208.039 77.0906 208.163C77.1253 208.276 77.1079 208.146 77.0906 207.79Z" fill="#BE37ED"/>
<path d="M77.0906 207.79C77.104 207.914 77.104 208.039 77.0906 208.163C77.1253 208.276 77.1079 208.146 77.0906 207.79Z" fill="#BE37ED"/>
<path opacity="0.3" d="M85.3968 168.701C85.4216 169.525 85.1514 170.332 84.6346 170.975C84.1178 171.619 83.3883 172.057 82.5771 172.211C81.7659 172.366 80.9261 172.227 80.2086 171.818C79.491 171.41 78.9426 170.76 78.6619 169.984C79.226 168.519 79.8422 167.028 80.4931 165.519C81.025 165.279 81.609 165.176 82.1912 165.221C82.7734 165.265 83.3349 165.456 83.8237 165.775C84.3126 166.094 84.713 166.531 84.988 167.045C85.2629 167.56 85.4035 168.135 85.3968 168.718V168.701ZM97.8598 157.778C96.939 157.778 96.056 158.143 95.405 158.793C94.7539 159.444 94.3882 160.326 94.3882 161.245C94.3834 161.734 94.4822 162.219 94.6781 162.667C94.8741 163.115 95.1627 163.517 95.5251 163.846C97.0873 162.242 98.7798 160.656 100.611 159.104C100.284 158.688 99.8662 158.352 99.3893 158.122C98.9124 157.892 98.3893 157.775 97.8598 157.778ZM80.6233 181.661C79.7026 181.604 78.7967 181.914 78.105 182.524C77.4133 183.133 76.9923 183.993 76.9348 184.912C76.8772 185.832 77.1878 186.737 77.7981 187.428C78.4085 188.119 79.2687 188.539 80.1894 188.597C80.9093 186.465 81.7408 184.373 82.6802 182.329C82.0853 181.889 81.3633 181.655 80.6233 181.661ZM142.756 141.393C142.459 141.922 142.307 142.52 142.313 143.127C142.235 144.046 142.526 144.959 143.122 145.665C143.717 146.371 144.569 146.811 145.49 146.889C146.411 146.967 147.325 146.677 148.031 146.082C148.738 145.487 149.178 144.636 149.257 143.716C146.983 142.763 144.813 142.017 142.756 141.393ZM153.275 168.701C152.588 168.701 151.917 168.904 151.346 169.285C150.775 169.666 150.33 170.208 150.068 170.842C149.805 171.475 149.736 172.172 149.87 172.845C150.004 173.518 150.335 174.136 150.82 174.621C151.306 175.106 151.924 175.436 152.598 175.57C153.271 175.703 153.969 175.635 154.604 175.372C155.238 175.11 155.78 174.665 156.162 174.095C156.543 173.525 156.747 172.854 156.747 172.169C156.747 171.249 156.381 170.367 155.73 169.717C155.079 169.066 154.196 168.701 153.275 168.701ZM104.378 142.234C102.355 142.789 100.212 143.43 98.0247 144.176C98.0247 145.095 98.3904 145.977 99.0415 146.628C99.6925 147.278 100.576 147.643 101.496 147.643C102.417 147.643 103.3 147.278 103.951 146.628C104.602 145.977 104.968 145.095 104.968 144.176C104.967 143.483 104.758 142.807 104.369 142.234H104.378ZM121.848 143.101C121.162 143.101 120.491 143.304 119.92 143.685C119.349 144.066 118.904 144.608 118.641 145.241C118.378 145.875 118.31 146.572 118.444 147.245C118.578 147.918 118.908 148.535 119.394 149.02C119.879 149.505 120.498 149.836 121.171 149.969C121.845 150.103 122.543 150.035 123.177 149.772C123.811 149.51 124.354 149.065 124.735 148.495C125.116 147.925 125.32 147.254 125.32 146.568C125.321 146.112 125.232 145.659 125.057 145.237C124.883 144.814 124.627 144.431 124.303 144.108C123.98 143.785 123.596 143.529 123.173 143.354C122.75 143.18 122.297 143.091 121.84 143.092L121.848 143.101ZM136.091 156.503C135.404 156.503 134.733 156.707 134.162 157.088C133.591 157.469 133.146 158.01 132.883 158.644C132.621 159.278 132.552 159.975 132.686 160.647C132.82 161.32 133.15 161.938 133.636 162.423C134.121 162.908 134.74 163.238 135.413 163.372C136.087 163.506 136.785 163.437 137.419 163.175C138.054 162.912 138.596 162.468 138.977 161.898C139.359 161.327 139.562 160.657 139.562 159.971C139.563 159.514 139.474 159.062 139.3 158.639C139.125 158.217 138.869 157.833 138.545 157.51C138.222 157.187 137.838 156.931 137.415 156.757C136.992 156.583 136.539 156.493 136.082 156.495L136.091 156.503ZM162.31 153.036C161.623 153.036 160.952 153.239 160.381 153.62C159.81 154.001 159.365 154.543 159.103 155.176C158.84 155.81 158.771 156.507 158.905 157.18C159.039 157.852 159.37 158.47 159.855 158.955C160.341 159.44 160.959 159.771 161.633 159.904C162.306 160.038 163.004 159.969 163.638 159.707C164.273 159.445 164.815 159 165.196 158.43C165.578 157.86 165.781 157.189 165.781 156.503C165.785 156.045 165.697 155.591 165.524 155.166C165.35 154.742 165.094 154.356 164.771 154.031C164.447 153.706 164.062 153.449 163.638 153.274C163.214 153.098 162.76 153.008 162.301 153.01L162.31 153.036ZM169.887 178.471C169.2 178.471 168.529 178.674 167.958 179.056C167.387 179.437 166.942 179.978 166.679 180.612C166.417 181.245 166.348 181.943 166.482 182.615C166.616 183.288 166.946 183.906 167.432 184.391C167.917 184.876 168.536 185.206 169.209 185.34C169.883 185.474 170.581 185.405 171.215 185.143C171.849 184.88 172.392 184.436 172.773 183.865C173.155 183.295 173.358 182.625 173.358 181.939C173.362 181.48 173.274 181.026 173.101 180.602C172.927 180.177 172.671 179.792 172.348 179.467C172.024 179.142 171.639 178.884 171.215 178.709C170.791 178.534 170.337 178.444 169.878 178.445L169.887 178.471ZM178.106 217.014C177.444 217.012 176.795 217.202 176.24 217.561C177.107 219.641 177.845 221.783 178.522 223.967C179.443 223.912 180.304 223.494 180.916 222.804C181.528 222.115 181.841 221.211 181.785 220.291C181.73 219.372 181.311 218.512 180.621 217.9C179.931 217.289 179.026 216.977 178.106 217.032V217.014ZM162.301 192.411C162.029 192.412 161.759 192.444 161.494 192.507C162.813 194.165 164.089 195.873 165.321 197.63C165.632 197.105 165.794 196.506 165.79 195.896C165.792 195.438 165.704 194.984 165.529 194.56C165.355 194.136 165.098 193.751 164.773 193.427C164.449 193.103 164.063 192.846 163.639 192.672C163.215 192.497 162.76 192.409 162.301 192.411ZM178.366 165.537C177.902 165.747 177.489 166.056 177.158 166.443C176.827 166.83 176.585 167.286 176.45 167.776C176.315 168.267 176.289 168.782 176.376 169.284C176.462 169.786 176.658 170.262 176.95 170.68C177.242 171.098 177.622 171.446 178.064 171.7C178.505 171.955 178.997 172.109 179.505 172.151C180.013 172.194 180.525 172.125 181.003 171.948C181.481 171.771 181.914 171.491 182.271 171.128C181.1 169.238 179.798 167.357 178.366 165.476V165.537ZM179.711 196.564C179.025 196.564 178.353 196.767 177.782 197.148C177.212 197.529 176.767 198.071 176.504 198.704C176.241 199.338 176.172 200.035 176.306 200.708C176.44 201.381 176.771 201.999 177.256 202.483C177.742 202.968 178.36 203.299 179.034 203.433C179.707 203.566 180.405 203.498 181.04 203.235C181.674 202.973 182.216 202.528 182.598 201.958C182.979 201.388 183.183 200.717 183.183 200.031C183.191 199.571 183.107 199.114 182.936 198.686C182.765 198.258 182.511 197.869 182.188 197.54C181.865 197.212 181.479 196.951 181.054 196.773C180.629 196.595 180.172 196.503 179.711 196.503V196.564ZM188.998 205.909C188.997 206.401 189.101 206.887 189.303 207.335C189.505 207.784 189.801 208.184 190.169 208.51C190.334 206.776 190.464 204.756 190.525 203.04C190.064 203.351 189.684 203.769 189.418 204.258C189.152 204.747 189.008 205.292 188.998 205.849V205.909ZM188.217 182.086C187.764 182.137 187.325 182.277 186.926 182.498C186.527 182.718 186.176 183.015 185.892 183.371C185.607 183.728 185.396 184.136 185.27 184.574C185.144 185.012 185.106 185.47 185.157 185.922C185.209 186.375 185.349 186.813 185.569 187.211C185.79 187.61 186.087 187.961 186.444 188.245C186.8 188.529 187.21 188.739 187.648 188.865C188.086 188.991 188.545 189.029 188.998 188.978C189.611 188.974 190.211 188.803 190.733 188.484C190.308 187.045 189.475 184.8 188.217 182.008V182.086Z" fill="white"/>
<path opacity="0.1" d="M185.387 220.482C184.986 218.042 184.346 215.646 183.477 213.33C182.696 210.981 181.837 208.666 180.96 206.351C179.225 201.731 177.402 197.119 175.406 192.602C174.911 191.475 174.425 190.322 173.861 189.256C173.225 188.233 172.477 187.285 171.63 186.429C169.964 184.626 168.159 182.962 166.362 181.228C164.566 179.494 162.735 177.856 160.895 176.2L155.375 171.224C159.292 174.269 163.105 177.448 166.814 180.76C168.68 182.398 170.485 184.106 172.212 185.909C173.117 186.805 173.915 187.803 174.59 188.883C175.198 190.001 175.692 191.137 176.196 192.273C178.14 196.838 179.936 201.462 181.585 206.143C182.392 208.493 183.182 210.842 183.877 213.217C184.224 214.414 184.553 215.61 184.831 216.824C185.141 218.021 185.327 219.247 185.387 220.482Z" fill="#050400"/>
<path opacity="0.1" d="M168.958 172.186C173.932 175.433 178.445 179.335 182.375 183.785C184.365 186.012 186.111 188.444 187.583 191.042C189.061 193.628 190.053 196.464 190.508 199.407C190.282 198.697 190.065 197.994 189.865 197.292C189.769 196.936 189.638 196.591 189.475 196.26L189.041 195.255C188.893 194.917 188.772 194.579 188.616 194.249L188.095 193.278C187.73 192.645 187.435 191.978 187.01 191.371L185.821 189.533L184.519 187.756C184.103 187.158 183.651 186.603 183.165 186.022C182.679 185.441 182.254 184.878 181.751 184.34C179.837 182.127 177.809 180.014 175.675 178.012C174.616 176.989 173.523 176.009 172.403 175.038C171.284 174.067 170.103 173.122 168.958 172.186Z" fill="#050400"/>
<path opacity="0.1" d="M75.1033 188.597C75.7221 185.847 76.5937 183.159 77.707 180.569C78.7311 177.968 79.8593 175.368 81.0223 172.827C82.1633 170.248 83.435 167.727 84.8324 165.277C86.3406 162.882 88.1981 160.726 90.3436 158.879C89.3966 159.911 88.5098 160.996 87.6878 162.13C86.8489 163.232 86.0862 164.391 85.4052 165.597C84.7456 166.811 84.1641 168.077 83.574 169.351L81.8382 173.166L78.3666 180.812C77.7764 182.086 77.2209 183.413 76.6308 184.661C76.0392 185.939 75.529 187.254 75.1033 188.597Z" fill="#050400"/>
<path opacity="0.1" d="M75.676 197.24C75.9271 195.229 76.3098 193.237 76.8217 191.275C77.2974 189.304 77.8768 187.36 78.5575 185.45C78.9082 184.485 79.3139 183.542 79.7725 182.624C80.2672 181.757 80.7359 180.846 81.2566 179.971L82.7667 177.37C83.3048 176.503 83.8082 175.636 84.3637 174.769C83.9818 175.706 83.5479 176.625 83.1486 177.552L81.8468 180.283C81.4215 181.202 80.9789 182.095 80.5102 182.996C80.083 183.895 79.7035 184.815 79.3733 185.753C78.6703 187.634 78.0627 189.55 77.4292 191.466C77.1167 192.42 76.813 193.382 76.5179 194.353C76.2402 195.298 75.9624 196.269 75.676 197.24Z" fill="#050400"/>
<path opacity="0.1" d="M154.143 145.84C148.354 150.591 135.049 161.271 131.499 162.008C130.285 162.209 129.058 162.319 127.828 162.338C122.111 158.535 116.111 155.176 109.88 152.29C105.667 154.92 101.712 157.942 98.0678 161.315C93.6263 159.959 89.3204 158.195 85.2056 156.044C88.3474 150.686 91.9665 146.343 95.8547 144.921C103.672 142.102 111.774 140.143 120.017 139.078C120.017 139.078 133.895 136.157 154.143 145.84Z" fill="#050400"/>
<path d="M110.114 144.375C110.114 144.375 91.8014 131.241 72.968 136.711C72.968 136.711 81.1349 154.223 89.9094 157.448C94.2489 159.052 108.864 154.397 109.533 151.38C109.963 149.071 110.158 146.724 110.114 144.375Z" fill="#BE37ED"/>
<path opacity="0.3" d="M90.6645 136.209C90.3358 136.83 89.8258 137.337 89.2022 137.662C88.5786 137.988 87.8708 138.116 87.1725 138.031C86.4741 137.945 85.8183 137.65 85.2919 137.183C84.7655 136.717 84.3933 136.102 84.2247 135.42C86.3889 135.51 88.5425 135.774 90.6645 136.209ZM81.9855 147.479C81.1743 147.477 80.3883 147.759 79.7637 148.276C81.1094 150.177 82.6133 151.96 84.2594 153.608C84.636 153.286 84.9393 152.888 85.1489 152.439C85.3585 151.99 85.4695 151.502 85.4744 151.007C85.4836 150.548 85.4015 150.092 85.2328 149.665C85.0641 149.238 84.8122 148.848 84.4916 148.519C84.1711 148.19 83.7884 147.928 83.3656 147.748C82.9428 147.568 82.4885 147.474 82.0289 147.47L81.9855 147.479ZM101.452 140.725C100.766 140.725 100.095 140.929 99.5237 141.31C98.9528 141.691 98.5079 142.233 98.2451 142.866C97.9823 143.5 97.9136 144.197 98.0475 144.87C98.1815 145.542 98.5121 146.16 98.9976 146.645C99.4832 147.13 100.102 147.46 100.775 147.594C101.449 147.728 102.147 147.659 102.781 147.397C103.415 147.134 103.957 146.69 104.339 146.12C104.72 145.549 104.924 144.879 104.924 144.193C104.926 143.279 104.568 142.402 103.926 141.751C103.284 141.1 102.411 140.728 101.496 140.717L101.452 140.725Z" fill="white"/>
<path opacity="0.1" d="M110.123 144.384C110.15 146.709 109.952 149.032 109.533 151.319C109.514 151.462 109.457 151.597 109.368 151.709C109.296 151.87 109.196 152.017 109.073 152.143C108.977 152.221 108.899 152.325 108.769 152.429C107.424 153.72 104.429 155.073 101.158 156.087C100.458 153.29 100.022 150.434 99.8557 147.557C99.7949 145.311 101.409 142.667 103.18 140.422C105.603 141.542 107.926 142.868 110.123 144.384Z" fill="#050400"/>
<path d="M115.53 144.982C115.53 144.982 138.963 130.669 153.266 131.059C153.266 131.059 152.155 146.837 140.968 155.333C135.96 159.121 115.252 155.801 114.931 152.489C114.78 149.971 114.981 147.444 115.53 144.982Z" fill="#BE37ED"/>
<path opacity="0.3" d="M149.3 143.092C149.3 143.778 149.096 144.448 148.714 145.018C148.333 145.589 147.791 146.033 147.156 146.296C146.522 146.558 145.824 146.627 145.151 146.493C144.477 146.359 143.859 146.029 143.373 145.544C142.888 145.059 142.557 144.441 142.423 143.768C142.289 143.096 142.358 142.399 142.621 141.765C142.883 141.131 143.328 140.59 143.899 140.209C144.47 139.828 145.141 139.624 145.828 139.624C146.749 139.624 147.632 139.99 148.283 140.64C148.934 141.29 149.3 142.172 149.3 143.092ZM121.839 143.092C121.153 143.092 120.481 143.295 119.911 143.676C119.34 144.057 118.895 144.599 118.632 145.233C118.369 145.866 118.3 146.563 118.434 147.236C118.568 147.909 118.899 148.527 119.384 149.012C119.87 149.497 120.489 149.827 121.162 149.961C121.835 150.095 122.533 150.026 123.168 149.763C123.802 149.501 124.344 149.056 124.726 148.486C125.107 147.916 125.311 147.245 125.311 146.56C125.311 145.64 124.945 144.758 124.294 144.108C123.643 143.457 122.76 143.092 121.839 143.092ZM136.081 156.495C135.488 156.492 134.905 156.644 134.389 156.937C135.305 156.895 136.218 156.8 137.123 156.651C136.786 156.546 136.435 156.493 136.081 156.495Z" fill="white"/>
<path opacity="0.1" d="M120.937 141.913C122.369 144.045 124.009 147.262 123.957 150.374C123.828 152.291 123.293 154.159 122.386 155.853C118.229 154.986 115.061 153.72 114.905 152.385C114.772 149.883 114.982 147.375 115.53 144.93C115.53 144.93 117.613 143.69 120.937 141.913Z" fill="#050400"/>
<path d="M120.52 149.551C120.374 151.305 119.709 152.977 118.612 154.354C117.514 155.732 116.033 156.753 114.354 157.289C112.675 157.826 110.875 157.853 109.181 157.368C107.487 156.883 105.974 155.906 104.835 154.563C103.697 153.219 102.982 151.568 102.782 149.819C102.582 148.07 102.906 146.301 103.712 144.736C104.519 143.17 105.772 141.879 107.313 141.025C108.854 140.17 110.614 139.792 112.371 139.936C114.727 140.133 116.909 141.256 118.438 143.059C119.966 144.861 120.715 147.196 120.52 149.551Z" fill="#BE37ED"/>
</svg>
