<svg width="43" height="43" viewBox="0 0 43 43" fill="none" xmlns="http://www.w3.org/2000/svg">
<g opacity="0.4">
<path d="M19.2606 30.2075V33.8447C19.2606 36.9263 16.394 39.4167 12.8644 39.4167C9.33479 39.4167 6.45018 36.9263 6.45018 33.8447V30.2075C6.45018 33.2892 9.31688 35.475 12.8644 35.475C16.394 35.475 19.2606 33.2713 19.2606 30.2075Z" stroke="#4E1A3D" stroke-width="1.5" stroke-linecap="round" stroke-linejoin="round"/>
<path d="M19.2601 25.2807C19.2601 26.1765 19.0093 27.0007 18.5793 27.7173C17.5222 29.4552 15.3542 30.5482 12.8459 30.5482C10.3376 30.5482 8.16962 29.4373 7.11254 27.7173C6.68254 27.0007 6.43181 26.1765 6.43181 25.2807C6.43181 23.7399 7.14844 22.3603 8.2951 21.3569C9.45969 20.3357 11.0542 19.7266 12.828 19.7266C14.6017 19.7266 16.1963 20.3536 17.3609 21.3569C18.5434 22.3423 19.2601 23.7399 19.2601 25.2807Z" stroke="#4E1A3D" stroke-width="1.5" stroke-linecap="round" stroke-linejoin="round"/>
<path d="M19.2606 25.2806V30.2076C19.2606 33.2893 16.394 35.4751 12.8644 35.4751C9.33479 35.4751 6.45018 33.2714 6.45018 30.2076V25.2806C6.45018 22.1989 9.31688 19.7085 12.8644 19.7085C14.6381 19.7085 16.2328 20.3355 17.3973 21.3389C18.544 22.3422 19.2606 23.7397 19.2606 25.2806Z" stroke="#4E1A3D" stroke-width="1.5" stroke-linecap="round" stroke-linejoin="round"/>
</g>
<path d="M39.4167 19.6546V23.3455C39.4167 24.3309 38.6284 25.1371 37.6251 25.1729H34.1134C32.1784 25.1729 30.4046 23.7575 30.2434 21.8225C30.1359 20.6938 30.5659 19.6367 31.3184 18.9021C31.9813 18.2213 32.895 17.8271 33.8984 17.8271H37.6251C38.6284 17.863 39.4167 18.6692 39.4167 19.6546Z" stroke="#4E1A3D" stroke-width="1.5" stroke-linecap="round" stroke-linejoin="round"/>
<path d="M3.58333 18.8127V15.2293C3.58333 10.356 6.52167 6.95183 11.0904 6.37849C11.5562 6.30683 12.04 6.271 12.5417 6.271H28.6667C29.1325 6.271 29.5804 6.28889 30.0104 6.36056C34.6329 6.89806 37.625 10.3202 37.625 15.2293V17.8273H33.8983C32.895 17.8273 31.9812 18.2214 31.3183 18.9022C30.5658 19.6368 30.1358 20.6939 30.2433 21.8227C30.4046 23.7577 32.1783 25.1731 34.1133 25.1731H37.625V27.771C37.625 33.146 34.0417 36.7293 28.6667 36.7293H24.1875" stroke="#4E1A3D" stroke-width="1.5" stroke-linecap="round" stroke-linejoin="round"/>
</svg>
